M48
;DRILL file {KiCad (5.0.1-3-g963ef8bb5)} date Saturday, June 08, 2019 at 10:51:32 pm
;FORMAT={-:-/ absolute / inch / decimal}
FMAT,2
INCH,TZ
T1C0.0157
T2C0.0197
T3C0.0217
T4C0.0335
T5C0.0354
T6C0.0394
%
G90
G05
M72
T1
X3.12Y-2.44
X3.125Y-3.35
X3.2Y-2.875
X3.3625Y-3.0675
X3.3975Y-3.0425
X3.425Y-3.55
X3.455Y-3.0675
X3.4813Y-3.375
X3.58Y-3.96
X3.7031Y-2.86
X3.7031Y-2.8
X3.82Y-3.37
X3.825Y-3.025
X3.87Y-3.94
X3.875Y-3.1317
X4.09Y-3.14
T2
X4.27Y-3.1981
X4.27Y-3.265
T5
X3.155Y-3.9
X3.155Y-4.
X3.155Y-3.685
X3.155Y-3.785
T6
X3.59Y-2.45
X3.59Y-2.55
X3.4475Y-3.6525
X3.4475Y-3.7525
X3.5475Y-3.6525
X3.5475Y-3.7525
X3.6475Y-3.6525
X3.6475Y-3.7525
X4.08Y-2.765
X4.08Y-2.865
X2.98Y-3.05
X2.98Y-3.15
X2.92Y-2.86
X3.02Y-2.86
T3
X2.116Y-3.0874G85X2.0904Y-3.0874
G05
X2.116Y-3.3926G85X2.0904Y-3.3926
G05
T4
X2.2637Y-3.0933G85X2.242Y-3.0933
G05
X2.2637Y-3.3867G85X2.242Y-3.3867
G05
T0
M30
