G04 #@! TF.GenerationSoftware,KiCad,Pcbnew,(5.1.4-0-10_14)*
G04 #@! TF.CreationDate,2019-09-02T22:38:08-04:00*
G04 #@! TF.ProjectId,EFCv2,45464376-322e-46b6-9963-61645f706362,rev?*
G04 #@! TF.SameCoordinates,Original*
G04 #@! TF.FileFunction,Paste,Bot*
G04 #@! TF.FilePolarity,Positive*
%FSLAX46Y46*%
G04 Gerber Fmt 4.6, Leading zero omitted, Abs format (unit mm)*
G04 Created by KiCad (PCBNEW (5.1.4-0-10_14)) date 2019-09-02 22:38:08*
%MOMM*%
%LPD*%
G04 APERTURE LIST*
%ADD10C,0.100000*%
%ADD11C,0.200000*%
%ADD12C,2.600000*%
%ADD13C,5.560000*%
G04 APERTURE END LIST*
D10*
G36*
X138007401Y-76338241D02*
G01*
X138012255Y-76338961D01*
X138017014Y-76340153D01*
X138021634Y-76341806D01*
X138026070Y-76343904D01*
X138030279Y-76346427D01*
X138034220Y-76349349D01*
X138037855Y-76352645D01*
X138041151Y-76356280D01*
X138044073Y-76360221D01*
X138046596Y-76364430D01*
X138048694Y-76368866D01*
X138050347Y-76373486D01*
X138051539Y-76378245D01*
X138052259Y-76383099D01*
X138052500Y-76388000D01*
X138052500Y-76613000D01*
X138052259Y-76617901D01*
X138051539Y-76622755D01*
X138050347Y-76627514D01*
X138048694Y-76632134D01*
X138046596Y-76636570D01*
X138044073Y-76640779D01*
X138041151Y-76644720D01*
X138037855Y-76648355D01*
X138034220Y-76651651D01*
X138030279Y-76654573D01*
X138026070Y-76657096D01*
X138021634Y-76659194D01*
X138017014Y-76660847D01*
X138012255Y-76662039D01*
X138007401Y-76662759D01*
X138002500Y-76663000D01*
X137902500Y-76663000D01*
X137897599Y-76662759D01*
X137892745Y-76662039D01*
X137887986Y-76660847D01*
X137883366Y-76659194D01*
X137878930Y-76657096D01*
X137874721Y-76654573D01*
X137870780Y-76651651D01*
X137867145Y-76648355D01*
X137863849Y-76644720D01*
X137860927Y-76640779D01*
X137858404Y-76636570D01*
X137856306Y-76632134D01*
X137854653Y-76627514D01*
X137853461Y-76622755D01*
X137852741Y-76617901D01*
X137852500Y-76613000D01*
X137852500Y-76388000D01*
X137852741Y-76383099D01*
X137853461Y-76378245D01*
X137854653Y-76373486D01*
X137856306Y-76368866D01*
X137858404Y-76364430D01*
X137860927Y-76360221D01*
X137863849Y-76356280D01*
X137867145Y-76352645D01*
X137870780Y-76349349D01*
X137874721Y-76346427D01*
X137878930Y-76343904D01*
X137883366Y-76341806D01*
X137887986Y-76340153D01*
X137892745Y-76338961D01*
X137897599Y-76338241D01*
X137902500Y-76338000D01*
X138002500Y-76338000D01*
X138007401Y-76338241D01*
X138007401Y-76338241D01*
G37*
D11*
X137952500Y-76500500D03*
D10*
G36*
X138357401Y-76338241D02*
G01*
X138362255Y-76338961D01*
X138367014Y-76340153D01*
X138371634Y-76341806D01*
X138376070Y-76343904D01*
X138380279Y-76346427D01*
X138384220Y-76349349D01*
X138387855Y-76352645D01*
X138391151Y-76356280D01*
X138394073Y-76360221D01*
X138396596Y-76364430D01*
X138398694Y-76368866D01*
X138400347Y-76373486D01*
X138401539Y-76378245D01*
X138402259Y-76383099D01*
X138402500Y-76388000D01*
X138402500Y-76613000D01*
X138402259Y-76617901D01*
X138401539Y-76622755D01*
X138400347Y-76627514D01*
X138398694Y-76632134D01*
X138396596Y-76636570D01*
X138394073Y-76640779D01*
X138391151Y-76644720D01*
X138387855Y-76648355D01*
X138384220Y-76651651D01*
X138380279Y-76654573D01*
X138376070Y-76657096D01*
X138371634Y-76659194D01*
X138367014Y-76660847D01*
X138362255Y-76662039D01*
X138357401Y-76662759D01*
X138352500Y-76663000D01*
X138252500Y-76663000D01*
X138247599Y-76662759D01*
X138242745Y-76662039D01*
X138237986Y-76660847D01*
X138233366Y-76659194D01*
X138228930Y-76657096D01*
X138224721Y-76654573D01*
X138220780Y-76651651D01*
X138217145Y-76648355D01*
X138213849Y-76644720D01*
X138210927Y-76640779D01*
X138208404Y-76636570D01*
X138206306Y-76632134D01*
X138204653Y-76627514D01*
X138203461Y-76622755D01*
X138202741Y-76617901D01*
X138202500Y-76613000D01*
X138202500Y-76388000D01*
X138202741Y-76383099D01*
X138203461Y-76378245D01*
X138204653Y-76373486D01*
X138206306Y-76368866D01*
X138208404Y-76364430D01*
X138210927Y-76360221D01*
X138213849Y-76356280D01*
X138217145Y-76352645D01*
X138220780Y-76349349D01*
X138224721Y-76346427D01*
X138228930Y-76343904D01*
X138233366Y-76341806D01*
X138237986Y-76340153D01*
X138242745Y-76338961D01*
X138247599Y-76338241D01*
X138252500Y-76338000D01*
X138352500Y-76338000D01*
X138357401Y-76338241D01*
X138357401Y-76338241D01*
G37*
D11*
X138302500Y-76500500D03*
D10*
G36*
X138707401Y-76338241D02*
G01*
X138712255Y-76338961D01*
X138717014Y-76340153D01*
X138721634Y-76341806D01*
X138726070Y-76343904D01*
X138730279Y-76346427D01*
X138734220Y-76349349D01*
X138737855Y-76352645D01*
X138741151Y-76356280D01*
X138744073Y-76360221D01*
X138746596Y-76364430D01*
X138748694Y-76368866D01*
X138750347Y-76373486D01*
X138751539Y-76378245D01*
X138752259Y-76383099D01*
X138752500Y-76388000D01*
X138752500Y-76613000D01*
X138752259Y-76617901D01*
X138751539Y-76622755D01*
X138750347Y-76627514D01*
X138748694Y-76632134D01*
X138746596Y-76636570D01*
X138744073Y-76640779D01*
X138741151Y-76644720D01*
X138737855Y-76648355D01*
X138734220Y-76651651D01*
X138730279Y-76654573D01*
X138726070Y-76657096D01*
X138721634Y-76659194D01*
X138717014Y-76660847D01*
X138712255Y-76662039D01*
X138707401Y-76662759D01*
X138702500Y-76663000D01*
X138602500Y-76663000D01*
X138597599Y-76662759D01*
X138592745Y-76662039D01*
X138587986Y-76660847D01*
X138583366Y-76659194D01*
X138578930Y-76657096D01*
X138574721Y-76654573D01*
X138570780Y-76651651D01*
X138567145Y-76648355D01*
X138563849Y-76644720D01*
X138560927Y-76640779D01*
X138558404Y-76636570D01*
X138556306Y-76632134D01*
X138554653Y-76627514D01*
X138553461Y-76622755D01*
X138552741Y-76617901D01*
X138552500Y-76613000D01*
X138552500Y-76388000D01*
X138552741Y-76383099D01*
X138553461Y-76378245D01*
X138554653Y-76373486D01*
X138556306Y-76368866D01*
X138558404Y-76364430D01*
X138560927Y-76360221D01*
X138563849Y-76356280D01*
X138567145Y-76352645D01*
X138570780Y-76349349D01*
X138574721Y-76346427D01*
X138578930Y-76343904D01*
X138583366Y-76341806D01*
X138587986Y-76340153D01*
X138592745Y-76338961D01*
X138597599Y-76338241D01*
X138602500Y-76338000D01*
X138702500Y-76338000D01*
X138707401Y-76338241D01*
X138707401Y-76338241D01*
G37*
D11*
X138652500Y-76500500D03*
D10*
G36*
X139182401Y-76163241D02*
G01*
X139187255Y-76163961D01*
X139192014Y-76165153D01*
X139196634Y-76166806D01*
X139201070Y-76168904D01*
X139205279Y-76171427D01*
X139209220Y-76174349D01*
X139212855Y-76177645D01*
X139216151Y-76181280D01*
X139219073Y-76185221D01*
X139221596Y-76189430D01*
X139223694Y-76193866D01*
X139225347Y-76198486D01*
X139226539Y-76203245D01*
X139227259Y-76208099D01*
X139227500Y-76213000D01*
X139227500Y-76313000D01*
X139227259Y-76317901D01*
X139226539Y-76322755D01*
X139225347Y-76327514D01*
X139223694Y-76332134D01*
X139221596Y-76336570D01*
X139219073Y-76340779D01*
X139216151Y-76344720D01*
X139212855Y-76348355D01*
X139209220Y-76351651D01*
X139205279Y-76354573D01*
X139201070Y-76357096D01*
X139196634Y-76359194D01*
X139192014Y-76360847D01*
X139187255Y-76362039D01*
X139182401Y-76362759D01*
X139177500Y-76363000D01*
X138952500Y-76363000D01*
X138947599Y-76362759D01*
X138942745Y-76362039D01*
X138937986Y-76360847D01*
X138933366Y-76359194D01*
X138928930Y-76357096D01*
X138924721Y-76354573D01*
X138920780Y-76351651D01*
X138917145Y-76348355D01*
X138913849Y-76344720D01*
X138910927Y-76340779D01*
X138908404Y-76336570D01*
X138906306Y-76332134D01*
X138904653Y-76327514D01*
X138903461Y-76322755D01*
X138902741Y-76317901D01*
X138902500Y-76313000D01*
X138902500Y-76213000D01*
X138902741Y-76208099D01*
X138903461Y-76203245D01*
X138904653Y-76198486D01*
X138906306Y-76193866D01*
X138908404Y-76189430D01*
X138910927Y-76185221D01*
X138913849Y-76181280D01*
X138917145Y-76177645D01*
X138920780Y-76174349D01*
X138924721Y-76171427D01*
X138928930Y-76168904D01*
X138933366Y-76166806D01*
X138937986Y-76165153D01*
X138942745Y-76163961D01*
X138947599Y-76163241D01*
X138952500Y-76163000D01*
X139177500Y-76163000D01*
X139182401Y-76163241D01*
X139182401Y-76163241D01*
G37*
D11*
X139065000Y-76263000D03*
D10*
G36*
X139182401Y-75813241D02*
G01*
X139187255Y-75813961D01*
X139192014Y-75815153D01*
X139196634Y-75816806D01*
X139201070Y-75818904D01*
X139205279Y-75821427D01*
X139209220Y-75824349D01*
X139212855Y-75827645D01*
X139216151Y-75831280D01*
X139219073Y-75835221D01*
X139221596Y-75839430D01*
X139223694Y-75843866D01*
X139225347Y-75848486D01*
X139226539Y-75853245D01*
X139227259Y-75858099D01*
X139227500Y-75863000D01*
X139227500Y-75963000D01*
X139227259Y-75967901D01*
X139226539Y-75972755D01*
X139225347Y-75977514D01*
X139223694Y-75982134D01*
X139221596Y-75986570D01*
X139219073Y-75990779D01*
X139216151Y-75994720D01*
X139212855Y-75998355D01*
X139209220Y-76001651D01*
X139205279Y-76004573D01*
X139201070Y-76007096D01*
X139196634Y-76009194D01*
X139192014Y-76010847D01*
X139187255Y-76012039D01*
X139182401Y-76012759D01*
X139177500Y-76013000D01*
X138952500Y-76013000D01*
X138947599Y-76012759D01*
X138942745Y-76012039D01*
X138937986Y-76010847D01*
X138933366Y-76009194D01*
X138928930Y-76007096D01*
X138924721Y-76004573D01*
X138920780Y-76001651D01*
X138917145Y-75998355D01*
X138913849Y-75994720D01*
X138910927Y-75990779D01*
X138908404Y-75986570D01*
X138906306Y-75982134D01*
X138904653Y-75977514D01*
X138903461Y-75972755D01*
X138902741Y-75967901D01*
X138902500Y-75963000D01*
X138902500Y-75863000D01*
X138902741Y-75858099D01*
X138903461Y-75853245D01*
X138904653Y-75848486D01*
X138906306Y-75843866D01*
X138908404Y-75839430D01*
X138910927Y-75835221D01*
X138913849Y-75831280D01*
X138917145Y-75827645D01*
X138920780Y-75824349D01*
X138924721Y-75821427D01*
X138928930Y-75818904D01*
X138933366Y-75816806D01*
X138937986Y-75815153D01*
X138942745Y-75813961D01*
X138947599Y-75813241D01*
X138952500Y-75813000D01*
X139177500Y-75813000D01*
X139182401Y-75813241D01*
X139182401Y-75813241D01*
G37*
D11*
X139065000Y-75913000D03*
D10*
G36*
X139182401Y-75463241D02*
G01*
X139187255Y-75463961D01*
X139192014Y-75465153D01*
X139196634Y-75466806D01*
X139201070Y-75468904D01*
X139205279Y-75471427D01*
X139209220Y-75474349D01*
X139212855Y-75477645D01*
X139216151Y-75481280D01*
X139219073Y-75485221D01*
X139221596Y-75489430D01*
X139223694Y-75493866D01*
X139225347Y-75498486D01*
X139226539Y-75503245D01*
X139227259Y-75508099D01*
X139227500Y-75513000D01*
X139227500Y-75613000D01*
X139227259Y-75617901D01*
X139226539Y-75622755D01*
X139225347Y-75627514D01*
X139223694Y-75632134D01*
X139221596Y-75636570D01*
X139219073Y-75640779D01*
X139216151Y-75644720D01*
X139212855Y-75648355D01*
X139209220Y-75651651D01*
X139205279Y-75654573D01*
X139201070Y-75657096D01*
X139196634Y-75659194D01*
X139192014Y-75660847D01*
X139187255Y-75662039D01*
X139182401Y-75662759D01*
X139177500Y-75663000D01*
X138952500Y-75663000D01*
X138947599Y-75662759D01*
X138942745Y-75662039D01*
X138937986Y-75660847D01*
X138933366Y-75659194D01*
X138928930Y-75657096D01*
X138924721Y-75654573D01*
X138920780Y-75651651D01*
X138917145Y-75648355D01*
X138913849Y-75644720D01*
X138910927Y-75640779D01*
X138908404Y-75636570D01*
X138906306Y-75632134D01*
X138904653Y-75627514D01*
X138903461Y-75622755D01*
X138902741Y-75617901D01*
X138902500Y-75613000D01*
X138902500Y-75513000D01*
X138902741Y-75508099D01*
X138903461Y-75503245D01*
X138904653Y-75498486D01*
X138906306Y-75493866D01*
X138908404Y-75489430D01*
X138910927Y-75485221D01*
X138913849Y-75481280D01*
X138917145Y-75477645D01*
X138920780Y-75474349D01*
X138924721Y-75471427D01*
X138928930Y-75468904D01*
X138933366Y-75466806D01*
X138937986Y-75465153D01*
X138942745Y-75463961D01*
X138947599Y-75463241D01*
X138952500Y-75463000D01*
X139177500Y-75463000D01*
X139182401Y-75463241D01*
X139182401Y-75463241D01*
G37*
D11*
X139065000Y-75563000D03*
D10*
G36*
X139182401Y-75113241D02*
G01*
X139187255Y-75113961D01*
X139192014Y-75115153D01*
X139196634Y-75116806D01*
X139201070Y-75118904D01*
X139205279Y-75121427D01*
X139209220Y-75124349D01*
X139212855Y-75127645D01*
X139216151Y-75131280D01*
X139219073Y-75135221D01*
X139221596Y-75139430D01*
X139223694Y-75143866D01*
X139225347Y-75148486D01*
X139226539Y-75153245D01*
X139227259Y-75158099D01*
X139227500Y-75163000D01*
X139227500Y-75263000D01*
X139227259Y-75267901D01*
X139226539Y-75272755D01*
X139225347Y-75277514D01*
X139223694Y-75282134D01*
X139221596Y-75286570D01*
X139219073Y-75290779D01*
X139216151Y-75294720D01*
X139212855Y-75298355D01*
X139209220Y-75301651D01*
X139205279Y-75304573D01*
X139201070Y-75307096D01*
X139196634Y-75309194D01*
X139192014Y-75310847D01*
X139187255Y-75312039D01*
X139182401Y-75312759D01*
X139177500Y-75313000D01*
X138952500Y-75313000D01*
X138947599Y-75312759D01*
X138942745Y-75312039D01*
X138937986Y-75310847D01*
X138933366Y-75309194D01*
X138928930Y-75307096D01*
X138924721Y-75304573D01*
X138920780Y-75301651D01*
X138917145Y-75298355D01*
X138913849Y-75294720D01*
X138910927Y-75290779D01*
X138908404Y-75286570D01*
X138906306Y-75282134D01*
X138904653Y-75277514D01*
X138903461Y-75272755D01*
X138902741Y-75267901D01*
X138902500Y-75263000D01*
X138902500Y-75163000D01*
X138902741Y-75158099D01*
X138903461Y-75153245D01*
X138904653Y-75148486D01*
X138906306Y-75143866D01*
X138908404Y-75139430D01*
X138910927Y-75135221D01*
X138913849Y-75131280D01*
X138917145Y-75127645D01*
X138920780Y-75124349D01*
X138924721Y-75121427D01*
X138928930Y-75118904D01*
X138933366Y-75116806D01*
X138937986Y-75115153D01*
X138942745Y-75113961D01*
X138947599Y-75113241D01*
X138952500Y-75113000D01*
X139177500Y-75113000D01*
X139182401Y-75113241D01*
X139182401Y-75113241D01*
G37*
D11*
X139065000Y-75213000D03*
D10*
G36*
X138707401Y-74813241D02*
G01*
X138712255Y-74813961D01*
X138717014Y-74815153D01*
X138721634Y-74816806D01*
X138726070Y-74818904D01*
X138730279Y-74821427D01*
X138734220Y-74824349D01*
X138737855Y-74827645D01*
X138741151Y-74831280D01*
X138744073Y-74835221D01*
X138746596Y-74839430D01*
X138748694Y-74843866D01*
X138750347Y-74848486D01*
X138751539Y-74853245D01*
X138752259Y-74858099D01*
X138752500Y-74863000D01*
X138752500Y-75088000D01*
X138752259Y-75092901D01*
X138751539Y-75097755D01*
X138750347Y-75102514D01*
X138748694Y-75107134D01*
X138746596Y-75111570D01*
X138744073Y-75115779D01*
X138741151Y-75119720D01*
X138737855Y-75123355D01*
X138734220Y-75126651D01*
X138730279Y-75129573D01*
X138726070Y-75132096D01*
X138721634Y-75134194D01*
X138717014Y-75135847D01*
X138712255Y-75137039D01*
X138707401Y-75137759D01*
X138702500Y-75138000D01*
X138602500Y-75138000D01*
X138597599Y-75137759D01*
X138592745Y-75137039D01*
X138587986Y-75135847D01*
X138583366Y-75134194D01*
X138578930Y-75132096D01*
X138574721Y-75129573D01*
X138570780Y-75126651D01*
X138567145Y-75123355D01*
X138563849Y-75119720D01*
X138560927Y-75115779D01*
X138558404Y-75111570D01*
X138556306Y-75107134D01*
X138554653Y-75102514D01*
X138553461Y-75097755D01*
X138552741Y-75092901D01*
X138552500Y-75088000D01*
X138552500Y-74863000D01*
X138552741Y-74858099D01*
X138553461Y-74853245D01*
X138554653Y-74848486D01*
X138556306Y-74843866D01*
X138558404Y-74839430D01*
X138560927Y-74835221D01*
X138563849Y-74831280D01*
X138567145Y-74827645D01*
X138570780Y-74824349D01*
X138574721Y-74821427D01*
X138578930Y-74818904D01*
X138583366Y-74816806D01*
X138587986Y-74815153D01*
X138592745Y-74813961D01*
X138597599Y-74813241D01*
X138602500Y-74813000D01*
X138702500Y-74813000D01*
X138707401Y-74813241D01*
X138707401Y-74813241D01*
G37*
D11*
X138652500Y-74975500D03*
D10*
G36*
X138357401Y-74813241D02*
G01*
X138362255Y-74813961D01*
X138367014Y-74815153D01*
X138371634Y-74816806D01*
X138376070Y-74818904D01*
X138380279Y-74821427D01*
X138384220Y-74824349D01*
X138387855Y-74827645D01*
X138391151Y-74831280D01*
X138394073Y-74835221D01*
X138396596Y-74839430D01*
X138398694Y-74843866D01*
X138400347Y-74848486D01*
X138401539Y-74853245D01*
X138402259Y-74858099D01*
X138402500Y-74863000D01*
X138402500Y-75088000D01*
X138402259Y-75092901D01*
X138401539Y-75097755D01*
X138400347Y-75102514D01*
X138398694Y-75107134D01*
X138396596Y-75111570D01*
X138394073Y-75115779D01*
X138391151Y-75119720D01*
X138387855Y-75123355D01*
X138384220Y-75126651D01*
X138380279Y-75129573D01*
X138376070Y-75132096D01*
X138371634Y-75134194D01*
X138367014Y-75135847D01*
X138362255Y-75137039D01*
X138357401Y-75137759D01*
X138352500Y-75138000D01*
X138252500Y-75138000D01*
X138247599Y-75137759D01*
X138242745Y-75137039D01*
X138237986Y-75135847D01*
X138233366Y-75134194D01*
X138228930Y-75132096D01*
X138224721Y-75129573D01*
X138220780Y-75126651D01*
X138217145Y-75123355D01*
X138213849Y-75119720D01*
X138210927Y-75115779D01*
X138208404Y-75111570D01*
X138206306Y-75107134D01*
X138204653Y-75102514D01*
X138203461Y-75097755D01*
X138202741Y-75092901D01*
X138202500Y-75088000D01*
X138202500Y-74863000D01*
X138202741Y-74858099D01*
X138203461Y-74853245D01*
X138204653Y-74848486D01*
X138206306Y-74843866D01*
X138208404Y-74839430D01*
X138210927Y-74835221D01*
X138213849Y-74831280D01*
X138217145Y-74827645D01*
X138220780Y-74824349D01*
X138224721Y-74821427D01*
X138228930Y-74818904D01*
X138233366Y-74816806D01*
X138237986Y-74815153D01*
X138242745Y-74813961D01*
X138247599Y-74813241D01*
X138252500Y-74813000D01*
X138352500Y-74813000D01*
X138357401Y-74813241D01*
X138357401Y-74813241D01*
G37*
D11*
X138302500Y-74975500D03*
D10*
G36*
X138007401Y-74813241D02*
G01*
X138012255Y-74813961D01*
X138017014Y-74815153D01*
X138021634Y-74816806D01*
X138026070Y-74818904D01*
X138030279Y-74821427D01*
X138034220Y-74824349D01*
X138037855Y-74827645D01*
X138041151Y-74831280D01*
X138044073Y-74835221D01*
X138046596Y-74839430D01*
X138048694Y-74843866D01*
X138050347Y-74848486D01*
X138051539Y-74853245D01*
X138052259Y-74858099D01*
X138052500Y-74863000D01*
X138052500Y-75088000D01*
X138052259Y-75092901D01*
X138051539Y-75097755D01*
X138050347Y-75102514D01*
X138048694Y-75107134D01*
X138046596Y-75111570D01*
X138044073Y-75115779D01*
X138041151Y-75119720D01*
X138037855Y-75123355D01*
X138034220Y-75126651D01*
X138030279Y-75129573D01*
X138026070Y-75132096D01*
X138021634Y-75134194D01*
X138017014Y-75135847D01*
X138012255Y-75137039D01*
X138007401Y-75137759D01*
X138002500Y-75138000D01*
X137902500Y-75138000D01*
X137897599Y-75137759D01*
X137892745Y-75137039D01*
X137887986Y-75135847D01*
X137883366Y-75134194D01*
X137878930Y-75132096D01*
X137874721Y-75129573D01*
X137870780Y-75126651D01*
X137867145Y-75123355D01*
X137863849Y-75119720D01*
X137860927Y-75115779D01*
X137858404Y-75111570D01*
X137856306Y-75107134D01*
X137854653Y-75102514D01*
X137853461Y-75097755D01*
X137852741Y-75092901D01*
X137852500Y-75088000D01*
X137852500Y-74863000D01*
X137852741Y-74858099D01*
X137853461Y-74853245D01*
X137854653Y-74848486D01*
X137856306Y-74843866D01*
X137858404Y-74839430D01*
X137860927Y-74835221D01*
X137863849Y-74831280D01*
X137867145Y-74827645D01*
X137870780Y-74824349D01*
X137874721Y-74821427D01*
X137878930Y-74818904D01*
X137883366Y-74816806D01*
X137887986Y-74815153D01*
X137892745Y-74813961D01*
X137897599Y-74813241D01*
X137902500Y-74813000D01*
X138002500Y-74813000D01*
X138007401Y-74813241D01*
X138007401Y-74813241D01*
G37*
D11*
X137952500Y-74975500D03*
D10*
G36*
X137657401Y-75113241D02*
G01*
X137662255Y-75113961D01*
X137667014Y-75115153D01*
X137671634Y-75116806D01*
X137676070Y-75118904D01*
X137680279Y-75121427D01*
X137684220Y-75124349D01*
X137687855Y-75127645D01*
X137691151Y-75131280D01*
X137694073Y-75135221D01*
X137696596Y-75139430D01*
X137698694Y-75143866D01*
X137700347Y-75148486D01*
X137701539Y-75153245D01*
X137702259Y-75158099D01*
X137702500Y-75163000D01*
X137702500Y-75263000D01*
X137702259Y-75267901D01*
X137701539Y-75272755D01*
X137700347Y-75277514D01*
X137698694Y-75282134D01*
X137696596Y-75286570D01*
X137694073Y-75290779D01*
X137691151Y-75294720D01*
X137687855Y-75298355D01*
X137684220Y-75301651D01*
X137680279Y-75304573D01*
X137676070Y-75307096D01*
X137671634Y-75309194D01*
X137667014Y-75310847D01*
X137662255Y-75312039D01*
X137657401Y-75312759D01*
X137652500Y-75313000D01*
X137427500Y-75313000D01*
X137422599Y-75312759D01*
X137417745Y-75312039D01*
X137412986Y-75310847D01*
X137408366Y-75309194D01*
X137403930Y-75307096D01*
X137399721Y-75304573D01*
X137395780Y-75301651D01*
X137392145Y-75298355D01*
X137388849Y-75294720D01*
X137385927Y-75290779D01*
X137383404Y-75286570D01*
X137381306Y-75282134D01*
X137379653Y-75277514D01*
X137378461Y-75272755D01*
X137377741Y-75267901D01*
X137377500Y-75263000D01*
X137377500Y-75163000D01*
X137377741Y-75158099D01*
X137378461Y-75153245D01*
X137379653Y-75148486D01*
X137381306Y-75143866D01*
X137383404Y-75139430D01*
X137385927Y-75135221D01*
X137388849Y-75131280D01*
X137392145Y-75127645D01*
X137395780Y-75124349D01*
X137399721Y-75121427D01*
X137403930Y-75118904D01*
X137408366Y-75116806D01*
X137412986Y-75115153D01*
X137417745Y-75113961D01*
X137422599Y-75113241D01*
X137427500Y-75113000D01*
X137652500Y-75113000D01*
X137657401Y-75113241D01*
X137657401Y-75113241D01*
G37*
D11*
X137540000Y-75213000D03*
D10*
G36*
X137657401Y-75463241D02*
G01*
X137662255Y-75463961D01*
X137667014Y-75465153D01*
X137671634Y-75466806D01*
X137676070Y-75468904D01*
X137680279Y-75471427D01*
X137684220Y-75474349D01*
X137687855Y-75477645D01*
X137691151Y-75481280D01*
X137694073Y-75485221D01*
X137696596Y-75489430D01*
X137698694Y-75493866D01*
X137700347Y-75498486D01*
X137701539Y-75503245D01*
X137702259Y-75508099D01*
X137702500Y-75513000D01*
X137702500Y-75613000D01*
X137702259Y-75617901D01*
X137701539Y-75622755D01*
X137700347Y-75627514D01*
X137698694Y-75632134D01*
X137696596Y-75636570D01*
X137694073Y-75640779D01*
X137691151Y-75644720D01*
X137687855Y-75648355D01*
X137684220Y-75651651D01*
X137680279Y-75654573D01*
X137676070Y-75657096D01*
X137671634Y-75659194D01*
X137667014Y-75660847D01*
X137662255Y-75662039D01*
X137657401Y-75662759D01*
X137652500Y-75663000D01*
X137427500Y-75663000D01*
X137422599Y-75662759D01*
X137417745Y-75662039D01*
X137412986Y-75660847D01*
X137408366Y-75659194D01*
X137403930Y-75657096D01*
X137399721Y-75654573D01*
X137395780Y-75651651D01*
X137392145Y-75648355D01*
X137388849Y-75644720D01*
X137385927Y-75640779D01*
X137383404Y-75636570D01*
X137381306Y-75632134D01*
X137379653Y-75627514D01*
X137378461Y-75622755D01*
X137377741Y-75617901D01*
X137377500Y-75613000D01*
X137377500Y-75513000D01*
X137377741Y-75508099D01*
X137378461Y-75503245D01*
X137379653Y-75498486D01*
X137381306Y-75493866D01*
X137383404Y-75489430D01*
X137385927Y-75485221D01*
X137388849Y-75481280D01*
X137392145Y-75477645D01*
X137395780Y-75474349D01*
X137399721Y-75471427D01*
X137403930Y-75468904D01*
X137408366Y-75466806D01*
X137412986Y-75465153D01*
X137417745Y-75463961D01*
X137422599Y-75463241D01*
X137427500Y-75463000D01*
X137652500Y-75463000D01*
X137657401Y-75463241D01*
X137657401Y-75463241D01*
G37*
D11*
X137540000Y-75563000D03*
D10*
G36*
X137657401Y-75813241D02*
G01*
X137662255Y-75813961D01*
X137667014Y-75815153D01*
X137671634Y-75816806D01*
X137676070Y-75818904D01*
X137680279Y-75821427D01*
X137684220Y-75824349D01*
X137687855Y-75827645D01*
X137691151Y-75831280D01*
X137694073Y-75835221D01*
X137696596Y-75839430D01*
X137698694Y-75843866D01*
X137700347Y-75848486D01*
X137701539Y-75853245D01*
X137702259Y-75858099D01*
X137702500Y-75863000D01*
X137702500Y-75963000D01*
X137702259Y-75967901D01*
X137701539Y-75972755D01*
X137700347Y-75977514D01*
X137698694Y-75982134D01*
X137696596Y-75986570D01*
X137694073Y-75990779D01*
X137691151Y-75994720D01*
X137687855Y-75998355D01*
X137684220Y-76001651D01*
X137680279Y-76004573D01*
X137676070Y-76007096D01*
X137671634Y-76009194D01*
X137667014Y-76010847D01*
X137662255Y-76012039D01*
X137657401Y-76012759D01*
X137652500Y-76013000D01*
X137427500Y-76013000D01*
X137422599Y-76012759D01*
X137417745Y-76012039D01*
X137412986Y-76010847D01*
X137408366Y-76009194D01*
X137403930Y-76007096D01*
X137399721Y-76004573D01*
X137395780Y-76001651D01*
X137392145Y-75998355D01*
X137388849Y-75994720D01*
X137385927Y-75990779D01*
X137383404Y-75986570D01*
X137381306Y-75982134D01*
X137379653Y-75977514D01*
X137378461Y-75972755D01*
X137377741Y-75967901D01*
X137377500Y-75963000D01*
X137377500Y-75863000D01*
X137377741Y-75858099D01*
X137378461Y-75853245D01*
X137379653Y-75848486D01*
X137381306Y-75843866D01*
X137383404Y-75839430D01*
X137385927Y-75835221D01*
X137388849Y-75831280D01*
X137392145Y-75827645D01*
X137395780Y-75824349D01*
X137399721Y-75821427D01*
X137403930Y-75818904D01*
X137408366Y-75816806D01*
X137412986Y-75815153D01*
X137417745Y-75813961D01*
X137422599Y-75813241D01*
X137427500Y-75813000D01*
X137652500Y-75813000D01*
X137657401Y-75813241D01*
X137657401Y-75813241D01*
G37*
D11*
X137540000Y-75913000D03*
D10*
G36*
X137657401Y-76163241D02*
G01*
X137662255Y-76163961D01*
X137667014Y-76165153D01*
X137671634Y-76166806D01*
X137676070Y-76168904D01*
X137680279Y-76171427D01*
X137684220Y-76174349D01*
X137687855Y-76177645D01*
X137691151Y-76181280D01*
X137694073Y-76185221D01*
X137696596Y-76189430D01*
X137698694Y-76193866D01*
X137700347Y-76198486D01*
X137701539Y-76203245D01*
X137702259Y-76208099D01*
X137702500Y-76213000D01*
X137702500Y-76313000D01*
X137702259Y-76317901D01*
X137701539Y-76322755D01*
X137700347Y-76327514D01*
X137698694Y-76332134D01*
X137696596Y-76336570D01*
X137694073Y-76340779D01*
X137691151Y-76344720D01*
X137687855Y-76348355D01*
X137684220Y-76351651D01*
X137680279Y-76354573D01*
X137676070Y-76357096D01*
X137671634Y-76359194D01*
X137667014Y-76360847D01*
X137662255Y-76362039D01*
X137657401Y-76362759D01*
X137652500Y-76363000D01*
X137427500Y-76363000D01*
X137422599Y-76362759D01*
X137417745Y-76362039D01*
X137412986Y-76360847D01*
X137408366Y-76359194D01*
X137403930Y-76357096D01*
X137399721Y-76354573D01*
X137395780Y-76351651D01*
X137392145Y-76348355D01*
X137388849Y-76344720D01*
X137385927Y-76340779D01*
X137383404Y-76336570D01*
X137381306Y-76332134D01*
X137379653Y-76327514D01*
X137378461Y-76322755D01*
X137377741Y-76317901D01*
X137377500Y-76313000D01*
X137377500Y-76213000D01*
X137377741Y-76208099D01*
X137378461Y-76203245D01*
X137379653Y-76198486D01*
X137381306Y-76193866D01*
X137383404Y-76189430D01*
X137385927Y-76185221D01*
X137388849Y-76181280D01*
X137392145Y-76177645D01*
X137395780Y-76174349D01*
X137399721Y-76171427D01*
X137403930Y-76168904D01*
X137408366Y-76166806D01*
X137412986Y-76165153D01*
X137417745Y-76163961D01*
X137422599Y-76163241D01*
X137427500Y-76163000D01*
X137652500Y-76163000D01*
X137657401Y-76163241D01*
X137657401Y-76163241D01*
G37*
D11*
X137540000Y-76263000D03*
D12*
X155619759Y-88847614D03*
D10*
G36*
X154828667Y-85882387D02*
G01*
X158402566Y-90141594D01*
X156410851Y-91812841D01*
X152836952Y-87553634D01*
X154828667Y-85882387D01*
X154828667Y-85882387D01*
G37*
D12*
X137380241Y-104152386D03*
D10*
G36*
X136589149Y-101187159D02*
G01*
X140163048Y-105446366D01*
X138171333Y-107117613D01*
X134597434Y-102858406D01*
X136589149Y-101187159D01*
X136589149Y-101187159D01*
G37*
D13*
X146500000Y-96500000D03*
D10*
G36*
X147777228Y-91799246D02*
G01*
X151351127Y-96058453D01*
X145222772Y-101200754D01*
X141648873Y-96941547D01*
X147777228Y-91799246D01*
X147777228Y-91799246D01*
G37*
M02*
