G04 #@! TF.GenerationSoftware,KiCad,Pcbnew,(5.0.1-3-g963ef8bb5)*
G04 #@! TF.CreationDate,2019-06-08T22:51:48-04:00*
G04 #@! TF.ProjectId,EFCv2,45464376322E6B696361645F70636200,rev?*
G04 #@! TF.SameCoordinates,Original*
G04 #@! TF.FileFunction,Soldermask,Bot*
G04 #@! TF.FilePolarity,Negative*
%FSLAX46Y46*%
G04 Gerber Fmt 4.6, Leading zero omitted, Abs format (unit mm)*
G04 Created by KiCad (PCBNEW (5.0.1-3-g963ef8bb5)) date Saturday, June 08, 2019 at 10:51:48 pm*
%MOMM*%
%LPD*%
G01*
G04 APERTURE LIST*
%ADD10C,0.100000*%
G04 APERTURE END LIST*
D10*
G36*
X84286703Y-108443486D02*
X84577883Y-108564097D01*
X84839944Y-108739201D01*
X85062799Y-108962056D01*
X85237903Y-109224117D01*
X85358514Y-109515297D01*
X85420000Y-109824412D01*
X85420000Y-110139588D01*
X85358514Y-110448703D01*
X85237903Y-110739883D01*
X85062799Y-111001944D01*
X84839944Y-111224799D01*
X84577883Y-111399903D01*
X84286703Y-111520514D01*
X83977588Y-111582000D01*
X83662412Y-111582000D01*
X83353297Y-111520514D01*
X83062117Y-111399903D01*
X82800056Y-111224799D01*
X82577201Y-111001944D01*
X82402097Y-110739883D01*
X82281486Y-110448703D01*
X82220000Y-110139588D01*
X82220000Y-109824412D01*
X82281486Y-109515297D01*
X82402097Y-109224117D01*
X82577201Y-108962056D01*
X82800056Y-108739201D01*
X83062117Y-108564097D01*
X83353297Y-108443486D01*
X83662412Y-108382000D01*
X83977588Y-108382000D01*
X84286703Y-108443486D01*
X84286703Y-108443486D01*
G37*
G36*
X71360000Y-103883000D02*
X65800000Y-103883000D01*
X65800000Y-101283000D01*
X71360000Y-101283000D01*
X71360000Y-103883000D01*
X71360000Y-103883000D01*
G37*
G36*
X80399521Y-100734586D02*
X80563309Y-100802429D01*
X80710720Y-100900926D01*
X80836074Y-101026280D01*
X80934571Y-101173691D01*
X81002414Y-101337479D01*
X81037000Y-101511356D01*
X81037000Y-101688644D01*
X81002414Y-101862521D01*
X80934571Y-102026309D01*
X80836074Y-102173720D01*
X80710720Y-102299074D01*
X80563309Y-102397571D01*
X80399521Y-102465414D01*
X80225644Y-102500000D01*
X80048356Y-102500000D01*
X79874479Y-102465414D01*
X79710691Y-102397571D01*
X79563280Y-102299074D01*
X79437926Y-102173720D01*
X79339429Y-102026309D01*
X79271586Y-101862521D01*
X79237000Y-101688644D01*
X79237000Y-101511356D01*
X79271586Y-101337479D01*
X79339429Y-101173691D01*
X79437926Y-101026280D01*
X79563280Y-100900926D01*
X79710691Y-100802429D01*
X79874479Y-100734586D01*
X80048356Y-100700000D01*
X80225644Y-100700000D01*
X80399521Y-100734586D01*
X80399521Y-100734586D01*
G37*
G36*
X81037000Y-99960000D02*
X79237000Y-99960000D01*
X79237000Y-98160000D01*
X81037000Y-98160000D01*
X81037000Y-99960000D01*
X81037000Y-99960000D01*
G37*
G36*
X80399521Y-95273586D02*
X80563309Y-95341429D01*
X80710720Y-95439926D01*
X80836074Y-95565280D01*
X80934571Y-95712691D01*
X81002414Y-95876479D01*
X81037000Y-96050356D01*
X81037000Y-96227644D01*
X81002414Y-96401521D01*
X80934571Y-96565309D01*
X80836074Y-96712720D01*
X80710720Y-96838074D01*
X80563309Y-96936571D01*
X80399521Y-97004414D01*
X80225644Y-97039000D01*
X80048356Y-97039000D01*
X79874479Y-97004414D01*
X79710691Y-96936571D01*
X79563280Y-96838074D01*
X79437926Y-96712720D01*
X79339429Y-96565309D01*
X79271586Y-96401521D01*
X79237000Y-96227644D01*
X79237000Y-96050356D01*
X79271586Y-95876479D01*
X79339429Y-95712691D01*
X79437926Y-95565280D01*
X79563280Y-95439926D01*
X79710691Y-95341429D01*
X79874479Y-95273586D01*
X80048356Y-95239000D01*
X80225644Y-95239000D01*
X80399521Y-95273586D01*
X80399521Y-95273586D01*
G37*
G36*
X93496500Y-96163500D02*
X91796500Y-96163500D01*
X91796500Y-94463500D01*
X93496500Y-94463500D01*
X93496500Y-96163500D01*
X93496500Y-96163500D01*
G37*
G36*
X90273130Y-94475799D02*
X90433355Y-94524403D01*
X90581020Y-94603331D01*
X90710449Y-94709551D01*
X90816669Y-94838980D01*
X90895597Y-94986645D01*
X90944201Y-95146870D01*
X90960612Y-95313500D01*
X90944201Y-95480130D01*
X90895597Y-95640355D01*
X90816669Y-95788020D01*
X90710449Y-95917449D01*
X90581020Y-96023669D01*
X90433355Y-96102597D01*
X90273130Y-96151201D01*
X90148252Y-96163500D01*
X90064748Y-96163500D01*
X89939870Y-96151201D01*
X89779645Y-96102597D01*
X89631980Y-96023669D01*
X89502551Y-95917449D01*
X89396331Y-95788020D01*
X89317403Y-95640355D01*
X89268799Y-95480130D01*
X89252388Y-95313500D01*
X89268799Y-95146870D01*
X89317403Y-94986645D01*
X89396331Y-94838980D01*
X89502551Y-94709551D01*
X89631980Y-94603331D01*
X89779645Y-94524403D01*
X89939870Y-94475799D01*
X90064748Y-94463500D01*
X90148252Y-94463500D01*
X90273130Y-94475799D01*
X90273130Y-94475799D01*
G37*
G36*
X87733130Y-94475799D02*
X87893355Y-94524403D01*
X88041020Y-94603331D01*
X88170449Y-94709551D01*
X88276669Y-94838980D01*
X88355597Y-94986645D01*
X88404201Y-95146870D01*
X88420612Y-95313500D01*
X88404201Y-95480130D01*
X88355597Y-95640355D01*
X88276669Y-95788020D01*
X88170449Y-95917449D01*
X88041020Y-96023669D01*
X87893355Y-96102597D01*
X87733130Y-96151201D01*
X87608252Y-96163500D01*
X87524748Y-96163500D01*
X87399870Y-96151201D01*
X87239645Y-96102597D01*
X87091980Y-96023669D01*
X86962551Y-95917449D01*
X86856331Y-95788020D01*
X86777403Y-95640355D01*
X86728799Y-95480130D01*
X86712388Y-95313500D01*
X86728799Y-95146870D01*
X86777403Y-94986645D01*
X86856331Y-94838980D01*
X86962551Y-94709551D01*
X87091980Y-94603331D01*
X87239645Y-94524403D01*
X87399870Y-94475799D01*
X87524748Y-94463500D01*
X87608252Y-94463500D01*
X87733130Y-94475799D01*
X87733130Y-94475799D01*
G37*
G36*
X71360000Y-94678000D02*
X65800000Y-94678000D01*
X65800000Y-86678000D01*
X71360000Y-86678000D01*
X71360000Y-94678000D01*
X71360000Y-94678000D01*
G37*
G36*
X81037000Y-94499000D02*
X79237000Y-94499000D01*
X79237000Y-92699000D01*
X81037000Y-92699000D01*
X81037000Y-94499000D01*
X81037000Y-94499000D01*
G37*
G36*
X92813130Y-91935799D02*
X92973355Y-91984403D01*
X93121020Y-92063331D01*
X93250449Y-92169551D01*
X93356669Y-92298980D01*
X93435597Y-92446645D01*
X93484201Y-92606870D01*
X93500612Y-92773500D01*
X93484201Y-92940130D01*
X93435597Y-93100355D01*
X93356669Y-93248020D01*
X93250449Y-93377449D01*
X93121020Y-93483669D01*
X92973355Y-93562597D01*
X92813130Y-93611201D01*
X92688252Y-93623500D01*
X92604748Y-93623500D01*
X92479870Y-93611201D01*
X92319645Y-93562597D01*
X92171980Y-93483669D01*
X92042551Y-93377449D01*
X91936331Y-93248020D01*
X91857403Y-93100355D01*
X91808799Y-92940130D01*
X91792388Y-92773500D01*
X91808799Y-92606870D01*
X91857403Y-92446645D01*
X91936331Y-92298980D01*
X92042551Y-92169551D01*
X92171980Y-92063331D01*
X92319645Y-91984403D01*
X92479870Y-91935799D01*
X92604748Y-91923500D01*
X92688252Y-91923500D01*
X92813130Y-91935799D01*
X92813130Y-91935799D01*
G37*
G36*
X87733130Y-91935799D02*
X87893355Y-91984403D01*
X88041020Y-92063331D01*
X88170449Y-92169551D01*
X88276669Y-92298980D01*
X88355597Y-92446645D01*
X88404201Y-92606870D01*
X88420612Y-92773500D01*
X88404201Y-92940130D01*
X88355597Y-93100355D01*
X88276669Y-93248020D01*
X88170449Y-93377449D01*
X88041020Y-93483669D01*
X87893355Y-93562597D01*
X87733130Y-93611201D01*
X87608252Y-93623500D01*
X87524748Y-93623500D01*
X87399870Y-93611201D01*
X87239645Y-93562597D01*
X87091980Y-93483669D01*
X86962551Y-93377449D01*
X86856331Y-93248020D01*
X86777403Y-93100355D01*
X86728799Y-92940130D01*
X86712388Y-92773500D01*
X86728799Y-92606870D01*
X86777403Y-92446645D01*
X86856331Y-92298980D01*
X86962551Y-92169551D01*
X87091980Y-92063331D01*
X87239645Y-91984403D01*
X87399870Y-91935799D01*
X87524748Y-91923500D01*
X87608252Y-91923500D01*
X87733130Y-91935799D01*
X87733130Y-91935799D01*
G37*
G36*
X90273130Y-91935799D02*
X90433355Y-91984403D01*
X90581020Y-92063331D01*
X90710449Y-92169551D01*
X90816669Y-92298980D01*
X90895597Y-92446645D01*
X90944201Y-92606870D01*
X90960612Y-92773500D01*
X90944201Y-92940130D01*
X90895597Y-93100355D01*
X90816669Y-93248020D01*
X90710449Y-93377449D01*
X90581020Y-93483669D01*
X90433355Y-93562597D01*
X90273130Y-93611201D01*
X90148252Y-93623500D01*
X90064748Y-93623500D01*
X89939870Y-93611201D01*
X89779645Y-93562597D01*
X89631980Y-93483669D01*
X89502551Y-93377449D01*
X89396331Y-93248020D01*
X89317403Y-93100355D01*
X89268799Y-92940130D01*
X89252388Y-92773500D01*
X89268799Y-92606870D01*
X89317403Y-92446645D01*
X89396331Y-92298980D01*
X89502551Y-92169551D01*
X89631980Y-92063331D01*
X89779645Y-91984403D01*
X89939870Y-91935799D01*
X90064748Y-91923500D01*
X90148252Y-91923500D01*
X90273130Y-91935799D01*
X90273130Y-91935799D01*
G37*
G36*
X53859716Y-85604319D02*
X53859719Y-85604320D01*
X53859720Y-85604320D01*
X53968108Y-85637199D01*
X53968110Y-85637200D01*
X54068000Y-85690593D01*
X54155554Y-85762446D01*
X54227407Y-85850000D01*
X54280800Y-85949890D01*
X54313681Y-86058284D01*
X54324782Y-86171000D01*
X54313681Y-86283716D01*
X54313680Y-86283719D01*
X54313680Y-86283720D01*
X54308806Y-86299789D01*
X54280800Y-86392110D01*
X54227407Y-86492000D01*
X54155554Y-86579554D01*
X54068000Y-86651407D01*
X54067998Y-86651408D01*
X53968108Y-86704801D01*
X53859720Y-86737680D01*
X53859719Y-86737680D01*
X53859716Y-86737681D01*
X53775250Y-86746000D01*
X53068750Y-86746000D01*
X52984284Y-86737681D01*
X52984281Y-86737680D01*
X52984280Y-86737680D01*
X52875892Y-86704801D01*
X52776002Y-86651408D01*
X52776000Y-86651407D01*
X52688446Y-86579554D01*
X52616593Y-86492000D01*
X52563200Y-86392110D01*
X52535195Y-86299789D01*
X52530320Y-86283720D01*
X52530320Y-86283719D01*
X52530319Y-86283716D01*
X52519218Y-86171000D01*
X52530319Y-86058284D01*
X52563200Y-85949890D01*
X52616593Y-85850000D01*
X52688446Y-85762446D01*
X52776000Y-85690593D01*
X52875890Y-85637200D01*
X52875892Y-85637199D01*
X52984280Y-85604320D01*
X52984281Y-85604320D01*
X52984284Y-85604319D01*
X53068750Y-85596000D01*
X53775250Y-85596000D01*
X53859716Y-85604319D01*
X53859716Y-85604319D01*
G37*
G36*
X57568113Y-85299497D02*
X57639125Y-85306491D01*
X57730234Y-85334128D01*
X57775789Y-85347947D01*
X57901738Y-85415269D01*
X58012132Y-85505868D01*
X58102731Y-85616262D01*
X58170053Y-85742211D01*
X58170053Y-85742212D01*
X58211509Y-85878875D01*
X58225507Y-86021000D01*
X58211509Y-86163125D01*
X58209120Y-86171000D01*
X58170053Y-86299789D01*
X58102731Y-86425738D01*
X58012132Y-86536132D01*
X57901738Y-86626731D01*
X57775789Y-86694053D01*
X57730234Y-86707872D01*
X57639125Y-86735509D01*
X57568113Y-86742503D01*
X57532608Y-86746000D01*
X56911392Y-86746000D01*
X56875887Y-86742503D01*
X56804875Y-86735509D01*
X56713766Y-86707872D01*
X56668211Y-86694053D01*
X56542262Y-86626731D01*
X56431868Y-86536132D01*
X56341269Y-86425738D01*
X56273947Y-86299789D01*
X56234880Y-86171000D01*
X56232491Y-86163125D01*
X56218493Y-86021000D01*
X56232491Y-85878875D01*
X56273947Y-85742212D01*
X56273947Y-85742211D01*
X56341269Y-85616262D01*
X56431868Y-85505868D01*
X56542262Y-85415269D01*
X56668211Y-85347947D01*
X56713766Y-85334128D01*
X56804875Y-85306491D01*
X56875887Y-85299497D01*
X56911392Y-85296000D01*
X57532608Y-85296000D01*
X57568113Y-85299497D01*
X57568113Y-85299497D01*
G37*
G36*
X56250414Y-84401788D02*
X56325814Y-84424660D01*
X56395303Y-84461803D01*
X56456211Y-84511789D01*
X56506197Y-84572697D01*
X56543340Y-84642186D01*
X56566212Y-84717586D01*
X56573935Y-84796000D01*
X56566212Y-84874414D01*
X56543340Y-84949814D01*
X56506197Y-85019303D01*
X56456211Y-85080211D01*
X56395303Y-85130197D01*
X56325814Y-85167340D01*
X56250414Y-85190212D01*
X56191647Y-85196000D01*
X56152353Y-85196000D01*
X56093586Y-85190212D01*
X56018186Y-85167340D01*
X55948697Y-85130197D01*
X55887789Y-85080211D01*
X55837803Y-85019303D01*
X55800660Y-84949814D01*
X55777788Y-84874414D01*
X55770065Y-84796000D01*
X55777788Y-84717586D01*
X55800660Y-84642186D01*
X55837803Y-84572697D01*
X55887789Y-84511789D01*
X55948697Y-84461803D01*
X56018186Y-84424660D01*
X56093586Y-84401788D01*
X56152353Y-84396000D01*
X56191647Y-84396000D01*
X56250414Y-84401788D01*
X56250414Y-84401788D01*
G37*
G36*
X108603845Y-82450215D02*
X108694839Y-82487906D01*
X108775640Y-82541896D01*
X108776734Y-82542627D01*
X108846373Y-82612266D01*
X108901095Y-82694163D01*
X108938785Y-82785155D01*
X108958000Y-82881755D01*
X108958000Y-82980245D01*
X108938785Y-83076845D01*
X108901095Y-83167837D01*
X108846373Y-83249734D01*
X108776734Y-83319373D01*
X108776731Y-83319375D01*
X108694839Y-83374094D01*
X108603845Y-83411785D01*
X108507246Y-83431000D01*
X108408754Y-83431000D01*
X108312155Y-83411785D01*
X108221161Y-83374094D01*
X108139269Y-83319375D01*
X108139266Y-83319373D01*
X108069627Y-83249734D01*
X108014905Y-83167837D01*
X107977215Y-83076845D01*
X107958000Y-82980245D01*
X107958000Y-82881755D01*
X107977215Y-82785155D01*
X108014905Y-82694163D01*
X108069627Y-82612266D01*
X108139266Y-82542627D01*
X108140360Y-82541896D01*
X108221161Y-82487906D01*
X108312155Y-82450215D01*
X108408754Y-82431000D01*
X108507246Y-82431000D01*
X108603845Y-82450215D01*
X108603845Y-82450215D01*
G37*
G36*
X108603845Y-80750215D02*
X108694839Y-80787906D01*
X108711587Y-80799097D01*
X108776734Y-80842627D01*
X108846373Y-80912266D01*
X108901095Y-80994163D01*
X108938785Y-81085155D01*
X108958000Y-81181755D01*
X108958000Y-81280245D01*
X108938785Y-81376845D01*
X108901095Y-81467837D01*
X108846373Y-81549734D01*
X108776734Y-81619373D01*
X108776731Y-81619375D01*
X108694839Y-81674094D01*
X108603845Y-81711785D01*
X108507246Y-81731000D01*
X108408754Y-81731000D01*
X108312155Y-81711785D01*
X108221161Y-81674094D01*
X108139269Y-81619375D01*
X108139266Y-81619373D01*
X108069627Y-81549734D01*
X108014905Y-81467837D01*
X107977215Y-81376845D01*
X107958000Y-81280245D01*
X107958000Y-81181755D01*
X107977215Y-81085155D01*
X108014905Y-80994163D01*
X108069627Y-80912266D01*
X108139266Y-80842627D01*
X108204413Y-80799097D01*
X108221161Y-80787906D01*
X108312155Y-80750215D01*
X108408754Y-80731000D01*
X108507246Y-80731000D01*
X108603845Y-80750215D01*
X108603845Y-80750215D01*
G37*
G36*
X75858630Y-79172299D02*
X76018855Y-79220903D01*
X76166520Y-79299831D01*
X76295949Y-79406051D01*
X76402169Y-79535480D01*
X76481097Y-79683145D01*
X76529701Y-79843370D01*
X76546112Y-80010000D01*
X76529701Y-80176630D01*
X76481097Y-80336855D01*
X76402169Y-80484520D01*
X76295949Y-80613949D01*
X76166520Y-80720169D01*
X76018855Y-80799097D01*
X75858630Y-80847701D01*
X75733752Y-80860000D01*
X75650248Y-80860000D01*
X75525370Y-80847701D01*
X75365145Y-80799097D01*
X75217480Y-80720169D01*
X75088051Y-80613949D01*
X74981831Y-80484520D01*
X74902903Y-80336855D01*
X74854299Y-80176630D01*
X74837888Y-80010000D01*
X74854299Y-79843370D01*
X74902903Y-79683145D01*
X74981831Y-79535480D01*
X75088051Y-79406051D01*
X75217480Y-79299831D01*
X75365145Y-79220903D01*
X75525370Y-79172299D01*
X75650248Y-79160000D01*
X75733752Y-79160000D01*
X75858630Y-79172299D01*
X75858630Y-79172299D01*
G37*
G36*
X56250414Y-79401788D02*
X56325814Y-79424660D01*
X56395303Y-79461803D01*
X56456211Y-79511789D01*
X56506197Y-79572697D01*
X56543340Y-79642186D01*
X56566212Y-79717586D01*
X56573935Y-79796000D01*
X56566212Y-79874414D01*
X56543340Y-79949814D01*
X56506197Y-80019303D01*
X56456211Y-80080211D01*
X56395303Y-80130197D01*
X56325814Y-80167340D01*
X56250414Y-80190212D01*
X56191647Y-80196000D01*
X56152353Y-80196000D01*
X56093586Y-80190212D01*
X56018186Y-80167340D01*
X55948697Y-80130197D01*
X55887789Y-80080211D01*
X55837803Y-80019303D01*
X55800660Y-79949814D01*
X55777788Y-79874414D01*
X55770065Y-79796000D01*
X55777788Y-79717586D01*
X55800660Y-79642186D01*
X55837803Y-79572697D01*
X55887789Y-79511789D01*
X55948697Y-79461803D01*
X56018186Y-79424660D01*
X56093586Y-79401788D01*
X56152353Y-79396000D01*
X56191647Y-79396000D01*
X56250414Y-79401788D01*
X56250414Y-79401788D01*
G37*
G36*
X71360000Y-80073000D02*
X65800000Y-80073000D01*
X65800000Y-77473000D01*
X71360000Y-77473000D01*
X71360000Y-80073000D01*
X71360000Y-80073000D01*
G37*
G36*
X57568113Y-77849497D02*
X57639125Y-77856491D01*
X57730234Y-77884128D01*
X57775789Y-77897947D01*
X57901738Y-77965269D01*
X58012132Y-78055868D01*
X58102731Y-78166262D01*
X58170053Y-78292211D01*
X58178482Y-78320000D01*
X58211509Y-78428875D01*
X58225507Y-78571000D01*
X58211509Y-78713125D01*
X58202750Y-78742000D01*
X58170053Y-78849789D01*
X58102731Y-78975738D01*
X58012132Y-79086132D01*
X57901738Y-79176731D01*
X57775789Y-79244053D01*
X57730234Y-79257872D01*
X57639125Y-79285509D01*
X57568113Y-79292503D01*
X57532608Y-79296000D01*
X56911392Y-79296000D01*
X56875887Y-79292503D01*
X56804875Y-79285509D01*
X56713766Y-79257872D01*
X56668211Y-79244053D01*
X56542262Y-79176731D01*
X56431868Y-79086132D01*
X56341269Y-78975738D01*
X56273947Y-78849789D01*
X56241250Y-78742000D01*
X56232491Y-78713125D01*
X56218493Y-78571000D01*
X56232491Y-78428875D01*
X56265518Y-78320000D01*
X56273947Y-78292211D01*
X56341269Y-78166262D01*
X56431868Y-78055868D01*
X56542262Y-77965269D01*
X56668211Y-77897947D01*
X56713766Y-77884128D01*
X56804875Y-77856491D01*
X56875887Y-77849497D01*
X56911392Y-77846000D01*
X57532608Y-77846000D01*
X57568113Y-77849497D01*
X57568113Y-77849497D01*
G37*
G36*
X53859716Y-77854319D02*
X53859719Y-77854320D01*
X53859720Y-77854320D01*
X53968108Y-77887199D01*
X53968110Y-77887200D01*
X54068000Y-77940593D01*
X54155554Y-78012446D01*
X54227407Y-78100000D01*
X54227408Y-78100002D01*
X54280801Y-78199892D01*
X54308806Y-78292212D01*
X54313681Y-78308284D01*
X54324782Y-78421000D01*
X54313681Y-78533716D01*
X54280800Y-78642110D01*
X54227407Y-78742000D01*
X54155554Y-78829554D01*
X54068000Y-78901407D01*
X54067998Y-78901408D01*
X53968108Y-78954801D01*
X53859720Y-78987680D01*
X53859719Y-78987680D01*
X53859716Y-78987681D01*
X53775250Y-78996000D01*
X53068750Y-78996000D01*
X52984284Y-78987681D01*
X52984281Y-78987680D01*
X52984280Y-78987680D01*
X52875892Y-78954801D01*
X52776002Y-78901408D01*
X52776000Y-78901407D01*
X52688446Y-78829554D01*
X52616593Y-78742000D01*
X52563200Y-78642110D01*
X52530319Y-78533716D01*
X52519218Y-78421000D01*
X52530319Y-78308284D01*
X52535194Y-78292212D01*
X52563199Y-78199892D01*
X52616592Y-78100002D01*
X52616593Y-78100000D01*
X52688446Y-78012446D01*
X52776000Y-77940593D01*
X52875890Y-77887200D01*
X52875892Y-77887199D01*
X52984280Y-77854320D01*
X52984281Y-77854320D01*
X52984284Y-77854319D01*
X53068750Y-77846000D01*
X53775250Y-77846000D01*
X53859716Y-77854319D01*
X53859716Y-77854319D01*
G37*
G36*
X76542000Y-78320000D02*
X74842000Y-78320000D01*
X74842000Y-76620000D01*
X76542000Y-76620000D01*
X76542000Y-78320000D01*
X76542000Y-78320000D01*
G37*
G36*
X104482000Y-73621000D02*
X102782000Y-73621000D01*
X102782000Y-71921000D01*
X104482000Y-71921000D01*
X104482000Y-73621000D01*
X104482000Y-73621000D01*
G37*
G36*
X75018000Y-73494000D02*
X73318000Y-73494000D01*
X73318000Y-71794000D01*
X75018000Y-71794000D01*
X75018000Y-73494000D01*
X75018000Y-73494000D01*
G37*
G36*
X76874630Y-71806299D02*
X77034855Y-71854903D01*
X77182520Y-71933831D01*
X77311949Y-72040051D01*
X77418169Y-72169480D01*
X77497097Y-72317145D01*
X77545701Y-72477370D01*
X77562112Y-72644000D01*
X77545701Y-72810630D01*
X77497097Y-72970855D01*
X77418169Y-73118520D01*
X77311949Y-73247949D01*
X77182520Y-73354169D01*
X77034855Y-73433097D01*
X76874630Y-73481701D01*
X76749752Y-73494000D01*
X76666248Y-73494000D01*
X76541370Y-73481701D01*
X76381145Y-73433097D01*
X76233480Y-73354169D01*
X76104051Y-73247949D01*
X75997831Y-73118520D01*
X75918903Y-72970855D01*
X75870299Y-72810630D01*
X75853888Y-72644000D01*
X75870299Y-72477370D01*
X75918903Y-72317145D01*
X75997831Y-72169480D01*
X76104051Y-72040051D01*
X76233480Y-71933831D01*
X76381145Y-71854903D01*
X76541370Y-71806299D01*
X76666248Y-71794000D01*
X76749752Y-71794000D01*
X76874630Y-71806299D01*
X76874630Y-71806299D01*
G37*
G36*
X103798630Y-69393299D02*
X103958855Y-69441903D01*
X104106520Y-69520831D01*
X104235949Y-69627051D01*
X104342169Y-69756480D01*
X104421097Y-69904145D01*
X104469701Y-70064370D01*
X104486112Y-70231000D01*
X104469701Y-70397630D01*
X104421097Y-70557855D01*
X104342169Y-70705520D01*
X104235949Y-70834949D01*
X104106520Y-70941169D01*
X103958855Y-71020097D01*
X103798630Y-71068701D01*
X103673752Y-71081000D01*
X103590248Y-71081000D01*
X103465370Y-71068701D01*
X103305145Y-71020097D01*
X103157480Y-70941169D01*
X103028051Y-70834949D01*
X102921831Y-70705520D01*
X102842903Y-70557855D01*
X102794299Y-70397630D01*
X102777888Y-70231000D01*
X102794299Y-70064370D01*
X102842903Y-69904145D01*
X102921831Y-69756480D01*
X103028051Y-69627051D01*
X103157480Y-69520831D01*
X103305145Y-69441903D01*
X103465370Y-69393299D01*
X103590248Y-69381000D01*
X103673752Y-69381000D01*
X103798630Y-69393299D01*
X103798630Y-69393299D01*
G37*
G36*
X91352630Y-63932299D02*
X91512855Y-63980903D01*
X91660520Y-64059831D01*
X91789949Y-64166051D01*
X91896169Y-64295480D01*
X91975097Y-64443145D01*
X92023701Y-64603370D01*
X92040112Y-64770000D01*
X92023701Y-64936630D01*
X91975097Y-65096855D01*
X91896169Y-65244520D01*
X91789949Y-65373949D01*
X91660520Y-65480169D01*
X91512855Y-65559097D01*
X91352630Y-65607701D01*
X91227752Y-65620000D01*
X91144248Y-65620000D01*
X91019370Y-65607701D01*
X90859145Y-65559097D01*
X90711480Y-65480169D01*
X90582051Y-65373949D01*
X90475831Y-65244520D01*
X90396903Y-65096855D01*
X90348299Y-64936630D01*
X90331888Y-64770000D01*
X90348299Y-64603370D01*
X90396903Y-64443145D01*
X90475831Y-64295480D01*
X90582051Y-64166051D01*
X90711480Y-64059831D01*
X90859145Y-63980903D01*
X91019370Y-63932299D01*
X91144248Y-63920000D01*
X91227752Y-63920000D01*
X91352630Y-63932299D01*
X91352630Y-63932299D01*
G37*
G36*
X92036000Y-63080000D02*
X90336000Y-63080000D01*
X90336000Y-61380000D01*
X92036000Y-61380000D01*
X92036000Y-63080000D01*
X92036000Y-63080000D01*
G37*
G36*
X84286703Y-51801486D02*
X84577883Y-51922097D01*
X84839944Y-52097201D01*
X85062799Y-52320056D01*
X85237903Y-52582117D01*
X85358514Y-52873297D01*
X85420000Y-53182412D01*
X85420000Y-53497588D01*
X85358514Y-53806703D01*
X85237903Y-54097883D01*
X85062799Y-54359944D01*
X84839944Y-54582799D01*
X84577883Y-54757903D01*
X84286703Y-54878514D01*
X83977588Y-54940000D01*
X83662412Y-54940000D01*
X83353297Y-54878514D01*
X83062117Y-54757903D01*
X82800056Y-54582799D01*
X82577201Y-54359944D01*
X82402097Y-54097883D01*
X82281486Y-53806703D01*
X82220000Y-53497588D01*
X82220000Y-53182412D01*
X82281486Y-52873297D01*
X82402097Y-52582117D01*
X82577201Y-52320056D01*
X82800056Y-52097201D01*
X83062117Y-51922097D01*
X83353297Y-51801486D01*
X83662412Y-51740000D01*
X83977588Y-51740000D01*
X84286703Y-51801486D01*
X84286703Y-51801486D01*
G37*
M02*
