G04 #@! TF.GenerationSoftware,KiCad,Pcbnew,(5.0.1-3-g963ef8bb5)*
G04 #@! TF.CreationDate,2019-06-08T22:51:48-04:00*
G04 #@! TF.ProjectId,EFCv2,45464376322E6B696361645F70636200,rev?*
G04 #@! TF.SameCoordinates,Original*
G04 #@! TF.FileFunction,Paste,Top*
G04 #@! TF.FilePolarity,Positive*
%FSLAX46Y46*%
G04 Gerber Fmt 4.6, Leading zero omitted, Abs format (unit mm)*
G04 Created by KiCad (PCBNEW (5.0.1-3-g963ef8bb5)) date Saturday, June 08, 2019 at 10:51:48 pm*
%MOMM*%
%LPD*%
G01*
G04 APERTURE LIST*
%ADD10R,1.550000X0.600000*%
%ADD11C,0.100000*%
%ADD12C,1.425000*%
%ADD13R,3.000000X1.600000*%
%ADD14R,1.300000X0.450000*%
%ADD15R,1.060000X0.650000*%
%ADD16R,1.600000X0.550000*%
%ADD17R,0.550000X1.600000*%
%ADD18R,1.100000X0.250000*%
%ADD19R,3.200000X0.400000*%
%ADD20R,1.600000X3.000000*%
%ADD21R,3.500000X2.300000*%
%ADD22C,0.950000*%
G04 APERTURE END LIST*
D10*
G04 #@! TO.C,U2*
X77851000Y-68453000D03*
X77851000Y-67183000D03*
X77851000Y-65913000D03*
X77851000Y-64643000D03*
X72451000Y-64643000D03*
X72451000Y-65913000D03*
X72451000Y-67183000D03*
X72451000Y-68453000D03*
G04 #@! TD*
G04 #@! TO.C,U5*
X100170000Y-82804000D03*
X100170000Y-81534000D03*
X100170000Y-80264000D03*
X100170000Y-78994000D03*
X105570000Y-78994000D03*
X105570000Y-80264000D03*
X105570000Y-81534000D03*
X105570000Y-82804000D03*
G04 #@! TD*
D11*
G04 #@! TO.C,C1*
G36*
X102360769Y-92638527D02*
X102385038Y-92642127D01*
X102408836Y-92648088D01*
X102431936Y-92656353D01*
X102454114Y-92666843D01*
X102475158Y-92679456D01*
X102494863Y-92694070D01*
X102513042Y-92710546D01*
X102529518Y-92728725D01*
X102544132Y-92748430D01*
X102556745Y-92769474D01*
X102567235Y-92791652D01*
X102575500Y-92814752D01*
X102581461Y-92838550D01*
X102585061Y-92862819D01*
X102586265Y-92887323D01*
X102586265Y-94137323D01*
X102585061Y-94161827D01*
X102581461Y-94186096D01*
X102575500Y-94209894D01*
X102567235Y-94232994D01*
X102556745Y-94255172D01*
X102544132Y-94276216D01*
X102529518Y-94295921D01*
X102513042Y-94314100D01*
X102494863Y-94330576D01*
X102475158Y-94345190D01*
X102454114Y-94357803D01*
X102431936Y-94368293D01*
X102408836Y-94376558D01*
X102385038Y-94382519D01*
X102360769Y-94386119D01*
X102336265Y-94387323D01*
X101411265Y-94387323D01*
X101386761Y-94386119D01*
X101362492Y-94382519D01*
X101338694Y-94376558D01*
X101315594Y-94368293D01*
X101293416Y-94357803D01*
X101272372Y-94345190D01*
X101252667Y-94330576D01*
X101234488Y-94314100D01*
X101218012Y-94295921D01*
X101203398Y-94276216D01*
X101190785Y-94255172D01*
X101180295Y-94232994D01*
X101172030Y-94209894D01*
X101166069Y-94186096D01*
X101162469Y-94161827D01*
X101161265Y-94137323D01*
X101161265Y-92887323D01*
X101162469Y-92862819D01*
X101166069Y-92838550D01*
X101172030Y-92814752D01*
X101180295Y-92791652D01*
X101190785Y-92769474D01*
X101203398Y-92748430D01*
X101218012Y-92728725D01*
X101234488Y-92710546D01*
X101252667Y-92694070D01*
X101272372Y-92679456D01*
X101293416Y-92666843D01*
X101315594Y-92656353D01*
X101338694Y-92648088D01*
X101362492Y-92642127D01*
X101386761Y-92638527D01*
X101411265Y-92637323D01*
X102336265Y-92637323D01*
X102360769Y-92638527D01*
X102360769Y-92638527D01*
G37*
D12*
X101873765Y-93512323D03*
D11*
G36*
X105335769Y-92638527D02*
X105360038Y-92642127D01*
X105383836Y-92648088D01*
X105406936Y-92656353D01*
X105429114Y-92666843D01*
X105450158Y-92679456D01*
X105469863Y-92694070D01*
X105488042Y-92710546D01*
X105504518Y-92728725D01*
X105519132Y-92748430D01*
X105531745Y-92769474D01*
X105542235Y-92791652D01*
X105550500Y-92814752D01*
X105556461Y-92838550D01*
X105560061Y-92862819D01*
X105561265Y-92887323D01*
X105561265Y-94137323D01*
X105560061Y-94161827D01*
X105556461Y-94186096D01*
X105550500Y-94209894D01*
X105542235Y-94232994D01*
X105531745Y-94255172D01*
X105519132Y-94276216D01*
X105504518Y-94295921D01*
X105488042Y-94314100D01*
X105469863Y-94330576D01*
X105450158Y-94345190D01*
X105429114Y-94357803D01*
X105406936Y-94368293D01*
X105383836Y-94376558D01*
X105360038Y-94382519D01*
X105335769Y-94386119D01*
X105311265Y-94387323D01*
X104386265Y-94387323D01*
X104361761Y-94386119D01*
X104337492Y-94382519D01*
X104313694Y-94376558D01*
X104290594Y-94368293D01*
X104268416Y-94357803D01*
X104247372Y-94345190D01*
X104227667Y-94330576D01*
X104209488Y-94314100D01*
X104193012Y-94295921D01*
X104178398Y-94276216D01*
X104165785Y-94255172D01*
X104155295Y-94232994D01*
X104147030Y-94209894D01*
X104141069Y-94186096D01*
X104137469Y-94161827D01*
X104136265Y-94137323D01*
X104136265Y-92887323D01*
X104137469Y-92862819D01*
X104141069Y-92838550D01*
X104147030Y-92814752D01*
X104155295Y-92791652D01*
X104165785Y-92769474D01*
X104178398Y-92748430D01*
X104193012Y-92728725D01*
X104209488Y-92710546D01*
X104227667Y-92694070D01*
X104247372Y-92679456D01*
X104268416Y-92666843D01*
X104290594Y-92656353D01*
X104313694Y-92648088D01*
X104337492Y-92642127D01*
X104361761Y-92638527D01*
X104386265Y-92637323D01*
X105311265Y-92637323D01*
X105335769Y-92638527D01*
X105335769Y-92638527D01*
G37*
D12*
X104848765Y-93512323D03*
G04 #@! TD*
D11*
G04 #@! TO.C,C5*
G36*
X83889504Y-64150204D02*
X83913773Y-64153804D01*
X83937571Y-64159765D01*
X83960671Y-64168030D01*
X83982849Y-64178520D01*
X84003893Y-64191133D01*
X84023598Y-64205747D01*
X84041777Y-64222223D01*
X84058253Y-64240402D01*
X84072867Y-64260107D01*
X84085480Y-64281151D01*
X84095970Y-64303329D01*
X84104235Y-64326429D01*
X84110196Y-64350227D01*
X84113796Y-64374496D01*
X84115000Y-64399000D01*
X84115000Y-65649000D01*
X84113796Y-65673504D01*
X84110196Y-65697773D01*
X84104235Y-65721571D01*
X84095970Y-65744671D01*
X84085480Y-65766849D01*
X84072867Y-65787893D01*
X84058253Y-65807598D01*
X84041777Y-65825777D01*
X84023598Y-65842253D01*
X84003893Y-65856867D01*
X83982849Y-65869480D01*
X83960671Y-65879970D01*
X83937571Y-65888235D01*
X83913773Y-65894196D01*
X83889504Y-65897796D01*
X83865000Y-65899000D01*
X82940000Y-65899000D01*
X82915496Y-65897796D01*
X82891227Y-65894196D01*
X82867429Y-65888235D01*
X82844329Y-65879970D01*
X82822151Y-65869480D01*
X82801107Y-65856867D01*
X82781402Y-65842253D01*
X82763223Y-65825777D01*
X82746747Y-65807598D01*
X82732133Y-65787893D01*
X82719520Y-65766849D01*
X82709030Y-65744671D01*
X82700765Y-65721571D01*
X82694804Y-65697773D01*
X82691204Y-65673504D01*
X82690000Y-65649000D01*
X82690000Y-64399000D01*
X82691204Y-64374496D01*
X82694804Y-64350227D01*
X82700765Y-64326429D01*
X82709030Y-64303329D01*
X82719520Y-64281151D01*
X82732133Y-64260107D01*
X82746747Y-64240402D01*
X82763223Y-64222223D01*
X82781402Y-64205747D01*
X82801107Y-64191133D01*
X82822151Y-64178520D01*
X82844329Y-64168030D01*
X82867429Y-64159765D01*
X82891227Y-64153804D01*
X82915496Y-64150204D01*
X82940000Y-64149000D01*
X83865000Y-64149000D01*
X83889504Y-64150204D01*
X83889504Y-64150204D01*
G37*
D12*
X83402500Y-65024000D03*
D11*
G36*
X80914504Y-64150204D02*
X80938773Y-64153804D01*
X80962571Y-64159765D01*
X80985671Y-64168030D01*
X81007849Y-64178520D01*
X81028893Y-64191133D01*
X81048598Y-64205747D01*
X81066777Y-64222223D01*
X81083253Y-64240402D01*
X81097867Y-64260107D01*
X81110480Y-64281151D01*
X81120970Y-64303329D01*
X81129235Y-64326429D01*
X81135196Y-64350227D01*
X81138796Y-64374496D01*
X81140000Y-64399000D01*
X81140000Y-65649000D01*
X81138796Y-65673504D01*
X81135196Y-65697773D01*
X81129235Y-65721571D01*
X81120970Y-65744671D01*
X81110480Y-65766849D01*
X81097867Y-65787893D01*
X81083253Y-65807598D01*
X81066777Y-65825777D01*
X81048598Y-65842253D01*
X81028893Y-65856867D01*
X81007849Y-65869480D01*
X80985671Y-65879970D01*
X80962571Y-65888235D01*
X80938773Y-65894196D01*
X80914504Y-65897796D01*
X80890000Y-65899000D01*
X79965000Y-65899000D01*
X79940496Y-65897796D01*
X79916227Y-65894196D01*
X79892429Y-65888235D01*
X79869329Y-65879970D01*
X79847151Y-65869480D01*
X79826107Y-65856867D01*
X79806402Y-65842253D01*
X79788223Y-65825777D01*
X79771747Y-65807598D01*
X79757133Y-65787893D01*
X79744520Y-65766849D01*
X79734030Y-65744671D01*
X79725765Y-65721571D01*
X79719804Y-65697773D01*
X79716204Y-65673504D01*
X79715000Y-65649000D01*
X79715000Y-64399000D01*
X79716204Y-64374496D01*
X79719804Y-64350227D01*
X79725765Y-64326429D01*
X79734030Y-64303329D01*
X79744520Y-64281151D01*
X79757133Y-64260107D01*
X79771747Y-64240402D01*
X79788223Y-64222223D01*
X79806402Y-64205747D01*
X79826107Y-64191133D01*
X79847151Y-64178520D01*
X79869329Y-64168030D01*
X79892429Y-64159765D01*
X79916227Y-64153804D01*
X79940496Y-64150204D01*
X79965000Y-64149000D01*
X80890000Y-64149000D01*
X80914504Y-64150204D01*
X80914504Y-64150204D01*
G37*
D12*
X80427500Y-65024000D03*
G04 #@! TD*
D11*
G04 #@! TO.C,C6*
G36*
X68848504Y-58543704D02*
X68872773Y-58547304D01*
X68896571Y-58553265D01*
X68919671Y-58561530D01*
X68941849Y-58572020D01*
X68962893Y-58584633D01*
X68982598Y-58599247D01*
X69000777Y-58615723D01*
X69017253Y-58633902D01*
X69031867Y-58653607D01*
X69044480Y-58674651D01*
X69054970Y-58696829D01*
X69063235Y-58719929D01*
X69069196Y-58743727D01*
X69072796Y-58767996D01*
X69074000Y-58792500D01*
X69074000Y-59717500D01*
X69072796Y-59742004D01*
X69069196Y-59766273D01*
X69063235Y-59790071D01*
X69054970Y-59813171D01*
X69044480Y-59835349D01*
X69031867Y-59856393D01*
X69017253Y-59876098D01*
X69000777Y-59894277D01*
X68982598Y-59910753D01*
X68962893Y-59925367D01*
X68941849Y-59937980D01*
X68919671Y-59948470D01*
X68896571Y-59956735D01*
X68872773Y-59962696D01*
X68848504Y-59966296D01*
X68824000Y-59967500D01*
X67574000Y-59967500D01*
X67549496Y-59966296D01*
X67525227Y-59962696D01*
X67501429Y-59956735D01*
X67478329Y-59948470D01*
X67456151Y-59937980D01*
X67435107Y-59925367D01*
X67415402Y-59910753D01*
X67397223Y-59894277D01*
X67380747Y-59876098D01*
X67366133Y-59856393D01*
X67353520Y-59835349D01*
X67343030Y-59813171D01*
X67334765Y-59790071D01*
X67328804Y-59766273D01*
X67325204Y-59742004D01*
X67324000Y-59717500D01*
X67324000Y-58792500D01*
X67325204Y-58767996D01*
X67328804Y-58743727D01*
X67334765Y-58719929D01*
X67343030Y-58696829D01*
X67353520Y-58674651D01*
X67366133Y-58653607D01*
X67380747Y-58633902D01*
X67397223Y-58615723D01*
X67415402Y-58599247D01*
X67435107Y-58584633D01*
X67456151Y-58572020D01*
X67478329Y-58561530D01*
X67501429Y-58553265D01*
X67525227Y-58547304D01*
X67549496Y-58543704D01*
X67574000Y-58542500D01*
X68824000Y-58542500D01*
X68848504Y-58543704D01*
X68848504Y-58543704D01*
G37*
D12*
X68199000Y-59255000D03*
D11*
G36*
X68848504Y-61518704D02*
X68872773Y-61522304D01*
X68896571Y-61528265D01*
X68919671Y-61536530D01*
X68941849Y-61547020D01*
X68962893Y-61559633D01*
X68982598Y-61574247D01*
X69000777Y-61590723D01*
X69017253Y-61608902D01*
X69031867Y-61628607D01*
X69044480Y-61649651D01*
X69054970Y-61671829D01*
X69063235Y-61694929D01*
X69069196Y-61718727D01*
X69072796Y-61742996D01*
X69074000Y-61767500D01*
X69074000Y-62692500D01*
X69072796Y-62717004D01*
X69069196Y-62741273D01*
X69063235Y-62765071D01*
X69054970Y-62788171D01*
X69044480Y-62810349D01*
X69031867Y-62831393D01*
X69017253Y-62851098D01*
X69000777Y-62869277D01*
X68982598Y-62885753D01*
X68962893Y-62900367D01*
X68941849Y-62912980D01*
X68919671Y-62923470D01*
X68896571Y-62931735D01*
X68872773Y-62937696D01*
X68848504Y-62941296D01*
X68824000Y-62942500D01*
X67574000Y-62942500D01*
X67549496Y-62941296D01*
X67525227Y-62937696D01*
X67501429Y-62931735D01*
X67478329Y-62923470D01*
X67456151Y-62912980D01*
X67435107Y-62900367D01*
X67415402Y-62885753D01*
X67397223Y-62869277D01*
X67380747Y-62851098D01*
X67366133Y-62831393D01*
X67353520Y-62810349D01*
X67343030Y-62788171D01*
X67334765Y-62765071D01*
X67328804Y-62741273D01*
X67325204Y-62717004D01*
X67324000Y-62692500D01*
X67324000Y-61767500D01*
X67325204Y-61742996D01*
X67328804Y-61718727D01*
X67334765Y-61694929D01*
X67343030Y-61671829D01*
X67353520Y-61649651D01*
X67366133Y-61628607D01*
X67380747Y-61608902D01*
X67397223Y-61590723D01*
X67415402Y-61574247D01*
X67435107Y-61559633D01*
X67456151Y-61547020D01*
X67478329Y-61536530D01*
X67501429Y-61528265D01*
X67525227Y-61522304D01*
X67549496Y-61518704D01*
X67574000Y-61517500D01*
X68824000Y-61517500D01*
X68848504Y-61518704D01*
X68848504Y-61518704D01*
G37*
D12*
X68199000Y-62230000D03*
G04 #@! TD*
D13*
G04 #@! TO.C,C7*
X72771000Y-59309000D03*
X77171000Y-59309000D03*
G04 #@! TD*
D11*
G04 #@! TO.C,C8*
G36*
X93359504Y-82473704D02*
X93383773Y-82477304D01*
X93407571Y-82483265D01*
X93430671Y-82491530D01*
X93452849Y-82502020D01*
X93473893Y-82514633D01*
X93493598Y-82529247D01*
X93511777Y-82545723D01*
X93528253Y-82563902D01*
X93542867Y-82583607D01*
X93555480Y-82604651D01*
X93565970Y-82626829D01*
X93574235Y-82649929D01*
X93580196Y-82673727D01*
X93583796Y-82697996D01*
X93585000Y-82722500D01*
X93585000Y-83647500D01*
X93583796Y-83672004D01*
X93580196Y-83696273D01*
X93574235Y-83720071D01*
X93565970Y-83743171D01*
X93555480Y-83765349D01*
X93542867Y-83786393D01*
X93528253Y-83806098D01*
X93511777Y-83824277D01*
X93493598Y-83840753D01*
X93473893Y-83855367D01*
X93452849Y-83867980D01*
X93430671Y-83878470D01*
X93407571Y-83886735D01*
X93383773Y-83892696D01*
X93359504Y-83896296D01*
X93335000Y-83897500D01*
X92085000Y-83897500D01*
X92060496Y-83896296D01*
X92036227Y-83892696D01*
X92012429Y-83886735D01*
X91989329Y-83878470D01*
X91967151Y-83867980D01*
X91946107Y-83855367D01*
X91926402Y-83840753D01*
X91908223Y-83824277D01*
X91891747Y-83806098D01*
X91877133Y-83786393D01*
X91864520Y-83765349D01*
X91854030Y-83743171D01*
X91845765Y-83720071D01*
X91839804Y-83696273D01*
X91836204Y-83672004D01*
X91835000Y-83647500D01*
X91835000Y-82722500D01*
X91836204Y-82697996D01*
X91839804Y-82673727D01*
X91845765Y-82649929D01*
X91854030Y-82626829D01*
X91864520Y-82604651D01*
X91877133Y-82583607D01*
X91891747Y-82563902D01*
X91908223Y-82545723D01*
X91926402Y-82529247D01*
X91946107Y-82514633D01*
X91967151Y-82502020D01*
X91989329Y-82491530D01*
X92012429Y-82483265D01*
X92036227Y-82477304D01*
X92060496Y-82473704D01*
X92085000Y-82472500D01*
X93335000Y-82472500D01*
X93359504Y-82473704D01*
X93359504Y-82473704D01*
G37*
D12*
X92710000Y-83185000D03*
D11*
G36*
X93359504Y-85448704D02*
X93383773Y-85452304D01*
X93407571Y-85458265D01*
X93430671Y-85466530D01*
X93452849Y-85477020D01*
X93473893Y-85489633D01*
X93493598Y-85504247D01*
X93511777Y-85520723D01*
X93528253Y-85538902D01*
X93542867Y-85558607D01*
X93555480Y-85579651D01*
X93565970Y-85601829D01*
X93574235Y-85624929D01*
X93580196Y-85648727D01*
X93583796Y-85672996D01*
X93585000Y-85697500D01*
X93585000Y-86622500D01*
X93583796Y-86647004D01*
X93580196Y-86671273D01*
X93574235Y-86695071D01*
X93565970Y-86718171D01*
X93555480Y-86740349D01*
X93542867Y-86761393D01*
X93528253Y-86781098D01*
X93511777Y-86799277D01*
X93493598Y-86815753D01*
X93473893Y-86830367D01*
X93452849Y-86842980D01*
X93430671Y-86853470D01*
X93407571Y-86861735D01*
X93383773Y-86867696D01*
X93359504Y-86871296D01*
X93335000Y-86872500D01*
X92085000Y-86872500D01*
X92060496Y-86871296D01*
X92036227Y-86867696D01*
X92012429Y-86861735D01*
X91989329Y-86853470D01*
X91967151Y-86842980D01*
X91946107Y-86830367D01*
X91926402Y-86815753D01*
X91908223Y-86799277D01*
X91891747Y-86781098D01*
X91877133Y-86761393D01*
X91864520Y-86740349D01*
X91854030Y-86718171D01*
X91845765Y-86695071D01*
X91839804Y-86671273D01*
X91836204Y-86647004D01*
X91835000Y-86622500D01*
X91835000Y-85697500D01*
X91836204Y-85672996D01*
X91839804Y-85648727D01*
X91845765Y-85624929D01*
X91854030Y-85601829D01*
X91864520Y-85579651D01*
X91877133Y-85558607D01*
X91891747Y-85538902D01*
X91908223Y-85520723D01*
X91926402Y-85504247D01*
X91946107Y-85489633D01*
X91967151Y-85477020D01*
X91989329Y-85466530D01*
X92012429Y-85458265D01*
X92036227Y-85452304D01*
X92060496Y-85448704D01*
X92085000Y-85447500D01*
X93335000Y-85447500D01*
X93359504Y-85448704D01*
X93359504Y-85448704D01*
G37*
D12*
X92710000Y-86160000D03*
G04 #@! TD*
D11*
G04 #@! TO.C,C9*
G36*
X103574504Y-84470204D02*
X103598773Y-84473804D01*
X103622571Y-84479765D01*
X103645671Y-84488030D01*
X103667849Y-84498520D01*
X103688893Y-84511133D01*
X103708598Y-84525747D01*
X103726777Y-84542223D01*
X103743253Y-84560402D01*
X103757867Y-84580107D01*
X103770480Y-84601151D01*
X103780970Y-84623329D01*
X103789235Y-84646429D01*
X103795196Y-84670227D01*
X103798796Y-84694496D01*
X103800000Y-84719000D01*
X103800000Y-85969000D01*
X103798796Y-85993504D01*
X103795196Y-86017773D01*
X103789235Y-86041571D01*
X103780970Y-86064671D01*
X103770480Y-86086849D01*
X103757867Y-86107893D01*
X103743253Y-86127598D01*
X103726777Y-86145777D01*
X103708598Y-86162253D01*
X103688893Y-86176867D01*
X103667849Y-86189480D01*
X103645671Y-86199970D01*
X103622571Y-86208235D01*
X103598773Y-86214196D01*
X103574504Y-86217796D01*
X103550000Y-86219000D01*
X102625000Y-86219000D01*
X102600496Y-86217796D01*
X102576227Y-86214196D01*
X102552429Y-86208235D01*
X102529329Y-86199970D01*
X102507151Y-86189480D01*
X102486107Y-86176867D01*
X102466402Y-86162253D01*
X102448223Y-86145777D01*
X102431747Y-86127598D01*
X102417133Y-86107893D01*
X102404520Y-86086849D01*
X102394030Y-86064671D01*
X102385765Y-86041571D01*
X102379804Y-86017773D01*
X102376204Y-85993504D01*
X102375000Y-85969000D01*
X102375000Y-84719000D01*
X102376204Y-84694496D01*
X102379804Y-84670227D01*
X102385765Y-84646429D01*
X102394030Y-84623329D01*
X102404520Y-84601151D01*
X102417133Y-84580107D01*
X102431747Y-84560402D01*
X102448223Y-84542223D01*
X102466402Y-84525747D01*
X102486107Y-84511133D01*
X102507151Y-84498520D01*
X102529329Y-84488030D01*
X102552429Y-84479765D01*
X102576227Y-84473804D01*
X102600496Y-84470204D01*
X102625000Y-84469000D01*
X103550000Y-84469000D01*
X103574504Y-84470204D01*
X103574504Y-84470204D01*
G37*
D12*
X103087500Y-85344000D03*
D11*
G36*
X100599504Y-84470204D02*
X100623773Y-84473804D01*
X100647571Y-84479765D01*
X100670671Y-84488030D01*
X100692849Y-84498520D01*
X100713893Y-84511133D01*
X100733598Y-84525747D01*
X100751777Y-84542223D01*
X100768253Y-84560402D01*
X100782867Y-84580107D01*
X100795480Y-84601151D01*
X100805970Y-84623329D01*
X100814235Y-84646429D01*
X100820196Y-84670227D01*
X100823796Y-84694496D01*
X100825000Y-84719000D01*
X100825000Y-85969000D01*
X100823796Y-85993504D01*
X100820196Y-86017773D01*
X100814235Y-86041571D01*
X100805970Y-86064671D01*
X100795480Y-86086849D01*
X100782867Y-86107893D01*
X100768253Y-86127598D01*
X100751777Y-86145777D01*
X100733598Y-86162253D01*
X100713893Y-86176867D01*
X100692849Y-86189480D01*
X100670671Y-86199970D01*
X100647571Y-86208235D01*
X100623773Y-86214196D01*
X100599504Y-86217796D01*
X100575000Y-86219000D01*
X99650000Y-86219000D01*
X99625496Y-86217796D01*
X99601227Y-86214196D01*
X99577429Y-86208235D01*
X99554329Y-86199970D01*
X99532151Y-86189480D01*
X99511107Y-86176867D01*
X99491402Y-86162253D01*
X99473223Y-86145777D01*
X99456747Y-86127598D01*
X99442133Y-86107893D01*
X99429520Y-86086849D01*
X99419030Y-86064671D01*
X99410765Y-86041571D01*
X99404804Y-86017773D01*
X99401204Y-85993504D01*
X99400000Y-85969000D01*
X99400000Y-84719000D01*
X99401204Y-84694496D01*
X99404804Y-84670227D01*
X99410765Y-84646429D01*
X99419030Y-84623329D01*
X99429520Y-84601151D01*
X99442133Y-84580107D01*
X99456747Y-84560402D01*
X99473223Y-84542223D01*
X99491402Y-84525747D01*
X99511107Y-84511133D01*
X99532151Y-84498520D01*
X99554329Y-84488030D01*
X99577429Y-84479765D01*
X99601227Y-84473804D01*
X99625496Y-84470204D01*
X99650000Y-84469000D01*
X100575000Y-84469000D01*
X100599504Y-84470204D01*
X100599504Y-84470204D01*
G37*
D12*
X100112500Y-85344000D03*
G04 #@! TD*
D11*
G04 #@! TO.C,C10*
G36*
X100690004Y-67198204D02*
X100714273Y-67201804D01*
X100738071Y-67207765D01*
X100761171Y-67216030D01*
X100783349Y-67226520D01*
X100804393Y-67239133D01*
X100824098Y-67253747D01*
X100842277Y-67270223D01*
X100858753Y-67288402D01*
X100873367Y-67308107D01*
X100885980Y-67329151D01*
X100896470Y-67351329D01*
X100904735Y-67374429D01*
X100910696Y-67398227D01*
X100914296Y-67422496D01*
X100915500Y-67447000D01*
X100915500Y-68697000D01*
X100914296Y-68721504D01*
X100910696Y-68745773D01*
X100904735Y-68769571D01*
X100896470Y-68792671D01*
X100885980Y-68814849D01*
X100873367Y-68835893D01*
X100858753Y-68855598D01*
X100842277Y-68873777D01*
X100824098Y-68890253D01*
X100804393Y-68904867D01*
X100783349Y-68917480D01*
X100761171Y-68927970D01*
X100738071Y-68936235D01*
X100714273Y-68942196D01*
X100690004Y-68945796D01*
X100665500Y-68947000D01*
X99740500Y-68947000D01*
X99715996Y-68945796D01*
X99691727Y-68942196D01*
X99667929Y-68936235D01*
X99644829Y-68927970D01*
X99622651Y-68917480D01*
X99601607Y-68904867D01*
X99581902Y-68890253D01*
X99563723Y-68873777D01*
X99547247Y-68855598D01*
X99532633Y-68835893D01*
X99520020Y-68814849D01*
X99509530Y-68792671D01*
X99501265Y-68769571D01*
X99495304Y-68745773D01*
X99491704Y-68721504D01*
X99490500Y-68697000D01*
X99490500Y-67447000D01*
X99491704Y-67422496D01*
X99495304Y-67398227D01*
X99501265Y-67374429D01*
X99509530Y-67351329D01*
X99520020Y-67329151D01*
X99532633Y-67308107D01*
X99547247Y-67288402D01*
X99563723Y-67270223D01*
X99581902Y-67253747D01*
X99601607Y-67239133D01*
X99622651Y-67226520D01*
X99644829Y-67216030D01*
X99667929Y-67207765D01*
X99691727Y-67201804D01*
X99715996Y-67198204D01*
X99740500Y-67197000D01*
X100665500Y-67197000D01*
X100690004Y-67198204D01*
X100690004Y-67198204D01*
G37*
D12*
X100203000Y-68072000D03*
D11*
G36*
X97715004Y-67198204D02*
X97739273Y-67201804D01*
X97763071Y-67207765D01*
X97786171Y-67216030D01*
X97808349Y-67226520D01*
X97829393Y-67239133D01*
X97849098Y-67253747D01*
X97867277Y-67270223D01*
X97883753Y-67288402D01*
X97898367Y-67308107D01*
X97910980Y-67329151D01*
X97921470Y-67351329D01*
X97929735Y-67374429D01*
X97935696Y-67398227D01*
X97939296Y-67422496D01*
X97940500Y-67447000D01*
X97940500Y-68697000D01*
X97939296Y-68721504D01*
X97935696Y-68745773D01*
X97929735Y-68769571D01*
X97921470Y-68792671D01*
X97910980Y-68814849D01*
X97898367Y-68835893D01*
X97883753Y-68855598D01*
X97867277Y-68873777D01*
X97849098Y-68890253D01*
X97829393Y-68904867D01*
X97808349Y-68917480D01*
X97786171Y-68927970D01*
X97763071Y-68936235D01*
X97739273Y-68942196D01*
X97715004Y-68945796D01*
X97690500Y-68947000D01*
X96765500Y-68947000D01*
X96740996Y-68945796D01*
X96716727Y-68942196D01*
X96692929Y-68936235D01*
X96669829Y-68927970D01*
X96647651Y-68917480D01*
X96626607Y-68904867D01*
X96606902Y-68890253D01*
X96588723Y-68873777D01*
X96572247Y-68855598D01*
X96557633Y-68835893D01*
X96545020Y-68814849D01*
X96534530Y-68792671D01*
X96526265Y-68769571D01*
X96520304Y-68745773D01*
X96516704Y-68721504D01*
X96515500Y-68697000D01*
X96515500Y-67447000D01*
X96516704Y-67422496D01*
X96520304Y-67398227D01*
X96526265Y-67374429D01*
X96534530Y-67351329D01*
X96545020Y-67329151D01*
X96557633Y-67308107D01*
X96572247Y-67288402D01*
X96588723Y-67270223D01*
X96606902Y-67253747D01*
X96626607Y-67239133D01*
X96647651Y-67226520D01*
X96669829Y-67216030D01*
X96692929Y-67207765D01*
X96716727Y-67201804D01*
X96740996Y-67198204D01*
X96765500Y-67197000D01*
X97690500Y-67197000D01*
X97715004Y-67198204D01*
X97715004Y-67198204D01*
G37*
D12*
X97228000Y-68072000D03*
G04 #@! TD*
D11*
G04 #@! TO.C,C11*
G36*
X109199004Y-84597204D02*
X109223273Y-84600804D01*
X109247071Y-84606765D01*
X109270171Y-84615030D01*
X109292349Y-84625520D01*
X109313393Y-84638133D01*
X109333098Y-84652747D01*
X109351277Y-84669223D01*
X109367753Y-84687402D01*
X109382367Y-84707107D01*
X109394980Y-84728151D01*
X109405470Y-84750329D01*
X109413735Y-84773429D01*
X109419696Y-84797227D01*
X109423296Y-84821496D01*
X109424500Y-84846000D01*
X109424500Y-86096000D01*
X109423296Y-86120504D01*
X109419696Y-86144773D01*
X109413735Y-86168571D01*
X109405470Y-86191671D01*
X109394980Y-86213849D01*
X109382367Y-86234893D01*
X109367753Y-86254598D01*
X109351277Y-86272777D01*
X109333098Y-86289253D01*
X109313393Y-86303867D01*
X109292349Y-86316480D01*
X109270171Y-86326970D01*
X109247071Y-86335235D01*
X109223273Y-86341196D01*
X109199004Y-86344796D01*
X109174500Y-86346000D01*
X108249500Y-86346000D01*
X108224996Y-86344796D01*
X108200727Y-86341196D01*
X108176929Y-86335235D01*
X108153829Y-86326970D01*
X108131651Y-86316480D01*
X108110607Y-86303867D01*
X108090902Y-86289253D01*
X108072723Y-86272777D01*
X108056247Y-86254598D01*
X108041633Y-86234893D01*
X108029020Y-86213849D01*
X108018530Y-86191671D01*
X108010265Y-86168571D01*
X108004304Y-86144773D01*
X108000704Y-86120504D01*
X107999500Y-86096000D01*
X107999500Y-84846000D01*
X108000704Y-84821496D01*
X108004304Y-84797227D01*
X108010265Y-84773429D01*
X108018530Y-84750329D01*
X108029020Y-84728151D01*
X108041633Y-84707107D01*
X108056247Y-84687402D01*
X108072723Y-84669223D01*
X108090902Y-84652747D01*
X108110607Y-84638133D01*
X108131651Y-84625520D01*
X108153829Y-84615030D01*
X108176929Y-84606765D01*
X108200727Y-84600804D01*
X108224996Y-84597204D01*
X108249500Y-84596000D01*
X109174500Y-84596000D01*
X109199004Y-84597204D01*
X109199004Y-84597204D01*
G37*
D12*
X108712000Y-85471000D03*
D11*
G36*
X112174004Y-84597204D02*
X112198273Y-84600804D01*
X112222071Y-84606765D01*
X112245171Y-84615030D01*
X112267349Y-84625520D01*
X112288393Y-84638133D01*
X112308098Y-84652747D01*
X112326277Y-84669223D01*
X112342753Y-84687402D01*
X112357367Y-84707107D01*
X112369980Y-84728151D01*
X112380470Y-84750329D01*
X112388735Y-84773429D01*
X112394696Y-84797227D01*
X112398296Y-84821496D01*
X112399500Y-84846000D01*
X112399500Y-86096000D01*
X112398296Y-86120504D01*
X112394696Y-86144773D01*
X112388735Y-86168571D01*
X112380470Y-86191671D01*
X112369980Y-86213849D01*
X112357367Y-86234893D01*
X112342753Y-86254598D01*
X112326277Y-86272777D01*
X112308098Y-86289253D01*
X112288393Y-86303867D01*
X112267349Y-86316480D01*
X112245171Y-86326970D01*
X112222071Y-86335235D01*
X112198273Y-86341196D01*
X112174004Y-86344796D01*
X112149500Y-86346000D01*
X111224500Y-86346000D01*
X111199996Y-86344796D01*
X111175727Y-86341196D01*
X111151929Y-86335235D01*
X111128829Y-86326970D01*
X111106651Y-86316480D01*
X111085607Y-86303867D01*
X111065902Y-86289253D01*
X111047723Y-86272777D01*
X111031247Y-86254598D01*
X111016633Y-86234893D01*
X111004020Y-86213849D01*
X110993530Y-86191671D01*
X110985265Y-86168571D01*
X110979304Y-86144773D01*
X110975704Y-86120504D01*
X110974500Y-86096000D01*
X110974500Y-84846000D01*
X110975704Y-84821496D01*
X110979304Y-84797227D01*
X110985265Y-84773429D01*
X110993530Y-84750329D01*
X111004020Y-84728151D01*
X111016633Y-84707107D01*
X111031247Y-84687402D01*
X111047723Y-84669223D01*
X111065902Y-84652747D01*
X111085607Y-84638133D01*
X111106651Y-84625520D01*
X111128829Y-84615030D01*
X111151929Y-84606765D01*
X111175727Y-84600804D01*
X111199996Y-84597204D01*
X111224500Y-84596000D01*
X112149500Y-84596000D01*
X112174004Y-84597204D01*
X112174004Y-84597204D01*
G37*
D12*
X111687000Y-85471000D03*
G04 #@! TD*
D11*
G04 #@! TO.C,C12*
G36*
X112047004Y-77866204D02*
X112071273Y-77869804D01*
X112095071Y-77875765D01*
X112118171Y-77884030D01*
X112140349Y-77894520D01*
X112161393Y-77907133D01*
X112181098Y-77921747D01*
X112199277Y-77938223D01*
X112215753Y-77956402D01*
X112230367Y-77976107D01*
X112242980Y-77997151D01*
X112253470Y-78019329D01*
X112261735Y-78042429D01*
X112267696Y-78066227D01*
X112271296Y-78090496D01*
X112272500Y-78115000D01*
X112272500Y-79365000D01*
X112271296Y-79389504D01*
X112267696Y-79413773D01*
X112261735Y-79437571D01*
X112253470Y-79460671D01*
X112242980Y-79482849D01*
X112230367Y-79503893D01*
X112215753Y-79523598D01*
X112199277Y-79541777D01*
X112181098Y-79558253D01*
X112161393Y-79572867D01*
X112140349Y-79585480D01*
X112118171Y-79595970D01*
X112095071Y-79604235D01*
X112071273Y-79610196D01*
X112047004Y-79613796D01*
X112022500Y-79615000D01*
X111097500Y-79615000D01*
X111072996Y-79613796D01*
X111048727Y-79610196D01*
X111024929Y-79604235D01*
X111001829Y-79595970D01*
X110979651Y-79585480D01*
X110958607Y-79572867D01*
X110938902Y-79558253D01*
X110920723Y-79541777D01*
X110904247Y-79523598D01*
X110889633Y-79503893D01*
X110877020Y-79482849D01*
X110866530Y-79460671D01*
X110858265Y-79437571D01*
X110852304Y-79413773D01*
X110848704Y-79389504D01*
X110847500Y-79365000D01*
X110847500Y-78115000D01*
X110848704Y-78090496D01*
X110852304Y-78066227D01*
X110858265Y-78042429D01*
X110866530Y-78019329D01*
X110877020Y-77997151D01*
X110889633Y-77976107D01*
X110904247Y-77956402D01*
X110920723Y-77938223D01*
X110938902Y-77921747D01*
X110958607Y-77907133D01*
X110979651Y-77894520D01*
X111001829Y-77884030D01*
X111024929Y-77875765D01*
X111048727Y-77869804D01*
X111072996Y-77866204D01*
X111097500Y-77865000D01*
X112022500Y-77865000D01*
X112047004Y-77866204D01*
X112047004Y-77866204D01*
G37*
D12*
X111560000Y-78740000D03*
D11*
G36*
X109072004Y-77866204D02*
X109096273Y-77869804D01*
X109120071Y-77875765D01*
X109143171Y-77884030D01*
X109165349Y-77894520D01*
X109186393Y-77907133D01*
X109206098Y-77921747D01*
X109224277Y-77938223D01*
X109240753Y-77956402D01*
X109255367Y-77976107D01*
X109267980Y-77997151D01*
X109278470Y-78019329D01*
X109286735Y-78042429D01*
X109292696Y-78066227D01*
X109296296Y-78090496D01*
X109297500Y-78115000D01*
X109297500Y-79365000D01*
X109296296Y-79389504D01*
X109292696Y-79413773D01*
X109286735Y-79437571D01*
X109278470Y-79460671D01*
X109267980Y-79482849D01*
X109255367Y-79503893D01*
X109240753Y-79523598D01*
X109224277Y-79541777D01*
X109206098Y-79558253D01*
X109186393Y-79572867D01*
X109165349Y-79585480D01*
X109143171Y-79595970D01*
X109120071Y-79604235D01*
X109096273Y-79610196D01*
X109072004Y-79613796D01*
X109047500Y-79615000D01*
X108122500Y-79615000D01*
X108097996Y-79613796D01*
X108073727Y-79610196D01*
X108049929Y-79604235D01*
X108026829Y-79595970D01*
X108004651Y-79585480D01*
X107983607Y-79572867D01*
X107963902Y-79558253D01*
X107945723Y-79541777D01*
X107929247Y-79523598D01*
X107914633Y-79503893D01*
X107902020Y-79482849D01*
X107891530Y-79460671D01*
X107883265Y-79437571D01*
X107877304Y-79413773D01*
X107873704Y-79389504D01*
X107872500Y-79365000D01*
X107872500Y-78115000D01*
X107873704Y-78090496D01*
X107877304Y-78066227D01*
X107883265Y-78042429D01*
X107891530Y-78019329D01*
X107902020Y-77997151D01*
X107914633Y-77976107D01*
X107929247Y-77956402D01*
X107945723Y-77938223D01*
X107963902Y-77921747D01*
X107983607Y-77907133D01*
X108004651Y-77894520D01*
X108026829Y-77884030D01*
X108049929Y-77875765D01*
X108073727Y-77869804D01*
X108097996Y-77866204D01*
X108122500Y-77865000D01*
X109047500Y-77865000D01*
X109072004Y-77866204D01*
X109072004Y-77866204D01*
G37*
D12*
X108585000Y-78740000D03*
G04 #@! TD*
D11*
G04 #@! TO.C,C13*
G36*
X95518504Y-67451204D02*
X95542773Y-67454804D01*
X95566571Y-67460765D01*
X95589671Y-67469030D01*
X95611849Y-67479520D01*
X95632893Y-67492133D01*
X95652598Y-67506747D01*
X95670777Y-67523223D01*
X95687253Y-67541402D01*
X95701867Y-67561107D01*
X95714480Y-67582151D01*
X95724970Y-67604329D01*
X95733235Y-67627429D01*
X95739196Y-67651227D01*
X95742796Y-67675496D01*
X95744000Y-67700000D01*
X95744000Y-68625000D01*
X95742796Y-68649504D01*
X95739196Y-68673773D01*
X95733235Y-68697571D01*
X95724970Y-68720671D01*
X95714480Y-68742849D01*
X95701867Y-68763893D01*
X95687253Y-68783598D01*
X95670777Y-68801777D01*
X95652598Y-68818253D01*
X95632893Y-68832867D01*
X95611849Y-68845480D01*
X95589671Y-68855970D01*
X95566571Y-68864235D01*
X95542773Y-68870196D01*
X95518504Y-68873796D01*
X95494000Y-68875000D01*
X94244000Y-68875000D01*
X94219496Y-68873796D01*
X94195227Y-68870196D01*
X94171429Y-68864235D01*
X94148329Y-68855970D01*
X94126151Y-68845480D01*
X94105107Y-68832867D01*
X94085402Y-68818253D01*
X94067223Y-68801777D01*
X94050747Y-68783598D01*
X94036133Y-68763893D01*
X94023520Y-68742849D01*
X94013030Y-68720671D01*
X94004765Y-68697571D01*
X93998804Y-68673773D01*
X93995204Y-68649504D01*
X93994000Y-68625000D01*
X93994000Y-67700000D01*
X93995204Y-67675496D01*
X93998804Y-67651227D01*
X94004765Y-67627429D01*
X94013030Y-67604329D01*
X94023520Y-67582151D01*
X94036133Y-67561107D01*
X94050747Y-67541402D01*
X94067223Y-67523223D01*
X94085402Y-67506747D01*
X94105107Y-67492133D01*
X94126151Y-67479520D01*
X94148329Y-67469030D01*
X94171429Y-67460765D01*
X94195227Y-67454804D01*
X94219496Y-67451204D01*
X94244000Y-67450000D01*
X95494000Y-67450000D01*
X95518504Y-67451204D01*
X95518504Y-67451204D01*
G37*
D12*
X94869000Y-68162500D03*
D11*
G36*
X95518504Y-64476204D02*
X95542773Y-64479804D01*
X95566571Y-64485765D01*
X95589671Y-64494030D01*
X95611849Y-64504520D01*
X95632893Y-64517133D01*
X95652598Y-64531747D01*
X95670777Y-64548223D01*
X95687253Y-64566402D01*
X95701867Y-64586107D01*
X95714480Y-64607151D01*
X95724970Y-64629329D01*
X95733235Y-64652429D01*
X95739196Y-64676227D01*
X95742796Y-64700496D01*
X95744000Y-64725000D01*
X95744000Y-65650000D01*
X95742796Y-65674504D01*
X95739196Y-65698773D01*
X95733235Y-65722571D01*
X95724970Y-65745671D01*
X95714480Y-65767849D01*
X95701867Y-65788893D01*
X95687253Y-65808598D01*
X95670777Y-65826777D01*
X95652598Y-65843253D01*
X95632893Y-65857867D01*
X95611849Y-65870480D01*
X95589671Y-65880970D01*
X95566571Y-65889235D01*
X95542773Y-65895196D01*
X95518504Y-65898796D01*
X95494000Y-65900000D01*
X94244000Y-65900000D01*
X94219496Y-65898796D01*
X94195227Y-65895196D01*
X94171429Y-65889235D01*
X94148329Y-65880970D01*
X94126151Y-65870480D01*
X94105107Y-65857867D01*
X94085402Y-65843253D01*
X94067223Y-65826777D01*
X94050747Y-65808598D01*
X94036133Y-65788893D01*
X94023520Y-65767849D01*
X94013030Y-65745671D01*
X94004765Y-65722571D01*
X93998804Y-65698773D01*
X93995204Y-65674504D01*
X93994000Y-65650000D01*
X93994000Y-64725000D01*
X93995204Y-64700496D01*
X93998804Y-64676227D01*
X94004765Y-64652429D01*
X94013030Y-64629329D01*
X94023520Y-64607151D01*
X94036133Y-64586107D01*
X94050747Y-64566402D01*
X94067223Y-64548223D01*
X94085402Y-64531747D01*
X94105107Y-64517133D01*
X94126151Y-64504520D01*
X94148329Y-64494030D01*
X94171429Y-64485765D01*
X94195227Y-64479804D01*
X94219496Y-64476204D01*
X94244000Y-64475000D01*
X95494000Y-64475000D01*
X95518504Y-64476204D01*
X95518504Y-64476204D01*
G37*
D12*
X94869000Y-65187500D03*
G04 #@! TD*
D14*
G04 #@! TO.C,J1*
X57272000Y-80996000D03*
X57272000Y-81646000D03*
X57272000Y-82296000D03*
X57272000Y-82946000D03*
X57272000Y-83596000D03*
G04 #@! TD*
D11*
G04 #@! TO.C,R1*
G36*
X68848504Y-64004704D02*
X68872773Y-64008304D01*
X68896571Y-64014265D01*
X68919671Y-64022530D01*
X68941849Y-64033020D01*
X68962893Y-64045633D01*
X68982598Y-64060247D01*
X69000777Y-64076723D01*
X69017253Y-64094902D01*
X69031867Y-64114607D01*
X69044480Y-64135651D01*
X69054970Y-64157829D01*
X69063235Y-64180929D01*
X69069196Y-64204727D01*
X69072796Y-64228996D01*
X69074000Y-64253500D01*
X69074000Y-65178500D01*
X69072796Y-65203004D01*
X69069196Y-65227273D01*
X69063235Y-65251071D01*
X69054970Y-65274171D01*
X69044480Y-65296349D01*
X69031867Y-65317393D01*
X69017253Y-65337098D01*
X69000777Y-65355277D01*
X68982598Y-65371753D01*
X68962893Y-65386367D01*
X68941849Y-65398980D01*
X68919671Y-65409470D01*
X68896571Y-65417735D01*
X68872773Y-65423696D01*
X68848504Y-65427296D01*
X68824000Y-65428500D01*
X67574000Y-65428500D01*
X67549496Y-65427296D01*
X67525227Y-65423696D01*
X67501429Y-65417735D01*
X67478329Y-65409470D01*
X67456151Y-65398980D01*
X67435107Y-65386367D01*
X67415402Y-65371753D01*
X67397223Y-65355277D01*
X67380747Y-65337098D01*
X67366133Y-65317393D01*
X67353520Y-65296349D01*
X67343030Y-65274171D01*
X67334765Y-65251071D01*
X67328804Y-65227273D01*
X67325204Y-65203004D01*
X67324000Y-65178500D01*
X67324000Y-64253500D01*
X67325204Y-64228996D01*
X67328804Y-64204727D01*
X67334765Y-64180929D01*
X67343030Y-64157829D01*
X67353520Y-64135651D01*
X67366133Y-64114607D01*
X67380747Y-64094902D01*
X67397223Y-64076723D01*
X67415402Y-64060247D01*
X67435107Y-64045633D01*
X67456151Y-64033020D01*
X67478329Y-64022530D01*
X67501429Y-64014265D01*
X67525227Y-64008304D01*
X67549496Y-64004704D01*
X67574000Y-64003500D01*
X68824000Y-64003500D01*
X68848504Y-64004704D01*
X68848504Y-64004704D01*
G37*
D12*
X68199000Y-64716000D03*
D11*
G36*
X68848504Y-66979704D02*
X68872773Y-66983304D01*
X68896571Y-66989265D01*
X68919671Y-66997530D01*
X68941849Y-67008020D01*
X68962893Y-67020633D01*
X68982598Y-67035247D01*
X69000777Y-67051723D01*
X69017253Y-67069902D01*
X69031867Y-67089607D01*
X69044480Y-67110651D01*
X69054970Y-67132829D01*
X69063235Y-67155929D01*
X69069196Y-67179727D01*
X69072796Y-67203996D01*
X69074000Y-67228500D01*
X69074000Y-68153500D01*
X69072796Y-68178004D01*
X69069196Y-68202273D01*
X69063235Y-68226071D01*
X69054970Y-68249171D01*
X69044480Y-68271349D01*
X69031867Y-68292393D01*
X69017253Y-68312098D01*
X69000777Y-68330277D01*
X68982598Y-68346753D01*
X68962893Y-68361367D01*
X68941849Y-68373980D01*
X68919671Y-68384470D01*
X68896571Y-68392735D01*
X68872773Y-68398696D01*
X68848504Y-68402296D01*
X68824000Y-68403500D01*
X67574000Y-68403500D01*
X67549496Y-68402296D01*
X67525227Y-68398696D01*
X67501429Y-68392735D01*
X67478329Y-68384470D01*
X67456151Y-68373980D01*
X67435107Y-68361367D01*
X67415402Y-68346753D01*
X67397223Y-68330277D01*
X67380747Y-68312098D01*
X67366133Y-68292393D01*
X67353520Y-68271349D01*
X67343030Y-68249171D01*
X67334765Y-68226071D01*
X67328804Y-68202273D01*
X67325204Y-68178004D01*
X67324000Y-68153500D01*
X67324000Y-67228500D01*
X67325204Y-67203996D01*
X67328804Y-67179727D01*
X67334765Y-67155929D01*
X67343030Y-67132829D01*
X67353520Y-67110651D01*
X67366133Y-67089607D01*
X67380747Y-67069902D01*
X67397223Y-67051723D01*
X67415402Y-67035247D01*
X67435107Y-67020633D01*
X67456151Y-67008020D01*
X67478329Y-66997530D01*
X67501429Y-66989265D01*
X67525227Y-66983304D01*
X67549496Y-66979704D01*
X67574000Y-66978500D01*
X68824000Y-66978500D01*
X68848504Y-66979704D01*
X68848504Y-66979704D01*
G37*
D12*
X68199000Y-67691000D03*
G04 #@! TD*
D11*
G04 #@! TO.C,R2*
G36*
X97677504Y-86483704D02*
X97701773Y-86487304D01*
X97725571Y-86493265D01*
X97748671Y-86501530D01*
X97770849Y-86512020D01*
X97791893Y-86524633D01*
X97811598Y-86539247D01*
X97829777Y-86555723D01*
X97846253Y-86573902D01*
X97860867Y-86593607D01*
X97873480Y-86614651D01*
X97883970Y-86636829D01*
X97892235Y-86659929D01*
X97898196Y-86683727D01*
X97901796Y-86707996D01*
X97903000Y-86732500D01*
X97903000Y-87657500D01*
X97901796Y-87682004D01*
X97898196Y-87706273D01*
X97892235Y-87730071D01*
X97883970Y-87753171D01*
X97873480Y-87775349D01*
X97860867Y-87796393D01*
X97846253Y-87816098D01*
X97829777Y-87834277D01*
X97811598Y-87850753D01*
X97791893Y-87865367D01*
X97770849Y-87877980D01*
X97748671Y-87888470D01*
X97725571Y-87896735D01*
X97701773Y-87902696D01*
X97677504Y-87906296D01*
X97653000Y-87907500D01*
X96403000Y-87907500D01*
X96378496Y-87906296D01*
X96354227Y-87902696D01*
X96330429Y-87896735D01*
X96307329Y-87888470D01*
X96285151Y-87877980D01*
X96264107Y-87865367D01*
X96244402Y-87850753D01*
X96226223Y-87834277D01*
X96209747Y-87816098D01*
X96195133Y-87796393D01*
X96182520Y-87775349D01*
X96172030Y-87753171D01*
X96163765Y-87730071D01*
X96157804Y-87706273D01*
X96154204Y-87682004D01*
X96153000Y-87657500D01*
X96153000Y-86732500D01*
X96154204Y-86707996D01*
X96157804Y-86683727D01*
X96163765Y-86659929D01*
X96172030Y-86636829D01*
X96182520Y-86614651D01*
X96195133Y-86593607D01*
X96209747Y-86573902D01*
X96226223Y-86555723D01*
X96244402Y-86539247D01*
X96264107Y-86524633D01*
X96285151Y-86512020D01*
X96307329Y-86501530D01*
X96330429Y-86493265D01*
X96354227Y-86487304D01*
X96378496Y-86483704D01*
X96403000Y-86482500D01*
X97653000Y-86482500D01*
X97677504Y-86483704D01*
X97677504Y-86483704D01*
G37*
D12*
X97028000Y-87195000D03*
D11*
G36*
X97677504Y-89458704D02*
X97701773Y-89462304D01*
X97725571Y-89468265D01*
X97748671Y-89476530D01*
X97770849Y-89487020D01*
X97791893Y-89499633D01*
X97811598Y-89514247D01*
X97829777Y-89530723D01*
X97846253Y-89548902D01*
X97860867Y-89568607D01*
X97873480Y-89589651D01*
X97883970Y-89611829D01*
X97892235Y-89634929D01*
X97898196Y-89658727D01*
X97901796Y-89682996D01*
X97903000Y-89707500D01*
X97903000Y-90632500D01*
X97901796Y-90657004D01*
X97898196Y-90681273D01*
X97892235Y-90705071D01*
X97883970Y-90728171D01*
X97873480Y-90750349D01*
X97860867Y-90771393D01*
X97846253Y-90791098D01*
X97829777Y-90809277D01*
X97811598Y-90825753D01*
X97791893Y-90840367D01*
X97770849Y-90852980D01*
X97748671Y-90863470D01*
X97725571Y-90871735D01*
X97701773Y-90877696D01*
X97677504Y-90881296D01*
X97653000Y-90882500D01*
X96403000Y-90882500D01*
X96378496Y-90881296D01*
X96354227Y-90877696D01*
X96330429Y-90871735D01*
X96307329Y-90863470D01*
X96285151Y-90852980D01*
X96264107Y-90840367D01*
X96244402Y-90825753D01*
X96226223Y-90809277D01*
X96209747Y-90791098D01*
X96195133Y-90771393D01*
X96182520Y-90750349D01*
X96172030Y-90728171D01*
X96163765Y-90705071D01*
X96157804Y-90681273D01*
X96154204Y-90657004D01*
X96153000Y-90632500D01*
X96153000Y-89707500D01*
X96154204Y-89682996D01*
X96157804Y-89658727D01*
X96163765Y-89634929D01*
X96172030Y-89611829D01*
X96182520Y-89589651D01*
X96195133Y-89568607D01*
X96209747Y-89548902D01*
X96226223Y-89530723D01*
X96244402Y-89514247D01*
X96264107Y-89499633D01*
X96285151Y-89487020D01*
X96307329Y-89476530D01*
X96330429Y-89468265D01*
X96354227Y-89462304D01*
X96378496Y-89458704D01*
X96403000Y-89457500D01*
X97653000Y-89457500D01*
X97677504Y-89458704D01*
X97677504Y-89458704D01*
G37*
D12*
X97028000Y-90170000D03*
G04 #@! TD*
D11*
G04 #@! TO.C,R3*
G36*
X89486004Y-72069204D02*
X89510273Y-72072804D01*
X89534071Y-72078765D01*
X89557171Y-72087030D01*
X89579349Y-72097520D01*
X89600393Y-72110133D01*
X89620098Y-72124747D01*
X89638277Y-72141223D01*
X89654753Y-72159402D01*
X89669367Y-72179107D01*
X89681980Y-72200151D01*
X89692470Y-72222329D01*
X89700735Y-72245429D01*
X89706696Y-72269227D01*
X89710296Y-72293496D01*
X89711500Y-72318000D01*
X89711500Y-73243000D01*
X89710296Y-73267504D01*
X89706696Y-73291773D01*
X89700735Y-73315571D01*
X89692470Y-73338671D01*
X89681980Y-73360849D01*
X89669367Y-73381893D01*
X89654753Y-73401598D01*
X89638277Y-73419777D01*
X89620098Y-73436253D01*
X89600393Y-73450867D01*
X89579349Y-73463480D01*
X89557171Y-73473970D01*
X89534071Y-73482235D01*
X89510273Y-73488196D01*
X89486004Y-73491796D01*
X89461500Y-73493000D01*
X88211500Y-73493000D01*
X88186996Y-73491796D01*
X88162727Y-73488196D01*
X88138929Y-73482235D01*
X88115829Y-73473970D01*
X88093651Y-73463480D01*
X88072607Y-73450867D01*
X88052902Y-73436253D01*
X88034723Y-73419777D01*
X88018247Y-73401598D01*
X88003633Y-73381893D01*
X87991020Y-73360849D01*
X87980530Y-73338671D01*
X87972265Y-73315571D01*
X87966304Y-73291773D01*
X87962704Y-73267504D01*
X87961500Y-73243000D01*
X87961500Y-72318000D01*
X87962704Y-72293496D01*
X87966304Y-72269227D01*
X87972265Y-72245429D01*
X87980530Y-72222329D01*
X87991020Y-72200151D01*
X88003633Y-72179107D01*
X88018247Y-72159402D01*
X88034723Y-72141223D01*
X88052902Y-72124747D01*
X88072607Y-72110133D01*
X88093651Y-72097520D01*
X88115829Y-72087030D01*
X88138929Y-72078765D01*
X88162727Y-72072804D01*
X88186996Y-72069204D01*
X88211500Y-72068000D01*
X89461500Y-72068000D01*
X89486004Y-72069204D01*
X89486004Y-72069204D01*
G37*
D12*
X88836500Y-72780500D03*
D11*
G36*
X89486004Y-75044204D02*
X89510273Y-75047804D01*
X89534071Y-75053765D01*
X89557171Y-75062030D01*
X89579349Y-75072520D01*
X89600393Y-75085133D01*
X89620098Y-75099747D01*
X89638277Y-75116223D01*
X89654753Y-75134402D01*
X89669367Y-75154107D01*
X89681980Y-75175151D01*
X89692470Y-75197329D01*
X89700735Y-75220429D01*
X89706696Y-75244227D01*
X89710296Y-75268496D01*
X89711500Y-75293000D01*
X89711500Y-76218000D01*
X89710296Y-76242504D01*
X89706696Y-76266773D01*
X89700735Y-76290571D01*
X89692470Y-76313671D01*
X89681980Y-76335849D01*
X89669367Y-76356893D01*
X89654753Y-76376598D01*
X89638277Y-76394777D01*
X89620098Y-76411253D01*
X89600393Y-76425867D01*
X89579349Y-76438480D01*
X89557171Y-76448970D01*
X89534071Y-76457235D01*
X89510273Y-76463196D01*
X89486004Y-76466796D01*
X89461500Y-76468000D01*
X88211500Y-76468000D01*
X88186996Y-76466796D01*
X88162727Y-76463196D01*
X88138929Y-76457235D01*
X88115829Y-76448970D01*
X88093651Y-76438480D01*
X88072607Y-76425867D01*
X88052902Y-76411253D01*
X88034723Y-76394777D01*
X88018247Y-76376598D01*
X88003633Y-76356893D01*
X87991020Y-76335849D01*
X87980530Y-76313671D01*
X87972265Y-76290571D01*
X87966304Y-76266773D01*
X87962704Y-76242504D01*
X87961500Y-76218000D01*
X87961500Y-75293000D01*
X87962704Y-75268496D01*
X87966304Y-75244227D01*
X87972265Y-75220429D01*
X87980530Y-75197329D01*
X87991020Y-75175151D01*
X88003633Y-75154107D01*
X88018247Y-75134402D01*
X88034723Y-75116223D01*
X88052902Y-75099747D01*
X88072607Y-75085133D01*
X88093651Y-75072520D01*
X88115829Y-75062030D01*
X88138929Y-75053765D01*
X88162727Y-75047804D01*
X88186996Y-75044204D01*
X88211500Y-75043000D01*
X89461500Y-75043000D01*
X89486004Y-75044204D01*
X89486004Y-75044204D01*
G37*
D12*
X88836500Y-75755500D03*
G04 #@! TD*
D11*
G04 #@! TO.C,R4*
G36*
X86946004Y-75044204D02*
X86970273Y-75047804D01*
X86994071Y-75053765D01*
X87017171Y-75062030D01*
X87039349Y-75072520D01*
X87060393Y-75085133D01*
X87080098Y-75099747D01*
X87098277Y-75116223D01*
X87114753Y-75134402D01*
X87129367Y-75154107D01*
X87141980Y-75175151D01*
X87152470Y-75197329D01*
X87160735Y-75220429D01*
X87166696Y-75244227D01*
X87170296Y-75268496D01*
X87171500Y-75293000D01*
X87171500Y-76218000D01*
X87170296Y-76242504D01*
X87166696Y-76266773D01*
X87160735Y-76290571D01*
X87152470Y-76313671D01*
X87141980Y-76335849D01*
X87129367Y-76356893D01*
X87114753Y-76376598D01*
X87098277Y-76394777D01*
X87080098Y-76411253D01*
X87060393Y-76425867D01*
X87039349Y-76438480D01*
X87017171Y-76448970D01*
X86994071Y-76457235D01*
X86970273Y-76463196D01*
X86946004Y-76466796D01*
X86921500Y-76468000D01*
X85671500Y-76468000D01*
X85646996Y-76466796D01*
X85622727Y-76463196D01*
X85598929Y-76457235D01*
X85575829Y-76448970D01*
X85553651Y-76438480D01*
X85532607Y-76425867D01*
X85512902Y-76411253D01*
X85494723Y-76394777D01*
X85478247Y-76376598D01*
X85463633Y-76356893D01*
X85451020Y-76335849D01*
X85440530Y-76313671D01*
X85432265Y-76290571D01*
X85426304Y-76266773D01*
X85422704Y-76242504D01*
X85421500Y-76218000D01*
X85421500Y-75293000D01*
X85422704Y-75268496D01*
X85426304Y-75244227D01*
X85432265Y-75220429D01*
X85440530Y-75197329D01*
X85451020Y-75175151D01*
X85463633Y-75154107D01*
X85478247Y-75134402D01*
X85494723Y-75116223D01*
X85512902Y-75099747D01*
X85532607Y-75085133D01*
X85553651Y-75072520D01*
X85575829Y-75062030D01*
X85598929Y-75053765D01*
X85622727Y-75047804D01*
X85646996Y-75044204D01*
X85671500Y-75043000D01*
X86921500Y-75043000D01*
X86946004Y-75044204D01*
X86946004Y-75044204D01*
G37*
D12*
X86296500Y-75755500D03*
D11*
G36*
X86946004Y-72069204D02*
X86970273Y-72072804D01*
X86994071Y-72078765D01*
X87017171Y-72087030D01*
X87039349Y-72097520D01*
X87060393Y-72110133D01*
X87080098Y-72124747D01*
X87098277Y-72141223D01*
X87114753Y-72159402D01*
X87129367Y-72179107D01*
X87141980Y-72200151D01*
X87152470Y-72222329D01*
X87160735Y-72245429D01*
X87166696Y-72269227D01*
X87170296Y-72293496D01*
X87171500Y-72318000D01*
X87171500Y-73243000D01*
X87170296Y-73267504D01*
X87166696Y-73291773D01*
X87160735Y-73315571D01*
X87152470Y-73338671D01*
X87141980Y-73360849D01*
X87129367Y-73381893D01*
X87114753Y-73401598D01*
X87098277Y-73419777D01*
X87080098Y-73436253D01*
X87060393Y-73450867D01*
X87039349Y-73463480D01*
X87017171Y-73473970D01*
X86994071Y-73482235D01*
X86970273Y-73488196D01*
X86946004Y-73491796D01*
X86921500Y-73493000D01*
X85671500Y-73493000D01*
X85646996Y-73491796D01*
X85622727Y-73488196D01*
X85598929Y-73482235D01*
X85575829Y-73473970D01*
X85553651Y-73463480D01*
X85532607Y-73450867D01*
X85512902Y-73436253D01*
X85494723Y-73419777D01*
X85478247Y-73401598D01*
X85463633Y-73381893D01*
X85451020Y-73360849D01*
X85440530Y-73338671D01*
X85432265Y-73315571D01*
X85426304Y-73291773D01*
X85422704Y-73267504D01*
X85421500Y-73243000D01*
X85421500Y-72318000D01*
X85422704Y-72293496D01*
X85426304Y-72269227D01*
X85432265Y-72245429D01*
X85440530Y-72222329D01*
X85451020Y-72200151D01*
X85463633Y-72179107D01*
X85478247Y-72159402D01*
X85494723Y-72141223D01*
X85512902Y-72124747D01*
X85532607Y-72110133D01*
X85553651Y-72097520D01*
X85575829Y-72087030D01*
X85598929Y-72078765D01*
X85622727Y-72072804D01*
X85646996Y-72069204D01*
X85671500Y-72068000D01*
X86921500Y-72068000D01*
X86946004Y-72069204D01*
X86946004Y-72069204D01*
G37*
D12*
X86296500Y-72780500D03*
G04 #@! TD*
D11*
G04 #@! TO.C,R5*
G36*
X84406004Y-75044204D02*
X84430273Y-75047804D01*
X84454071Y-75053765D01*
X84477171Y-75062030D01*
X84499349Y-75072520D01*
X84520393Y-75085133D01*
X84540098Y-75099747D01*
X84558277Y-75116223D01*
X84574753Y-75134402D01*
X84589367Y-75154107D01*
X84601980Y-75175151D01*
X84612470Y-75197329D01*
X84620735Y-75220429D01*
X84626696Y-75244227D01*
X84630296Y-75268496D01*
X84631500Y-75293000D01*
X84631500Y-76218000D01*
X84630296Y-76242504D01*
X84626696Y-76266773D01*
X84620735Y-76290571D01*
X84612470Y-76313671D01*
X84601980Y-76335849D01*
X84589367Y-76356893D01*
X84574753Y-76376598D01*
X84558277Y-76394777D01*
X84540098Y-76411253D01*
X84520393Y-76425867D01*
X84499349Y-76438480D01*
X84477171Y-76448970D01*
X84454071Y-76457235D01*
X84430273Y-76463196D01*
X84406004Y-76466796D01*
X84381500Y-76468000D01*
X83131500Y-76468000D01*
X83106996Y-76466796D01*
X83082727Y-76463196D01*
X83058929Y-76457235D01*
X83035829Y-76448970D01*
X83013651Y-76438480D01*
X82992607Y-76425867D01*
X82972902Y-76411253D01*
X82954723Y-76394777D01*
X82938247Y-76376598D01*
X82923633Y-76356893D01*
X82911020Y-76335849D01*
X82900530Y-76313671D01*
X82892265Y-76290571D01*
X82886304Y-76266773D01*
X82882704Y-76242504D01*
X82881500Y-76218000D01*
X82881500Y-75293000D01*
X82882704Y-75268496D01*
X82886304Y-75244227D01*
X82892265Y-75220429D01*
X82900530Y-75197329D01*
X82911020Y-75175151D01*
X82923633Y-75154107D01*
X82938247Y-75134402D01*
X82954723Y-75116223D01*
X82972902Y-75099747D01*
X82992607Y-75085133D01*
X83013651Y-75072520D01*
X83035829Y-75062030D01*
X83058929Y-75053765D01*
X83082727Y-75047804D01*
X83106996Y-75044204D01*
X83131500Y-75043000D01*
X84381500Y-75043000D01*
X84406004Y-75044204D01*
X84406004Y-75044204D01*
G37*
D12*
X83756500Y-75755500D03*
D11*
G36*
X84406004Y-72069204D02*
X84430273Y-72072804D01*
X84454071Y-72078765D01*
X84477171Y-72087030D01*
X84499349Y-72097520D01*
X84520393Y-72110133D01*
X84540098Y-72124747D01*
X84558277Y-72141223D01*
X84574753Y-72159402D01*
X84589367Y-72179107D01*
X84601980Y-72200151D01*
X84612470Y-72222329D01*
X84620735Y-72245429D01*
X84626696Y-72269227D01*
X84630296Y-72293496D01*
X84631500Y-72318000D01*
X84631500Y-73243000D01*
X84630296Y-73267504D01*
X84626696Y-73291773D01*
X84620735Y-73315571D01*
X84612470Y-73338671D01*
X84601980Y-73360849D01*
X84589367Y-73381893D01*
X84574753Y-73401598D01*
X84558277Y-73419777D01*
X84540098Y-73436253D01*
X84520393Y-73450867D01*
X84499349Y-73463480D01*
X84477171Y-73473970D01*
X84454071Y-73482235D01*
X84430273Y-73488196D01*
X84406004Y-73491796D01*
X84381500Y-73493000D01*
X83131500Y-73493000D01*
X83106996Y-73491796D01*
X83082727Y-73488196D01*
X83058929Y-73482235D01*
X83035829Y-73473970D01*
X83013651Y-73463480D01*
X82992607Y-73450867D01*
X82972902Y-73436253D01*
X82954723Y-73419777D01*
X82938247Y-73401598D01*
X82923633Y-73381893D01*
X82911020Y-73360849D01*
X82900530Y-73338671D01*
X82892265Y-73315571D01*
X82886304Y-73291773D01*
X82882704Y-73267504D01*
X82881500Y-73243000D01*
X82881500Y-72318000D01*
X82882704Y-72293496D01*
X82886304Y-72269227D01*
X82892265Y-72245429D01*
X82900530Y-72222329D01*
X82911020Y-72200151D01*
X82923633Y-72179107D01*
X82938247Y-72159402D01*
X82954723Y-72141223D01*
X82972902Y-72124747D01*
X82992607Y-72110133D01*
X83013651Y-72097520D01*
X83035829Y-72087030D01*
X83058929Y-72078765D01*
X83082727Y-72072804D01*
X83106996Y-72069204D01*
X83131500Y-72068000D01*
X84381500Y-72068000D01*
X84406004Y-72069204D01*
X84406004Y-72069204D01*
G37*
D12*
X83756500Y-72780500D03*
G04 #@! TD*
D11*
G04 #@! TO.C,R6*
G36*
X67616004Y-71262204D02*
X67640273Y-71265804D01*
X67664071Y-71271765D01*
X67687171Y-71280030D01*
X67709349Y-71290520D01*
X67730393Y-71303133D01*
X67750098Y-71317747D01*
X67768277Y-71334223D01*
X67784753Y-71352402D01*
X67799367Y-71372107D01*
X67811980Y-71393151D01*
X67822470Y-71415329D01*
X67830735Y-71438429D01*
X67836696Y-71462227D01*
X67840296Y-71486496D01*
X67841500Y-71511000D01*
X67841500Y-72761000D01*
X67840296Y-72785504D01*
X67836696Y-72809773D01*
X67830735Y-72833571D01*
X67822470Y-72856671D01*
X67811980Y-72878849D01*
X67799367Y-72899893D01*
X67784753Y-72919598D01*
X67768277Y-72937777D01*
X67750098Y-72954253D01*
X67730393Y-72968867D01*
X67709349Y-72981480D01*
X67687171Y-72991970D01*
X67664071Y-73000235D01*
X67640273Y-73006196D01*
X67616004Y-73009796D01*
X67591500Y-73011000D01*
X66666500Y-73011000D01*
X66641996Y-73009796D01*
X66617727Y-73006196D01*
X66593929Y-73000235D01*
X66570829Y-72991970D01*
X66548651Y-72981480D01*
X66527607Y-72968867D01*
X66507902Y-72954253D01*
X66489723Y-72937777D01*
X66473247Y-72919598D01*
X66458633Y-72899893D01*
X66446020Y-72878849D01*
X66435530Y-72856671D01*
X66427265Y-72833571D01*
X66421304Y-72809773D01*
X66417704Y-72785504D01*
X66416500Y-72761000D01*
X66416500Y-71511000D01*
X66417704Y-71486496D01*
X66421304Y-71462227D01*
X66427265Y-71438429D01*
X66435530Y-71415329D01*
X66446020Y-71393151D01*
X66458633Y-71372107D01*
X66473247Y-71352402D01*
X66489723Y-71334223D01*
X66507902Y-71317747D01*
X66527607Y-71303133D01*
X66548651Y-71290520D01*
X66570829Y-71280030D01*
X66593929Y-71271765D01*
X66617727Y-71265804D01*
X66641996Y-71262204D01*
X66666500Y-71261000D01*
X67591500Y-71261000D01*
X67616004Y-71262204D01*
X67616004Y-71262204D01*
G37*
D12*
X67129000Y-72136000D03*
D11*
G36*
X70591004Y-71262204D02*
X70615273Y-71265804D01*
X70639071Y-71271765D01*
X70662171Y-71280030D01*
X70684349Y-71290520D01*
X70705393Y-71303133D01*
X70725098Y-71317747D01*
X70743277Y-71334223D01*
X70759753Y-71352402D01*
X70774367Y-71372107D01*
X70786980Y-71393151D01*
X70797470Y-71415329D01*
X70805735Y-71438429D01*
X70811696Y-71462227D01*
X70815296Y-71486496D01*
X70816500Y-71511000D01*
X70816500Y-72761000D01*
X70815296Y-72785504D01*
X70811696Y-72809773D01*
X70805735Y-72833571D01*
X70797470Y-72856671D01*
X70786980Y-72878849D01*
X70774367Y-72899893D01*
X70759753Y-72919598D01*
X70743277Y-72937777D01*
X70725098Y-72954253D01*
X70705393Y-72968867D01*
X70684349Y-72981480D01*
X70662171Y-72991970D01*
X70639071Y-73000235D01*
X70615273Y-73006196D01*
X70591004Y-73009796D01*
X70566500Y-73011000D01*
X69641500Y-73011000D01*
X69616996Y-73009796D01*
X69592727Y-73006196D01*
X69568929Y-73000235D01*
X69545829Y-72991970D01*
X69523651Y-72981480D01*
X69502607Y-72968867D01*
X69482902Y-72954253D01*
X69464723Y-72937777D01*
X69448247Y-72919598D01*
X69433633Y-72899893D01*
X69421020Y-72878849D01*
X69410530Y-72856671D01*
X69402265Y-72833571D01*
X69396304Y-72809773D01*
X69392704Y-72785504D01*
X69391500Y-72761000D01*
X69391500Y-71511000D01*
X69392704Y-71486496D01*
X69396304Y-71462227D01*
X69402265Y-71438429D01*
X69410530Y-71415329D01*
X69421020Y-71393151D01*
X69433633Y-71372107D01*
X69448247Y-71352402D01*
X69464723Y-71334223D01*
X69482902Y-71317747D01*
X69502607Y-71303133D01*
X69523651Y-71290520D01*
X69545829Y-71280030D01*
X69568929Y-71271765D01*
X69592727Y-71265804D01*
X69616996Y-71262204D01*
X69641500Y-71261000D01*
X70566500Y-71261000D01*
X70591004Y-71262204D01*
X70591004Y-71262204D01*
G37*
D12*
X70104000Y-72136000D03*
G04 #@! TD*
D11*
G04 #@! TO.C,R7*
G36*
X76941004Y-95265204D02*
X76965273Y-95268804D01*
X76989071Y-95274765D01*
X77012171Y-95283030D01*
X77034349Y-95293520D01*
X77055393Y-95306133D01*
X77075098Y-95320747D01*
X77093277Y-95337223D01*
X77109753Y-95355402D01*
X77124367Y-95375107D01*
X77136980Y-95396151D01*
X77147470Y-95418329D01*
X77155735Y-95441429D01*
X77161696Y-95465227D01*
X77165296Y-95489496D01*
X77166500Y-95514000D01*
X77166500Y-96764000D01*
X77165296Y-96788504D01*
X77161696Y-96812773D01*
X77155735Y-96836571D01*
X77147470Y-96859671D01*
X77136980Y-96881849D01*
X77124367Y-96902893D01*
X77109753Y-96922598D01*
X77093277Y-96940777D01*
X77075098Y-96957253D01*
X77055393Y-96971867D01*
X77034349Y-96984480D01*
X77012171Y-96994970D01*
X76989071Y-97003235D01*
X76965273Y-97009196D01*
X76941004Y-97012796D01*
X76916500Y-97014000D01*
X75991500Y-97014000D01*
X75966996Y-97012796D01*
X75942727Y-97009196D01*
X75918929Y-97003235D01*
X75895829Y-96994970D01*
X75873651Y-96984480D01*
X75852607Y-96971867D01*
X75832902Y-96957253D01*
X75814723Y-96940777D01*
X75798247Y-96922598D01*
X75783633Y-96902893D01*
X75771020Y-96881849D01*
X75760530Y-96859671D01*
X75752265Y-96836571D01*
X75746304Y-96812773D01*
X75742704Y-96788504D01*
X75741500Y-96764000D01*
X75741500Y-95514000D01*
X75742704Y-95489496D01*
X75746304Y-95465227D01*
X75752265Y-95441429D01*
X75760530Y-95418329D01*
X75771020Y-95396151D01*
X75783633Y-95375107D01*
X75798247Y-95355402D01*
X75814723Y-95337223D01*
X75832902Y-95320747D01*
X75852607Y-95306133D01*
X75873651Y-95293520D01*
X75895829Y-95283030D01*
X75918929Y-95274765D01*
X75942727Y-95268804D01*
X75966996Y-95265204D01*
X75991500Y-95264000D01*
X76916500Y-95264000D01*
X76941004Y-95265204D01*
X76941004Y-95265204D01*
G37*
D12*
X76454000Y-96139000D03*
D11*
G36*
X73966004Y-95265204D02*
X73990273Y-95268804D01*
X74014071Y-95274765D01*
X74037171Y-95283030D01*
X74059349Y-95293520D01*
X74080393Y-95306133D01*
X74100098Y-95320747D01*
X74118277Y-95337223D01*
X74134753Y-95355402D01*
X74149367Y-95375107D01*
X74161980Y-95396151D01*
X74172470Y-95418329D01*
X74180735Y-95441429D01*
X74186696Y-95465227D01*
X74190296Y-95489496D01*
X74191500Y-95514000D01*
X74191500Y-96764000D01*
X74190296Y-96788504D01*
X74186696Y-96812773D01*
X74180735Y-96836571D01*
X74172470Y-96859671D01*
X74161980Y-96881849D01*
X74149367Y-96902893D01*
X74134753Y-96922598D01*
X74118277Y-96940777D01*
X74100098Y-96957253D01*
X74080393Y-96971867D01*
X74059349Y-96984480D01*
X74037171Y-96994970D01*
X74014071Y-97003235D01*
X73990273Y-97009196D01*
X73966004Y-97012796D01*
X73941500Y-97014000D01*
X73016500Y-97014000D01*
X72991996Y-97012796D01*
X72967727Y-97009196D01*
X72943929Y-97003235D01*
X72920829Y-96994970D01*
X72898651Y-96984480D01*
X72877607Y-96971867D01*
X72857902Y-96957253D01*
X72839723Y-96940777D01*
X72823247Y-96922598D01*
X72808633Y-96902893D01*
X72796020Y-96881849D01*
X72785530Y-96859671D01*
X72777265Y-96836571D01*
X72771304Y-96812773D01*
X72767704Y-96788504D01*
X72766500Y-96764000D01*
X72766500Y-95514000D01*
X72767704Y-95489496D01*
X72771304Y-95465227D01*
X72777265Y-95441429D01*
X72785530Y-95418329D01*
X72796020Y-95396151D01*
X72808633Y-95375107D01*
X72823247Y-95355402D01*
X72839723Y-95337223D01*
X72857902Y-95320747D01*
X72877607Y-95306133D01*
X72898651Y-95293520D01*
X72920829Y-95283030D01*
X72943929Y-95274765D01*
X72967727Y-95268804D01*
X72991996Y-95265204D01*
X73016500Y-95264000D01*
X73941500Y-95264000D01*
X73966004Y-95265204D01*
X73966004Y-95265204D01*
G37*
D12*
X73479000Y-96139000D03*
G04 #@! TD*
D11*
G04 #@! TO.C,R8*
G36*
X73929504Y-98186204D02*
X73953773Y-98189804D01*
X73977571Y-98195765D01*
X74000671Y-98204030D01*
X74022849Y-98214520D01*
X74043893Y-98227133D01*
X74063598Y-98241747D01*
X74081777Y-98258223D01*
X74098253Y-98276402D01*
X74112867Y-98296107D01*
X74125480Y-98317151D01*
X74135970Y-98339329D01*
X74144235Y-98362429D01*
X74150196Y-98386227D01*
X74153796Y-98410496D01*
X74155000Y-98435000D01*
X74155000Y-99685000D01*
X74153796Y-99709504D01*
X74150196Y-99733773D01*
X74144235Y-99757571D01*
X74135970Y-99780671D01*
X74125480Y-99802849D01*
X74112867Y-99823893D01*
X74098253Y-99843598D01*
X74081777Y-99861777D01*
X74063598Y-99878253D01*
X74043893Y-99892867D01*
X74022849Y-99905480D01*
X74000671Y-99915970D01*
X73977571Y-99924235D01*
X73953773Y-99930196D01*
X73929504Y-99933796D01*
X73905000Y-99935000D01*
X72980000Y-99935000D01*
X72955496Y-99933796D01*
X72931227Y-99930196D01*
X72907429Y-99924235D01*
X72884329Y-99915970D01*
X72862151Y-99905480D01*
X72841107Y-99892867D01*
X72821402Y-99878253D01*
X72803223Y-99861777D01*
X72786747Y-99843598D01*
X72772133Y-99823893D01*
X72759520Y-99802849D01*
X72749030Y-99780671D01*
X72740765Y-99757571D01*
X72734804Y-99733773D01*
X72731204Y-99709504D01*
X72730000Y-99685000D01*
X72730000Y-98435000D01*
X72731204Y-98410496D01*
X72734804Y-98386227D01*
X72740765Y-98362429D01*
X72749030Y-98339329D01*
X72759520Y-98317151D01*
X72772133Y-98296107D01*
X72786747Y-98276402D01*
X72803223Y-98258223D01*
X72821402Y-98241747D01*
X72841107Y-98227133D01*
X72862151Y-98214520D01*
X72884329Y-98204030D01*
X72907429Y-98195765D01*
X72931227Y-98189804D01*
X72955496Y-98186204D01*
X72980000Y-98185000D01*
X73905000Y-98185000D01*
X73929504Y-98186204D01*
X73929504Y-98186204D01*
G37*
D12*
X73442500Y-99060000D03*
D11*
G36*
X76904504Y-98186204D02*
X76928773Y-98189804D01*
X76952571Y-98195765D01*
X76975671Y-98204030D01*
X76997849Y-98214520D01*
X77018893Y-98227133D01*
X77038598Y-98241747D01*
X77056777Y-98258223D01*
X77073253Y-98276402D01*
X77087867Y-98296107D01*
X77100480Y-98317151D01*
X77110970Y-98339329D01*
X77119235Y-98362429D01*
X77125196Y-98386227D01*
X77128796Y-98410496D01*
X77130000Y-98435000D01*
X77130000Y-99685000D01*
X77128796Y-99709504D01*
X77125196Y-99733773D01*
X77119235Y-99757571D01*
X77110970Y-99780671D01*
X77100480Y-99802849D01*
X77087867Y-99823893D01*
X77073253Y-99843598D01*
X77056777Y-99861777D01*
X77038598Y-99878253D01*
X77018893Y-99892867D01*
X76997849Y-99905480D01*
X76975671Y-99915970D01*
X76952571Y-99924235D01*
X76928773Y-99930196D01*
X76904504Y-99933796D01*
X76880000Y-99935000D01*
X75955000Y-99935000D01*
X75930496Y-99933796D01*
X75906227Y-99930196D01*
X75882429Y-99924235D01*
X75859329Y-99915970D01*
X75837151Y-99905480D01*
X75816107Y-99892867D01*
X75796402Y-99878253D01*
X75778223Y-99861777D01*
X75761747Y-99843598D01*
X75747133Y-99823893D01*
X75734520Y-99802849D01*
X75724030Y-99780671D01*
X75715765Y-99757571D01*
X75709804Y-99733773D01*
X75706204Y-99709504D01*
X75705000Y-99685000D01*
X75705000Y-98435000D01*
X75706204Y-98410496D01*
X75709804Y-98386227D01*
X75715765Y-98362429D01*
X75724030Y-98339329D01*
X75734520Y-98317151D01*
X75747133Y-98296107D01*
X75761747Y-98276402D01*
X75778223Y-98258223D01*
X75796402Y-98241747D01*
X75816107Y-98227133D01*
X75837151Y-98214520D01*
X75859329Y-98204030D01*
X75882429Y-98195765D01*
X75906227Y-98189804D01*
X75930496Y-98186204D01*
X75955000Y-98185000D01*
X76880000Y-98185000D01*
X76904504Y-98186204D01*
X76904504Y-98186204D01*
G37*
D12*
X76417500Y-99060000D03*
G04 #@! TD*
D11*
G04 #@! TO.C,R9*
G36*
X70591004Y-74818204D02*
X70615273Y-74821804D01*
X70639071Y-74827765D01*
X70662171Y-74836030D01*
X70684349Y-74846520D01*
X70705393Y-74859133D01*
X70725098Y-74873747D01*
X70743277Y-74890223D01*
X70759753Y-74908402D01*
X70774367Y-74928107D01*
X70786980Y-74949151D01*
X70797470Y-74971329D01*
X70805735Y-74994429D01*
X70811696Y-75018227D01*
X70815296Y-75042496D01*
X70816500Y-75067000D01*
X70816500Y-76317000D01*
X70815296Y-76341504D01*
X70811696Y-76365773D01*
X70805735Y-76389571D01*
X70797470Y-76412671D01*
X70786980Y-76434849D01*
X70774367Y-76455893D01*
X70759753Y-76475598D01*
X70743277Y-76493777D01*
X70725098Y-76510253D01*
X70705393Y-76524867D01*
X70684349Y-76537480D01*
X70662171Y-76547970D01*
X70639071Y-76556235D01*
X70615273Y-76562196D01*
X70591004Y-76565796D01*
X70566500Y-76567000D01*
X69641500Y-76567000D01*
X69616996Y-76565796D01*
X69592727Y-76562196D01*
X69568929Y-76556235D01*
X69545829Y-76547970D01*
X69523651Y-76537480D01*
X69502607Y-76524867D01*
X69482902Y-76510253D01*
X69464723Y-76493777D01*
X69448247Y-76475598D01*
X69433633Y-76455893D01*
X69421020Y-76434849D01*
X69410530Y-76412671D01*
X69402265Y-76389571D01*
X69396304Y-76365773D01*
X69392704Y-76341504D01*
X69391500Y-76317000D01*
X69391500Y-75067000D01*
X69392704Y-75042496D01*
X69396304Y-75018227D01*
X69402265Y-74994429D01*
X69410530Y-74971329D01*
X69421020Y-74949151D01*
X69433633Y-74928107D01*
X69448247Y-74908402D01*
X69464723Y-74890223D01*
X69482902Y-74873747D01*
X69502607Y-74859133D01*
X69523651Y-74846520D01*
X69545829Y-74836030D01*
X69568929Y-74827765D01*
X69592727Y-74821804D01*
X69616996Y-74818204D01*
X69641500Y-74817000D01*
X70566500Y-74817000D01*
X70591004Y-74818204D01*
X70591004Y-74818204D01*
G37*
D12*
X70104000Y-75692000D03*
D11*
G36*
X67616004Y-74818204D02*
X67640273Y-74821804D01*
X67664071Y-74827765D01*
X67687171Y-74836030D01*
X67709349Y-74846520D01*
X67730393Y-74859133D01*
X67750098Y-74873747D01*
X67768277Y-74890223D01*
X67784753Y-74908402D01*
X67799367Y-74928107D01*
X67811980Y-74949151D01*
X67822470Y-74971329D01*
X67830735Y-74994429D01*
X67836696Y-75018227D01*
X67840296Y-75042496D01*
X67841500Y-75067000D01*
X67841500Y-76317000D01*
X67840296Y-76341504D01*
X67836696Y-76365773D01*
X67830735Y-76389571D01*
X67822470Y-76412671D01*
X67811980Y-76434849D01*
X67799367Y-76455893D01*
X67784753Y-76475598D01*
X67768277Y-76493777D01*
X67750098Y-76510253D01*
X67730393Y-76524867D01*
X67709349Y-76537480D01*
X67687171Y-76547970D01*
X67664071Y-76556235D01*
X67640273Y-76562196D01*
X67616004Y-76565796D01*
X67591500Y-76567000D01*
X66666500Y-76567000D01*
X66641996Y-76565796D01*
X66617727Y-76562196D01*
X66593929Y-76556235D01*
X66570829Y-76547970D01*
X66548651Y-76537480D01*
X66527607Y-76524867D01*
X66507902Y-76510253D01*
X66489723Y-76493777D01*
X66473247Y-76475598D01*
X66458633Y-76455893D01*
X66446020Y-76434849D01*
X66435530Y-76412671D01*
X66427265Y-76389571D01*
X66421304Y-76365773D01*
X66417704Y-76341504D01*
X66416500Y-76317000D01*
X66416500Y-75067000D01*
X66417704Y-75042496D01*
X66421304Y-75018227D01*
X66427265Y-74994429D01*
X66435530Y-74971329D01*
X66446020Y-74949151D01*
X66458633Y-74928107D01*
X66473247Y-74908402D01*
X66489723Y-74890223D01*
X66507902Y-74873747D01*
X66527607Y-74859133D01*
X66548651Y-74846520D01*
X66570829Y-74836030D01*
X66593929Y-74827765D01*
X66617727Y-74821804D01*
X66641996Y-74818204D01*
X66666500Y-74817000D01*
X67591500Y-74817000D01*
X67616004Y-74818204D01*
X67616004Y-74818204D01*
G37*
D12*
X67129000Y-75692000D03*
G04 #@! TD*
D15*
G04 #@! TO.C,U1*
X85684000Y-64775000D03*
X85684000Y-65725000D03*
X85684000Y-66675000D03*
X87884000Y-66675000D03*
X87884000Y-64775000D03*
X87884000Y-65725000D03*
G04 #@! TD*
D10*
G04 #@! TO.C,U3*
X96506765Y-96179323D03*
X96506765Y-97449323D03*
X96506765Y-98719323D03*
X96506765Y-99989323D03*
X101906765Y-99989323D03*
X101906765Y-98719323D03*
X101906765Y-97449323D03*
X101906765Y-96179323D03*
G04 #@! TD*
D16*
G04 #@! TO.C,U4*
X81538500Y-81337500D03*
X81538500Y-82137500D03*
X81538500Y-82937500D03*
X81538500Y-83737500D03*
X81538500Y-84537500D03*
X81538500Y-85337500D03*
X81538500Y-86137500D03*
X81538500Y-86937500D03*
D17*
X82988500Y-88387500D03*
X83788500Y-88387500D03*
X84588500Y-88387500D03*
X85388500Y-88387500D03*
X86188500Y-88387500D03*
X86988500Y-88387500D03*
X87788500Y-88387500D03*
X88588500Y-88387500D03*
D16*
X90038500Y-86937500D03*
X90038500Y-86137500D03*
X90038500Y-85337500D03*
X90038500Y-84537500D03*
X90038500Y-83737500D03*
X90038500Y-82937500D03*
X90038500Y-82137500D03*
X90038500Y-81337500D03*
D17*
X88588500Y-79887500D03*
X87788500Y-79887500D03*
X86988500Y-79887500D03*
X86188500Y-79887500D03*
X85388500Y-79887500D03*
X84588500Y-79887500D03*
X83788500Y-79887500D03*
X82988500Y-79887500D03*
G04 #@! TD*
D18*
G04 #@! TO.C,U6*
X96021000Y-71644000D03*
X96021000Y-72144000D03*
X96021000Y-72644000D03*
X96021000Y-73144000D03*
X96021000Y-73644000D03*
X100321000Y-73644000D03*
X100321000Y-73144000D03*
X100321000Y-72644000D03*
X100321000Y-72144000D03*
X100321000Y-71644000D03*
G04 #@! TD*
D19*
G04 #@! TO.C,Y1*
X77152500Y-88823500D03*
X77152500Y-87623500D03*
X77152500Y-86423500D03*
G04 #@! TD*
D20*
G04 #@! TO.C,C2*
X70358000Y-83820000D03*
X70358000Y-88220000D03*
G04 #@! TD*
D11*
G04 #@! TO.C,C3*
G36*
X61355504Y-83907204D02*
X61379773Y-83910804D01*
X61403571Y-83916765D01*
X61426671Y-83925030D01*
X61448849Y-83935520D01*
X61469893Y-83948133D01*
X61489598Y-83962747D01*
X61507777Y-83979223D01*
X61524253Y-83997402D01*
X61538867Y-84017107D01*
X61551480Y-84038151D01*
X61561970Y-84060329D01*
X61570235Y-84083429D01*
X61576196Y-84107227D01*
X61579796Y-84131496D01*
X61581000Y-84156000D01*
X61581000Y-85081000D01*
X61579796Y-85105504D01*
X61576196Y-85129773D01*
X61570235Y-85153571D01*
X61561970Y-85176671D01*
X61551480Y-85198849D01*
X61538867Y-85219893D01*
X61524253Y-85239598D01*
X61507777Y-85257777D01*
X61489598Y-85274253D01*
X61469893Y-85288867D01*
X61448849Y-85301480D01*
X61426671Y-85311970D01*
X61403571Y-85320235D01*
X61379773Y-85326196D01*
X61355504Y-85329796D01*
X61331000Y-85331000D01*
X60081000Y-85331000D01*
X60056496Y-85329796D01*
X60032227Y-85326196D01*
X60008429Y-85320235D01*
X59985329Y-85311970D01*
X59963151Y-85301480D01*
X59942107Y-85288867D01*
X59922402Y-85274253D01*
X59904223Y-85257777D01*
X59887747Y-85239598D01*
X59873133Y-85219893D01*
X59860520Y-85198849D01*
X59850030Y-85176671D01*
X59841765Y-85153571D01*
X59835804Y-85129773D01*
X59832204Y-85105504D01*
X59831000Y-85081000D01*
X59831000Y-84156000D01*
X59832204Y-84131496D01*
X59835804Y-84107227D01*
X59841765Y-84083429D01*
X59850030Y-84060329D01*
X59860520Y-84038151D01*
X59873133Y-84017107D01*
X59887747Y-83997402D01*
X59904223Y-83979223D01*
X59922402Y-83962747D01*
X59942107Y-83948133D01*
X59963151Y-83935520D01*
X59985329Y-83925030D01*
X60008429Y-83916765D01*
X60032227Y-83910804D01*
X60056496Y-83907204D01*
X60081000Y-83906000D01*
X61331000Y-83906000D01*
X61355504Y-83907204D01*
X61355504Y-83907204D01*
G37*
D12*
X60706000Y-84618500D03*
D11*
G36*
X61355504Y-86882204D02*
X61379773Y-86885804D01*
X61403571Y-86891765D01*
X61426671Y-86900030D01*
X61448849Y-86910520D01*
X61469893Y-86923133D01*
X61489598Y-86937747D01*
X61507777Y-86954223D01*
X61524253Y-86972402D01*
X61538867Y-86992107D01*
X61551480Y-87013151D01*
X61561970Y-87035329D01*
X61570235Y-87058429D01*
X61576196Y-87082227D01*
X61579796Y-87106496D01*
X61581000Y-87131000D01*
X61581000Y-88056000D01*
X61579796Y-88080504D01*
X61576196Y-88104773D01*
X61570235Y-88128571D01*
X61561970Y-88151671D01*
X61551480Y-88173849D01*
X61538867Y-88194893D01*
X61524253Y-88214598D01*
X61507777Y-88232777D01*
X61489598Y-88249253D01*
X61469893Y-88263867D01*
X61448849Y-88276480D01*
X61426671Y-88286970D01*
X61403571Y-88295235D01*
X61379773Y-88301196D01*
X61355504Y-88304796D01*
X61331000Y-88306000D01*
X60081000Y-88306000D01*
X60056496Y-88304796D01*
X60032227Y-88301196D01*
X60008429Y-88295235D01*
X59985329Y-88286970D01*
X59963151Y-88276480D01*
X59942107Y-88263867D01*
X59922402Y-88249253D01*
X59904223Y-88232777D01*
X59887747Y-88214598D01*
X59873133Y-88194893D01*
X59860520Y-88173849D01*
X59850030Y-88151671D01*
X59841765Y-88128571D01*
X59835804Y-88104773D01*
X59832204Y-88080504D01*
X59831000Y-88056000D01*
X59831000Y-87131000D01*
X59832204Y-87106496D01*
X59835804Y-87082227D01*
X59841765Y-87058429D01*
X59850030Y-87035329D01*
X59860520Y-87013151D01*
X59873133Y-86992107D01*
X59887747Y-86972402D01*
X59904223Y-86954223D01*
X59922402Y-86937747D01*
X59942107Y-86923133D01*
X59963151Y-86910520D01*
X59985329Y-86900030D01*
X60008429Y-86891765D01*
X60032227Y-86885804D01*
X60056496Y-86882204D01*
X60081000Y-86881000D01*
X61331000Y-86881000D01*
X61355504Y-86882204D01*
X61355504Y-86882204D01*
G37*
D12*
X60706000Y-87593500D03*
G04 #@! TD*
D11*
G04 #@! TO.C,C4*
G36*
X65419504Y-86882204D02*
X65443773Y-86885804D01*
X65467571Y-86891765D01*
X65490671Y-86900030D01*
X65512849Y-86910520D01*
X65533893Y-86923133D01*
X65553598Y-86937747D01*
X65571777Y-86954223D01*
X65588253Y-86972402D01*
X65602867Y-86992107D01*
X65615480Y-87013151D01*
X65625970Y-87035329D01*
X65634235Y-87058429D01*
X65640196Y-87082227D01*
X65643796Y-87106496D01*
X65645000Y-87131000D01*
X65645000Y-88056000D01*
X65643796Y-88080504D01*
X65640196Y-88104773D01*
X65634235Y-88128571D01*
X65625970Y-88151671D01*
X65615480Y-88173849D01*
X65602867Y-88194893D01*
X65588253Y-88214598D01*
X65571777Y-88232777D01*
X65553598Y-88249253D01*
X65533893Y-88263867D01*
X65512849Y-88276480D01*
X65490671Y-88286970D01*
X65467571Y-88295235D01*
X65443773Y-88301196D01*
X65419504Y-88304796D01*
X65395000Y-88306000D01*
X64145000Y-88306000D01*
X64120496Y-88304796D01*
X64096227Y-88301196D01*
X64072429Y-88295235D01*
X64049329Y-88286970D01*
X64027151Y-88276480D01*
X64006107Y-88263867D01*
X63986402Y-88249253D01*
X63968223Y-88232777D01*
X63951747Y-88214598D01*
X63937133Y-88194893D01*
X63924520Y-88173849D01*
X63914030Y-88151671D01*
X63905765Y-88128571D01*
X63899804Y-88104773D01*
X63896204Y-88080504D01*
X63895000Y-88056000D01*
X63895000Y-87131000D01*
X63896204Y-87106496D01*
X63899804Y-87082227D01*
X63905765Y-87058429D01*
X63914030Y-87035329D01*
X63924520Y-87013151D01*
X63937133Y-86992107D01*
X63951747Y-86972402D01*
X63968223Y-86954223D01*
X63986402Y-86937747D01*
X64006107Y-86923133D01*
X64027151Y-86910520D01*
X64049329Y-86900030D01*
X64072429Y-86891765D01*
X64096227Y-86885804D01*
X64120496Y-86882204D01*
X64145000Y-86881000D01*
X65395000Y-86881000D01*
X65419504Y-86882204D01*
X65419504Y-86882204D01*
G37*
D12*
X64770000Y-87593500D03*
D11*
G36*
X65419504Y-83907204D02*
X65443773Y-83910804D01*
X65467571Y-83916765D01*
X65490671Y-83925030D01*
X65512849Y-83935520D01*
X65533893Y-83948133D01*
X65553598Y-83962747D01*
X65571777Y-83979223D01*
X65588253Y-83997402D01*
X65602867Y-84017107D01*
X65615480Y-84038151D01*
X65625970Y-84060329D01*
X65634235Y-84083429D01*
X65640196Y-84107227D01*
X65643796Y-84131496D01*
X65645000Y-84156000D01*
X65645000Y-85081000D01*
X65643796Y-85105504D01*
X65640196Y-85129773D01*
X65634235Y-85153571D01*
X65625970Y-85176671D01*
X65615480Y-85198849D01*
X65602867Y-85219893D01*
X65588253Y-85239598D01*
X65571777Y-85257777D01*
X65553598Y-85274253D01*
X65533893Y-85288867D01*
X65512849Y-85301480D01*
X65490671Y-85311970D01*
X65467571Y-85320235D01*
X65443773Y-85326196D01*
X65419504Y-85329796D01*
X65395000Y-85331000D01*
X64145000Y-85331000D01*
X64120496Y-85329796D01*
X64096227Y-85326196D01*
X64072429Y-85320235D01*
X64049329Y-85311970D01*
X64027151Y-85301480D01*
X64006107Y-85288867D01*
X63986402Y-85274253D01*
X63968223Y-85257777D01*
X63951747Y-85239598D01*
X63937133Y-85219893D01*
X63924520Y-85198849D01*
X63914030Y-85176671D01*
X63905765Y-85153571D01*
X63899804Y-85129773D01*
X63896204Y-85105504D01*
X63895000Y-85081000D01*
X63895000Y-84156000D01*
X63896204Y-84131496D01*
X63899804Y-84107227D01*
X63905765Y-84083429D01*
X63914030Y-84060329D01*
X63924520Y-84038151D01*
X63937133Y-84017107D01*
X63951747Y-83997402D01*
X63968223Y-83979223D01*
X63986402Y-83962747D01*
X64006107Y-83948133D01*
X64027151Y-83935520D01*
X64049329Y-83925030D01*
X64072429Y-83916765D01*
X64096227Y-83910804D01*
X64120496Y-83907204D01*
X64145000Y-83906000D01*
X65395000Y-83906000D01*
X65419504Y-83907204D01*
X65419504Y-83907204D01*
G37*
D12*
X64770000Y-84618500D03*
G04 #@! TD*
D21*
G04 #@! TO.C,D1*
X65880000Y-79502000D03*
X71280000Y-79502000D03*
G04 #@! TD*
D11*
G04 #@! TO.C,F1*
G36*
X62399779Y-80552144D02*
X62422834Y-80555563D01*
X62445443Y-80561227D01*
X62467387Y-80569079D01*
X62488457Y-80579044D01*
X62508448Y-80591026D01*
X62527168Y-80604910D01*
X62544438Y-80620562D01*
X62560090Y-80637832D01*
X62573974Y-80656552D01*
X62585956Y-80676543D01*
X62595921Y-80697613D01*
X62603773Y-80719557D01*
X62609437Y-80742166D01*
X62612856Y-80765221D01*
X62614000Y-80788500D01*
X62614000Y-81263500D01*
X62612856Y-81286779D01*
X62609437Y-81309834D01*
X62603773Y-81332443D01*
X62595921Y-81354387D01*
X62585956Y-81375457D01*
X62573974Y-81395448D01*
X62560090Y-81414168D01*
X62544438Y-81431438D01*
X62527168Y-81447090D01*
X62508448Y-81460974D01*
X62488457Y-81472956D01*
X62467387Y-81482921D01*
X62445443Y-81490773D01*
X62422834Y-81496437D01*
X62399779Y-81499856D01*
X62376500Y-81501000D01*
X61801500Y-81501000D01*
X61778221Y-81499856D01*
X61755166Y-81496437D01*
X61732557Y-81490773D01*
X61710613Y-81482921D01*
X61689543Y-81472956D01*
X61669552Y-81460974D01*
X61650832Y-81447090D01*
X61633562Y-81431438D01*
X61617910Y-81414168D01*
X61604026Y-81395448D01*
X61592044Y-81375457D01*
X61582079Y-81354387D01*
X61574227Y-81332443D01*
X61568563Y-81309834D01*
X61565144Y-81286779D01*
X61564000Y-81263500D01*
X61564000Y-80788500D01*
X61565144Y-80765221D01*
X61568563Y-80742166D01*
X61574227Y-80719557D01*
X61582079Y-80697613D01*
X61592044Y-80676543D01*
X61604026Y-80656552D01*
X61617910Y-80637832D01*
X61633562Y-80620562D01*
X61650832Y-80604910D01*
X61669552Y-80591026D01*
X61689543Y-80579044D01*
X61710613Y-80569079D01*
X61732557Y-80561227D01*
X61755166Y-80555563D01*
X61778221Y-80552144D01*
X61801500Y-80551000D01*
X62376500Y-80551000D01*
X62399779Y-80552144D01*
X62399779Y-80552144D01*
G37*
D22*
X62089000Y-81026000D03*
D11*
G36*
X60649779Y-80552144D02*
X60672834Y-80555563D01*
X60695443Y-80561227D01*
X60717387Y-80569079D01*
X60738457Y-80579044D01*
X60758448Y-80591026D01*
X60777168Y-80604910D01*
X60794438Y-80620562D01*
X60810090Y-80637832D01*
X60823974Y-80656552D01*
X60835956Y-80676543D01*
X60845921Y-80697613D01*
X60853773Y-80719557D01*
X60859437Y-80742166D01*
X60862856Y-80765221D01*
X60864000Y-80788500D01*
X60864000Y-81263500D01*
X60862856Y-81286779D01*
X60859437Y-81309834D01*
X60853773Y-81332443D01*
X60845921Y-81354387D01*
X60835956Y-81375457D01*
X60823974Y-81395448D01*
X60810090Y-81414168D01*
X60794438Y-81431438D01*
X60777168Y-81447090D01*
X60758448Y-81460974D01*
X60738457Y-81472956D01*
X60717387Y-81482921D01*
X60695443Y-81490773D01*
X60672834Y-81496437D01*
X60649779Y-81499856D01*
X60626500Y-81501000D01*
X60051500Y-81501000D01*
X60028221Y-81499856D01*
X60005166Y-81496437D01*
X59982557Y-81490773D01*
X59960613Y-81482921D01*
X59939543Y-81472956D01*
X59919552Y-81460974D01*
X59900832Y-81447090D01*
X59883562Y-81431438D01*
X59867910Y-81414168D01*
X59854026Y-81395448D01*
X59842044Y-81375457D01*
X59832079Y-81354387D01*
X59824227Y-81332443D01*
X59818563Y-81309834D01*
X59815144Y-81286779D01*
X59814000Y-81263500D01*
X59814000Y-80788500D01*
X59815144Y-80765221D01*
X59818563Y-80742166D01*
X59824227Y-80719557D01*
X59832079Y-80697613D01*
X59842044Y-80676543D01*
X59854026Y-80656552D01*
X59867910Y-80637832D01*
X59883562Y-80620562D01*
X59900832Y-80604910D01*
X59919552Y-80591026D01*
X59939543Y-80579044D01*
X59960613Y-80569079D01*
X59982557Y-80561227D01*
X60005166Y-80555563D01*
X60028221Y-80552144D01*
X60051500Y-80551000D01*
X60626500Y-80551000D01*
X60649779Y-80552144D01*
X60649779Y-80552144D01*
G37*
D22*
X60339000Y-81026000D03*
G04 #@! TD*
D11*
G04 #@! TO.C,R10*
G36*
X86339004Y-58562204D02*
X86363273Y-58565804D01*
X86387071Y-58571765D01*
X86410171Y-58580030D01*
X86432349Y-58590520D01*
X86453393Y-58603133D01*
X86473098Y-58617747D01*
X86491277Y-58634223D01*
X86507753Y-58652402D01*
X86522367Y-58672107D01*
X86534980Y-58693151D01*
X86545470Y-58715329D01*
X86553735Y-58738429D01*
X86559696Y-58762227D01*
X86563296Y-58786496D01*
X86564500Y-58811000D01*
X86564500Y-60061000D01*
X86563296Y-60085504D01*
X86559696Y-60109773D01*
X86553735Y-60133571D01*
X86545470Y-60156671D01*
X86534980Y-60178849D01*
X86522367Y-60199893D01*
X86507753Y-60219598D01*
X86491277Y-60237777D01*
X86473098Y-60254253D01*
X86453393Y-60268867D01*
X86432349Y-60281480D01*
X86410171Y-60291970D01*
X86387071Y-60300235D01*
X86363273Y-60306196D01*
X86339004Y-60309796D01*
X86314500Y-60311000D01*
X85389500Y-60311000D01*
X85364996Y-60309796D01*
X85340727Y-60306196D01*
X85316929Y-60300235D01*
X85293829Y-60291970D01*
X85271651Y-60281480D01*
X85250607Y-60268867D01*
X85230902Y-60254253D01*
X85212723Y-60237777D01*
X85196247Y-60219598D01*
X85181633Y-60199893D01*
X85169020Y-60178849D01*
X85158530Y-60156671D01*
X85150265Y-60133571D01*
X85144304Y-60109773D01*
X85140704Y-60085504D01*
X85139500Y-60061000D01*
X85139500Y-58811000D01*
X85140704Y-58786496D01*
X85144304Y-58762227D01*
X85150265Y-58738429D01*
X85158530Y-58715329D01*
X85169020Y-58693151D01*
X85181633Y-58672107D01*
X85196247Y-58652402D01*
X85212723Y-58634223D01*
X85230902Y-58617747D01*
X85250607Y-58603133D01*
X85271651Y-58590520D01*
X85293829Y-58580030D01*
X85316929Y-58571765D01*
X85340727Y-58565804D01*
X85364996Y-58562204D01*
X85389500Y-58561000D01*
X86314500Y-58561000D01*
X86339004Y-58562204D01*
X86339004Y-58562204D01*
G37*
D12*
X85852000Y-59436000D03*
D11*
G36*
X89314004Y-58562204D02*
X89338273Y-58565804D01*
X89362071Y-58571765D01*
X89385171Y-58580030D01*
X89407349Y-58590520D01*
X89428393Y-58603133D01*
X89448098Y-58617747D01*
X89466277Y-58634223D01*
X89482753Y-58652402D01*
X89497367Y-58672107D01*
X89509980Y-58693151D01*
X89520470Y-58715329D01*
X89528735Y-58738429D01*
X89534696Y-58762227D01*
X89538296Y-58786496D01*
X89539500Y-58811000D01*
X89539500Y-60061000D01*
X89538296Y-60085504D01*
X89534696Y-60109773D01*
X89528735Y-60133571D01*
X89520470Y-60156671D01*
X89509980Y-60178849D01*
X89497367Y-60199893D01*
X89482753Y-60219598D01*
X89466277Y-60237777D01*
X89448098Y-60254253D01*
X89428393Y-60268867D01*
X89407349Y-60281480D01*
X89385171Y-60291970D01*
X89362071Y-60300235D01*
X89338273Y-60306196D01*
X89314004Y-60309796D01*
X89289500Y-60311000D01*
X88364500Y-60311000D01*
X88339996Y-60309796D01*
X88315727Y-60306196D01*
X88291929Y-60300235D01*
X88268829Y-60291970D01*
X88246651Y-60281480D01*
X88225607Y-60268867D01*
X88205902Y-60254253D01*
X88187723Y-60237777D01*
X88171247Y-60219598D01*
X88156633Y-60199893D01*
X88144020Y-60178849D01*
X88133530Y-60156671D01*
X88125265Y-60133571D01*
X88119304Y-60109773D01*
X88115704Y-60085504D01*
X88114500Y-60061000D01*
X88114500Y-58811000D01*
X88115704Y-58786496D01*
X88119304Y-58762227D01*
X88125265Y-58738429D01*
X88133530Y-58715329D01*
X88144020Y-58693151D01*
X88156633Y-58672107D01*
X88171247Y-58652402D01*
X88187723Y-58634223D01*
X88205902Y-58617747D01*
X88225607Y-58603133D01*
X88246651Y-58590520D01*
X88268829Y-58580030D01*
X88291929Y-58571765D01*
X88315727Y-58565804D01*
X88339996Y-58562204D01*
X88364500Y-58561000D01*
X89289500Y-58561000D01*
X89314004Y-58562204D01*
X89314004Y-58562204D01*
G37*
D12*
X88827000Y-59436000D03*
G04 #@! TD*
D11*
G04 #@! TO.C,R11*
G36*
X83980004Y-58562204D02*
X84004273Y-58565804D01*
X84028071Y-58571765D01*
X84051171Y-58580030D01*
X84073349Y-58590520D01*
X84094393Y-58603133D01*
X84114098Y-58617747D01*
X84132277Y-58634223D01*
X84148753Y-58652402D01*
X84163367Y-58672107D01*
X84175980Y-58693151D01*
X84186470Y-58715329D01*
X84194735Y-58738429D01*
X84200696Y-58762227D01*
X84204296Y-58786496D01*
X84205500Y-58811000D01*
X84205500Y-60061000D01*
X84204296Y-60085504D01*
X84200696Y-60109773D01*
X84194735Y-60133571D01*
X84186470Y-60156671D01*
X84175980Y-60178849D01*
X84163367Y-60199893D01*
X84148753Y-60219598D01*
X84132277Y-60237777D01*
X84114098Y-60254253D01*
X84094393Y-60268867D01*
X84073349Y-60281480D01*
X84051171Y-60291970D01*
X84028071Y-60300235D01*
X84004273Y-60306196D01*
X83980004Y-60309796D01*
X83955500Y-60311000D01*
X83030500Y-60311000D01*
X83005996Y-60309796D01*
X82981727Y-60306196D01*
X82957929Y-60300235D01*
X82934829Y-60291970D01*
X82912651Y-60281480D01*
X82891607Y-60268867D01*
X82871902Y-60254253D01*
X82853723Y-60237777D01*
X82837247Y-60219598D01*
X82822633Y-60199893D01*
X82810020Y-60178849D01*
X82799530Y-60156671D01*
X82791265Y-60133571D01*
X82785304Y-60109773D01*
X82781704Y-60085504D01*
X82780500Y-60061000D01*
X82780500Y-58811000D01*
X82781704Y-58786496D01*
X82785304Y-58762227D01*
X82791265Y-58738429D01*
X82799530Y-58715329D01*
X82810020Y-58693151D01*
X82822633Y-58672107D01*
X82837247Y-58652402D01*
X82853723Y-58634223D01*
X82871902Y-58617747D01*
X82891607Y-58603133D01*
X82912651Y-58590520D01*
X82934829Y-58580030D01*
X82957929Y-58571765D01*
X82981727Y-58565804D01*
X83005996Y-58562204D01*
X83030500Y-58561000D01*
X83955500Y-58561000D01*
X83980004Y-58562204D01*
X83980004Y-58562204D01*
G37*
D12*
X83493000Y-59436000D03*
D11*
G36*
X81005004Y-58562204D02*
X81029273Y-58565804D01*
X81053071Y-58571765D01*
X81076171Y-58580030D01*
X81098349Y-58590520D01*
X81119393Y-58603133D01*
X81139098Y-58617747D01*
X81157277Y-58634223D01*
X81173753Y-58652402D01*
X81188367Y-58672107D01*
X81200980Y-58693151D01*
X81211470Y-58715329D01*
X81219735Y-58738429D01*
X81225696Y-58762227D01*
X81229296Y-58786496D01*
X81230500Y-58811000D01*
X81230500Y-60061000D01*
X81229296Y-60085504D01*
X81225696Y-60109773D01*
X81219735Y-60133571D01*
X81211470Y-60156671D01*
X81200980Y-60178849D01*
X81188367Y-60199893D01*
X81173753Y-60219598D01*
X81157277Y-60237777D01*
X81139098Y-60254253D01*
X81119393Y-60268867D01*
X81098349Y-60281480D01*
X81076171Y-60291970D01*
X81053071Y-60300235D01*
X81029273Y-60306196D01*
X81005004Y-60309796D01*
X80980500Y-60311000D01*
X80055500Y-60311000D01*
X80030996Y-60309796D01*
X80006727Y-60306196D01*
X79982929Y-60300235D01*
X79959829Y-60291970D01*
X79937651Y-60281480D01*
X79916607Y-60268867D01*
X79896902Y-60254253D01*
X79878723Y-60237777D01*
X79862247Y-60219598D01*
X79847633Y-60199893D01*
X79835020Y-60178849D01*
X79824530Y-60156671D01*
X79816265Y-60133571D01*
X79810304Y-60109773D01*
X79806704Y-60085504D01*
X79805500Y-60061000D01*
X79805500Y-58811000D01*
X79806704Y-58786496D01*
X79810304Y-58762227D01*
X79816265Y-58738429D01*
X79824530Y-58715329D01*
X79835020Y-58693151D01*
X79847633Y-58672107D01*
X79862247Y-58652402D01*
X79878723Y-58634223D01*
X79896902Y-58617747D01*
X79916607Y-58603133D01*
X79937651Y-58590520D01*
X79959829Y-58580030D01*
X79982929Y-58571765D01*
X80006727Y-58565804D01*
X80030996Y-58562204D01*
X80055500Y-58561000D01*
X80980500Y-58561000D01*
X81005004Y-58562204D01*
X81005004Y-58562204D01*
G37*
D12*
X80518000Y-59436000D03*
G04 #@! TD*
M02*
