G04 #@! TF.GenerationSoftware,KiCad,Pcbnew,(5.1.4-0-10_14)*
G04 #@! TF.CreationDate,2019-09-02T22:38:09-04:00*
G04 #@! TF.ProjectId,EFCv2,45464376-322e-46b6-9963-61645f706362,rev?*
G04 #@! TF.SameCoordinates,Original*
G04 #@! TF.FileFunction,Soldermask,Top*
G04 #@! TF.FilePolarity,Negative*
%FSLAX46Y46*%
G04 Gerber Fmt 4.6, Leading zero omitted, Abs format (unit mm)*
G04 Created by KiCad (PCBNEW (5.1.4-0-10_14)) date 2019-09-02 22:38:09*
%MOMM*%
%LPD*%
G04 APERTURE LIST*
%ADD10C,0.100000*%
G04 APERTURE END LIST*
D10*
G36*
X145167825Y-106003745D02*
G01*
X145198490Y-106013048D01*
X145226748Y-106028152D01*
X145251519Y-106048481D01*
X145271848Y-106073252D01*
X145286952Y-106101510D01*
X145296255Y-106132175D01*
X145300000Y-106170203D01*
X145300000Y-109329797D01*
X145296255Y-109367825D01*
X145286952Y-109398490D01*
X145271848Y-109426748D01*
X145251519Y-109451519D01*
X145226748Y-109471848D01*
X145198490Y-109486952D01*
X145167825Y-109496255D01*
X145129797Y-109500000D01*
X143870203Y-109500000D01*
X143832175Y-109496255D01*
X143801510Y-109486952D01*
X143773252Y-109471848D01*
X143748481Y-109451519D01*
X143728152Y-109426748D01*
X143713048Y-109398490D01*
X143703745Y-109367825D01*
X143700000Y-109329797D01*
X143700000Y-106170203D01*
X143703745Y-106132175D01*
X143713048Y-106101510D01*
X143728152Y-106073252D01*
X143748481Y-106048481D01*
X143773252Y-106028152D01*
X143801510Y-106013048D01*
X143832175Y-106003745D01*
X143870203Y-106000000D01*
X145129797Y-106000000D01*
X145167825Y-106003745D01*
X145167825Y-106003745D01*
G37*
G36*
X151560000Y-108100000D02*
G01*
X149860000Y-108100000D01*
X149860000Y-106400000D01*
X151560000Y-106400000D01*
X151560000Y-108100000D01*
X151560000Y-108100000D01*
G37*
G36*
X153416627Y-106412299D02*
G01*
X153496742Y-106436601D01*
X153576855Y-106460903D01*
X153576857Y-106460904D01*
X153724518Y-106539831D01*
X153853949Y-106646051D01*
X153960169Y-106775482D01*
X154039096Y-106923143D01*
X154087701Y-107083373D01*
X154104112Y-107250000D01*
X154087701Y-107416627D01*
X154039096Y-107576857D01*
X153960169Y-107724518D01*
X153853949Y-107853949D01*
X153724518Y-107960169D01*
X153576857Y-108039096D01*
X153576855Y-108039097D01*
X153496742Y-108063399D01*
X153416627Y-108087701D01*
X153291752Y-108100000D01*
X153208248Y-108100000D01*
X153083373Y-108087701D01*
X153003258Y-108063399D01*
X152923145Y-108039097D01*
X152923143Y-108039096D01*
X152775482Y-107960169D01*
X152646051Y-107853949D01*
X152539831Y-107724518D01*
X152460904Y-107576857D01*
X152412299Y-107416627D01*
X152395888Y-107250000D01*
X152412299Y-107083373D01*
X152460904Y-106923143D01*
X152539831Y-106775482D01*
X152646051Y-106646051D01*
X152775482Y-106539831D01*
X152923143Y-106460904D01*
X152923145Y-106460903D01*
X153003258Y-106436601D01*
X153083373Y-106412299D01*
X153208248Y-106400000D01*
X153291752Y-106400000D01*
X153416627Y-106412299D01*
X153416627Y-106412299D01*
G37*
G36*
X171350000Y-105890000D02*
G01*
X169650000Y-105890000D01*
X169650000Y-104190000D01*
X171350000Y-104190000D01*
X171350000Y-105890000D01*
X171350000Y-105890000D01*
G37*
G36*
X165586627Y-104202299D02*
G01*
X165663889Y-104225736D01*
X165746855Y-104250903D01*
X165746857Y-104250904D01*
X165894518Y-104329831D01*
X166023949Y-104436051D01*
X166130169Y-104565482D01*
X166198640Y-104693582D01*
X166209097Y-104713145D01*
X166226105Y-104769214D01*
X166257701Y-104873373D01*
X166274112Y-105040000D01*
X166257701Y-105206627D01*
X166257700Y-105206629D01*
X166229606Y-105299246D01*
X166209096Y-105366857D01*
X166130169Y-105514518D01*
X166023949Y-105643949D01*
X165894518Y-105750169D01*
X165746857Y-105829096D01*
X165746855Y-105829097D01*
X165666742Y-105853399D01*
X165586627Y-105877701D01*
X165461752Y-105890000D01*
X165378248Y-105890000D01*
X165253373Y-105877701D01*
X165173258Y-105853399D01*
X165093145Y-105829097D01*
X165093143Y-105829096D01*
X164945482Y-105750169D01*
X164816051Y-105643949D01*
X164709831Y-105514518D01*
X164630904Y-105366857D01*
X164610395Y-105299246D01*
X164582300Y-105206629D01*
X164582299Y-105206627D01*
X164565888Y-105040000D01*
X164582299Y-104873373D01*
X164613895Y-104769214D01*
X164630903Y-104713145D01*
X164641360Y-104693582D01*
X164709831Y-104565482D01*
X164816051Y-104436051D01*
X164945482Y-104329831D01*
X165093143Y-104250904D01*
X165093145Y-104250903D01*
X165176111Y-104225736D01*
X165253373Y-104202299D01*
X165378248Y-104190000D01*
X165461752Y-104190000D01*
X165586627Y-104202299D01*
X165586627Y-104202299D01*
G37*
G36*
X168126627Y-104202299D02*
G01*
X168203889Y-104225736D01*
X168286855Y-104250903D01*
X168286857Y-104250904D01*
X168434518Y-104329831D01*
X168563949Y-104436051D01*
X168670169Y-104565482D01*
X168738640Y-104693582D01*
X168749097Y-104713145D01*
X168766105Y-104769214D01*
X168797701Y-104873373D01*
X168814112Y-105040000D01*
X168797701Y-105206627D01*
X168797700Y-105206629D01*
X168769606Y-105299246D01*
X168749096Y-105366857D01*
X168670169Y-105514518D01*
X168563949Y-105643949D01*
X168434518Y-105750169D01*
X168286857Y-105829096D01*
X168286855Y-105829097D01*
X168206742Y-105853399D01*
X168126627Y-105877701D01*
X168001752Y-105890000D01*
X167918248Y-105890000D01*
X167793373Y-105877701D01*
X167713258Y-105853399D01*
X167633145Y-105829097D01*
X167633143Y-105829096D01*
X167485482Y-105750169D01*
X167356051Y-105643949D01*
X167249831Y-105514518D01*
X167170904Y-105366857D01*
X167150395Y-105299246D01*
X167122300Y-105206629D01*
X167122299Y-105206627D01*
X167105888Y-105040000D01*
X167122299Y-104873373D01*
X167153895Y-104769214D01*
X167170903Y-104713145D01*
X167181360Y-104693582D01*
X167249831Y-104565482D01*
X167356051Y-104436051D01*
X167485482Y-104329831D01*
X167633143Y-104250904D01*
X167633145Y-104250903D01*
X167716111Y-104225736D01*
X167793373Y-104202299D01*
X167918248Y-104190000D01*
X168001752Y-104190000D01*
X168126627Y-104202299D01*
X168126627Y-104202299D01*
G37*
G36*
X157145843Y-104769214D02*
G01*
X157145846Y-104769215D01*
X157145845Y-104769215D01*
X157236839Y-104806906D01*
X157278063Y-104834451D01*
X157318730Y-104861624D01*
X157388376Y-104931270D01*
X157443095Y-105013163D01*
X157480786Y-105104157D01*
X157500000Y-105200753D01*
X157500000Y-105299247D01*
X157480786Y-105395843D01*
X157443095Y-105486837D01*
X157388376Y-105568730D01*
X157318730Y-105638376D01*
X157310389Y-105643949D01*
X157236839Y-105693094D01*
X157236838Y-105693095D01*
X157236837Y-105693095D01*
X157145843Y-105730786D01*
X157049247Y-105750000D01*
X156950753Y-105750000D01*
X156854157Y-105730786D01*
X156763163Y-105693095D01*
X156763162Y-105693095D01*
X156763161Y-105693094D01*
X156689611Y-105643949D01*
X156681270Y-105638376D01*
X156611624Y-105568730D01*
X156556905Y-105486837D01*
X156519214Y-105395843D01*
X156500000Y-105299247D01*
X156500000Y-105200753D01*
X156519214Y-105104157D01*
X156556905Y-105013163D01*
X156611624Y-104931270D01*
X156681270Y-104861624D01*
X156721937Y-104834451D01*
X156763161Y-104806906D01*
X156854155Y-104769215D01*
X156854154Y-104769215D01*
X156854157Y-104769214D01*
X156950753Y-104750000D01*
X157049247Y-104750000D01*
X157145843Y-104769214D01*
X157145843Y-104769214D01*
G37*
G36*
X155379453Y-104107274D02*
G01*
X155395753Y-104112219D01*
X155410775Y-104120249D01*
X155423944Y-104131056D01*
X155434751Y-104144225D01*
X155442781Y-104159247D01*
X155447726Y-104175547D01*
X155450000Y-104198640D01*
X155450000Y-104611360D01*
X155447726Y-104634453D01*
X155442781Y-104650753D01*
X155434751Y-104665775D01*
X155423944Y-104678944D01*
X155410775Y-104689751D01*
X155395753Y-104697781D01*
X155379453Y-104702726D01*
X155356360Y-104705000D01*
X153593640Y-104705000D01*
X153570547Y-104702726D01*
X153554247Y-104697781D01*
X153539225Y-104689751D01*
X153526056Y-104678944D01*
X153515249Y-104665775D01*
X153507219Y-104650753D01*
X153502274Y-104634453D01*
X153500000Y-104611360D01*
X153500000Y-104198640D01*
X153502274Y-104175547D01*
X153507219Y-104159247D01*
X153515249Y-104144225D01*
X153526056Y-104131056D01*
X153539225Y-104120249D01*
X153554247Y-104112219D01*
X153570547Y-104107274D01*
X153593640Y-104105000D01*
X155356360Y-104105000D01*
X155379453Y-104107274D01*
X155379453Y-104107274D01*
G37*
G36*
X150429453Y-104107274D02*
G01*
X150445753Y-104112219D01*
X150460775Y-104120249D01*
X150473944Y-104131056D01*
X150484751Y-104144225D01*
X150492781Y-104159247D01*
X150497726Y-104175547D01*
X150500000Y-104198640D01*
X150500000Y-104611360D01*
X150497726Y-104634453D01*
X150492781Y-104650753D01*
X150484751Y-104665775D01*
X150473944Y-104678944D01*
X150460775Y-104689751D01*
X150445753Y-104697781D01*
X150429453Y-104702726D01*
X150406360Y-104705000D01*
X148643640Y-104705000D01*
X148620547Y-104702726D01*
X148604247Y-104697781D01*
X148589225Y-104689751D01*
X148576056Y-104678944D01*
X148565249Y-104665775D01*
X148557219Y-104650753D01*
X148552274Y-104634453D01*
X148550000Y-104611360D01*
X148550000Y-104198640D01*
X148552274Y-104175547D01*
X148557219Y-104159247D01*
X148565249Y-104144225D01*
X148576056Y-104131056D01*
X148589225Y-104120249D01*
X148604247Y-104112219D01*
X148620547Y-104107274D01*
X148643640Y-104105000D01*
X150406360Y-104105000D01*
X150429453Y-104107274D01*
X150429453Y-104107274D01*
G37*
G36*
X145167825Y-100403745D02*
G01*
X145198490Y-100413048D01*
X145226748Y-100428152D01*
X145251519Y-100448481D01*
X145271848Y-100473252D01*
X145286952Y-100501510D01*
X145296255Y-100532175D01*
X145300000Y-100570203D01*
X145300000Y-103729797D01*
X145296255Y-103767825D01*
X145286952Y-103798490D01*
X145271848Y-103826748D01*
X145251519Y-103851519D01*
X145226748Y-103871848D01*
X145198490Y-103886952D01*
X145167825Y-103896255D01*
X145129797Y-103900000D01*
X143870203Y-103900000D01*
X143832175Y-103896255D01*
X143801510Y-103886952D01*
X143773252Y-103871848D01*
X143748481Y-103851519D01*
X143728152Y-103826748D01*
X143713048Y-103798490D01*
X143703745Y-103767825D01*
X143700000Y-103729797D01*
X143700000Y-100570203D01*
X143703745Y-100532175D01*
X143713048Y-100501510D01*
X143728152Y-100473252D01*
X143748481Y-100448481D01*
X143773252Y-100428152D01*
X143801510Y-100413048D01*
X143832175Y-100403745D01*
X143870203Y-100400000D01*
X145129797Y-100400000D01*
X145167825Y-100403745D01*
X145167825Y-100403745D01*
G37*
G36*
X159099116Y-102853595D02*
G01*
X159128311Y-102862452D01*
X159155223Y-102876837D01*
X159178808Y-102896192D01*
X159198163Y-102919777D01*
X159212548Y-102946689D01*
X159221405Y-102975884D01*
X159225000Y-103012390D01*
X159225000Y-103562610D01*
X159221405Y-103599116D01*
X159212548Y-103628311D01*
X159198163Y-103655223D01*
X159178808Y-103678808D01*
X159155223Y-103698163D01*
X159128311Y-103712548D01*
X159099116Y-103721405D01*
X159062610Y-103725000D01*
X158437390Y-103725000D01*
X158400884Y-103721405D01*
X158371689Y-103712548D01*
X158344777Y-103698163D01*
X158321192Y-103678808D01*
X158301837Y-103655223D01*
X158287452Y-103628311D01*
X158278595Y-103599116D01*
X158275000Y-103562610D01*
X158275000Y-103012390D01*
X158278595Y-102975884D01*
X158287452Y-102946689D01*
X158301837Y-102919777D01*
X158321192Y-102896192D01*
X158344777Y-102876837D01*
X158371689Y-102862452D01*
X158400884Y-102853595D01*
X158437390Y-102850000D01*
X159062610Y-102850000D01*
X159099116Y-102853595D01*
X159099116Y-102853595D01*
G37*
G36*
X160849116Y-102853595D02*
G01*
X160878311Y-102862452D01*
X160905223Y-102876837D01*
X160928808Y-102896192D01*
X160948163Y-102919777D01*
X160962548Y-102946689D01*
X160971405Y-102975884D01*
X160975000Y-103012390D01*
X160975000Y-103562610D01*
X160971405Y-103599116D01*
X160962548Y-103628311D01*
X160948163Y-103655223D01*
X160928808Y-103678808D01*
X160905223Y-103698163D01*
X160878311Y-103712548D01*
X160849116Y-103721405D01*
X160812610Y-103725000D01*
X160187390Y-103725000D01*
X160150884Y-103721405D01*
X160121689Y-103712548D01*
X160094777Y-103698163D01*
X160071192Y-103678808D01*
X160051837Y-103655223D01*
X160037452Y-103628311D01*
X160028595Y-103599116D01*
X160025000Y-103562610D01*
X160025000Y-103012390D01*
X160028595Y-102975884D01*
X160037452Y-102946689D01*
X160051837Y-102919777D01*
X160071192Y-102896192D01*
X160094777Y-102876837D01*
X160121689Y-102862452D01*
X160150884Y-102853595D01*
X160187390Y-102850000D01*
X160812610Y-102850000D01*
X160849116Y-102853595D01*
X160849116Y-102853595D01*
G37*
G36*
X157349116Y-102816095D02*
G01*
X157378311Y-102824952D01*
X157405223Y-102839337D01*
X157428808Y-102858692D01*
X157448163Y-102882277D01*
X157462548Y-102909189D01*
X157471405Y-102938384D01*
X157475000Y-102974890D01*
X157475000Y-103525110D01*
X157471405Y-103561616D01*
X157462548Y-103590811D01*
X157448163Y-103617723D01*
X157428808Y-103641308D01*
X157405223Y-103660663D01*
X157378311Y-103675048D01*
X157349116Y-103683905D01*
X157312610Y-103687500D01*
X156687390Y-103687500D01*
X156650884Y-103683905D01*
X156621689Y-103675048D01*
X156594777Y-103660663D01*
X156571192Y-103641308D01*
X156551837Y-103617723D01*
X156537452Y-103590811D01*
X156528595Y-103561616D01*
X156525000Y-103525110D01*
X156525000Y-102974890D01*
X156528595Y-102938384D01*
X156537452Y-102909189D01*
X156551837Y-102882277D01*
X156571192Y-102858692D01*
X156594777Y-102839337D01*
X156621689Y-102824952D01*
X156650884Y-102816095D01*
X156687390Y-102812500D01*
X157312610Y-102812500D01*
X157349116Y-102816095D01*
X157349116Y-102816095D01*
G37*
G36*
X155379453Y-102837274D02*
G01*
X155395753Y-102842219D01*
X155410775Y-102850249D01*
X155423944Y-102861056D01*
X155434751Y-102874225D01*
X155442781Y-102889247D01*
X155447726Y-102905547D01*
X155450000Y-102928640D01*
X155450000Y-103341360D01*
X155447726Y-103364453D01*
X155442781Y-103380753D01*
X155434751Y-103395775D01*
X155423944Y-103408944D01*
X155410775Y-103419751D01*
X155395753Y-103427781D01*
X155379453Y-103432726D01*
X155356360Y-103435000D01*
X153593640Y-103435000D01*
X153570547Y-103432726D01*
X153554247Y-103427781D01*
X153539225Y-103419751D01*
X153526056Y-103408944D01*
X153515249Y-103395775D01*
X153507219Y-103380753D01*
X153502274Y-103364453D01*
X153500000Y-103341360D01*
X153500000Y-102928640D01*
X153502274Y-102905547D01*
X153507219Y-102889247D01*
X153515249Y-102874225D01*
X153526056Y-102861056D01*
X153539225Y-102850249D01*
X153554247Y-102842219D01*
X153570547Y-102837274D01*
X153593640Y-102835000D01*
X155356360Y-102835000D01*
X155379453Y-102837274D01*
X155379453Y-102837274D01*
G37*
G36*
X150429453Y-102837274D02*
G01*
X150445753Y-102842219D01*
X150460775Y-102850249D01*
X150473944Y-102861056D01*
X150484751Y-102874225D01*
X150492781Y-102889247D01*
X150497726Y-102905547D01*
X150500000Y-102928640D01*
X150500000Y-103341360D01*
X150497726Y-103364453D01*
X150492781Y-103380753D01*
X150484751Y-103395775D01*
X150473944Y-103408944D01*
X150460775Y-103419751D01*
X150445753Y-103427781D01*
X150429453Y-103432726D01*
X150406360Y-103435000D01*
X148643640Y-103435000D01*
X148620547Y-103432726D01*
X148604247Y-103427781D01*
X148589225Y-103419751D01*
X148576056Y-103408944D01*
X148565249Y-103395775D01*
X148557219Y-103380753D01*
X148552274Y-103364453D01*
X148550000Y-103341360D01*
X148550000Y-102928640D01*
X148552274Y-102905547D01*
X148557219Y-102889247D01*
X148565249Y-102874225D01*
X148576056Y-102861056D01*
X148589225Y-102850249D01*
X148604247Y-102842219D01*
X148620547Y-102837274D01*
X148643640Y-102835000D01*
X150406360Y-102835000D01*
X150429453Y-102837274D01*
X150429453Y-102837274D01*
G37*
G36*
X170666627Y-101662299D02*
G01*
X170729163Y-101681269D01*
X170826855Y-101710903D01*
X170826857Y-101710904D01*
X170974518Y-101789831D01*
X171103949Y-101896051D01*
X171210169Y-102025482D01*
X171276726Y-102150000D01*
X171289097Y-102173145D01*
X171305095Y-102225884D01*
X171337701Y-102333373D01*
X171354112Y-102500000D01*
X171337701Y-102666627D01*
X171337700Y-102666629D01*
X171292177Y-102816703D01*
X171289096Y-102826857D01*
X171210169Y-102974518D01*
X171103949Y-103103949D01*
X170974518Y-103210169D01*
X170834520Y-103285000D01*
X170826855Y-103289097D01*
X170746742Y-103313399D01*
X170666627Y-103337701D01*
X170541752Y-103350000D01*
X170458248Y-103350000D01*
X170333373Y-103337701D01*
X170253258Y-103313399D01*
X170173145Y-103289097D01*
X170165480Y-103285000D01*
X170025482Y-103210169D01*
X169896051Y-103103949D01*
X169789831Y-102974518D01*
X169710904Y-102826857D01*
X169707824Y-102816703D01*
X169662300Y-102666629D01*
X169662299Y-102666627D01*
X169645888Y-102500000D01*
X169662299Y-102333373D01*
X169694905Y-102225884D01*
X169710903Y-102173145D01*
X169723274Y-102150000D01*
X169789831Y-102025482D01*
X169896051Y-101896051D01*
X170025482Y-101789831D01*
X170173143Y-101710904D01*
X170173145Y-101710903D01*
X170270837Y-101681269D01*
X170333373Y-101662299D01*
X170458248Y-101650000D01*
X170541752Y-101650000D01*
X170666627Y-101662299D01*
X170666627Y-101662299D01*
G37*
G36*
X168126627Y-101662299D02*
G01*
X168189163Y-101681269D01*
X168286855Y-101710903D01*
X168286857Y-101710904D01*
X168434518Y-101789831D01*
X168563949Y-101896051D01*
X168670169Y-102025482D01*
X168736726Y-102150000D01*
X168749097Y-102173145D01*
X168765095Y-102225884D01*
X168797701Y-102333373D01*
X168814112Y-102500000D01*
X168797701Y-102666627D01*
X168797700Y-102666629D01*
X168752177Y-102816703D01*
X168749096Y-102826857D01*
X168670169Y-102974518D01*
X168563949Y-103103949D01*
X168434518Y-103210169D01*
X168294520Y-103285000D01*
X168286855Y-103289097D01*
X168206742Y-103313399D01*
X168126627Y-103337701D01*
X168001752Y-103350000D01*
X167918248Y-103350000D01*
X167793373Y-103337701D01*
X167713258Y-103313399D01*
X167633145Y-103289097D01*
X167625480Y-103285000D01*
X167485482Y-103210169D01*
X167356051Y-103103949D01*
X167249831Y-102974518D01*
X167170904Y-102826857D01*
X167167824Y-102816703D01*
X167122300Y-102666629D01*
X167122299Y-102666627D01*
X167105888Y-102500000D01*
X167122299Y-102333373D01*
X167154905Y-102225884D01*
X167170903Y-102173145D01*
X167183274Y-102150000D01*
X167249831Y-102025482D01*
X167356051Y-101896051D01*
X167485482Y-101789831D01*
X167633143Y-101710904D01*
X167633145Y-101710903D01*
X167730837Y-101681269D01*
X167793373Y-101662299D01*
X167918248Y-101650000D01*
X168001752Y-101650000D01*
X168126627Y-101662299D01*
X168126627Y-101662299D01*
G37*
G36*
X165586627Y-101662299D02*
G01*
X165649163Y-101681269D01*
X165746855Y-101710903D01*
X165746857Y-101710904D01*
X165894518Y-101789831D01*
X166023949Y-101896051D01*
X166130169Y-102025482D01*
X166196726Y-102150000D01*
X166209097Y-102173145D01*
X166225095Y-102225884D01*
X166257701Y-102333373D01*
X166274112Y-102500000D01*
X166257701Y-102666627D01*
X166257700Y-102666629D01*
X166212177Y-102816703D01*
X166209096Y-102826857D01*
X166130169Y-102974518D01*
X166023949Y-103103949D01*
X165894518Y-103210169D01*
X165754520Y-103285000D01*
X165746855Y-103289097D01*
X165666742Y-103313399D01*
X165586627Y-103337701D01*
X165461752Y-103350000D01*
X165378248Y-103350000D01*
X165253373Y-103337701D01*
X165173258Y-103313399D01*
X165093145Y-103289097D01*
X165085480Y-103285000D01*
X164945482Y-103210169D01*
X164816051Y-103103949D01*
X164709831Y-102974518D01*
X164630904Y-102826857D01*
X164627824Y-102816703D01*
X164582300Y-102666629D01*
X164582299Y-102666627D01*
X164565888Y-102500000D01*
X164582299Y-102333373D01*
X164614905Y-102225884D01*
X164630903Y-102173145D01*
X164643274Y-102150000D01*
X164709831Y-102025482D01*
X164816051Y-101896051D01*
X164945482Y-101789831D01*
X165093143Y-101710904D01*
X165093145Y-101710903D01*
X165190837Y-101681269D01*
X165253373Y-101662299D01*
X165378248Y-101650000D01*
X165461752Y-101650000D01*
X165586627Y-101662299D01*
X165586627Y-101662299D01*
G37*
G36*
X173849116Y-102103595D02*
G01*
X173878311Y-102112452D01*
X173905223Y-102126837D01*
X173928808Y-102146192D01*
X173948163Y-102169777D01*
X173962548Y-102196689D01*
X173971405Y-102225884D01*
X173975000Y-102262390D01*
X173975000Y-102812610D01*
X173971405Y-102849116D01*
X173962548Y-102878311D01*
X173948163Y-102905223D01*
X173928808Y-102928808D01*
X173905223Y-102948163D01*
X173878311Y-102962548D01*
X173849116Y-102971405D01*
X173812610Y-102975000D01*
X173187390Y-102975000D01*
X173150884Y-102971405D01*
X173121689Y-102962548D01*
X173094777Y-102948163D01*
X173071192Y-102928808D01*
X173051837Y-102905223D01*
X173037452Y-102878311D01*
X173028595Y-102849116D01*
X173025000Y-102812610D01*
X173025000Y-102262390D01*
X173028595Y-102225884D01*
X173037452Y-102196689D01*
X173051837Y-102169777D01*
X173071192Y-102146192D01*
X173094777Y-102126837D01*
X173121689Y-102112452D01*
X173150884Y-102103595D01*
X173187390Y-102100000D01*
X173812610Y-102100000D01*
X173849116Y-102103595D01*
X173849116Y-102103595D01*
G37*
G36*
X162645843Y-101519214D02*
G01*
X162645846Y-101519215D01*
X162645845Y-101519215D01*
X162736839Y-101556906D01*
X162759756Y-101572219D01*
X162818730Y-101611624D01*
X162888376Y-101681270D01*
X162943095Y-101763163D01*
X162980786Y-101854157D01*
X163000000Y-101950753D01*
X163000000Y-102049247D01*
X162980786Y-102145843D01*
X162973793Y-102162726D01*
X162943094Y-102236839D01*
X162888375Y-102318731D01*
X162818731Y-102388375D01*
X162736839Y-102443094D01*
X162736838Y-102443095D01*
X162736837Y-102443095D01*
X162645843Y-102480786D01*
X162549247Y-102500000D01*
X162450753Y-102500000D01*
X162354157Y-102480786D01*
X162263163Y-102443095D01*
X162263162Y-102443095D01*
X162263161Y-102443094D01*
X162181269Y-102388375D01*
X162111625Y-102318731D01*
X162056906Y-102236839D01*
X162026207Y-102162726D01*
X162019214Y-102145843D01*
X162000000Y-102049247D01*
X162000000Y-101950753D01*
X162019214Y-101854157D01*
X162056905Y-101763163D01*
X162111624Y-101681270D01*
X162181270Y-101611624D01*
X162240244Y-101572219D01*
X162263161Y-101556906D01*
X162354155Y-101519215D01*
X162354154Y-101519215D01*
X162354157Y-101519214D01*
X162450753Y-101500000D01*
X162549247Y-101500000D01*
X162645843Y-101519214D01*
X162645843Y-101519214D01*
G37*
G36*
X155379453Y-101567274D02*
G01*
X155395753Y-101572219D01*
X155410775Y-101580249D01*
X155423944Y-101591056D01*
X155434751Y-101604225D01*
X155442781Y-101619247D01*
X155447726Y-101635547D01*
X155450000Y-101658640D01*
X155450000Y-102071360D01*
X155447726Y-102094453D01*
X155442781Y-102110753D01*
X155434751Y-102125775D01*
X155423944Y-102138944D01*
X155410775Y-102149751D01*
X155395753Y-102157781D01*
X155379453Y-102162726D01*
X155356360Y-102165000D01*
X153593640Y-102165000D01*
X153570547Y-102162726D01*
X153554247Y-102157781D01*
X153539225Y-102149751D01*
X153526056Y-102138944D01*
X153515249Y-102125775D01*
X153507219Y-102110753D01*
X153502274Y-102094453D01*
X153500000Y-102071360D01*
X153500000Y-101658640D01*
X153502274Y-101635547D01*
X153507219Y-101619247D01*
X153515249Y-101604225D01*
X153526056Y-101591056D01*
X153539225Y-101580249D01*
X153554247Y-101572219D01*
X153570547Y-101567274D01*
X153593640Y-101565000D01*
X155356360Y-101565000D01*
X155379453Y-101567274D01*
X155379453Y-101567274D01*
G37*
G36*
X150429453Y-101567274D02*
G01*
X150445753Y-101572219D01*
X150460775Y-101580249D01*
X150473944Y-101591056D01*
X150484751Y-101604225D01*
X150492781Y-101619247D01*
X150497726Y-101635547D01*
X150500000Y-101658640D01*
X150500000Y-102071360D01*
X150497726Y-102094453D01*
X150492781Y-102110753D01*
X150484751Y-102125775D01*
X150473944Y-102138944D01*
X150460775Y-102149751D01*
X150445753Y-102157781D01*
X150429453Y-102162726D01*
X150406360Y-102165000D01*
X148643640Y-102165000D01*
X148620547Y-102162726D01*
X148604247Y-102157781D01*
X148589225Y-102149751D01*
X148576056Y-102138944D01*
X148565249Y-102125775D01*
X148557219Y-102110753D01*
X148552274Y-102094453D01*
X148550000Y-102071360D01*
X148550000Y-101658640D01*
X148552274Y-101635547D01*
X148557219Y-101619247D01*
X148565249Y-101604225D01*
X148576056Y-101591056D01*
X148589225Y-101580249D01*
X148604247Y-101572219D01*
X148620547Y-101567274D01*
X148643640Y-101565000D01*
X150406360Y-101565000D01*
X150429453Y-101567274D01*
X150429453Y-101567274D01*
G37*
G36*
X160849116Y-101278595D02*
G01*
X160878311Y-101287452D01*
X160905223Y-101301837D01*
X160928808Y-101321192D01*
X160948163Y-101344777D01*
X160962548Y-101371689D01*
X160971405Y-101400884D01*
X160975000Y-101437390D01*
X160975000Y-101987610D01*
X160971405Y-102024116D01*
X160962548Y-102053311D01*
X160948163Y-102080223D01*
X160928808Y-102103808D01*
X160905223Y-102123163D01*
X160878311Y-102137548D01*
X160849116Y-102146405D01*
X160812610Y-102150000D01*
X160187390Y-102150000D01*
X160150884Y-102146405D01*
X160121689Y-102137548D01*
X160094777Y-102123163D01*
X160071192Y-102103808D01*
X160051837Y-102080223D01*
X160037452Y-102053311D01*
X160028595Y-102024116D01*
X160025000Y-101987610D01*
X160025000Y-101437390D01*
X160028595Y-101400884D01*
X160037452Y-101371689D01*
X160051837Y-101344777D01*
X160071192Y-101321192D01*
X160094777Y-101301837D01*
X160121689Y-101287452D01*
X160150884Y-101278595D01*
X160187390Y-101275000D01*
X160812610Y-101275000D01*
X160849116Y-101278595D01*
X160849116Y-101278595D01*
G37*
G36*
X159099116Y-101278595D02*
G01*
X159128311Y-101287452D01*
X159155223Y-101301837D01*
X159178808Y-101321192D01*
X159198163Y-101344777D01*
X159212548Y-101371689D01*
X159221405Y-101400884D01*
X159225000Y-101437390D01*
X159225000Y-101987610D01*
X159221405Y-102024116D01*
X159212548Y-102053311D01*
X159198163Y-102080223D01*
X159178808Y-102103808D01*
X159155223Y-102123163D01*
X159128311Y-102137548D01*
X159099116Y-102146405D01*
X159062610Y-102150000D01*
X158437390Y-102150000D01*
X158400884Y-102146405D01*
X158371689Y-102137548D01*
X158344777Y-102123163D01*
X158321192Y-102103808D01*
X158301837Y-102080223D01*
X158287452Y-102053311D01*
X158278595Y-102024116D01*
X158275000Y-101987610D01*
X158275000Y-101437390D01*
X158278595Y-101400884D01*
X158287452Y-101371689D01*
X158301837Y-101344777D01*
X158321192Y-101321192D01*
X158344777Y-101301837D01*
X158371689Y-101287452D01*
X158400884Y-101278595D01*
X158437390Y-101275000D01*
X159062610Y-101275000D01*
X159099116Y-101278595D01*
X159099116Y-101278595D01*
G37*
G36*
X157349116Y-101241095D02*
G01*
X157378311Y-101249952D01*
X157405223Y-101264337D01*
X157428808Y-101283692D01*
X157448163Y-101307277D01*
X157462548Y-101334189D01*
X157471405Y-101363384D01*
X157475000Y-101399890D01*
X157475000Y-101950110D01*
X157471405Y-101986616D01*
X157462548Y-102015811D01*
X157448163Y-102042723D01*
X157428808Y-102066308D01*
X157405223Y-102085663D01*
X157378311Y-102100048D01*
X157349116Y-102108905D01*
X157312610Y-102112500D01*
X156687390Y-102112500D01*
X156650884Y-102108905D01*
X156621689Y-102100048D01*
X156594777Y-102085663D01*
X156571192Y-102066308D01*
X156551837Y-102042723D01*
X156537452Y-102015811D01*
X156528595Y-101986616D01*
X156525000Y-101950110D01*
X156525000Y-101399890D01*
X156528595Y-101363384D01*
X156537452Y-101334189D01*
X156551837Y-101307277D01*
X156571192Y-101283692D01*
X156594777Y-101264337D01*
X156621689Y-101249952D01*
X156650884Y-101241095D01*
X156687390Y-101237500D01*
X157312610Y-101237500D01*
X157349116Y-101241095D01*
X157349116Y-101241095D01*
G37*
G36*
X173849116Y-100528595D02*
G01*
X173878311Y-100537452D01*
X173905223Y-100551837D01*
X173928808Y-100571192D01*
X173948163Y-100594777D01*
X173962548Y-100621689D01*
X173971405Y-100650884D01*
X173975000Y-100687390D01*
X173975000Y-101237610D01*
X173971405Y-101274116D01*
X173962548Y-101303311D01*
X173948163Y-101330223D01*
X173928808Y-101353808D01*
X173905223Y-101373163D01*
X173878311Y-101387548D01*
X173849116Y-101396405D01*
X173812610Y-101400000D01*
X173187390Y-101400000D01*
X173150884Y-101396405D01*
X173121689Y-101387548D01*
X173094777Y-101373163D01*
X173071192Y-101353808D01*
X173051837Y-101330223D01*
X173037452Y-101303311D01*
X173028595Y-101274116D01*
X173025000Y-101237610D01*
X173025000Y-100687390D01*
X173028595Y-100650884D01*
X173037452Y-100621689D01*
X173051837Y-100594777D01*
X173071192Y-100571192D01*
X173094777Y-100551837D01*
X173121689Y-100537452D01*
X173150884Y-100528595D01*
X173187390Y-100525000D01*
X173812610Y-100525000D01*
X173849116Y-100528595D01*
X173849116Y-100528595D01*
G37*
G36*
X155379453Y-100297274D02*
G01*
X155395753Y-100302219D01*
X155410775Y-100310249D01*
X155423944Y-100321056D01*
X155434751Y-100334225D01*
X155442781Y-100349247D01*
X155447726Y-100365547D01*
X155450000Y-100388640D01*
X155450000Y-100801360D01*
X155447726Y-100824453D01*
X155442781Y-100840753D01*
X155434751Y-100855775D01*
X155423944Y-100868944D01*
X155410775Y-100879751D01*
X155395753Y-100887781D01*
X155379453Y-100892726D01*
X155356360Y-100895000D01*
X153593640Y-100895000D01*
X153570547Y-100892726D01*
X153554247Y-100887781D01*
X153539225Y-100879751D01*
X153526056Y-100868944D01*
X153515249Y-100855775D01*
X153507219Y-100840753D01*
X153502274Y-100824453D01*
X153500000Y-100801360D01*
X153500000Y-100388640D01*
X153502274Y-100365547D01*
X153507219Y-100349247D01*
X153515249Y-100334225D01*
X153526056Y-100321056D01*
X153539225Y-100310249D01*
X153554247Y-100302219D01*
X153570547Y-100297274D01*
X153593640Y-100295000D01*
X155356360Y-100295000D01*
X155379453Y-100297274D01*
X155379453Y-100297274D01*
G37*
G36*
X150429453Y-100297274D02*
G01*
X150445753Y-100302219D01*
X150460775Y-100310249D01*
X150473944Y-100321056D01*
X150484751Y-100334225D01*
X150492781Y-100349247D01*
X150497726Y-100365547D01*
X150500000Y-100388640D01*
X150500000Y-100801360D01*
X150497726Y-100824453D01*
X150492781Y-100840753D01*
X150484751Y-100855775D01*
X150473944Y-100868944D01*
X150460775Y-100879751D01*
X150445753Y-100887781D01*
X150429453Y-100892726D01*
X150406360Y-100895000D01*
X148643640Y-100895000D01*
X148620547Y-100892726D01*
X148604247Y-100887781D01*
X148589225Y-100879751D01*
X148576056Y-100868944D01*
X148565249Y-100855775D01*
X148557219Y-100840753D01*
X148552274Y-100824453D01*
X148550000Y-100801360D01*
X148550000Y-100388640D01*
X148552274Y-100365547D01*
X148557219Y-100349247D01*
X148565249Y-100334225D01*
X148576056Y-100321056D01*
X148589225Y-100310249D01*
X148604247Y-100302219D01*
X148620547Y-100297274D01*
X148643640Y-100295000D01*
X150406360Y-100295000D01*
X150429453Y-100297274D01*
X150429453Y-100297274D01*
G37*
G36*
X142145843Y-99269214D02*
G01*
X142236837Y-99306905D01*
X142236839Y-99306906D01*
X142258219Y-99321192D01*
X142318730Y-99361624D01*
X142388376Y-99431270D01*
X142443095Y-99513163D01*
X142480786Y-99604157D01*
X142500000Y-99700753D01*
X142500000Y-99799247D01*
X142480786Y-99895843D01*
X142443095Y-99986837D01*
X142388376Y-100068730D01*
X142318730Y-100138376D01*
X142284975Y-100160930D01*
X142236839Y-100193094D01*
X142236838Y-100193095D01*
X142236837Y-100193095D01*
X142145843Y-100230786D01*
X142049247Y-100250000D01*
X141950753Y-100250000D01*
X141854157Y-100230786D01*
X141763163Y-100193095D01*
X141763162Y-100193095D01*
X141763161Y-100193094D01*
X141715025Y-100160930D01*
X141681270Y-100138376D01*
X141611624Y-100068730D01*
X141556905Y-99986837D01*
X141519214Y-99895843D01*
X141500000Y-99799247D01*
X141500000Y-99700753D01*
X141519214Y-99604157D01*
X141556905Y-99513163D01*
X141611624Y-99431270D01*
X141681270Y-99361624D01*
X141741781Y-99321192D01*
X141763161Y-99306906D01*
X141763163Y-99306905D01*
X141854157Y-99269214D01*
X141950753Y-99250000D01*
X142049247Y-99250000D01*
X142145843Y-99269214D01*
X142145843Y-99269214D01*
G37*
G36*
X164895843Y-99269214D02*
G01*
X164986837Y-99306905D01*
X164986839Y-99306906D01*
X165008219Y-99321192D01*
X165068730Y-99361624D01*
X165138376Y-99431270D01*
X165193095Y-99513163D01*
X165230786Y-99604157D01*
X165250000Y-99700753D01*
X165250000Y-99799247D01*
X165230786Y-99895843D01*
X165193095Y-99986837D01*
X165138376Y-100068730D01*
X165068730Y-100138376D01*
X165034975Y-100160930D01*
X164986839Y-100193094D01*
X164986838Y-100193095D01*
X164986837Y-100193095D01*
X164895843Y-100230786D01*
X164799247Y-100250000D01*
X164700753Y-100250000D01*
X164604157Y-100230786D01*
X164513163Y-100193095D01*
X164513162Y-100193095D01*
X164513161Y-100193094D01*
X164465025Y-100160930D01*
X164431270Y-100138376D01*
X164361624Y-100068730D01*
X164306905Y-99986837D01*
X164269214Y-99895843D01*
X164250000Y-99799247D01*
X164250000Y-99700753D01*
X164269214Y-99604157D01*
X164306905Y-99513163D01*
X164361624Y-99431270D01*
X164431270Y-99361624D01*
X164491781Y-99321192D01*
X164513161Y-99306906D01*
X164513163Y-99306905D01*
X164604157Y-99269214D01*
X164700753Y-99250000D01*
X164799247Y-99250000D01*
X164895843Y-99269214D01*
X164895843Y-99269214D01*
G37*
G36*
X162575000Y-100250000D02*
G01*
X161925000Y-100250000D01*
X161925000Y-99850000D01*
X162575000Y-99850000D01*
X162575000Y-100250000D01*
X162575000Y-100250000D01*
G37*
G36*
X160675000Y-100250000D02*
G01*
X160025000Y-100250000D01*
X160025000Y-99850000D01*
X160675000Y-99850000D01*
X160675000Y-100250000D01*
X160675000Y-100250000D01*
G37*
G36*
X168311616Y-99278595D02*
G01*
X168340811Y-99287452D01*
X168367723Y-99301837D01*
X168391308Y-99321192D01*
X168410663Y-99344777D01*
X168425048Y-99371689D01*
X168433905Y-99400884D01*
X168437500Y-99437390D01*
X168437500Y-100062610D01*
X168433905Y-100099116D01*
X168425048Y-100128311D01*
X168410663Y-100155223D01*
X168391308Y-100178808D01*
X168367723Y-100198163D01*
X168340811Y-100212548D01*
X168311616Y-100221405D01*
X168275110Y-100225000D01*
X167724890Y-100225000D01*
X167688384Y-100221405D01*
X167659189Y-100212548D01*
X167632277Y-100198163D01*
X167608692Y-100178808D01*
X167589337Y-100155223D01*
X167574952Y-100128311D01*
X167566095Y-100099116D01*
X167562500Y-100062610D01*
X167562500Y-99437390D01*
X167566095Y-99400884D01*
X167574952Y-99371689D01*
X167589337Y-99344777D01*
X167608692Y-99321192D01*
X167632277Y-99301837D01*
X167659189Y-99287452D01*
X167688384Y-99278595D01*
X167724890Y-99275000D01*
X168275110Y-99275000D01*
X168311616Y-99278595D01*
X168311616Y-99278595D01*
G37*
G36*
X166736616Y-99278595D02*
G01*
X166765811Y-99287452D01*
X166792723Y-99301837D01*
X166816308Y-99321192D01*
X166835663Y-99344777D01*
X166850048Y-99371689D01*
X166858905Y-99400884D01*
X166862500Y-99437390D01*
X166862500Y-100062610D01*
X166858905Y-100099116D01*
X166850048Y-100128311D01*
X166835663Y-100155223D01*
X166816308Y-100178808D01*
X166792723Y-100198163D01*
X166765811Y-100212548D01*
X166736616Y-100221405D01*
X166700110Y-100225000D01*
X166149890Y-100225000D01*
X166113384Y-100221405D01*
X166084189Y-100212548D01*
X166057277Y-100198163D01*
X166033692Y-100178808D01*
X166014337Y-100155223D01*
X165999952Y-100128311D01*
X165991095Y-100099116D01*
X165987500Y-100062610D01*
X165987500Y-99437390D01*
X165991095Y-99400884D01*
X165999952Y-99371689D01*
X166014337Y-99344777D01*
X166033692Y-99321192D01*
X166057277Y-99301837D01*
X166084189Y-99287452D01*
X166113384Y-99278595D01*
X166149890Y-99275000D01*
X166700110Y-99275000D01*
X166736616Y-99278595D01*
X166736616Y-99278595D01*
G37*
G36*
X173789453Y-97777274D02*
G01*
X173805753Y-97782219D01*
X173820775Y-97790249D01*
X173833944Y-97801056D01*
X173844751Y-97814225D01*
X173852781Y-97829247D01*
X173857726Y-97845547D01*
X173860000Y-97868640D01*
X173860000Y-99631360D01*
X173857726Y-99654453D01*
X173852781Y-99670753D01*
X173844751Y-99685775D01*
X173833944Y-99698944D01*
X173820775Y-99709751D01*
X173805753Y-99717781D01*
X173789453Y-99722726D01*
X173766360Y-99725000D01*
X173353640Y-99725000D01*
X173330547Y-99722726D01*
X173314247Y-99717781D01*
X173299225Y-99709751D01*
X173286056Y-99698944D01*
X173275249Y-99685775D01*
X173267219Y-99670753D01*
X173262274Y-99654453D01*
X173260000Y-99631360D01*
X173260000Y-97868640D01*
X173262274Y-97845547D01*
X173267219Y-97829247D01*
X173275249Y-97814225D01*
X173286056Y-97801056D01*
X173299225Y-97790249D01*
X173314247Y-97782219D01*
X173330547Y-97777274D01*
X173353640Y-97775000D01*
X173766360Y-97775000D01*
X173789453Y-97777274D01*
X173789453Y-97777274D01*
G37*
G36*
X172519453Y-97777274D02*
G01*
X172535753Y-97782219D01*
X172550775Y-97790249D01*
X172563944Y-97801056D01*
X172574751Y-97814225D01*
X172582781Y-97829247D01*
X172587726Y-97845547D01*
X172590000Y-97868640D01*
X172590000Y-99631360D01*
X172587726Y-99654453D01*
X172582781Y-99670753D01*
X172574751Y-99685775D01*
X172563944Y-99698944D01*
X172550775Y-99709751D01*
X172535753Y-99717781D01*
X172519453Y-99722726D01*
X172496360Y-99725000D01*
X172083640Y-99725000D01*
X172060547Y-99722726D01*
X172044247Y-99717781D01*
X172029225Y-99709751D01*
X172016056Y-99698944D01*
X172005249Y-99685775D01*
X171997219Y-99670753D01*
X171992274Y-99654453D01*
X171990000Y-99631360D01*
X171990000Y-97868640D01*
X171992274Y-97845547D01*
X171997219Y-97829247D01*
X172005249Y-97814225D01*
X172016056Y-97801056D01*
X172029225Y-97790249D01*
X172044247Y-97782219D01*
X172060547Y-97777274D01*
X172083640Y-97775000D01*
X172496360Y-97775000D01*
X172519453Y-97777274D01*
X172519453Y-97777274D01*
G37*
G36*
X171249453Y-97777274D02*
G01*
X171265753Y-97782219D01*
X171280775Y-97790249D01*
X171293944Y-97801056D01*
X171304751Y-97814225D01*
X171312781Y-97829247D01*
X171317726Y-97845547D01*
X171320000Y-97868640D01*
X171320000Y-99631360D01*
X171317726Y-99654453D01*
X171312781Y-99670753D01*
X171304751Y-99685775D01*
X171293944Y-99698944D01*
X171280775Y-99709751D01*
X171265753Y-99717781D01*
X171249453Y-99722726D01*
X171226360Y-99725000D01*
X170813640Y-99725000D01*
X170790547Y-99722726D01*
X170774247Y-99717781D01*
X170759225Y-99709751D01*
X170746056Y-99698944D01*
X170735249Y-99685775D01*
X170727219Y-99670753D01*
X170722274Y-99654453D01*
X170720000Y-99631360D01*
X170720000Y-97868640D01*
X170722274Y-97845547D01*
X170727219Y-97829247D01*
X170735249Y-97814225D01*
X170746056Y-97801056D01*
X170759225Y-97790249D01*
X170774247Y-97782219D01*
X170790547Y-97777274D01*
X170813640Y-97775000D01*
X171226360Y-97775000D01*
X171249453Y-97777274D01*
X171249453Y-97777274D01*
G37*
G36*
X169979453Y-97777274D02*
G01*
X169995753Y-97782219D01*
X170010775Y-97790249D01*
X170023944Y-97801056D01*
X170034751Y-97814225D01*
X170042781Y-97829247D01*
X170047726Y-97845547D01*
X170050000Y-97868640D01*
X170050000Y-99631360D01*
X170047726Y-99654453D01*
X170042781Y-99670753D01*
X170034751Y-99685775D01*
X170023944Y-99698944D01*
X170010775Y-99709751D01*
X169995753Y-99717781D01*
X169979453Y-99722726D01*
X169956360Y-99725000D01*
X169543640Y-99725000D01*
X169520547Y-99722726D01*
X169504247Y-99717781D01*
X169489225Y-99709751D01*
X169476056Y-99698944D01*
X169465249Y-99685775D01*
X169457219Y-99670753D01*
X169452274Y-99654453D01*
X169450000Y-99631360D01*
X169450000Y-97868640D01*
X169452274Y-97845547D01*
X169457219Y-97829247D01*
X169465249Y-97814225D01*
X169476056Y-97801056D01*
X169489225Y-97790249D01*
X169504247Y-97782219D01*
X169520547Y-97777274D01*
X169543640Y-97775000D01*
X169956360Y-97775000D01*
X169979453Y-97777274D01*
X169979453Y-97777274D01*
G37*
G36*
X162575000Y-99600000D02*
G01*
X161925000Y-99600000D01*
X161925000Y-99200000D01*
X162575000Y-99200000D01*
X162575000Y-99600000D01*
X162575000Y-99600000D01*
G37*
G36*
X160675000Y-99600000D02*
G01*
X160025000Y-99600000D01*
X160025000Y-99200000D01*
X160675000Y-99200000D01*
X160675000Y-99600000D01*
X160675000Y-99600000D01*
G37*
G36*
X149811616Y-98528595D02*
G01*
X149840811Y-98537452D01*
X149867723Y-98551837D01*
X149891308Y-98571192D01*
X149910663Y-98594777D01*
X149925048Y-98621689D01*
X149933905Y-98650884D01*
X149937500Y-98687390D01*
X149937500Y-99312610D01*
X149933905Y-99349116D01*
X149925048Y-99378311D01*
X149910663Y-99405223D01*
X149891308Y-99428808D01*
X149867723Y-99448163D01*
X149840811Y-99462548D01*
X149811616Y-99471405D01*
X149775110Y-99475000D01*
X149224890Y-99475000D01*
X149188384Y-99471405D01*
X149159189Y-99462548D01*
X149132277Y-99448163D01*
X149108692Y-99428808D01*
X149089337Y-99405223D01*
X149074952Y-99378311D01*
X149066095Y-99349116D01*
X149062500Y-99312610D01*
X149062500Y-98687390D01*
X149066095Y-98650884D01*
X149074952Y-98621689D01*
X149089337Y-98594777D01*
X149108692Y-98571192D01*
X149132277Y-98551837D01*
X149159189Y-98537452D01*
X149188384Y-98528595D01*
X149224890Y-98525000D01*
X149775110Y-98525000D01*
X149811616Y-98528595D01*
X149811616Y-98528595D01*
G37*
G36*
X148236616Y-98528595D02*
G01*
X148265811Y-98537452D01*
X148292723Y-98551837D01*
X148316308Y-98571192D01*
X148335663Y-98594777D01*
X148350048Y-98621689D01*
X148358905Y-98650884D01*
X148362500Y-98687390D01*
X148362500Y-99312610D01*
X148358905Y-99349116D01*
X148350048Y-99378311D01*
X148335663Y-99405223D01*
X148316308Y-99428808D01*
X148292723Y-99448163D01*
X148265811Y-99462548D01*
X148236616Y-99471405D01*
X148200110Y-99475000D01*
X147649890Y-99475000D01*
X147613384Y-99471405D01*
X147584189Y-99462548D01*
X147557277Y-99448163D01*
X147533692Y-99428808D01*
X147514337Y-99405223D01*
X147499952Y-99378311D01*
X147491095Y-99349116D01*
X147487500Y-99312610D01*
X147487500Y-98687390D01*
X147491095Y-98650884D01*
X147499952Y-98621689D01*
X147514337Y-98594777D01*
X147533692Y-98571192D01*
X147557277Y-98551837D01*
X147584189Y-98537452D01*
X147613384Y-98528595D01*
X147649890Y-98525000D01*
X148200110Y-98525000D01*
X148236616Y-98528595D01*
X148236616Y-98528595D01*
G37*
G36*
X146349116Y-98528595D02*
G01*
X146378311Y-98537452D01*
X146405223Y-98551837D01*
X146428808Y-98571192D01*
X146448163Y-98594777D01*
X146462548Y-98621689D01*
X146471405Y-98650884D01*
X146475000Y-98687390D01*
X146475000Y-99312610D01*
X146471405Y-99349116D01*
X146462548Y-99378311D01*
X146448163Y-99405223D01*
X146428808Y-99428808D01*
X146405223Y-99448163D01*
X146378311Y-99462548D01*
X146349116Y-99471405D01*
X146312610Y-99475000D01*
X145762390Y-99475000D01*
X145725884Y-99471405D01*
X145696689Y-99462548D01*
X145669777Y-99448163D01*
X145646192Y-99428808D01*
X145626837Y-99405223D01*
X145612452Y-99378311D01*
X145603595Y-99349116D01*
X145600000Y-99312610D01*
X145600000Y-98687390D01*
X145603595Y-98650884D01*
X145612452Y-98621689D01*
X145626837Y-98594777D01*
X145646192Y-98571192D01*
X145669777Y-98551837D01*
X145696689Y-98537452D01*
X145725884Y-98528595D01*
X145762390Y-98525000D01*
X146312610Y-98525000D01*
X146349116Y-98528595D01*
X146349116Y-98528595D01*
G37*
G36*
X144774116Y-98528595D02*
G01*
X144803311Y-98537452D01*
X144830223Y-98551837D01*
X144853808Y-98571192D01*
X144873163Y-98594777D01*
X144887548Y-98621689D01*
X144896405Y-98650884D01*
X144900000Y-98687390D01*
X144900000Y-99312610D01*
X144896405Y-99349116D01*
X144887548Y-99378311D01*
X144873163Y-99405223D01*
X144853808Y-99428808D01*
X144830223Y-99448163D01*
X144803311Y-99462548D01*
X144774116Y-99471405D01*
X144737610Y-99475000D01*
X144187390Y-99475000D01*
X144150884Y-99471405D01*
X144121689Y-99462548D01*
X144094777Y-99448163D01*
X144071192Y-99428808D01*
X144051837Y-99405223D01*
X144037452Y-99378311D01*
X144028595Y-99349116D01*
X144025000Y-99312610D01*
X144025000Y-98687390D01*
X144028595Y-98650884D01*
X144037452Y-98621689D01*
X144051837Y-98594777D01*
X144071192Y-98571192D01*
X144094777Y-98551837D01*
X144121689Y-98537452D01*
X144150884Y-98528595D01*
X144187390Y-98525000D01*
X144737610Y-98525000D01*
X144774116Y-98528595D01*
X144774116Y-98528595D01*
G37*
G36*
X160675000Y-98950000D02*
G01*
X160025000Y-98950000D01*
X160025000Y-98550000D01*
X160675000Y-98550000D01*
X160675000Y-98950000D01*
X160675000Y-98950000D01*
G37*
G36*
X162575000Y-98950000D02*
G01*
X161925000Y-98950000D01*
X161925000Y-98550000D01*
X162575000Y-98550000D01*
X162575000Y-98950000D01*
X162575000Y-98950000D01*
G37*
G36*
X147167825Y-94253745D02*
G01*
X147198490Y-94263048D01*
X147226748Y-94278152D01*
X147251519Y-94298481D01*
X147271848Y-94323252D01*
X147286952Y-94351510D01*
X147296255Y-94382175D01*
X147300000Y-94420203D01*
X147300000Y-97579797D01*
X147296255Y-97617825D01*
X147286952Y-97648490D01*
X147271848Y-97676748D01*
X147251519Y-97701519D01*
X147226748Y-97721848D01*
X147198490Y-97736952D01*
X147167825Y-97746255D01*
X147129797Y-97750000D01*
X145870203Y-97750000D01*
X145832175Y-97746255D01*
X145801510Y-97736952D01*
X145773252Y-97721848D01*
X145748481Y-97701519D01*
X145728152Y-97676748D01*
X145713048Y-97648490D01*
X145703745Y-97617825D01*
X145700000Y-97579797D01*
X145700000Y-94420203D01*
X145703745Y-94382175D01*
X145713048Y-94351510D01*
X145728152Y-94323252D01*
X145748481Y-94298481D01*
X145773252Y-94278152D01*
X145801510Y-94263048D01*
X145832175Y-94253745D01*
X145870203Y-94250000D01*
X147129797Y-94250000D01*
X147167825Y-94253745D01*
X147167825Y-94253745D01*
G37*
G36*
X141650000Y-97650000D02*
G01*
X139350000Y-97650000D01*
X139350000Y-94150000D01*
X141650000Y-94150000D01*
X141650000Y-97650000D01*
X141650000Y-97650000D01*
G37*
G36*
X151834024Y-95628955D02*
G01*
X151866738Y-95638879D01*
X151896885Y-95654993D01*
X151923315Y-95676685D01*
X151945007Y-95703115D01*
X151961121Y-95733262D01*
X151971045Y-95765976D01*
X151975000Y-95806138D01*
X151975000Y-97193862D01*
X151971045Y-97234024D01*
X151961121Y-97266738D01*
X151945007Y-97296885D01*
X151923315Y-97323315D01*
X151896885Y-97345007D01*
X151866738Y-97361121D01*
X151834024Y-97371045D01*
X151793862Y-97375000D01*
X150906138Y-97375000D01*
X150865976Y-97371045D01*
X150833262Y-97361121D01*
X150803115Y-97345007D01*
X150776685Y-97323315D01*
X150754993Y-97296885D01*
X150738879Y-97266738D01*
X150728955Y-97234024D01*
X150725000Y-97193862D01*
X150725000Y-95806138D01*
X150728955Y-95765976D01*
X150738879Y-95733262D01*
X150754993Y-95703115D01*
X150776685Y-95676685D01*
X150803115Y-95654993D01*
X150833262Y-95638879D01*
X150865976Y-95628955D01*
X150906138Y-95625000D01*
X151793862Y-95625000D01*
X151834024Y-95628955D01*
X151834024Y-95628955D01*
G37*
G36*
X154634024Y-95628955D02*
G01*
X154666738Y-95638879D01*
X154696885Y-95654993D01*
X154723315Y-95676685D01*
X154745007Y-95703115D01*
X154761121Y-95733262D01*
X154771045Y-95765976D01*
X154775000Y-95806138D01*
X154775000Y-97193862D01*
X154771045Y-97234024D01*
X154761121Y-97266738D01*
X154745007Y-97296885D01*
X154723315Y-97323315D01*
X154696885Y-97345007D01*
X154666738Y-97361121D01*
X154634024Y-97371045D01*
X154593862Y-97375000D01*
X153706138Y-97375000D01*
X153665976Y-97371045D01*
X153633262Y-97361121D01*
X153603115Y-97345007D01*
X153576685Y-97323315D01*
X153554993Y-97296885D01*
X153538879Y-97266738D01*
X153528955Y-97234024D01*
X153525000Y-97193862D01*
X153525000Y-95806138D01*
X153528955Y-95765976D01*
X153538879Y-95733262D01*
X153554993Y-95703115D01*
X153576685Y-95676685D01*
X153603115Y-95654993D01*
X153633262Y-95638879D01*
X153665976Y-95628955D01*
X153706138Y-95625000D01*
X154593862Y-95625000D01*
X154634024Y-95628955D01*
X154634024Y-95628955D01*
G37*
G36*
X167645843Y-96019214D02*
G01*
X167645846Y-96019215D01*
X167645845Y-96019215D01*
X167736839Y-96056906D01*
X167778063Y-96084451D01*
X167818730Y-96111624D01*
X167888376Y-96181270D01*
X167943095Y-96263163D01*
X167980786Y-96354157D01*
X168000000Y-96450753D01*
X168000000Y-96549247D01*
X167980786Y-96645843D01*
X167980785Y-96645845D01*
X167943094Y-96736839D01*
X167888375Y-96818731D01*
X167818731Y-96888375D01*
X167736839Y-96943094D01*
X167736838Y-96943095D01*
X167736837Y-96943095D01*
X167645843Y-96980786D01*
X167549247Y-97000000D01*
X167450753Y-97000000D01*
X167354157Y-96980786D01*
X167263163Y-96943095D01*
X167263162Y-96943095D01*
X167263161Y-96943094D01*
X167181269Y-96888375D01*
X167111625Y-96818731D01*
X167056906Y-96736839D01*
X167019215Y-96645845D01*
X167019214Y-96645843D01*
X167000000Y-96549247D01*
X167000000Y-96450753D01*
X167019214Y-96354157D01*
X167056905Y-96263163D01*
X167111624Y-96181270D01*
X167181270Y-96111624D01*
X167221937Y-96084451D01*
X167263161Y-96056906D01*
X167354155Y-96019215D01*
X167354154Y-96019215D01*
X167354157Y-96019214D01*
X167450753Y-96000000D01*
X167549247Y-96000000D01*
X167645843Y-96019214D01*
X167645843Y-96019214D01*
G37*
G36*
X164645843Y-96019214D02*
G01*
X164645846Y-96019215D01*
X164645845Y-96019215D01*
X164736839Y-96056906D01*
X164778063Y-96084451D01*
X164818730Y-96111624D01*
X164888376Y-96181270D01*
X164943095Y-96263163D01*
X164980786Y-96354157D01*
X165000000Y-96450753D01*
X165000000Y-96549247D01*
X164980786Y-96645843D01*
X164980785Y-96645845D01*
X164943094Y-96736839D01*
X164888375Y-96818731D01*
X164818731Y-96888375D01*
X164736839Y-96943094D01*
X164736838Y-96943095D01*
X164736837Y-96943095D01*
X164645843Y-96980786D01*
X164549247Y-97000000D01*
X164450753Y-97000000D01*
X164354157Y-96980786D01*
X164263163Y-96943095D01*
X164263162Y-96943095D01*
X164263161Y-96943094D01*
X164181269Y-96888375D01*
X164111625Y-96818731D01*
X164056906Y-96736839D01*
X164019215Y-96645845D01*
X164019214Y-96645843D01*
X164000000Y-96549247D01*
X164000000Y-96450753D01*
X164019214Y-96354157D01*
X164056905Y-96263163D01*
X164111624Y-96181270D01*
X164181270Y-96111624D01*
X164221937Y-96084451D01*
X164263161Y-96056906D01*
X164354155Y-96019215D01*
X164354154Y-96019215D01*
X164354157Y-96019214D01*
X164450753Y-96000000D01*
X164549247Y-96000000D01*
X164645843Y-96019214D01*
X164645843Y-96019214D01*
G37*
G36*
X157849116Y-95528595D02*
G01*
X157878311Y-95537452D01*
X157905223Y-95551837D01*
X157928808Y-95571192D01*
X157948163Y-95594777D01*
X157962548Y-95621689D01*
X157971405Y-95650884D01*
X157975000Y-95687390D01*
X157975000Y-96312610D01*
X157971405Y-96349116D01*
X157962548Y-96378311D01*
X157948163Y-96405223D01*
X157928808Y-96428808D01*
X157905223Y-96448163D01*
X157878311Y-96462548D01*
X157849116Y-96471405D01*
X157812610Y-96475000D01*
X157262390Y-96475000D01*
X157225884Y-96471405D01*
X157196689Y-96462548D01*
X157169777Y-96448163D01*
X157146192Y-96428808D01*
X157126837Y-96405223D01*
X157112452Y-96378311D01*
X157103595Y-96349116D01*
X157100000Y-96312610D01*
X157100000Y-95687390D01*
X157103595Y-95650884D01*
X157112452Y-95621689D01*
X157126837Y-95594777D01*
X157146192Y-95571192D01*
X157169777Y-95551837D01*
X157196689Y-95537452D01*
X157225884Y-95528595D01*
X157262390Y-95525000D01*
X157812610Y-95525000D01*
X157849116Y-95528595D01*
X157849116Y-95528595D01*
G37*
G36*
X156274116Y-95528595D02*
G01*
X156303311Y-95537452D01*
X156330223Y-95551837D01*
X156353808Y-95571192D01*
X156373163Y-95594777D01*
X156387548Y-95621689D01*
X156396405Y-95650884D01*
X156400000Y-95687390D01*
X156400000Y-96312610D01*
X156396405Y-96349116D01*
X156387548Y-96378311D01*
X156373163Y-96405223D01*
X156353808Y-96428808D01*
X156330223Y-96448163D01*
X156303311Y-96462548D01*
X156274116Y-96471405D01*
X156237610Y-96475000D01*
X155687390Y-96475000D01*
X155650884Y-96471405D01*
X155621689Y-96462548D01*
X155594777Y-96448163D01*
X155571192Y-96428808D01*
X155551837Y-96405223D01*
X155537452Y-96378311D01*
X155528595Y-96349116D01*
X155525000Y-96312610D01*
X155525000Y-95687390D01*
X155528595Y-95650884D01*
X155537452Y-95621689D01*
X155551837Y-95594777D01*
X155571192Y-95571192D01*
X155594777Y-95551837D01*
X155621689Y-95537452D01*
X155650884Y-95528595D01*
X155687390Y-95525000D01*
X156237610Y-95525000D01*
X156274116Y-95528595D01*
X156274116Y-95528595D01*
G37*
G36*
X154850000Y-94900000D02*
G01*
X151650000Y-94900000D01*
X151650000Y-94500000D01*
X154850000Y-94500000D01*
X154850000Y-94900000D01*
X154850000Y-94900000D01*
G37*
G36*
X163931000Y-94844000D02*
G01*
X163381000Y-94844000D01*
X163381000Y-93244000D01*
X163931000Y-93244000D01*
X163931000Y-94844000D01*
X163931000Y-94844000D01*
G37*
G36*
X162331000Y-94844000D02*
G01*
X161781000Y-94844000D01*
X161781000Y-93244000D01*
X162331000Y-93244000D01*
X162331000Y-94844000D01*
X162331000Y-94844000D01*
G37*
G36*
X161531000Y-94844000D02*
G01*
X160981000Y-94844000D01*
X160981000Y-93244000D01*
X161531000Y-93244000D01*
X161531000Y-94844000D01*
X161531000Y-94844000D01*
G37*
G36*
X160731000Y-94844000D02*
G01*
X160181000Y-94844000D01*
X160181000Y-93244000D01*
X160731000Y-93244000D01*
X160731000Y-94844000D01*
X160731000Y-94844000D01*
G37*
G36*
X158331000Y-94844000D02*
G01*
X157781000Y-94844000D01*
X157781000Y-93244000D01*
X158331000Y-93244000D01*
X158331000Y-94844000D01*
X158331000Y-94844000D01*
G37*
G36*
X159131000Y-94844000D02*
G01*
X158581000Y-94844000D01*
X158581000Y-93244000D01*
X159131000Y-93244000D01*
X159131000Y-94844000D01*
X159131000Y-94844000D01*
G37*
G36*
X159931000Y-94844000D02*
G01*
X159381000Y-94844000D01*
X159381000Y-93244000D01*
X159931000Y-93244000D01*
X159931000Y-94844000D01*
X159931000Y-94844000D01*
G37*
G36*
X163131000Y-94844000D02*
G01*
X162581000Y-94844000D01*
X162581000Y-93244000D01*
X163131000Y-93244000D01*
X163131000Y-94844000D01*
X163131000Y-94844000D01*
G37*
G36*
X169979453Y-92827274D02*
G01*
X169995753Y-92832219D01*
X170010775Y-92840249D01*
X170023944Y-92851056D01*
X170034751Y-92864225D01*
X170042781Y-92879247D01*
X170047726Y-92895547D01*
X170050000Y-92918640D01*
X170050000Y-94681360D01*
X170047726Y-94704453D01*
X170042781Y-94720753D01*
X170034751Y-94735775D01*
X170023944Y-94748944D01*
X170010775Y-94759751D01*
X169995753Y-94767781D01*
X169979453Y-94772726D01*
X169956360Y-94775000D01*
X169543640Y-94775000D01*
X169520547Y-94772726D01*
X169504247Y-94767781D01*
X169489225Y-94759751D01*
X169476056Y-94748944D01*
X169465249Y-94735775D01*
X169457219Y-94720753D01*
X169452274Y-94704453D01*
X169450000Y-94681360D01*
X169450000Y-92918640D01*
X169452274Y-92895547D01*
X169457219Y-92879247D01*
X169465249Y-92864225D01*
X169476056Y-92851056D01*
X169489225Y-92840249D01*
X169504247Y-92832219D01*
X169520547Y-92827274D01*
X169543640Y-92825000D01*
X169956360Y-92825000D01*
X169979453Y-92827274D01*
X169979453Y-92827274D01*
G37*
G36*
X173789453Y-92827274D02*
G01*
X173805753Y-92832219D01*
X173820775Y-92840249D01*
X173833944Y-92851056D01*
X173844751Y-92864225D01*
X173852781Y-92879247D01*
X173857726Y-92895547D01*
X173860000Y-92918640D01*
X173860000Y-94681360D01*
X173857726Y-94704453D01*
X173852781Y-94720753D01*
X173844751Y-94735775D01*
X173833944Y-94748944D01*
X173820775Y-94759751D01*
X173805753Y-94767781D01*
X173789453Y-94772726D01*
X173766360Y-94775000D01*
X173353640Y-94775000D01*
X173330547Y-94772726D01*
X173314247Y-94767781D01*
X173299225Y-94759751D01*
X173286056Y-94748944D01*
X173275249Y-94735775D01*
X173267219Y-94720753D01*
X173262274Y-94704453D01*
X173260000Y-94681360D01*
X173260000Y-92918640D01*
X173262274Y-92895547D01*
X173267219Y-92879247D01*
X173275249Y-92864225D01*
X173286056Y-92851056D01*
X173299225Y-92840249D01*
X173314247Y-92832219D01*
X173330547Y-92827274D01*
X173353640Y-92825000D01*
X173766360Y-92825000D01*
X173789453Y-92827274D01*
X173789453Y-92827274D01*
G37*
G36*
X172519453Y-92827274D02*
G01*
X172535753Y-92832219D01*
X172550775Y-92840249D01*
X172563944Y-92851056D01*
X172574751Y-92864225D01*
X172582781Y-92879247D01*
X172587726Y-92895547D01*
X172590000Y-92918640D01*
X172590000Y-94681360D01*
X172587726Y-94704453D01*
X172582781Y-94720753D01*
X172574751Y-94735775D01*
X172563944Y-94748944D01*
X172550775Y-94759751D01*
X172535753Y-94767781D01*
X172519453Y-94772726D01*
X172496360Y-94775000D01*
X172083640Y-94775000D01*
X172060547Y-94772726D01*
X172044247Y-94767781D01*
X172029225Y-94759751D01*
X172016056Y-94748944D01*
X172005249Y-94735775D01*
X171997219Y-94720753D01*
X171992274Y-94704453D01*
X171990000Y-94681360D01*
X171990000Y-92918640D01*
X171992274Y-92895547D01*
X171997219Y-92879247D01*
X172005249Y-92864225D01*
X172016056Y-92851056D01*
X172029225Y-92840249D01*
X172044247Y-92832219D01*
X172060547Y-92827274D01*
X172083640Y-92825000D01*
X172496360Y-92825000D01*
X172519453Y-92827274D01*
X172519453Y-92827274D01*
G37*
G36*
X171249453Y-92827274D02*
G01*
X171265753Y-92832219D01*
X171280775Y-92840249D01*
X171293944Y-92851056D01*
X171304751Y-92864225D01*
X171312781Y-92879247D01*
X171317726Y-92895547D01*
X171320000Y-92918640D01*
X171320000Y-94681360D01*
X171317726Y-94704453D01*
X171312781Y-94720753D01*
X171304751Y-94735775D01*
X171293944Y-94748944D01*
X171280775Y-94759751D01*
X171265753Y-94767781D01*
X171249453Y-94772726D01*
X171226360Y-94775000D01*
X170813640Y-94775000D01*
X170790547Y-94772726D01*
X170774247Y-94767781D01*
X170759225Y-94759751D01*
X170746056Y-94748944D01*
X170735249Y-94735775D01*
X170727219Y-94720753D01*
X170722274Y-94704453D01*
X170720000Y-94681360D01*
X170720000Y-92918640D01*
X170722274Y-92895547D01*
X170727219Y-92879247D01*
X170735249Y-92864225D01*
X170746056Y-92851056D01*
X170759225Y-92840249D01*
X170774247Y-92832219D01*
X170790547Y-92827274D01*
X170813640Y-92825000D01*
X171226360Y-92825000D01*
X171249453Y-92827274D01*
X171249453Y-92827274D01*
G37*
G36*
X167645843Y-93269214D02*
G01*
X167736837Y-93306905D01*
X167736839Y-93306906D01*
X167778063Y-93334451D01*
X167818730Y-93361624D01*
X167888376Y-93431270D01*
X167943095Y-93513163D01*
X167980786Y-93604157D01*
X168000000Y-93700753D01*
X168000000Y-93799247D01*
X167980786Y-93895843D01*
X167980785Y-93895845D01*
X167943094Y-93986839D01*
X167888375Y-94068731D01*
X167818731Y-94138375D01*
X167736839Y-94193094D01*
X167736838Y-94193095D01*
X167736837Y-94193095D01*
X167645843Y-94230786D01*
X167549247Y-94250000D01*
X167450753Y-94250000D01*
X167354157Y-94230786D01*
X167263163Y-94193095D01*
X167263162Y-94193095D01*
X167263161Y-94193094D01*
X167181269Y-94138375D01*
X167111625Y-94068731D01*
X167056906Y-93986839D01*
X167019215Y-93895845D01*
X167019214Y-93895843D01*
X167000000Y-93799247D01*
X167000000Y-93700753D01*
X167019214Y-93604157D01*
X167056905Y-93513163D01*
X167111624Y-93431270D01*
X167181270Y-93361624D01*
X167221937Y-93334451D01*
X167263161Y-93306906D01*
X167263163Y-93306905D01*
X167354157Y-93269214D01*
X167450753Y-93250000D01*
X167549247Y-93250000D01*
X167645843Y-93269214D01*
X167645843Y-93269214D01*
G37*
G36*
X154850000Y-93700000D02*
G01*
X151650000Y-93700000D01*
X151650000Y-93300000D01*
X154850000Y-93300000D01*
X154850000Y-93700000D01*
X154850000Y-93700000D01*
G37*
G36*
X136463866Y-91755246D02*
G01*
X136517125Y-91760491D01*
X136653788Y-91801947D01*
X136653790Y-91801948D01*
X136779736Y-91869268D01*
X136890133Y-91959867D01*
X136980732Y-92070264D01*
X137041150Y-92183297D01*
X137048053Y-92196212D01*
X137089509Y-92332875D01*
X137103507Y-92475000D01*
X137089509Y-92617125D01*
X137048053Y-92753788D01*
X137048052Y-92753790D01*
X136980732Y-92879736D01*
X136890133Y-92990133D01*
X136779736Y-93080732D01*
X136653790Y-93148052D01*
X136653788Y-93148053D01*
X136517125Y-93189509D01*
X136463866Y-93194754D01*
X136410609Y-93200000D01*
X135789391Y-93200000D01*
X135736134Y-93194755D01*
X135682875Y-93189509D01*
X135546212Y-93148053D01*
X135546210Y-93148052D01*
X135420264Y-93080732D01*
X135309867Y-92990133D01*
X135219268Y-92879736D01*
X135151948Y-92753790D01*
X135151947Y-92753788D01*
X135110491Y-92617125D01*
X135096493Y-92475000D01*
X135110491Y-92332875D01*
X135151947Y-92196212D01*
X135158850Y-92183297D01*
X135219268Y-92070264D01*
X135309867Y-91959867D01*
X135420264Y-91869268D01*
X135546210Y-91801948D01*
X135546212Y-91801947D01*
X135682875Y-91760491D01*
X135736134Y-91755246D01*
X135789391Y-91750000D01*
X136410609Y-91750000D01*
X136463866Y-91755246D01*
X136463866Y-91755246D01*
G37*
G36*
X132725652Y-92057131D02*
G01*
X132737721Y-92058320D01*
X132791914Y-92074759D01*
X132846108Y-92091199D01*
X132945998Y-92144592D01*
X133033554Y-92216446D01*
X133105408Y-92304002D01*
X133158801Y-92403892D01*
X133191680Y-92512280D01*
X133202782Y-92625000D01*
X133191680Y-92737720D01*
X133158801Y-92846108D01*
X133105408Y-92945998D01*
X133033554Y-93033554D01*
X132945998Y-93105408D01*
X132846108Y-93158801D01*
X132791914Y-93175241D01*
X132737721Y-93191680D01*
X132725652Y-93192869D01*
X132653246Y-93200000D01*
X131946754Y-93200000D01*
X131874348Y-93192869D01*
X131862279Y-93191680D01*
X131808086Y-93175241D01*
X131753892Y-93158801D01*
X131654002Y-93105408D01*
X131566446Y-93033554D01*
X131494592Y-92945998D01*
X131441199Y-92846108D01*
X131408320Y-92737720D01*
X131397218Y-92625000D01*
X131408320Y-92512280D01*
X131441199Y-92403892D01*
X131494592Y-92304002D01*
X131566446Y-92216446D01*
X131654002Y-92144592D01*
X131753892Y-92091199D01*
X131808086Y-92074759D01*
X131862279Y-92058320D01*
X131874348Y-92057131D01*
X131946754Y-92050000D01*
X132653246Y-92050000D01*
X132725652Y-92057131D01*
X132725652Y-92057131D01*
G37*
G36*
X165906000Y-92869000D02*
G01*
X164306000Y-92869000D01*
X164306000Y-92319000D01*
X165906000Y-92319000D01*
X165906000Y-92869000D01*
X165906000Y-92869000D01*
G37*
G36*
X157406000Y-92869000D02*
G01*
X155806000Y-92869000D01*
X155806000Y-92319000D01*
X157406000Y-92319000D01*
X157406000Y-92869000D01*
X157406000Y-92869000D01*
G37*
G36*
X154850000Y-92500000D02*
G01*
X151650000Y-92500000D01*
X151650000Y-92100000D01*
X154850000Y-92100000D01*
X154850000Y-92500000D01*
X154850000Y-92500000D01*
G37*
G36*
X141650000Y-92250000D02*
G01*
X139350000Y-92250000D01*
X139350000Y-88750000D01*
X141650000Y-88750000D01*
X141650000Y-92250000D01*
X141650000Y-92250000D01*
G37*
G36*
X168099116Y-91316095D02*
G01*
X168128311Y-91324952D01*
X168155223Y-91339337D01*
X168178808Y-91358692D01*
X168198163Y-91382277D01*
X168212548Y-91409189D01*
X168221405Y-91438384D01*
X168225000Y-91474890D01*
X168225000Y-92025110D01*
X168221405Y-92061616D01*
X168212548Y-92090811D01*
X168198163Y-92117723D01*
X168178808Y-92141308D01*
X168155223Y-92160663D01*
X168128311Y-92175048D01*
X168099116Y-92183905D01*
X168062610Y-92187500D01*
X167437390Y-92187500D01*
X167400884Y-92183905D01*
X167371689Y-92175048D01*
X167344777Y-92160663D01*
X167321192Y-92141308D01*
X167301837Y-92117723D01*
X167287452Y-92090811D01*
X167278595Y-92061616D01*
X167275000Y-92025110D01*
X167275000Y-91474890D01*
X167278595Y-91438384D01*
X167287452Y-91409189D01*
X167301837Y-91382277D01*
X167321192Y-91358692D01*
X167344777Y-91339337D01*
X167371689Y-91324952D01*
X167400884Y-91316095D01*
X167437390Y-91312500D01*
X168062610Y-91312500D01*
X168099116Y-91316095D01*
X168099116Y-91316095D01*
G37*
G36*
X147167825Y-88653745D02*
G01*
X147198490Y-88663048D01*
X147226748Y-88678152D01*
X147251519Y-88698481D01*
X147271848Y-88723252D01*
X147286952Y-88751510D01*
X147296255Y-88782175D01*
X147300000Y-88820203D01*
X147300000Y-91979797D01*
X147296255Y-92017825D01*
X147286952Y-92048490D01*
X147271848Y-92076748D01*
X147251519Y-92101519D01*
X147226748Y-92121848D01*
X147198490Y-92136952D01*
X147167825Y-92146255D01*
X147129797Y-92150000D01*
X145870203Y-92150000D01*
X145832175Y-92146255D01*
X145801510Y-92136952D01*
X145773252Y-92121848D01*
X145748481Y-92101519D01*
X145728152Y-92076748D01*
X145713048Y-92048490D01*
X145703745Y-92017825D01*
X145700000Y-91979797D01*
X145700000Y-88820203D01*
X145703745Y-88782175D01*
X145713048Y-88751510D01*
X145728152Y-88723252D01*
X145748481Y-88698481D01*
X145773252Y-88678152D01*
X145801510Y-88663048D01*
X145832175Y-88653745D01*
X145870203Y-88650000D01*
X147129797Y-88650000D01*
X147167825Y-88653745D01*
X147167825Y-88653745D01*
G37*
G36*
X165906000Y-92069000D02*
G01*
X164306000Y-92069000D01*
X164306000Y-91519000D01*
X165906000Y-91519000D01*
X165906000Y-92069000D01*
X165906000Y-92069000D01*
G37*
G36*
X157406000Y-92069000D02*
G01*
X155806000Y-92069000D01*
X155806000Y-91519000D01*
X157406000Y-91519000D01*
X157406000Y-92069000D01*
X157406000Y-92069000D01*
G37*
G36*
X135128414Y-90855788D02*
G01*
X135203814Y-90878660D01*
X135273303Y-90915803D01*
X135334211Y-90965789D01*
X135384197Y-91026697D01*
X135421340Y-91096186D01*
X135444212Y-91171586D01*
X135451935Y-91250000D01*
X135444212Y-91328414D01*
X135421340Y-91403814D01*
X135384197Y-91473303D01*
X135334211Y-91534211D01*
X135273303Y-91584197D01*
X135203814Y-91621340D01*
X135128414Y-91644212D01*
X135069647Y-91650000D01*
X135030353Y-91650000D01*
X134971586Y-91644212D01*
X134896186Y-91621340D01*
X134826697Y-91584197D01*
X134765789Y-91534211D01*
X134715803Y-91473303D01*
X134678660Y-91403814D01*
X134655788Y-91328414D01*
X134648065Y-91250000D01*
X134655788Y-91171586D01*
X134678660Y-91096186D01*
X134715803Y-91026697D01*
X134765789Y-90965789D01*
X134826697Y-90915803D01*
X134896186Y-90878660D01*
X134971586Y-90855788D01*
X135030353Y-90850000D01*
X135069647Y-90850000D01*
X135128414Y-90855788D01*
X135128414Y-90855788D01*
G37*
G36*
X154599116Y-90541095D02*
G01*
X154628311Y-90549952D01*
X154655223Y-90564337D01*
X154678808Y-90583692D01*
X154698163Y-90607277D01*
X154712548Y-90634189D01*
X154721405Y-90663384D01*
X154725000Y-90699890D01*
X154725000Y-91250110D01*
X154721405Y-91286616D01*
X154712548Y-91315811D01*
X154698163Y-91342723D01*
X154678808Y-91366308D01*
X154655223Y-91385663D01*
X154628311Y-91400048D01*
X154599116Y-91408905D01*
X154562610Y-91412500D01*
X153937390Y-91412500D01*
X153900884Y-91408905D01*
X153871689Y-91400048D01*
X153844777Y-91385663D01*
X153821192Y-91366308D01*
X153801837Y-91342723D01*
X153787452Y-91315811D01*
X153778595Y-91286616D01*
X153775000Y-91250110D01*
X153775000Y-90699890D01*
X153778595Y-90663384D01*
X153787452Y-90634189D01*
X153801837Y-90607277D01*
X153821192Y-90583692D01*
X153844777Y-90564337D01*
X153871689Y-90549952D01*
X153900884Y-90541095D01*
X153937390Y-90537500D01*
X154562610Y-90537500D01*
X154599116Y-90541095D01*
X154599116Y-90541095D01*
G37*
G36*
X157406000Y-91269000D02*
G01*
X155806000Y-91269000D01*
X155806000Y-90719000D01*
X157406000Y-90719000D01*
X157406000Y-91269000D01*
X157406000Y-91269000D01*
G37*
G36*
X165906000Y-91269000D02*
G01*
X164306000Y-91269000D01*
X164306000Y-90719000D01*
X165906000Y-90719000D01*
X165906000Y-91269000D01*
X165906000Y-91269000D01*
G37*
G36*
X173206627Y-89412299D02*
G01*
X173286742Y-89436601D01*
X173366855Y-89460903D01*
X173366857Y-89460904D01*
X173514518Y-89539831D01*
X173643949Y-89646051D01*
X173750169Y-89775482D01*
X173829096Y-89923143D01*
X173877701Y-90083373D01*
X173894112Y-90250000D01*
X173877701Y-90416627D01*
X173877700Y-90416629D01*
X173839451Y-90542723D01*
X173829096Y-90576857D01*
X173750169Y-90724518D01*
X173643949Y-90853949D01*
X173514518Y-90960169D01*
X173366857Y-91039096D01*
X173366855Y-91039097D01*
X173286742Y-91063399D01*
X173206627Y-91087701D01*
X173081752Y-91100000D01*
X172998248Y-91100000D01*
X172873373Y-91087701D01*
X172793258Y-91063399D01*
X172713145Y-91039097D01*
X172713143Y-91039096D01*
X172565482Y-90960169D01*
X172436051Y-90853949D01*
X172329831Y-90724518D01*
X172250904Y-90576857D01*
X172240550Y-90542723D01*
X172202300Y-90416629D01*
X172202299Y-90416627D01*
X172185888Y-90250000D01*
X172202299Y-90083373D01*
X172250904Y-89923143D01*
X172329831Y-89775482D01*
X172436051Y-89646051D01*
X172565482Y-89539831D01*
X172713143Y-89460904D01*
X172713145Y-89460903D01*
X172793258Y-89436601D01*
X172873373Y-89412299D01*
X172998248Y-89400000D01*
X173081752Y-89400000D01*
X173206627Y-89412299D01*
X173206627Y-89412299D01*
G37*
G36*
X171350000Y-91100000D02*
G01*
X169650000Y-91100000D01*
X169650000Y-89400000D01*
X171350000Y-89400000D01*
X171350000Y-91100000D01*
X171350000Y-91100000D01*
G37*
G36*
X168099116Y-89741095D02*
G01*
X168128311Y-89749952D01*
X168155223Y-89764337D01*
X168178808Y-89783692D01*
X168198163Y-89807277D01*
X168212548Y-89834189D01*
X168221405Y-89863384D01*
X168225000Y-89899890D01*
X168225000Y-90450110D01*
X168221405Y-90486616D01*
X168212548Y-90515811D01*
X168198163Y-90542723D01*
X168178808Y-90566308D01*
X168155223Y-90585663D01*
X168128311Y-90600048D01*
X168099116Y-90608905D01*
X168062610Y-90612500D01*
X167437390Y-90612500D01*
X167400884Y-90608905D01*
X167371689Y-90600048D01*
X167344777Y-90585663D01*
X167321192Y-90566308D01*
X167301837Y-90542723D01*
X167287452Y-90515811D01*
X167278595Y-90486616D01*
X167275000Y-90450110D01*
X167275000Y-89899890D01*
X167278595Y-89863384D01*
X167287452Y-89834189D01*
X167301837Y-89807277D01*
X167321192Y-89783692D01*
X167344777Y-89764337D01*
X167371689Y-89749952D01*
X167400884Y-89741095D01*
X167437390Y-89737500D01*
X168062610Y-89737500D01*
X168099116Y-89741095D01*
X168099116Y-89741095D01*
G37*
G36*
X165906000Y-90469000D02*
G01*
X164306000Y-90469000D01*
X164306000Y-89919000D01*
X165906000Y-89919000D01*
X165906000Y-90469000D01*
X165906000Y-90469000D01*
G37*
G36*
X157406000Y-90469000D02*
G01*
X155806000Y-90469000D01*
X155806000Y-89919000D01*
X157406000Y-89919000D01*
X157406000Y-90469000D01*
X157406000Y-90469000D01*
G37*
G36*
X136800000Y-90275000D02*
G01*
X135500000Y-90275000D01*
X135500000Y-87225000D01*
X136800000Y-87225000D01*
X136800000Y-90275000D01*
X136800000Y-90275000D01*
G37*
G36*
X154599116Y-88966095D02*
G01*
X154628311Y-88974952D01*
X154655223Y-88989337D01*
X154678808Y-89008692D01*
X154698163Y-89032277D01*
X154712548Y-89059189D01*
X154721405Y-89088384D01*
X154725000Y-89124890D01*
X154725000Y-89675110D01*
X154721405Y-89711616D01*
X154712548Y-89740811D01*
X154698163Y-89767723D01*
X154678808Y-89791308D01*
X154655223Y-89810663D01*
X154628311Y-89825048D01*
X154599116Y-89833905D01*
X154562610Y-89837500D01*
X153937390Y-89837500D01*
X153900884Y-89833905D01*
X153871689Y-89825048D01*
X153844777Y-89810663D01*
X153821192Y-89791308D01*
X153801837Y-89767723D01*
X153787452Y-89740811D01*
X153778595Y-89711616D01*
X153775000Y-89675110D01*
X153775000Y-89124890D01*
X153778595Y-89088384D01*
X153787452Y-89059189D01*
X153801837Y-89032277D01*
X153821192Y-89008692D01*
X153844777Y-88989337D01*
X153871689Y-88974952D01*
X153900884Y-88966095D01*
X153937390Y-88962500D01*
X154562610Y-88962500D01*
X154599116Y-88966095D01*
X154599116Y-88966095D01*
G37*
G36*
X165906000Y-89669000D02*
G01*
X164306000Y-89669000D01*
X164306000Y-89119000D01*
X165906000Y-89119000D01*
X165906000Y-89669000D01*
X165906000Y-89669000D01*
G37*
G36*
X157406000Y-89669000D02*
G01*
X155806000Y-89669000D01*
X155806000Y-89119000D01*
X157406000Y-89119000D01*
X157406000Y-89669000D01*
X157406000Y-89669000D01*
G37*
G36*
X165906000Y-88869000D02*
G01*
X164306000Y-88869000D01*
X164306000Y-88319000D01*
X165906000Y-88319000D01*
X165906000Y-88869000D01*
X165906000Y-88869000D01*
G37*
G36*
X157406000Y-88869000D02*
G01*
X155806000Y-88869000D01*
X155806000Y-88319000D01*
X157406000Y-88319000D01*
X157406000Y-88869000D01*
X157406000Y-88869000D01*
G37*
G36*
X153061616Y-87278595D02*
G01*
X153090811Y-87287452D01*
X153117723Y-87301837D01*
X153141308Y-87321192D01*
X153160663Y-87344777D01*
X153175048Y-87371689D01*
X153183905Y-87400884D01*
X153187500Y-87437390D01*
X153187500Y-88062610D01*
X153183905Y-88099116D01*
X153175048Y-88128311D01*
X153160663Y-88155223D01*
X153141308Y-88178808D01*
X153117723Y-88198163D01*
X153090811Y-88212548D01*
X153061616Y-88221405D01*
X153025110Y-88225000D01*
X152474890Y-88225000D01*
X152438384Y-88221405D01*
X152409189Y-88212548D01*
X152382277Y-88198163D01*
X152358692Y-88178808D01*
X152339337Y-88155223D01*
X152324952Y-88128311D01*
X152316095Y-88099116D01*
X152312500Y-88062610D01*
X152312500Y-87437390D01*
X152316095Y-87400884D01*
X152324952Y-87371689D01*
X152339337Y-87344777D01*
X152358692Y-87321192D01*
X152382277Y-87301837D01*
X152409189Y-87287452D01*
X152438384Y-87278595D01*
X152474890Y-87275000D01*
X153025110Y-87275000D01*
X153061616Y-87278595D01*
X153061616Y-87278595D01*
G37*
G36*
X154636616Y-87278595D02*
G01*
X154665811Y-87287452D01*
X154692723Y-87301837D01*
X154716308Y-87321192D01*
X154735663Y-87344777D01*
X154750048Y-87371689D01*
X154758905Y-87400884D01*
X154762500Y-87437390D01*
X154762500Y-88062610D01*
X154758905Y-88099116D01*
X154750048Y-88128311D01*
X154735663Y-88155223D01*
X154716308Y-88178808D01*
X154692723Y-88198163D01*
X154665811Y-88212548D01*
X154636616Y-88221405D01*
X154600110Y-88225000D01*
X154049890Y-88225000D01*
X154013384Y-88221405D01*
X153984189Y-88212548D01*
X153957277Y-88198163D01*
X153933692Y-88178808D01*
X153914337Y-88155223D01*
X153899952Y-88128311D01*
X153891095Y-88099116D01*
X153887500Y-88062610D01*
X153887500Y-87437390D01*
X153891095Y-87400884D01*
X153899952Y-87371689D01*
X153914337Y-87344777D01*
X153933692Y-87321192D01*
X153957277Y-87301837D01*
X153984189Y-87287452D01*
X154013384Y-87278595D01*
X154049890Y-87275000D01*
X154600110Y-87275000D01*
X154636616Y-87278595D01*
X154636616Y-87278595D01*
G37*
G36*
X157406000Y-88069000D02*
G01*
X155806000Y-88069000D01*
X155806000Y-87519000D01*
X157406000Y-87519000D01*
X157406000Y-88069000D01*
X157406000Y-88069000D01*
G37*
G36*
X165906000Y-88069000D02*
G01*
X164306000Y-88069000D01*
X164306000Y-87519000D01*
X165906000Y-87519000D01*
X165906000Y-88069000D01*
X165906000Y-88069000D01*
G37*
G36*
X139384024Y-87028955D02*
G01*
X139416738Y-87038879D01*
X139446885Y-87054993D01*
X139473315Y-87076685D01*
X139495007Y-87103115D01*
X139511121Y-87133262D01*
X139521045Y-87165976D01*
X139525000Y-87206138D01*
X139525000Y-87793862D01*
X139521045Y-87834024D01*
X139511121Y-87866738D01*
X139495007Y-87896885D01*
X139473315Y-87923315D01*
X139446885Y-87945007D01*
X139416738Y-87961121D01*
X139384024Y-87971045D01*
X139343862Y-87975000D01*
X138656138Y-87975000D01*
X138615976Y-87971045D01*
X138583262Y-87961121D01*
X138553115Y-87945007D01*
X138526685Y-87923315D01*
X138504993Y-87896885D01*
X138488879Y-87866738D01*
X138478955Y-87834024D01*
X138475000Y-87793862D01*
X138475000Y-87206138D01*
X138478955Y-87165976D01*
X138488879Y-87133262D01*
X138504993Y-87103115D01*
X138526685Y-87076685D01*
X138553115Y-87054993D01*
X138583262Y-87038879D01*
X138615976Y-87028955D01*
X138656138Y-87025000D01*
X139343862Y-87025000D01*
X139384024Y-87028955D01*
X139384024Y-87028955D01*
G37*
G36*
X141134024Y-87028955D02*
G01*
X141166738Y-87038879D01*
X141196885Y-87054993D01*
X141223315Y-87076685D01*
X141245007Y-87103115D01*
X141261121Y-87133262D01*
X141271045Y-87165976D01*
X141275000Y-87206138D01*
X141275000Y-87793862D01*
X141271045Y-87834024D01*
X141261121Y-87866738D01*
X141245007Y-87896885D01*
X141223315Y-87923315D01*
X141196885Y-87945007D01*
X141166738Y-87961121D01*
X141134024Y-87971045D01*
X141093862Y-87975000D01*
X140406138Y-87975000D01*
X140365976Y-87971045D01*
X140333262Y-87961121D01*
X140303115Y-87945007D01*
X140276685Y-87923315D01*
X140254993Y-87896885D01*
X140238879Y-87866738D01*
X140228955Y-87834024D01*
X140225000Y-87793862D01*
X140225000Y-87206138D01*
X140228955Y-87165976D01*
X140238879Y-87133262D01*
X140254993Y-87103115D01*
X140276685Y-87076685D01*
X140303115Y-87054993D01*
X140333262Y-87038879D01*
X140365976Y-87028955D01*
X140406138Y-87025000D01*
X141093862Y-87025000D01*
X141134024Y-87028955D01*
X141134024Y-87028955D01*
G37*
G36*
X143099116Y-87103595D02*
G01*
X143128311Y-87112452D01*
X143155223Y-87126837D01*
X143178808Y-87146192D01*
X143198163Y-87169777D01*
X143212548Y-87196689D01*
X143221405Y-87225884D01*
X143225000Y-87262390D01*
X143225000Y-87812610D01*
X143221405Y-87849116D01*
X143212548Y-87878311D01*
X143198163Y-87905223D01*
X143178808Y-87928808D01*
X143155223Y-87948163D01*
X143128311Y-87962548D01*
X143099116Y-87971405D01*
X143062610Y-87975000D01*
X142437390Y-87975000D01*
X142400884Y-87971405D01*
X142371689Y-87962548D01*
X142344777Y-87948163D01*
X142321192Y-87928808D01*
X142301837Y-87905223D01*
X142287452Y-87878311D01*
X142278595Y-87849116D01*
X142275000Y-87812610D01*
X142275000Y-87262390D01*
X142278595Y-87225884D01*
X142287452Y-87196689D01*
X142301837Y-87169777D01*
X142321192Y-87146192D01*
X142344777Y-87126837D01*
X142371689Y-87112452D01*
X142400884Y-87103595D01*
X142437390Y-87100000D01*
X143062610Y-87100000D01*
X143099116Y-87103595D01*
X143099116Y-87103595D01*
G37*
G36*
X144849116Y-87066095D02*
G01*
X144878311Y-87074952D01*
X144905223Y-87089337D01*
X144928808Y-87108692D01*
X144948163Y-87132277D01*
X144962548Y-87159189D01*
X144971405Y-87188384D01*
X144975000Y-87224890D01*
X144975000Y-87775110D01*
X144971405Y-87811616D01*
X144962548Y-87840811D01*
X144948163Y-87867723D01*
X144928808Y-87891308D01*
X144905223Y-87910663D01*
X144878311Y-87925048D01*
X144849116Y-87933905D01*
X144812610Y-87937500D01*
X144187390Y-87937500D01*
X144150884Y-87933905D01*
X144121689Y-87925048D01*
X144094777Y-87910663D01*
X144071192Y-87891308D01*
X144051837Y-87867723D01*
X144037452Y-87840811D01*
X144028595Y-87811616D01*
X144025000Y-87775110D01*
X144025000Y-87224890D01*
X144028595Y-87188384D01*
X144037452Y-87159189D01*
X144051837Y-87132277D01*
X144071192Y-87108692D01*
X144094777Y-87089337D01*
X144121689Y-87074952D01*
X144150884Y-87066095D01*
X144187390Y-87062500D01*
X144812610Y-87062500D01*
X144849116Y-87066095D01*
X144849116Y-87066095D01*
G37*
G36*
X168099116Y-86566095D02*
G01*
X168128311Y-86574952D01*
X168155223Y-86589337D01*
X168178808Y-86608692D01*
X168198163Y-86632277D01*
X168212548Y-86659189D01*
X168221405Y-86688384D01*
X168225000Y-86724890D01*
X168225000Y-87275110D01*
X168221405Y-87311616D01*
X168212548Y-87340811D01*
X168198163Y-87367723D01*
X168178808Y-87391308D01*
X168155223Y-87410663D01*
X168128311Y-87425048D01*
X168099116Y-87433905D01*
X168062610Y-87437500D01*
X167437390Y-87437500D01*
X167400884Y-87433905D01*
X167371689Y-87425048D01*
X167344777Y-87410663D01*
X167321192Y-87391308D01*
X167301837Y-87367723D01*
X167287452Y-87340811D01*
X167278595Y-87311616D01*
X167275000Y-87275110D01*
X167275000Y-86724890D01*
X167278595Y-86688384D01*
X167287452Y-86659189D01*
X167301837Y-86632277D01*
X167321192Y-86608692D01*
X167344777Y-86589337D01*
X167371689Y-86574952D01*
X167400884Y-86566095D01*
X167437390Y-86562500D01*
X168062610Y-86562500D01*
X168099116Y-86566095D01*
X168099116Y-86566095D01*
G37*
G36*
X157406000Y-87269000D02*
G01*
X155806000Y-87269000D01*
X155806000Y-86719000D01*
X157406000Y-86719000D01*
X157406000Y-87269000D01*
X157406000Y-87269000D01*
G37*
G36*
X165906000Y-87269000D02*
G01*
X164306000Y-87269000D01*
X164306000Y-86719000D01*
X165906000Y-86719000D01*
X165906000Y-87269000D01*
X165906000Y-87269000D01*
G37*
G36*
X173206627Y-85412299D02*
G01*
X173286742Y-85436601D01*
X173366855Y-85460903D01*
X173366857Y-85460904D01*
X173514518Y-85539831D01*
X173643949Y-85646051D01*
X173750169Y-85775482D01*
X173793094Y-85855788D01*
X173829097Y-85923145D01*
X173853398Y-86003258D01*
X173877701Y-86083373D01*
X173894112Y-86250000D01*
X173877701Y-86416627D01*
X173860508Y-86473304D01*
X173832177Y-86566703D01*
X173829096Y-86576857D01*
X173750169Y-86724518D01*
X173643949Y-86853949D01*
X173514518Y-86960169D01*
X173385829Y-87028955D01*
X173366855Y-87039097D01*
X173289704Y-87062500D01*
X173206627Y-87087701D01*
X173081752Y-87100000D01*
X172998248Y-87100000D01*
X172873373Y-87087701D01*
X172790296Y-87062500D01*
X172713145Y-87039097D01*
X172694171Y-87028955D01*
X172565482Y-86960169D01*
X172436051Y-86853949D01*
X172329831Y-86724518D01*
X172250904Y-86576857D01*
X172247824Y-86566703D01*
X172219492Y-86473304D01*
X172202299Y-86416627D01*
X172185888Y-86250000D01*
X172202299Y-86083373D01*
X172226602Y-86003258D01*
X172250903Y-85923145D01*
X172286906Y-85855788D01*
X172329831Y-85775482D01*
X172436051Y-85646051D01*
X172565482Y-85539831D01*
X172713143Y-85460904D01*
X172713145Y-85460903D01*
X172793258Y-85436601D01*
X172873373Y-85412299D01*
X172998248Y-85400000D01*
X173081752Y-85400000D01*
X173206627Y-85412299D01*
X173206627Y-85412299D01*
G37*
G36*
X171350000Y-87100000D02*
G01*
X169650000Y-87100000D01*
X169650000Y-85400000D01*
X171350000Y-85400000D01*
X171350000Y-87100000D01*
X171350000Y-87100000D01*
G37*
G36*
X135128414Y-85855788D02*
G01*
X135203814Y-85878660D01*
X135273303Y-85915803D01*
X135334211Y-85965789D01*
X135384197Y-86026697D01*
X135421340Y-86096186D01*
X135444212Y-86171586D01*
X135451935Y-86250000D01*
X135444212Y-86328414D01*
X135421340Y-86403814D01*
X135384197Y-86473303D01*
X135334211Y-86534211D01*
X135273303Y-86584197D01*
X135203814Y-86621340D01*
X135128414Y-86644212D01*
X135069647Y-86650000D01*
X135030353Y-86650000D01*
X134971586Y-86644212D01*
X134896186Y-86621340D01*
X134826697Y-86584197D01*
X134765789Y-86534211D01*
X134715803Y-86473303D01*
X134678660Y-86403814D01*
X134655788Y-86328414D01*
X134648065Y-86250000D01*
X134655788Y-86171586D01*
X134678660Y-86096186D01*
X134715803Y-86026697D01*
X134765789Y-85965789D01*
X134826697Y-85915803D01*
X134896186Y-85878660D01*
X134971586Y-85855788D01*
X135030353Y-85850000D01*
X135069647Y-85850000D01*
X135128414Y-85855788D01*
X135128414Y-85855788D01*
G37*
G36*
X143099116Y-85528595D02*
G01*
X143128311Y-85537452D01*
X143155223Y-85551837D01*
X143178808Y-85571192D01*
X143198163Y-85594777D01*
X143212548Y-85621689D01*
X143221405Y-85650884D01*
X143225000Y-85687390D01*
X143225000Y-86237610D01*
X143221405Y-86274116D01*
X143212548Y-86303311D01*
X143198163Y-86330223D01*
X143178808Y-86353808D01*
X143155223Y-86373163D01*
X143128311Y-86387548D01*
X143099116Y-86396405D01*
X143062610Y-86400000D01*
X142437390Y-86400000D01*
X142400884Y-86396405D01*
X142371689Y-86387548D01*
X142344777Y-86373163D01*
X142321192Y-86353808D01*
X142301837Y-86330223D01*
X142287452Y-86303311D01*
X142278595Y-86274116D01*
X142275000Y-86237610D01*
X142275000Y-85687390D01*
X142278595Y-85650884D01*
X142287452Y-85621689D01*
X142301837Y-85594777D01*
X142321192Y-85571192D01*
X142344777Y-85551837D01*
X142371689Y-85537452D01*
X142400884Y-85528595D01*
X142437390Y-85525000D01*
X143062610Y-85525000D01*
X143099116Y-85528595D01*
X143099116Y-85528595D01*
G37*
G36*
X144849116Y-85491095D02*
G01*
X144878311Y-85499952D01*
X144905223Y-85514337D01*
X144928808Y-85533692D01*
X144948163Y-85557277D01*
X144962548Y-85584189D01*
X144971405Y-85613384D01*
X144975000Y-85649890D01*
X144975000Y-86200110D01*
X144971405Y-86236616D01*
X144962548Y-86265811D01*
X144948163Y-86292723D01*
X144928808Y-86316308D01*
X144905223Y-86335663D01*
X144878311Y-86350048D01*
X144849116Y-86358905D01*
X144812610Y-86362500D01*
X144187390Y-86362500D01*
X144150884Y-86358905D01*
X144121689Y-86350048D01*
X144094777Y-86335663D01*
X144071192Y-86316308D01*
X144051837Y-86292723D01*
X144037452Y-86265811D01*
X144028595Y-86236616D01*
X144025000Y-86200110D01*
X144025000Y-85649890D01*
X144028595Y-85613384D01*
X144037452Y-85584189D01*
X144051837Y-85557277D01*
X144071192Y-85533692D01*
X144094777Y-85514337D01*
X144121689Y-85499952D01*
X144150884Y-85491095D01*
X144187390Y-85487500D01*
X144812610Y-85487500D01*
X144849116Y-85491095D01*
X144849116Y-85491095D01*
G37*
G36*
X163931000Y-86344000D02*
G01*
X163381000Y-86344000D01*
X163381000Y-84744000D01*
X163931000Y-84744000D01*
X163931000Y-86344000D01*
X163931000Y-86344000D01*
G37*
G36*
X163131000Y-86344000D02*
G01*
X162581000Y-86344000D01*
X162581000Y-84744000D01*
X163131000Y-84744000D01*
X163131000Y-86344000D01*
X163131000Y-86344000D01*
G37*
G36*
X162331000Y-86344000D02*
G01*
X161781000Y-86344000D01*
X161781000Y-84744000D01*
X162331000Y-84744000D01*
X162331000Y-86344000D01*
X162331000Y-86344000D01*
G37*
G36*
X161531000Y-86344000D02*
G01*
X160981000Y-86344000D01*
X160981000Y-84744000D01*
X161531000Y-84744000D01*
X161531000Y-86344000D01*
X161531000Y-86344000D01*
G37*
G36*
X160731000Y-86344000D02*
G01*
X160181000Y-86344000D01*
X160181000Y-84744000D01*
X160731000Y-84744000D01*
X160731000Y-86344000D01*
X160731000Y-86344000D01*
G37*
G36*
X159931000Y-86344000D02*
G01*
X159381000Y-86344000D01*
X159381000Y-84744000D01*
X159931000Y-84744000D01*
X159931000Y-86344000D01*
X159931000Y-86344000D01*
G37*
G36*
X159131000Y-86344000D02*
G01*
X158581000Y-86344000D01*
X158581000Y-84744000D01*
X159131000Y-84744000D01*
X159131000Y-86344000D01*
X159131000Y-86344000D01*
G37*
G36*
X158331000Y-86344000D02*
G01*
X157781000Y-86344000D01*
X157781000Y-84744000D01*
X158331000Y-84744000D01*
X158331000Y-86344000D01*
X158331000Y-86344000D01*
G37*
G36*
X168099116Y-84991095D02*
G01*
X168128311Y-84999952D01*
X168155223Y-85014337D01*
X168178808Y-85033692D01*
X168198163Y-85057277D01*
X168212548Y-85084189D01*
X168221405Y-85113384D01*
X168225000Y-85149890D01*
X168225000Y-85700110D01*
X168221405Y-85736616D01*
X168212548Y-85765811D01*
X168198163Y-85792723D01*
X168178808Y-85816308D01*
X168155223Y-85835663D01*
X168128311Y-85850048D01*
X168099116Y-85858905D01*
X168062610Y-85862500D01*
X167437390Y-85862500D01*
X167400884Y-85858905D01*
X167371689Y-85850048D01*
X167344777Y-85835663D01*
X167321192Y-85816308D01*
X167301837Y-85792723D01*
X167287452Y-85765811D01*
X167278595Y-85736616D01*
X167275000Y-85700110D01*
X167275000Y-85149890D01*
X167278595Y-85113384D01*
X167287452Y-85084189D01*
X167301837Y-85057277D01*
X167321192Y-85033692D01*
X167344777Y-85014337D01*
X167371689Y-84999952D01*
X167400884Y-84991095D01*
X167437390Y-84987500D01*
X168062610Y-84987500D01*
X168099116Y-84991095D01*
X168099116Y-84991095D01*
G37*
G36*
X136463866Y-84305246D02*
G01*
X136517125Y-84310491D01*
X136653788Y-84351947D01*
X136653790Y-84351948D01*
X136779736Y-84419268D01*
X136890133Y-84509867D01*
X136980732Y-84620264D01*
X136998707Y-84653893D01*
X137048053Y-84746212D01*
X137089509Y-84882875D01*
X137103507Y-85025000D01*
X137089509Y-85167125D01*
X137048053Y-85303788D01*
X137048052Y-85303790D01*
X136980732Y-85429736D01*
X136890133Y-85540133D01*
X136779736Y-85630732D01*
X136673737Y-85687390D01*
X136653788Y-85698053D01*
X136517125Y-85739509D01*
X136474065Y-85743750D01*
X136410609Y-85750000D01*
X135789391Y-85750000D01*
X135725935Y-85743750D01*
X135682875Y-85739509D01*
X135546212Y-85698053D01*
X135526263Y-85687390D01*
X135420264Y-85630732D01*
X135309867Y-85540133D01*
X135219268Y-85429736D01*
X135151948Y-85303790D01*
X135151947Y-85303788D01*
X135110491Y-85167125D01*
X135096493Y-85025000D01*
X135110491Y-84882875D01*
X135151947Y-84746212D01*
X135201293Y-84653893D01*
X135219268Y-84620264D01*
X135309867Y-84509867D01*
X135420264Y-84419268D01*
X135546210Y-84351948D01*
X135546212Y-84351947D01*
X135682875Y-84310491D01*
X135736134Y-84305246D01*
X135789391Y-84300000D01*
X136410609Y-84300000D01*
X136463866Y-84305246D01*
X136463866Y-84305246D01*
G37*
G36*
X132725652Y-84307131D02*
G01*
X132737721Y-84308320D01*
X132791914Y-84324759D01*
X132846108Y-84341199D01*
X132945998Y-84394592D01*
X133033554Y-84466446D01*
X133105408Y-84554002D01*
X133158801Y-84653892D01*
X133191680Y-84762280D01*
X133202782Y-84875000D01*
X133197728Y-84926310D01*
X133191680Y-84987721D01*
X133186696Y-85004151D01*
X133158801Y-85096108D01*
X133105408Y-85195998D01*
X133033554Y-85283554D01*
X132945998Y-85355408D01*
X132846108Y-85408801D01*
X132834573Y-85412300D01*
X132737721Y-85441680D01*
X132725652Y-85442869D01*
X132653246Y-85450000D01*
X131946754Y-85450000D01*
X131874348Y-85442869D01*
X131862279Y-85441680D01*
X131765427Y-85412300D01*
X131753892Y-85408801D01*
X131654002Y-85355408D01*
X131566446Y-85283554D01*
X131494592Y-85195998D01*
X131441199Y-85096108D01*
X131413304Y-85004151D01*
X131408320Y-84987721D01*
X131402272Y-84926310D01*
X131397218Y-84875000D01*
X131408320Y-84762280D01*
X131441199Y-84653892D01*
X131494592Y-84554002D01*
X131566446Y-84466446D01*
X131654002Y-84394592D01*
X131753892Y-84341199D01*
X131808086Y-84324759D01*
X131862279Y-84308320D01*
X131874348Y-84307131D01*
X131946754Y-84300000D01*
X132653246Y-84300000D01*
X132725652Y-84307131D01*
X132725652Y-84307131D01*
G37*
G36*
X152110000Y-85400000D02*
G01*
X150310000Y-85400000D01*
X150310000Y-83600000D01*
X152110000Y-83600000D01*
X152110000Y-85400000D01*
X152110000Y-85400000D01*
G37*
G36*
X154012520Y-83634586D02*
G01*
X154167161Y-83698640D01*
X154176310Y-83702430D01*
X154323717Y-83800924D01*
X154449076Y-83926283D01*
X154547570Y-84073690D01*
X154547571Y-84073692D01*
X154615414Y-84237480D01*
X154650000Y-84411356D01*
X154650000Y-84588644D01*
X154643710Y-84620264D01*
X154615414Y-84762520D01*
X154547570Y-84926310D01*
X154449076Y-85073717D01*
X154323717Y-85199076D01*
X154176310Y-85297570D01*
X154176309Y-85297571D01*
X154176308Y-85297571D01*
X154012520Y-85365414D01*
X153838644Y-85400000D01*
X153661356Y-85400000D01*
X153487480Y-85365414D01*
X153323692Y-85297571D01*
X153323691Y-85297571D01*
X153323690Y-85297570D01*
X153176283Y-85199076D01*
X153050924Y-85073717D01*
X152952430Y-84926310D01*
X152884586Y-84762520D01*
X152856290Y-84620264D01*
X152850000Y-84588644D01*
X152850000Y-84411356D01*
X152884586Y-84237480D01*
X152952429Y-84073692D01*
X152952430Y-84073690D01*
X153050924Y-83926283D01*
X153176283Y-83800924D01*
X153323690Y-83702430D01*
X153332840Y-83698640D01*
X153487480Y-83634586D01*
X153661356Y-83600000D01*
X153838644Y-83600000D01*
X154012520Y-83634586D01*
X154012520Y-83634586D01*
G37*
G36*
X139561616Y-83278595D02*
G01*
X139590811Y-83287452D01*
X139617723Y-83301837D01*
X139641308Y-83321192D01*
X139660663Y-83344777D01*
X139675048Y-83371689D01*
X139683905Y-83400884D01*
X139687500Y-83437390D01*
X139687500Y-84062610D01*
X139683905Y-84099116D01*
X139675048Y-84128311D01*
X139660663Y-84155223D01*
X139641308Y-84178808D01*
X139617723Y-84198163D01*
X139590811Y-84212548D01*
X139561616Y-84221405D01*
X139525110Y-84225000D01*
X138974890Y-84225000D01*
X138938384Y-84221405D01*
X138909189Y-84212548D01*
X138882277Y-84198163D01*
X138858692Y-84178808D01*
X138839337Y-84155223D01*
X138824952Y-84128311D01*
X138816095Y-84099116D01*
X138812500Y-84062610D01*
X138812500Y-83437390D01*
X138816095Y-83400884D01*
X138824952Y-83371689D01*
X138839337Y-83344777D01*
X138858692Y-83321192D01*
X138882277Y-83301837D01*
X138909189Y-83287452D01*
X138938384Y-83278595D01*
X138974890Y-83275000D01*
X139525110Y-83275000D01*
X139561616Y-83278595D01*
X139561616Y-83278595D01*
G37*
G36*
X141136616Y-83278595D02*
G01*
X141165811Y-83287452D01*
X141192723Y-83301837D01*
X141216308Y-83321192D01*
X141235663Y-83344777D01*
X141250048Y-83371689D01*
X141258905Y-83400884D01*
X141262500Y-83437390D01*
X141262500Y-84062610D01*
X141258905Y-84099116D01*
X141250048Y-84128311D01*
X141235663Y-84155223D01*
X141216308Y-84178808D01*
X141192723Y-84198163D01*
X141165811Y-84212548D01*
X141136616Y-84221405D01*
X141100110Y-84225000D01*
X140549890Y-84225000D01*
X140513384Y-84221405D01*
X140484189Y-84212548D01*
X140457277Y-84198163D01*
X140433692Y-84178808D01*
X140414337Y-84155223D01*
X140399952Y-84128311D01*
X140391095Y-84099116D01*
X140387500Y-84062610D01*
X140387500Y-83437390D01*
X140391095Y-83400884D01*
X140399952Y-83371689D01*
X140414337Y-83344777D01*
X140433692Y-83321192D01*
X140457277Y-83301837D01*
X140484189Y-83287452D01*
X140513384Y-83278595D01*
X140549890Y-83275000D01*
X141100110Y-83275000D01*
X141136616Y-83278595D01*
X141136616Y-83278595D01*
G37*
G36*
X143929453Y-83607274D02*
G01*
X143945753Y-83612219D01*
X143960775Y-83620249D01*
X143973944Y-83631056D01*
X143984751Y-83644225D01*
X143992781Y-83659247D01*
X143997726Y-83675547D01*
X144000000Y-83698640D01*
X144000000Y-84111360D01*
X143997726Y-84134453D01*
X143992781Y-84150753D01*
X143984751Y-84165775D01*
X143973944Y-84178944D01*
X143960775Y-84189751D01*
X143945753Y-84197781D01*
X143929453Y-84202726D01*
X143906360Y-84205000D01*
X142143640Y-84205000D01*
X142120547Y-84202726D01*
X142104247Y-84197781D01*
X142089225Y-84189751D01*
X142076056Y-84178944D01*
X142065249Y-84165775D01*
X142057219Y-84150753D01*
X142052274Y-84134453D01*
X142050000Y-84111360D01*
X142050000Y-83698640D01*
X142052274Y-83675547D01*
X142057219Y-83659247D01*
X142065249Y-83644225D01*
X142076056Y-83631056D01*
X142089225Y-83620249D01*
X142104247Y-83612219D01*
X142120547Y-83607274D01*
X142143640Y-83605000D01*
X143906360Y-83605000D01*
X143929453Y-83607274D01*
X143929453Y-83607274D01*
G37*
G36*
X148879453Y-83607274D02*
G01*
X148895753Y-83612219D01*
X148910775Y-83620249D01*
X148923944Y-83631056D01*
X148934751Y-83644225D01*
X148942781Y-83659247D01*
X148947726Y-83675547D01*
X148950000Y-83698640D01*
X148950000Y-84111360D01*
X148947726Y-84134453D01*
X148942781Y-84150753D01*
X148934751Y-84165775D01*
X148923944Y-84178944D01*
X148910775Y-84189751D01*
X148895753Y-84197781D01*
X148879453Y-84202726D01*
X148856360Y-84205000D01*
X147093640Y-84205000D01*
X147070547Y-84202726D01*
X147054247Y-84197781D01*
X147039225Y-84189751D01*
X147026056Y-84178944D01*
X147015249Y-84165775D01*
X147007219Y-84150753D01*
X147002274Y-84134453D01*
X147000000Y-84111360D01*
X147000000Y-83698640D01*
X147002274Y-83675547D01*
X147007219Y-83659247D01*
X147015249Y-83644225D01*
X147026056Y-83631056D01*
X147039225Y-83620249D01*
X147054247Y-83612219D01*
X147070547Y-83607274D01*
X147093640Y-83605000D01*
X148856360Y-83605000D01*
X148879453Y-83607274D01*
X148879453Y-83607274D01*
G37*
G36*
X163524116Y-82778595D02*
G01*
X163553311Y-82787452D01*
X163580223Y-82801837D01*
X163603808Y-82821192D01*
X163623163Y-82844777D01*
X163637548Y-82871689D01*
X163646405Y-82900884D01*
X163650000Y-82937390D01*
X163650000Y-83562610D01*
X163646405Y-83599116D01*
X163637548Y-83628311D01*
X163623163Y-83655223D01*
X163603808Y-83678808D01*
X163580223Y-83698163D01*
X163553311Y-83712548D01*
X163524116Y-83721405D01*
X163487610Y-83725000D01*
X162937390Y-83725000D01*
X162900884Y-83721405D01*
X162871689Y-83712548D01*
X162844777Y-83698163D01*
X162821192Y-83678808D01*
X162801837Y-83655223D01*
X162787452Y-83628311D01*
X162778595Y-83599116D01*
X162775000Y-83562610D01*
X162775000Y-82937390D01*
X162778595Y-82900884D01*
X162787452Y-82871689D01*
X162801837Y-82844777D01*
X162821192Y-82821192D01*
X162844777Y-82801837D01*
X162871689Y-82787452D01*
X162900884Y-82778595D01*
X162937390Y-82775000D01*
X163487610Y-82775000D01*
X163524116Y-82778595D01*
X163524116Y-82778595D01*
G37*
G36*
X165099116Y-82778595D02*
G01*
X165128311Y-82787452D01*
X165155223Y-82801837D01*
X165178808Y-82821192D01*
X165198163Y-82844777D01*
X165212548Y-82871689D01*
X165221405Y-82900884D01*
X165225000Y-82937390D01*
X165225000Y-83562610D01*
X165221405Y-83599116D01*
X165212548Y-83628311D01*
X165198163Y-83655223D01*
X165178808Y-83678808D01*
X165155223Y-83698163D01*
X165128311Y-83712548D01*
X165099116Y-83721405D01*
X165062610Y-83725000D01*
X164512390Y-83725000D01*
X164475884Y-83721405D01*
X164446689Y-83712548D01*
X164419777Y-83698163D01*
X164396192Y-83678808D01*
X164376837Y-83655223D01*
X164362452Y-83628311D01*
X164353595Y-83599116D01*
X164350000Y-83562610D01*
X164350000Y-82937390D01*
X164353595Y-82900884D01*
X164362452Y-82871689D01*
X164376837Y-82844777D01*
X164396192Y-82821192D01*
X164419777Y-82801837D01*
X164446689Y-82787452D01*
X164475884Y-82778595D01*
X164512390Y-82775000D01*
X165062610Y-82775000D01*
X165099116Y-82778595D01*
X165099116Y-82778595D01*
G37*
G36*
X161599116Y-82853595D02*
G01*
X161628311Y-82862452D01*
X161655223Y-82876837D01*
X161678808Y-82896192D01*
X161698163Y-82919777D01*
X161712548Y-82946689D01*
X161721405Y-82975884D01*
X161725000Y-83012390D01*
X161725000Y-83562610D01*
X161721405Y-83599116D01*
X161712548Y-83628311D01*
X161698163Y-83655223D01*
X161678808Y-83678808D01*
X161655223Y-83698163D01*
X161628311Y-83712548D01*
X161599116Y-83721405D01*
X161562610Y-83725000D01*
X160937390Y-83725000D01*
X160900884Y-83721405D01*
X160871689Y-83712548D01*
X160844777Y-83698163D01*
X160821192Y-83678808D01*
X160801837Y-83655223D01*
X160787452Y-83628311D01*
X160778595Y-83599116D01*
X160775000Y-83562610D01*
X160775000Y-83012390D01*
X160778595Y-82975884D01*
X160787452Y-82946689D01*
X160801837Y-82919777D01*
X160821192Y-82896192D01*
X160844777Y-82876837D01*
X160871689Y-82862452D01*
X160900884Y-82853595D01*
X160937390Y-82850000D01*
X161562610Y-82850000D01*
X161599116Y-82853595D01*
X161599116Y-82853595D01*
G37*
G36*
X159395843Y-82519214D02*
G01*
X159395846Y-82519215D01*
X159395845Y-82519215D01*
X159486839Y-82556906D01*
X159528063Y-82584451D01*
X159568730Y-82611624D01*
X159638376Y-82681270D01*
X159693095Y-82763163D01*
X159730786Y-82854157D01*
X159750000Y-82950753D01*
X159750000Y-83049247D01*
X159730786Y-83145843D01*
X159693095Y-83236837D01*
X159649664Y-83301837D01*
X159638375Y-83318731D01*
X159568731Y-83388375D01*
X159486839Y-83443094D01*
X159486838Y-83443095D01*
X159486837Y-83443095D01*
X159395843Y-83480786D01*
X159299247Y-83500000D01*
X159200753Y-83500000D01*
X159104157Y-83480786D01*
X159013163Y-83443095D01*
X159013162Y-83443095D01*
X159013161Y-83443094D01*
X158931269Y-83388375D01*
X158861625Y-83318731D01*
X158850337Y-83301837D01*
X158806905Y-83236837D01*
X158769214Y-83145843D01*
X158750000Y-83049247D01*
X158750000Y-82950753D01*
X158769214Y-82854157D01*
X158806905Y-82763163D01*
X158861624Y-82681270D01*
X158931270Y-82611624D01*
X158971937Y-82584451D01*
X159013161Y-82556906D01*
X159104155Y-82519215D01*
X159104154Y-82519215D01*
X159104157Y-82519214D01*
X159200753Y-82500000D01*
X159299247Y-82500000D01*
X159395843Y-82519214D01*
X159395843Y-82519214D01*
G37*
G36*
X157145843Y-82519214D02*
G01*
X157145846Y-82519215D01*
X157145845Y-82519215D01*
X157236839Y-82556906D01*
X157278063Y-82584451D01*
X157318730Y-82611624D01*
X157388376Y-82681270D01*
X157443095Y-82763163D01*
X157480786Y-82854157D01*
X157500000Y-82950753D01*
X157500000Y-83049247D01*
X157480786Y-83145843D01*
X157443095Y-83236837D01*
X157399664Y-83301837D01*
X157388375Y-83318731D01*
X157318731Y-83388375D01*
X157236839Y-83443094D01*
X157236838Y-83443095D01*
X157236837Y-83443095D01*
X157145843Y-83480786D01*
X157049247Y-83500000D01*
X156950753Y-83500000D01*
X156854157Y-83480786D01*
X156763163Y-83443095D01*
X156763162Y-83443095D01*
X156763161Y-83443094D01*
X156681269Y-83388375D01*
X156611625Y-83318731D01*
X156600337Y-83301837D01*
X156556905Y-83236837D01*
X156519214Y-83145843D01*
X156500000Y-83049247D01*
X156500000Y-82950753D01*
X156519214Y-82854157D01*
X156556905Y-82763163D01*
X156611624Y-82681270D01*
X156681270Y-82611624D01*
X156721937Y-82584451D01*
X156763161Y-82556906D01*
X156854155Y-82519215D01*
X156854154Y-82519215D01*
X156854157Y-82519214D01*
X156950753Y-82500000D01*
X157049247Y-82500000D01*
X157145843Y-82519214D01*
X157145843Y-82519214D01*
G37*
G36*
X174350000Y-83125000D02*
G01*
X173250000Y-83125000D01*
X173250000Y-82875000D01*
X174350000Y-82875000D01*
X174350000Y-83125000D01*
X174350000Y-83125000D01*
G37*
G36*
X170050000Y-83125000D02*
G01*
X168950000Y-83125000D01*
X168950000Y-82875000D01*
X170050000Y-82875000D01*
X170050000Y-83125000D01*
X170050000Y-83125000D01*
G37*
G36*
X148879453Y-82337274D02*
G01*
X148895753Y-82342219D01*
X148910775Y-82350249D01*
X148923944Y-82361056D01*
X148934751Y-82374225D01*
X148942781Y-82389247D01*
X148947726Y-82405547D01*
X148950000Y-82428640D01*
X148950000Y-82841360D01*
X148947726Y-82864453D01*
X148942781Y-82880753D01*
X148934751Y-82895775D01*
X148923944Y-82908944D01*
X148910775Y-82919751D01*
X148895753Y-82927781D01*
X148879453Y-82932726D01*
X148856360Y-82935000D01*
X147093640Y-82935000D01*
X147070547Y-82932726D01*
X147054247Y-82927781D01*
X147039225Y-82919751D01*
X147026056Y-82908944D01*
X147015249Y-82895775D01*
X147007219Y-82880753D01*
X147002274Y-82864453D01*
X147000000Y-82841360D01*
X147000000Y-82428640D01*
X147002274Y-82405547D01*
X147007219Y-82389247D01*
X147015249Y-82374225D01*
X147026056Y-82361056D01*
X147039225Y-82350249D01*
X147054247Y-82342219D01*
X147070547Y-82337274D01*
X147093640Y-82335000D01*
X148856360Y-82335000D01*
X148879453Y-82337274D01*
X148879453Y-82337274D01*
G37*
G36*
X143929453Y-82337274D02*
G01*
X143945753Y-82342219D01*
X143960775Y-82350249D01*
X143973944Y-82361056D01*
X143984751Y-82374225D01*
X143992781Y-82389247D01*
X143997726Y-82405547D01*
X144000000Y-82428640D01*
X144000000Y-82841360D01*
X143997726Y-82864453D01*
X143992781Y-82880753D01*
X143984751Y-82895775D01*
X143973944Y-82908944D01*
X143960775Y-82919751D01*
X143945753Y-82927781D01*
X143929453Y-82932726D01*
X143906360Y-82935000D01*
X142143640Y-82935000D01*
X142120547Y-82932726D01*
X142104247Y-82927781D01*
X142089225Y-82919751D01*
X142076056Y-82908944D01*
X142065249Y-82895775D01*
X142057219Y-82880753D01*
X142052274Y-82864453D01*
X142050000Y-82841360D01*
X142050000Y-82428640D01*
X142052274Y-82405547D01*
X142057219Y-82389247D01*
X142065249Y-82374225D01*
X142076056Y-82361056D01*
X142089225Y-82350249D01*
X142104247Y-82342219D01*
X142120547Y-82337274D01*
X142143640Y-82335000D01*
X143906360Y-82335000D01*
X143929453Y-82337274D01*
X143929453Y-82337274D01*
G37*
G36*
X174350000Y-82625000D02*
G01*
X173250000Y-82625000D01*
X173250000Y-82375000D01*
X174350000Y-82375000D01*
X174350000Y-82625000D01*
X174350000Y-82625000D01*
G37*
G36*
X170050000Y-82625000D02*
G01*
X168950000Y-82625000D01*
X168950000Y-82375000D01*
X170050000Y-82375000D01*
X170050000Y-82625000D01*
X170050000Y-82625000D01*
G37*
G36*
X140895843Y-81469214D02*
G01*
X140895846Y-81469215D01*
X140895845Y-81469215D01*
X140986839Y-81506906D01*
X140998952Y-81515000D01*
X141068730Y-81561624D01*
X141138376Y-81631270D01*
X141193095Y-81713163D01*
X141230786Y-81804157D01*
X141250000Y-81900753D01*
X141250000Y-81999247D01*
X141230786Y-82095843D01*
X141193095Y-82186837D01*
X141138376Y-82268730D01*
X141068730Y-82338376D01*
X141035948Y-82360280D01*
X140986839Y-82393094D01*
X140986838Y-82393095D01*
X140986837Y-82393095D01*
X140895843Y-82430786D01*
X140799247Y-82450000D01*
X140700753Y-82450000D01*
X140604157Y-82430786D01*
X140513163Y-82393095D01*
X140513162Y-82393095D01*
X140513161Y-82393094D01*
X140464052Y-82360280D01*
X140431270Y-82338376D01*
X140361624Y-82268730D01*
X140306905Y-82186837D01*
X140269214Y-82095843D01*
X140250000Y-81999247D01*
X140250000Y-81900753D01*
X140269214Y-81804157D01*
X140306905Y-81713163D01*
X140361624Y-81631270D01*
X140431270Y-81561624D01*
X140501048Y-81515000D01*
X140513161Y-81506906D01*
X140604155Y-81469215D01*
X140604154Y-81469215D01*
X140604157Y-81469214D01*
X140700753Y-81450000D01*
X140799247Y-81450000D01*
X140895843Y-81469214D01*
X140895843Y-81469214D01*
G37*
G36*
X161599116Y-81278595D02*
G01*
X161628311Y-81287452D01*
X161655223Y-81301837D01*
X161678808Y-81321192D01*
X161698163Y-81344777D01*
X161712548Y-81371689D01*
X161721405Y-81400884D01*
X161725000Y-81437390D01*
X161725000Y-81987610D01*
X161721405Y-82024116D01*
X161712548Y-82053311D01*
X161698163Y-82080223D01*
X161678808Y-82103808D01*
X161655223Y-82123163D01*
X161628311Y-82137548D01*
X161599116Y-82146405D01*
X161562610Y-82150000D01*
X160937390Y-82150000D01*
X160900884Y-82146405D01*
X160871689Y-82137548D01*
X160844777Y-82123163D01*
X160821192Y-82103808D01*
X160801837Y-82080223D01*
X160787452Y-82053311D01*
X160778595Y-82024116D01*
X160775000Y-81987610D01*
X160775000Y-81437390D01*
X160778595Y-81400884D01*
X160787452Y-81371689D01*
X160801837Y-81344777D01*
X160821192Y-81321192D01*
X160844777Y-81301837D01*
X160871689Y-81287452D01*
X160900884Y-81278595D01*
X160937390Y-81275000D01*
X161562610Y-81275000D01*
X161599116Y-81278595D01*
X161599116Y-81278595D01*
G37*
G36*
X174350000Y-82125000D02*
G01*
X173250000Y-82125000D01*
X173250000Y-81875000D01*
X174350000Y-81875000D01*
X174350000Y-82125000D01*
X174350000Y-82125000D01*
G37*
G36*
X170050000Y-82125000D02*
G01*
X168950000Y-82125000D01*
X168950000Y-81875000D01*
X170050000Y-81875000D01*
X170050000Y-82125000D01*
X170050000Y-82125000D01*
G37*
G36*
X148879453Y-81067274D02*
G01*
X148895753Y-81072219D01*
X148910775Y-81080249D01*
X148923944Y-81091056D01*
X148934751Y-81104225D01*
X148942781Y-81119247D01*
X148947726Y-81135547D01*
X148950000Y-81158640D01*
X148950000Y-81571360D01*
X148947726Y-81594453D01*
X148942781Y-81610753D01*
X148934751Y-81625775D01*
X148923944Y-81638944D01*
X148910775Y-81649751D01*
X148895753Y-81657781D01*
X148879453Y-81662726D01*
X148856360Y-81665000D01*
X147093640Y-81665000D01*
X147070547Y-81662726D01*
X147054247Y-81657781D01*
X147039225Y-81649751D01*
X147026056Y-81638944D01*
X147015249Y-81625775D01*
X147007219Y-81610753D01*
X147002274Y-81594453D01*
X147000000Y-81571360D01*
X147000000Y-81158640D01*
X147002274Y-81135547D01*
X147007219Y-81119247D01*
X147015249Y-81104225D01*
X147026056Y-81091056D01*
X147039225Y-81080249D01*
X147054247Y-81072219D01*
X147070547Y-81067274D01*
X147093640Y-81065000D01*
X148856360Y-81065000D01*
X148879453Y-81067274D01*
X148879453Y-81067274D01*
G37*
G36*
X143929453Y-81067274D02*
G01*
X143945753Y-81072219D01*
X143960775Y-81080249D01*
X143973944Y-81091056D01*
X143984751Y-81104225D01*
X143992781Y-81119247D01*
X143997726Y-81135547D01*
X144000000Y-81158640D01*
X144000000Y-81571360D01*
X143997726Y-81594453D01*
X143992781Y-81610753D01*
X143984751Y-81625775D01*
X143973944Y-81638944D01*
X143960775Y-81649751D01*
X143945753Y-81657781D01*
X143929453Y-81662726D01*
X143906360Y-81665000D01*
X142143640Y-81665000D01*
X142120547Y-81662726D01*
X142104247Y-81657781D01*
X142089225Y-81649751D01*
X142076056Y-81638944D01*
X142065249Y-81625775D01*
X142057219Y-81610753D01*
X142052274Y-81594453D01*
X142050000Y-81571360D01*
X142050000Y-81158640D01*
X142052274Y-81135547D01*
X142057219Y-81119247D01*
X142065249Y-81104225D01*
X142076056Y-81091056D01*
X142089225Y-81080249D01*
X142104247Y-81072219D01*
X142120547Y-81067274D01*
X142143640Y-81065000D01*
X143906360Y-81065000D01*
X143929453Y-81067274D01*
X143929453Y-81067274D01*
G37*
G36*
X170050000Y-81625000D02*
G01*
X168950000Y-81625000D01*
X168950000Y-81375000D01*
X170050000Y-81375000D01*
X170050000Y-81625000D01*
X170050000Y-81625000D01*
G37*
G36*
X174350000Y-81625000D02*
G01*
X173250000Y-81625000D01*
X173250000Y-81375000D01*
X174350000Y-81375000D01*
X174350000Y-81625000D01*
X174350000Y-81625000D01*
G37*
G36*
X159412203Y-79751201D02*
G01*
X159424453Y-79751803D01*
X159442872Y-79751803D01*
X159455150Y-79753012D01*
X159539232Y-79769737D01*
X159551052Y-79773323D01*
X159630256Y-79806130D01*
X159641136Y-79811945D01*
X159712426Y-79859579D01*
X159721963Y-79867407D01*
X159782593Y-79928037D01*
X159790421Y-79937574D01*
X159838055Y-80008864D01*
X159843870Y-80019744D01*
X159876677Y-80098948D01*
X159880263Y-80110768D01*
X159896988Y-80194850D01*
X159898197Y-80207128D01*
X159898197Y-80225547D01*
X159898799Y-80237797D01*
X159900605Y-80256137D01*
X159900605Y-80743863D01*
X159898799Y-80762203D01*
X159898197Y-80774453D01*
X159898197Y-80792872D01*
X159896988Y-80805150D01*
X159880263Y-80889232D01*
X159876677Y-80901052D01*
X159843870Y-80980256D01*
X159838055Y-80991136D01*
X159790421Y-81062426D01*
X159782593Y-81071963D01*
X159721963Y-81132593D01*
X159712426Y-81140421D01*
X159641136Y-81188055D01*
X159630256Y-81193870D01*
X159551052Y-81226677D01*
X159539232Y-81230263D01*
X159455150Y-81246988D01*
X159442872Y-81248197D01*
X159424453Y-81248197D01*
X159412203Y-81248799D01*
X159393863Y-81250605D01*
X158906137Y-81250605D01*
X158900001Y-81250001D01*
X158899999Y-81249999D01*
X158899395Y-81243863D01*
X158899395Y-79756137D01*
X158899999Y-79750001D01*
X158900001Y-79749999D01*
X158906137Y-79749395D01*
X159393863Y-79749395D01*
X159412203Y-79751201D01*
X159412203Y-79751201D01*
G37*
G36*
X158599999Y-79749999D02*
G01*
X158600001Y-79750001D01*
X158600605Y-79756137D01*
X158600605Y-81243863D01*
X158600001Y-81249999D01*
X158599999Y-81250001D01*
X158593863Y-81250605D01*
X158106137Y-81250605D01*
X158087797Y-81248799D01*
X158075547Y-81248197D01*
X158057128Y-81248197D01*
X158044850Y-81246988D01*
X157960768Y-81230263D01*
X157948948Y-81226677D01*
X157869744Y-81193870D01*
X157858864Y-81188055D01*
X157787574Y-81140421D01*
X157778037Y-81132593D01*
X157717407Y-81071963D01*
X157709579Y-81062426D01*
X157661945Y-80991136D01*
X157656130Y-80980256D01*
X157623323Y-80901052D01*
X157619737Y-80889232D01*
X157603012Y-80805150D01*
X157601803Y-80792872D01*
X157601803Y-80774453D01*
X157601201Y-80762203D01*
X157599395Y-80743863D01*
X157599395Y-80256137D01*
X157601201Y-80237797D01*
X157601803Y-80225547D01*
X157601803Y-80207128D01*
X157603012Y-80194850D01*
X157619737Y-80110768D01*
X157623323Y-80098948D01*
X157656130Y-80019744D01*
X157661945Y-80008864D01*
X157709579Y-79937574D01*
X157717407Y-79928037D01*
X157778037Y-79867407D01*
X157787574Y-79859579D01*
X157858864Y-79811945D01*
X157869744Y-79806130D01*
X157948948Y-79773323D01*
X157960768Y-79769737D01*
X158044850Y-79753012D01*
X158057128Y-79751803D01*
X158075547Y-79751803D01*
X158087797Y-79751201D01*
X158106137Y-79749395D01*
X158593863Y-79749395D01*
X158599999Y-79749999D01*
X158599999Y-79749999D01*
G37*
G36*
X174350000Y-81125000D02*
G01*
X173250000Y-81125000D01*
X173250000Y-80875000D01*
X174350000Y-80875000D01*
X174350000Y-81125000D01*
X174350000Y-81125000D01*
G37*
G36*
X170050000Y-81125000D02*
G01*
X168950000Y-81125000D01*
X168950000Y-80875000D01*
X170050000Y-80875000D01*
X170050000Y-81125000D01*
X170050000Y-81125000D01*
G37*
G36*
X140895843Y-79769214D02*
G01*
X140975524Y-79802219D01*
X140986839Y-79806906D01*
X140990031Y-79809039D01*
X141057555Y-79854157D01*
X141068731Y-79861625D01*
X141138375Y-79931269D01*
X141192666Y-80012520D01*
X141193095Y-80013163D01*
X141230786Y-80104157D01*
X141250000Y-80200753D01*
X141250000Y-80299247D01*
X141230786Y-80395843D01*
X141193095Y-80486837D01*
X141152515Y-80547570D01*
X141138375Y-80568731D01*
X141068731Y-80638375D01*
X140986839Y-80693094D01*
X140986838Y-80693095D01*
X140986837Y-80693095D01*
X140895843Y-80730786D01*
X140799247Y-80750000D01*
X140700753Y-80750000D01*
X140604157Y-80730786D01*
X140513163Y-80693095D01*
X140513162Y-80693095D01*
X140513161Y-80693094D01*
X140431269Y-80638375D01*
X140361625Y-80568731D01*
X140347486Y-80547570D01*
X140306905Y-80486837D01*
X140269214Y-80395843D01*
X140250000Y-80299247D01*
X140250000Y-80200753D01*
X140269214Y-80104157D01*
X140306905Y-80013163D01*
X140307335Y-80012520D01*
X140361625Y-79931269D01*
X140431269Y-79861625D01*
X140442446Y-79854157D01*
X140509969Y-79809039D01*
X140513161Y-79806906D01*
X140524476Y-79802219D01*
X140604157Y-79769214D01*
X140700753Y-79750000D01*
X140799247Y-79750000D01*
X140895843Y-79769214D01*
X140895843Y-79769214D01*
G37*
G36*
X154650000Y-80650000D02*
G01*
X152850000Y-80650000D01*
X152850000Y-78850000D01*
X154650000Y-78850000D01*
X154650000Y-80650000D01*
X154650000Y-80650000D01*
G37*
G36*
X151472520Y-78884586D02*
G01*
X151633037Y-78951074D01*
X151636310Y-78952430D01*
X151783717Y-79050924D01*
X151909076Y-79176283D01*
X152007570Y-79323690D01*
X152007571Y-79323692D01*
X152075414Y-79487480D01*
X152110000Y-79661356D01*
X152110000Y-79838644D01*
X152087700Y-79950753D01*
X152075414Y-80012520D01*
X152007570Y-80176310D01*
X151909076Y-80323717D01*
X151783717Y-80449076D01*
X151636310Y-80547570D01*
X151636309Y-80547571D01*
X151636308Y-80547571D01*
X151472520Y-80615414D01*
X151298644Y-80650000D01*
X151121356Y-80650000D01*
X150947480Y-80615414D01*
X150783692Y-80547571D01*
X150783691Y-80547571D01*
X150783690Y-80547570D01*
X150636283Y-80449076D01*
X150510924Y-80323717D01*
X150412430Y-80176310D01*
X150344586Y-80012520D01*
X150332300Y-79950753D01*
X150310000Y-79838644D01*
X150310000Y-79661356D01*
X150344586Y-79487480D01*
X150412429Y-79323692D01*
X150412430Y-79323690D01*
X150510924Y-79176283D01*
X150636283Y-79050924D01*
X150783690Y-78952430D01*
X150786964Y-78951074D01*
X150947480Y-78884586D01*
X151121356Y-78850000D01*
X151298644Y-78850000D01*
X151472520Y-78884586D01*
X151472520Y-78884586D01*
G37*
G36*
X167145843Y-79519214D02*
G01*
X167236837Y-79556905D01*
X167236839Y-79556906D01*
X167258219Y-79571192D01*
X167318730Y-79611624D01*
X167388376Y-79681270D01*
X167409275Y-79712548D01*
X167438401Y-79756137D01*
X167443095Y-79763163D01*
X167480786Y-79854157D01*
X167500000Y-79950753D01*
X167500000Y-80049247D01*
X167480786Y-80145843D01*
X167443095Y-80236837D01*
X167388376Y-80318730D01*
X167318730Y-80388376D01*
X167284975Y-80410930D01*
X167236839Y-80443094D01*
X167236838Y-80443095D01*
X167236837Y-80443095D01*
X167145843Y-80480786D01*
X167049247Y-80500000D01*
X166950753Y-80500000D01*
X166854157Y-80480786D01*
X166763163Y-80443095D01*
X166763162Y-80443095D01*
X166763161Y-80443094D01*
X166715025Y-80410930D01*
X166681270Y-80388376D01*
X166611624Y-80318730D01*
X166556905Y-80236837D01*
X166519214Y-80145843D01*
X166500000Y-80049247D01*
X166500000Y-79950753D01*
X166519214Y-79854157D01*
X166556905Y-79763163D01*
X166561600Y-79756137D01*
X166590725Y-79712548D01*
X166611624Y-79681270D01*
X166681270Y-79611624D01*
X166741781Y-79571192D01*
X166763161Y-79556906D01*
X166763163Y-79556905D01*
X166854157Y-79519214D01*
X166950753Y-79500000D01*
X167049247Y-79500000D01*
X167145843Y-79519214D01*
X167145843Y-79519214D01*
G37*
G36*
X164895843Y-79519214D02*
G01*
X164986837Y-79556905D01*
X164986839Y-79556906D01*
X165008219Y-79571192D01*
X165068730Y-79611624D01*
X165138376Y-79681270D01*
X165159275Y-79712548D01*
X165188401Y-79756137D01*
X165193095Y-79763163D01*
X165230786Y-79854157D01*
X165250000Y-79950753D01*
X165250000Y-80049247D01*
X165230786Y-80145843D01*
X165193095Y-80236837D01*
X165138376Y-80318730D01*
X165068730Y-80388376D01*
X165034975Y-80410930D01*
X164986839Y-80443094D01*
X164986838Y-80443095D01*
X164986837Y-80443095D01*
X164895843Y-80480786D01*
X164799247Y-80500000D01*
X164700753Y-80500000D01*
X164604157Y-80480786D01*
X164513163Y-80443095D01*
X164513162Y-80443095D01*
X164513161Y-80443094D01*
X164465025Y-80410930D01*
X164431270Y-80388376D01*
X164361624Y-80318730D01*
X164306905Y-80236837D01*
X164269214Y-80145843D01*
X164250000Y-80049247D01*
X164250000Y-79950753D01*
X164269214Y-79854157D01*
X164306905Y-79763163D01*
X164311600Y-79756137D01*
X164340725Y-79712548D01*
X164361624Y-79681270D01*
X164431270Y-79611624D01*
X164491781Y-79571192D01*
X164513161Y-79556906D01*
X164513163Y-79556905D01*
X164604157Y-79519214D01*
X164700753Y-79500000D01*
X164799247Y-79500000D01*
X164895843Y-79519214D01*
X164895843Y-79519214D01*
G37*
G36*
X161561616Y-79528595D02*
G01*
X161590811Y-79537452D01*
X161617723Y-79551837D01*
X161641308Y-79571192D01*
X161660663Y-79594777D01*
X161675048Y-79621689D01*
X161683905Y-79650884D01*
X161687500Y-79687390D01*
X161687500Y-80312610D01*
X161683905Y-80349116D01*
X161675048Y-80378311D01*
X161660663Y-80405223D01*
X161641308Y-80428808D01*
X161617723Y-80448163D01*
X161590811Y-80462548D01*
X161561616Y-80471405D01*
X161525110Y-80475000D01*
X160974890Y-80475000D01*
X160938384Y-80471405D01*
X160909189Y-80462548D01*
X160882277Y-80448163D01*
X160858692Y-80428808D01*
X160839337Y-80405223D01*
X160824952Y-80378311D01*
X160816095Y-80349116D01*
X160812500Y-80312610D01*
X160812500Y-79687390D01*
X160816095Y-79650884D01*
X160824952Y-79621689D01*
X160839337Y-79594777D01*
X160858692Y-79571192D01*
X160882277Y-79551837D01*
X160909189Y-79537452D01*
X160938384Y-79528595D01*
X160974890Y-79525000D01*
X161525110Y-79525000D01*
X161561616Y-79528595D01*
X161561616Y-79528595D01*
G37*
G36*
X163136616Y-79528595D02*
G01*
X163165811Y-79537452D01*
X163192723Y-79551837D01*
X163216308Y-79571192D01*
X163235663Y-79594777D01*
X163250048Y-79621689D01*
X163258905Y-79650884D01*
X163262500Y-79687390D01*
X163262500Y-80312610D01*
X163258905Y-80349116D01*
X163250048Y-80378311D01*
X163235663Y-80405223D01*
X163216308Y-80428808D01*
X163192723Y-80448163D01*
X163165811Y-80462548D01*
X163136616Y-80471405D01*
X163100110Y-80475000D01*
X162549890Y-80475000D01*
X162513384Y-80471405D01*
X162484189Y-80462548D01*
X162457277Y-80448163D01*
X162433692Y-80428808D01*
X162414337Y-80405223D01*
X162399952Y-80378311D01*
X162391095Y-80349116D01*
X162387500Y-80312610D01*
X162387500Y-79687390D01*
X162391095Y-79650884D01*
X162399952Y-79621689D01*
X162414337Y-79594777D01*
X162433692Y-79571192D01*
X162457277Y-79551837D01*
X162484189Y-79537452D01*
X162513384Y-79528595D01*
X162549890Y-79525000D01*
X163100110Y-79525000D01*
X163136616Y-79528595D01*
X163136616Y-79528595D01*
G37*
G36*
X148879453Y-79797274D02*
G01*
X148895753Y-79802219D01*
X148910775Y-79810249D01*
X148923944Y-79821056D01*
X148934751Y-79834225D01*
X148942781Y-79849247D01*
X148947726Y-79865547D01*
X148950000Y-79888640D01*
X148950000Y-80301360D01*
X148947726Y-80324453D01*
X148942781Y-80340753D01*
X148934751Y-80355775D01*
X148923944Y-80368944D01*
X148910775Y-80379751D01*
X148895753Y-80387781D01*
X148879453Y-80392726D01*
X148856360Y-80395000D01*
X147093640Y-80395000D01*
X147070547Y-80392726D01*
X147054247Y-80387781D01*
X147039225Y-80379751D01*
X147026056Y-80368944D01*
X147015249Y-80355775D01*
X147007219Y-80340753D01*
X147002274Y-80324453D01*
X147000000Y-80301360D01*
X147000000Y-79888640D01*
X147002274Y-79865547D01*
X147007219Y-79849247D01*
X147015249Y-79834225D01*
X147026056Y-79821056D01*
X147039225Y-79810249D01*
X147054247Y-79802219D01*
X147070547Y-79797274D01*
X147093640Y-79795000D01*
X148856360Y-79795000D01*
X148879453Y-79797274D01*
X148879453Y-79797274D01*
G37*
G36*
X143929453Y-79797274D02*
G01*
X143945753Y-79802219D01*
X143960775Y-79810249D01*
X143973944Y-79821056D01*
X143984751Y-79834225D01*
X143992781Y-79849247D01*
X143997726Y-79865547D01*
X144000000Y-79888640D01*
X144000000Y-80301360D01*
X143997726Y-80324453D01*
X143992781Y-80340753D01*
X143984751Y-80355775D01*
X143973944Y-80368944D01*
X143960775Y-80379751D01*
X143945753Y-80387781D01*
X143929453Y-80392726D01*
X143906360Y-80395000D01*
X142143640Y-80395000D01*
X142120547Y-80392726D01*
X142104247Y-80387781D01*
X142089225Y-80379751D01*
X142076056Y-80368944D01*
X142065249Y-80355775D01*
X142057219Y-80340753D01*
X142052274Y-80324453D01*
X142050000Y-80301360D01*
X142050000Y-79888640D01*
X142052274Y-79865547D01*
X142057219Y-79849247D01*
X142065249Y-79834225D01*
X142076056Y-79821056D01*
X142089225Y-79810249D01*
X142104247Y-79802219D01*
X142120547Y-79797274D01*
X142143640Y-79795000D01*
X143906360Y-79795000D01*
X143929453Y-79797274D01*
X143929453Y-79797274D01*
G37*
G36*
X169811616Y-78778595D02*
G01*
X169840811Y-78787452D01*
X169867723Y-78801837D01*
X169891308Y-78821192D01*
X169910663Y-78844777D01*
X169925048Y-78871689D01*
X169933905Y-78900884D01*
X169937500Y-78937390D01*
X169937500Y-79562610D01*
X169933905Y-79599116D01*
X169925048Y-79628311D01*
X169910663Y-79655223D01*
X169891308Y-79678808D01*
X169867723Y-79698163D01*
X169840811Y-79712548D01*
X169811616Y-79721405D01*
X169775110Y-79725000D01*
X169224890Y-79725000D01*
X169188384Y-79721405D01*
X169159189Y-79712548D01*
X169132277Y-79698163D01*
X169108692Y-79678808D01*
X169089337Y-79655223D01*
X169074952Y-79628311D01*
X169066095Y-79599116D01*
X169062500Y-79562610D01*
X169062500Y-78937390D01*
X169066095Y-78900884D01*
X169074952Y-78871689D01*
X169089337Y-78844777D01*
X169108692Y-78821192D01*
X169132277Y-78801837D01*
X169159189Y-78787452D01*
X169188384Y-78778595D01*
X169224890Y-78775000D01*
X169775110Y-78775000D01*
X169811616Y-78778595D01*
X169811616Y-78778595D01*
G37*
G36*
X173024116Y-78778595D02*
G01*
X173053311Y-78787452D01*
X173080223Y-78801837D01*
X173103808Y-78821192D01*
X173123163Y-78844777D01*
X173137548Y-78871689D01*
X173146405Y-78900884D01*
X173150000Y-78937390D01*
X173150000Y-79562610D01*
X173146405Y-79599116D01*
X173137548Y-79628311D01*
X173123163Y-79655223D01*
X173103808Y-79678808D01*
X173080223Y-79698163D01*
X173053311Y-79712548D01*
X173024116Y-79721405D01*
X172987610Y-79725000D01*
X172437390Y-79725000D01*
X172400884Y-79721405D01*
X172371689Y-79712548D01*
X172344777Y-79698163D01*
X172321192Y-79678808D01*
X172301837Y-79655223D01*
X172287452Y-79628311D01*
X172278595Y-79599116D01*
X172275000Y-79562610D01*
X172275000Y-78937390D01*
X172278595Y-78900884D01*
X172287452Y-78871689D01*
X172301837Y-78844777D01*
X172321192Y-78821192D01*
X172344777Y-78801837D01*
X172371689Y-78787452D01*
X172400884Y-78778595D01*
X172437390Y-78775000D01*
X172987610Y-78775000D01*
X173024116Y-78778595D01*
X173024116Y-78778595D01*
G37*
G36*
X174599116Y-78778595D02*
G01*
X174628311Y-78787452D01*
X174655223Y-78801837D01*
X174678808Y-78821192D01*
X174698163Y-78844777D01*
X174712548Y-78871689D01*
X174721405Y-78900884D01*
X174725000Y-78937390D01*
X174725000Y-79562610D01*
X174721405Y-79599116D01*
X174712548Y-79628311D01*
X174698163Y-79655223D01*
X174678808Y-79678808D01*
X174655223Y-79698163D01*
X174628311Y-79712548D01*
X174599116Y-79721405D01*
X174562610Y-79725000D01*
X174012390Y-79725000D01*
X173975884Y-79721405D01*
X173946689Y-79712548D01*
X173919777Y-79698163D01*
X173896192Y-79678808D01*
X173876837Y-79655223D01*
X173862452Y-79628311D01*
X173853595Y-79599116D01*
X173850000Y-79562610D01*
X173850000Y-78937390D01*
X173853595Y-78900884D01*
X173862452Y-78871689D01*
X173876837Y-78844777D01*
X173896192Y-78821192D01*
X173919777Y-78801837D01*
X173946689Y-78787452D01*
X173975884Y-78778595D01*
X174012390Y-78775000D01*
X174562610Y-78775000D01*
X174599116Y-78778595D01*
X174599116Y-78778595D01*
G37*
G36*
X171386616Y-78778595D02*
G01*
X171415811Y-78787452D01*
X171442723Y-78801837D01*
X171466308Y-78821192D01*
X171485663Y-78844777D01*
X171500048Y-78871689D01*
X171508905Y-78900884D01*
X171512500Y-78937390D01*
X171512500Y-79562610D01*
X171508905Y-79599116D01*
X171500048Y-79628311D01*
X171485663Y-79655223D01*
X171466308Y-79678808D01*
X171442723Y-79698163D01*
X171415811Y-79712548D01*
X171386616Y-79721405D01*
X171350110Y-79725000D01*
X170799890Y-79725000D01*
X170763384Y-79721405D01*
X170734189Y-79712548D01*
X170707277Y-79698163D01*
X170683692Y-79678808D01*
X170664337Y-79655223D01*
X170649952Y-79628311D01*
X170641095Y-79599116D01*
X170637500Y-79562610D01*
X170637500Y-78937390D01*
X170641095Y-78900884D01*
X170649952Y-78871689D01*
X170664337Y-78844777D01*
X170683692Y-78821192D01*
X170707277Y-78801837D01*
X170734189Y-78787452D01*
X170763384Y-78778595D01*
X170799890Y-78775000D01*
X171350110Y-78775000D01*
X171386616Y-78778595D01*
X171386616Y-78778595D01*
G37*
G36*
X141136616Y-78028595D02*
G01*
X141165811Y-78037452D01*
X141192723Y-78051837D01*
X141216308Y-78071192D01*
X141235663Y-78094777D01*
X141250048Y-78121689D01*
X141258905Y-78150884D01*
X141262500Y-78187390D01*
X141262500Y-78812610D01*
X141258905Y-78849116D01*
X141250048Y-78878311D01*
X141235663Y-78905223D01*
X141216308Y-78928808D01*
X141192723Y-78948163D01*
X141165811Y-78962548D01*
X141136616Y-78971405D01*
X141100110Y-78975000D01*
X140549890Y-78975000D01*
X140513384Y-78971405D01*
X140484189Y-78962548D01*
X140457277Y-78948163D01*
X140433692Y-78928808D01*
X140414337Y-78905223D01*
X140399952Y-78878311D01*
X140391095Y-78849116D01*
X140387500Y-78812610D01*
X140387500Y-78187390D01*
X140391095Y-78150884D01*
X140399952Y-78121689D01*
X140414337Y-78094777D01*
X140433692Y-78071192D01*
X140457277Y-78051837D01*
X140484189Y-78037452D01*
X140513384Y-78028595D01*
X140549890Y-78025000D01*
X141100110Y-78025000D01*
X141136616Y-78028595D01*
X141136616Y-78028595D01*
G37*
G36*
X139561616Y-78028595D02*
G01*
X139590811Y-78037452D01*
X139617723Y-78051837D01*
X139641308Y-78071192D01*
X139660663Y-78094777D01*
X139675048Y-78121689D01*
X139683905Y-78150884D01*
X139687500Y-78187390D01*
X139687500Y-78812610D01*
X139683905Y-78849116D01*
X139675048Y-78878311D01*
X139660663Y-78905223D01*
X139641308Y-78928808D01*
X139617723Y-78948163D01*
X139590811Y-78962548D01*
X139561616Y-78971405D01*
X139525110Y-78975000D01*
X138974890Y-78975000D01*
X138938384Y-78971405D01*
X138909189Y-78962548D01*
X138882277Y-78948163D01*
X138858692Y-78928808D01*
X138839337Y-78905223D01*
X138824952Y-78878311D01*
X138816095Y-78849116D01*
X138812500Y-78812610D01*
X138812500Y-78187390D01*
X138816095Y-78150884D01*
X138824952Y-78121689D01*
X138839337Y-78094777D01*
X138858692Y-78071192D01*
X138882277Y-78051837D01*
X138909189Y-78037452D01*
X138938384Y-78028595D01*
X138974890Y-78025000D01*
X139525110Y-78025000D01*
X139561616Y-78028595D01*
X139561616Y-78028595D01*
G37*
G36*
X148349116Y-78028595D02*
G01*
X148378311Y-78037452D01*
X148405223Y-78051837D01*
X148428808Y-78071192D01*
X148448163Y-78094777D01*
X148462548Y-78121689D01*
X148471405Y-78150884D01*
X148475000Y-78187390D01*
X148475000Y-78812610D01*
X148471405Y-78849116D01*
X148462548Y-78878311D01*
X148448163Y-78905223D01*
X148428808Y-78928808D01*
X148405223Y-78948163D01*
X148378311Y-78962548D01*
X148349116Y-78971405D01*
X148312610Y-78975000D01*
X147762390Y-78975000D01*
X147725884Y-78971405D01*
X147696689Y-78962548D01*
X147669777Y-78948163D01*
X147646192Y-78928808D01*
X147626837Y-78905223D01*
X147612452Y-78878311D01*
X147603595Y-78849116D01*
X147600000Y-78812610D01*
X147600000Y-78187390D01*
X147603595Y-78150884D01*
X147612452Y-78121689D01*
X147626837Y-78094777D01*
X147646192Y-78071192D01*
X147669777Y-78051837D01*
X147696689Y-78037452D01*
X147725884Y-78028595D01*
X147762390Y-78025000D01*
X148312610Y-78025000D01*
X148349116Y-78028595D01*
X148349116Y-78028595D01*
G37*
G36*
X146774116Y-78028595D02*
G01*
X146803311Y-78037452D01*
X146830223Y-78051837D01*
X146853808Y-78071192D01*
X146873163Y-78094777D01*
X146887548Y-78121689D01*
X146896405Y-78150884D01*
X146900000Y-78187390D01*
X146900000Y-78812610D01*
X146896405Y-78849116D01*
X146887548Y-78878311D01*
X146873163Y-78905223D01*
X146853808Y-78928808D01*
X146830223Y-78948163D01*
X146803311Y-78962548D01*
X146774116Y-78971405D01*
X146737610Y-78975000D01*
X146187390Y-78975000D01*
X146150884Y-78971405D01*
X146121689Y-78962548D01*
X146094777Y-78948163D01*
X146071192Y-78928808D01*
X146051837Y-78905223D01*
X146037452Y-78878311D01*
X146028595Y-78849116D01*
X146025000Y-78812610D01*
X146025000Y-78187390D01*
X146028595Y-78150884D01*
X146037452Y-78121689D01*
X146051837Y-78094777D01*
X146071192Y-78071192D01*
X146094777Y-78051837D01*
X146121689Y-78037452D01*
X146150884Y-78028595D01*
X146187390Y-78025000D01*
X146737610Y-78025000D01*
X146774116Y-78028595D01*
X146774116Y-78028595D01*
G37*
G36*
X165645843Y-76769214D02*
G01*
X165645846Y-76769215D01*
X165645845Y-76769215D01*
X165736839Y-76806906D01*
X165754536Y-76818731D01*
X165818730Y-76861624D01*
X165888376Y-76931270D01*
X165896277Y-76943095D01*
X165921462Y-76980786D01*
X165943095Y-77013163D01*
X165980786Y-77104157D01*
X166000000Y-77200753D01*
X166000000Y-77299247D01*
X165980786Y-77395843D01*
X165980785Y-77395845D01*
X165943094Y-77486839D01*
X165888375Y-77568731D01*
X165818731Y-77638375D01*
X165736839Y-77693094D01*
X165736838Y-77693095D01*
X165736837Y-77693095D01*
X165645843Y-77730786D01*
X165549247Y-77750000D01*
X165450753Y-77750000D01*
X165354157Y-77730786D01*
X165263163Y-77693095D01*
X165263162Y-77693095D01*
X165263161Y-77693094D01*
X165181269Y-77638375D01*
X165111625Y-77568731D01*
X165056906Y-77486839D01*
X165019215Y-77395845D01*
X165019214Y-77395843D01*
X165000000Y-77299247D01*
X165000000Y-77200753D01*
X165019214Y-77104157D01*
X165056905Y-77013163D01*
X165078539Y-76980786D01*
X165103723Y-76943095D01*
X165111624Y-76931270D01*
X165181270Y-76861624D01*
X165245464Y-76818731D01*
X165263161Y-76806906D01*
X165354155Y-76769215D01*
X165354154Y-76769215D01*
X165354157Y-76769214D01*
X165450753Y-76750000D01*
X165549247Y-76750000D01*
X165645843Y-76769214D01*
X165645843Y-76769214D01*
G37*
G36*
X174395843Y-76769214D02*
G01*
X174395846Y-76769215D01*
X174395845Y-76769215D01*
X174486839Y-76806906D01*
X174504536Y-76818731D01*
X174568730Y-76861624D01*
X174638376Y-76931270D01*
X174646277Y-76943095D01*
X174671462Y-76980786D01*
X174693095Y-77013163D01*
X174730786Y-77104157D01*
X174750000Y-77200753D01*
X174750000Y-77299247D01*
X174730786Y-77395843D01*
X174730785Y-77395845D01*
X174693094Y-77486839D01*
X174638375Y-77568731D01*
X174568731Y-77638375D01*
X174486839Y-77693094D01*
X174486838Y-77693095D01*
X174486837Y-77693095D01*
X174395843Y-77730786D01*
X174299247Y-77750000D01*
X174200753Y-77750000D01*
X174104157Y-77730786D01*
X174013163Y-77693095D01*
X174013162Y-77693095D01*
X174013161Y-77693094D01*
X173931269Y-77638375D01*
X173861625Y-77568731D01*
X173806906Y-77486839D01*
X173769215Y-77395845D01*
X173769214Y-77395843D01*
X173750000Y-77299247D01*
X173750000Y-77200753D01*
X173769214Y-77104157D01*
X173806905Y-77013163D01*
X173828539Y-76980786D01*
X173853723Y-76943095D01*
X173861624Y-76931270D01*
X173931270Y-76861624D01*
X173995464Y-76818731D01*
X174013161Y-76806906D01*
X174104155Y-76769215D01*
X174104154Y-76769215D01*
X174104157Y-76769214D01*
X174200753Y-76750000D01*
X174299247Y-76750000D01*
X174395843Y-76769214D01*
X174395843Y-76769214D01*
G37*
G36*
X171890000Y-77100000D02*
G01*
X170190000Y-77100000D01*
X170190000Y-75400000D01*
X171890000Y-75400000D01*
X171890000Y-77100000D01*
X171890000Y-77100000D01*
G37*
G36*
X168666627Y-75412299D02*
G01*
X168746742Y-75436602D01*
X168826855Y-75460903D01*
X168826857Y-75460904D01*
X168974518Y-75539831D01*
X169103949Y-75646051D01*
X169210169Y-75775482D01*
X169278945Y-75904152D01*
X169289097Y-75923145D01*
X169299451Y-75957278D01*
X169337701Y-76083373D01*
X169354112Y-76250000D01*
X169337701Y-76416627D01*
X169313398Y-76496742D01*
X169291562Y-76568730D01*
X169289096Y-76576857D01*
X169210169Y-76724518D01*
X169103949Y-76853949D01*
X168974518Y-76960169D01*
X168875374Y-77013163D01*
X168826855Y-77039097D01*
X168746742Y-77063399D01*
X168666627Y-77087701D01*
X168541752Y-77100000D01*
X168458248Y-77100000D01*
X168333373Y-77087701D01*
X168253258Y-77063399D01*
X168173145Y-77039097D01*
X168124626Y-77013163D01*
X168025482Y-76960169D01*
X167896051Y-76853949D01*
X167789831Y-76724518D01*
X167710904Y-76576857D01*
X167708439Y-76568730D01*
X167686602Y-76496742D01*
X167662299Y-76416627D01*
X167645888Y-76250000D01*
X167662299Y-76083373D01*
X167700549Y-75957278D01*
X167710903Y-75923145D01*
X167721055Y-75904152D01*
X167789831Y-75775482D01*
X167896051Y-75646051D01*
X168025482Y-75539831D01*
X168173143Y-75460904D01*
X168173145Y-75460903D01*
X168253258Y-75436602D01*
X168333373Y-75412299D01*
X168458248Y-75400000D01*
X168541752Y-75400000D01*
X168666627Y-75412299D01*
X168666627Y-75412299D01*
G37*
G36*
X158145843Y-76019214D02*
G01*
X158236837Y-76056905D01*
X158236839Y-76056906D01*
X158276446Y-76083371D01*
X158318730Y-76111624D01*
X158388376Y-76181270D01*
X158443095Y-76263163D01*
X158480786Y-76354157D01*
X158500000Y-76450753D01*
X158500000Y-76549247D01*
X158480786Y-76645843D01*
X158459114Y-76698163D01*
X158443094Y-76736839D01*
X158421461Y-76769215D01*
X158396277Y-76806906D01*
X158388375Y-76818731D01*
X158318731Y-76888375D01*
X158236839Y-76943094D01*
X158236838Y-76943095D01*
X158236837Y-76943095D01*
X158145843Y-76980786D01*
X158049247Y-77000000D01*
X157950753Y-77000000D01*
X157854157Y-76980786D01*
X157763163Y-76943095D01*
X157763162Y-76943095D01*
X157763161Y-76943094D01*
X157681269Y-76888375D01*
X157611625Y-76818731D01*
X157603724Y-76806906D01*
X157578539Y-76769215D01*
X157556906Y-76736839D01*
X157540886Y-76698163D01*
X157519214Y-76645843D01*
X157500000Y-76549247D01*
X157500000Y-76450753D01*
X157519214Y-76354157D01*
X157556905Y-76263163D01*
X157611624Y-76181270D01*
X157681270Y-76111624D01*
X157723554Y-76083371D01*
X157763161Y-76056906D01*
X157763163Y-76056905D01*
X157854157Y-76019214D01*
X157950753Y-76000000D01*
X158049247Y-76000000D01*
X158145843Y-76019214D01*
X158145843Y-76019214D01*
G37*
G36*
X154099116Y-75891096D02*
G01*
X154128311Y-75899953D01*
X154155223Y-75914338D01*
X154178808Y-75933693D01*
X154198163Y-75957278D01*
X154212548Y-75984190D01*
X154221405Y-76013385D01*
X154225000Y-76049891D01*
X154225000Y-76600111D01*
X154221405Y-76636617D01*
X154212548Y-76665812D01*
X154198163Y-76692724D01*
X154178808Y-76716309D01*
X154155223Y-76735664D01*
X154128311Y-76750049D01*
X154099116Y-76758906D01*
X154062610Y-76762501D01*
X153437390Y-76762501D01*
X153400884Y-76758906D01*
X153371689Y-76750049D01*
X153344777Y-76735664D01*
X153321192Y-76716309D01*
X153301837Y-76692724D01*
X153287452Y-76665812D01*
X153278595Y-76636617D01*
X153275000Y-76600111D01*
X153275000Y-76049891D01*
X153278595Y-76013385D01*
X153287452Y-75984190D01*
X153301837Y-75957278D01*
X153321192Y-75933693D01*
X153344777Y-75914338D01*
X153371689Y-75899953D01*
X153400884Y-75891096D01*
X153437390Y-75887501D01*
X154062610Y-75887501D01*
X154099116Y-75891096D01*
X154099116Y-75891096D01*
G37*
G36*
X147395843Y-75769214D02*
G01*
X147410975Y-75775482D01*
X147486839Y-75806906D01*
X147528063Y-75834451D01*
X147568730Y-75861624D01*
X147638376Y-75931270D01*
X147655754Y-75957278D01*
X147692579Y-76012390D01*
X147693095Y-76013163D01*
X147730786Y-76104157D01*
X147750000Y-76200753D01*
X147750000Y-76299247D01*
X147730786Y-76395843D01*
X147693095Y-76486837D01*
X147638376Y-76568730D01*
X147568730Y-76638376D01*
X147534975Y-76660930D01*
X147486839Y-76693094D01*
X147486838Y-76693095D01*
X147486837Y-76693095D01*
X147395843Y-76730786D01*
X147299247Y-76750000D01*
X147200753Y-76750000D01*
X147104157Y-76730786D01*
X147013163Y-76693095D01*
X147013162Y-76693095D01*
X147013161Y-76693094D01*
X146965025Y-76660930D01*
X146931270Y-76638376D01*
X146861624Y-76568730D01*
X146806905Y-76486837D01*
X146769214Y-76395843D01*
X146750000Y-76299247D01*
X146750000Y-76200753D01*
X146769214Y-76104157D01*
X146806905Y-76013163D01*
X146807422Y-76012390D01*
X146844246Y-75957278D01*
X146861624Y-75931270D01*
X146931270Y-75861624D01*
X146971937Y-75834451D01*
X147013161Y-75806906D01*
X147089025Y-75775482D01*
X147104157Y-75769214D01*
X147200753Y-75750000D01*
X147299247Y-75750000D01*
X147395843Y-75769214D01*
X147395843Y-75769214D01*
G37*
G36*
X155849116Y-75853595D02*
G01*
X155878311Y-75862452D01*
X155905223Y-75876837D01*
X155928808Y-75896192D01*
X155948163Y-75919777D01*
X155962548Y-75946689D01*
X155971405Y-75975884D01*
X155975000Y-76012390D01*
X155975000Y-76562610D01*
X155971405Y-76599116D01*
X155962548Y-76628311D01*
X155948163Y-76655223D01*
X155928808Y-76678808D01*
X155905223Y-76698163D01*
X155878311Y-76712548D01*
X155849116Y-76721405D01*
X155812610Y-76725000D01*
X155187390Y-76725000D01*
X155150884Y-76721405D01*
X155121689Y-76712548D01*
X155094777Y-76698163D01*
X155071192Y-76678808D01*
X155051837Y-76655223D01*
X155037452Y-76628311D01*
X155028595Y-76599116D01*
X155025000Y-76562610D01*
X155025000Y-76012390D01*
X155028595Y-75975884D01*
X155037452Y-75946689D01*
X155051837Y-75919777D01*
X155071192Y-75896192D01*
X155094777Y-75876837D01*
X155121689Y-75862452D01*
X155150884Y-75853595D01*
X155187390Y-75850000D01*
X155812610Y-75850000D01*
X155849116Y-75853595D01*
X155849116Y-75853595D01*
G37*
G36*
X151849116Y-75853595D02*
G01*
X151878311Y-75862452D01*
X151905223Y-75876837D01*
X151928808Y-75896192D01*
X151948163Y-75919777D01*
X151962548Y-75946689D01*
X151971405Y-75975884D01*
X151975000Y-76012390D01*
X151975000Y-76562610D01*
X151971405Y-76599116D01*
X151962548Y-76628311D01*
X151948163Y-76655223D01*
X151928808Y-76678808D01*
X151905223Y-76698163D01*
X151878311Y-76712548D01*
X151849116Y-76721405D01*
X151812610Y-76725000D01*
X151187390Y-76725000D01*
X151150884Y-76721405D01*
X151121689Y-76712548D01*
X151094777Y-76698163D01*
X151071192Y-76678808D01*
X151051837Y-76655223D01*
X151037452Y-76628311D01*
X151028595Y-76599116D01*
X151025000Y-76562610D01*
X151025000Y-76012390D01*
X151028595Y-75975884D01*
X151037452Y-75946689D01*
X151051837Y-75919777D01*
X151071192Y-75896192D01*
X151094777Y-75876837D01*
X151121689Y-75862452D01*
X151150884Y-75853595D01*
X151187390Y-75850000D01*
X151812610Y-75850000D01*
X151849116Y-75853595D01*
X151849116Y-75853595D01*
G37*
G36*
X150099116Y-75853595D02*
G01*
X150128311Y-75862452D01*
X150155223Y-75876837D01*
X150178808Y-75896192D01*
X150198163Y-75919777D01*
X150212548Y-75946689D01*
X150221405Y-75975884D01*
X150225000Y-76012390D01*
X150225000Y-76562610D01*
X150221405Y-76599116D01*
X150212548Y-76628311D01*
X150198163Y-76655223D01*
X150178808Y-76678808D01*
X150155223Y-76698163D01*
X150128311Y-76712548D01*
X150099116Y-76721405D01*
X150062610Y-76725000D01*
X149437390Y-76725000D01*
X149400884Y-76721405D01*
X149371689Y-76712548D01*
X149344777Y-76698163D01*
X149321192Y-76678808D01*
X149301837Y-76655223D01*
X149287452Y-76628311D01*
X149278595Y-76599116D01*
X149275000Y-76562610D01*
X149275000Y-76012390D01*
X149278595Y-75975884D01*
X149287452Y-75946689D01*
X149301837Y-75919777D01*
X149321192Y-75896192D01*
X149344777Y-75876837D01*
X149371689Y-75862452D01*
X149400884Y-75853595D01*
X149437390Y-75850000D01*
X150062610Y-75850000D01*
X150099116Y-75853595D01*
X150099116Y-75853595D01*
G37*
G36*
X154099116Y-74316096D02*
G01*
X154128311Y-74324953D01*
X154155223Y-74339338D01*
X154178808Y-74358693D01*
X154198163Y-74382278D01*
X154212548Y-74409190D01*
X154221405Y-74438385D01*
X154225000Y-74474891D01*
X154225000Y-75025111D01*
X154221405Y-75061617D01*
X154212548Y-75090812D01*
X154198163Y-75117724D01*
X154178808Y-75141309D01*
X154155223Y-75160664D01*
X154128311Y-75175049D01*
X154099116Y-75183906D01*
X154062610Y-75187501D01*
X153437390Y-75187501D01*
X153400884Y-75183906D01*
X153371689Y-75175049D01*
X153344777Y-75160664D01*
X153321192Y-75141309D01*
X153301837Y-75117724D01*
X153287452Y-75090812D01*
X153278595Y-75061617D01*
X153275000Y-75025111D01*
X153275000Y-74474891D01*
X153278595Y-74438385D01*
X153287452Y-74409190D01*
X153301837Y-74382278D01*
X153321192Y-74358693D01*
X153344777Y-74339338D01*
X153371689Y-74324953D01*
X153400884Y-74316096D01*
X153437390Y-74312501D01*
X154062610Y-74312501D01*
X154099116Y-74316096D01*
X154099116Y-74316096D01*
G37*
G36*
X155849116Y-74278595D02*
G01*
X155878311Y-74287452D01*
X155905223Y-74301837D01*
X155928808Y-74321192D01*
X155948163Y-74344777D01*
X155962548Y-74371689D01*
X155971405Y-74400884D01*
X155975000Y-74437390D01*
X155975000Y-74987610D01*
X155971405Y-75024116D01*
X155962548Y-75053311D01*
X155948163Y-75080223D01*
X155928808Y-75103808D01*
X155905223Y-75123163D01*
X155878311Y-75137548D01*
X155849116Y-75146405D01*
X155812610Y-75150000D01*
X155187390Y-75150000D01*
X155150884Y-75146405D01*
X155121689Y-75137548D01*
X155094777Y-75123163D01*
X155071192Y-75103808D01*
X155051837Y-75080223D01*
X155037452Y-75053311D01*
X155028595Y-75024116D01*
X155025000Y-74987610D01*
X155025000Y-74437390D01*
X155028595Y-74400884D01*
X155037452Y-74371689D01*
X155051837Y-74344777D01*
X155071192Y-74321192D01*
X155094777Y-74301837D01*
X155121689Y-74287452D01*
X155150884Y-74278595D01*
X155187390Y-74275000D01*
X155812610Y-74275000D01*
X155849116Y-74278595D01*
X155849116Y-74278595D01*
G37*
G36*
X151849116Y-74278595D02*
G01*
X151878311Y-74287452D01*
X151905223Y-74301837D01*
X151928808Y-74321192D01*
X151948163Y-74344777D01*
X151962548Y-74371689D01*
X151971405Y-74400884D01*
X151975000Y-74437390D01*
X151975000Y-74987610D01*
X151971405Y-75024116D01*
X151962548Y-75053311D01*
X151948163Y-75080223D01*
X151928808Y-75103808D01*
X151905223Y-75123163D01*
X151878311Y-75137548D01*
X151849116Y-75146405D01*
X151812610Y-75150000D01*
X151187390Y-75150000D01*
X151150884Y-75146405D01*
X151121689Y-75137548D01*
X151094777Y-75123163D01*
X151071192Y-75103808D01*
X151051837Y-75080223D01*
X151037452Y-75053311D01*
X151028595Y-75024116D01*
X151025000Y-74987610D01*
X151025000Y-74437390D01*
X151028595Y-74400884D01*
X151037452Y-74371689D01*
X151051837Y-74344777D01*
X151071192Y-74321192D01*
X151094777Y-74301837D01*
X151121689Y-74287452D01*
X151150884Y-74278595D01*
X151187390Y-74275000D01*
X151812610Y-74275000D01*
X151849116Y-74278595D01*
X151849116Y-74278595D01*
G37*
G36*
X150099116Y-74278595D02*
G01*
X150128311Y-74287452D01*
X150155223Y-74301837D01*
X150178808Y-74321192D01*
X150198163Y-74344777D01*
X150212548Y-74371689D01*
X150221405Y-74400884D01*
X150225000Y-74437390D01*
X150225000Y-74987610D01*
X150221405Y-75024116D01*
X150212548Y-75053311D01*
X150198163Y-75080223D01*
X150178808Y-75103808D01*
X150155223Y-75123163D01*
X150128311Y-75137548D01*
X150099116Y-75146405D01*
X150062610Y-75150000D01*
X149437390Y-75150000D01*
X149400884Y-75146405D01*
X149371689Y-75137548D01*
X149344777Y-75123163D01*
X149321192Y-75103808D01*
X149301837Y-75080223D01*
X149287452Y-75053311D01*
X149278595Y-75024116D01*
X149275000Y-74987610D01*
X149275000Y-74437390D01*
X149278595Y-74400884D01*
X149287452Y-74371689D01*
X149301837Y-74344777D01*
X149321192Y-74321192D01*
X149344777Y-74301837D01*
X149371689Y-74287452D01*
X149400884Y-74278595D01*
X149437390Y-74275000D01*
X150062610Y-74275000D01*
X150099116Y-74278595D01*
X150099116Y-74278595D01*
G37*
M02*
