G04 #@! TF.GenerationSoftware,KiCad,Pcbnew,(5.0.1-3-g963ef8bb5)*
G04 #@! TF.CreationDate,2019-06-08T22:51:48-04:00*
G04 #@! TF.ProjectId,EFCv2,45464376322E6B696361645F70636200,rev?*
G04 #@! TF.SameCoordinates,Original*
G04 #@! TF.FileFunction,Soldermask,Top*
G04 #@! TF.FilePolarity,Negative*
%FSLAX46Y46*%
G04 Gerber Fmt 4.6, Leading zero omitted, Abs format (unit mm)*
G04 Created by KiCad (PCBNEW (5.0.1-3-g963ef8bb5)) date Saturday, June 08, 2019 at 10:51:48 pm*
%MOMM*%
%LPD*%
G01*
G04 APERTURE LIST*
%ADD10C,0.100000*%
G04 APERTURE END LIST*
D10*
G36*
X84286703Y-108443486D02*
X84577883Y-108564097D01*
X84839944Y-108739201D01*
X85062799Y-108962056D01*
X85237903Y-109224117D01*
X85358514Y-109515297D01*
X85420000Y-109824412D01*
X85420000Y-110139588D01*
X85358514Y-110448703D01*
X85237903Y-110739883D01*
X85062799Y-111001944D01*
X84839944Y-111224799D01*
X84577883Y-111399903D01*
X84286703Y-111520514D01*
X83977588Y-111582000D01*
X83662412Y-111582000D01*
X83353297Y-111520514D01*
X83062117Y-111399903D01*
X82800056Y-111224799D01*
X82577201Y-111001944D01*
X82402097Y-110739883D01*
X82281486Y-110448703D01*
X82220000Y-110139588D01*
X82220000Y-109824412D01*
X82281486Y-109515297D01*
X82402097Y-109224117D01*
X82577201Y-108962056D01*
X82800056Y-108739201D01*
X83062117Y-108564097D01*
X83353297Y-108443486D01*
X83662412Y-108382000D01*
X83977588Y-108382000D01*
X84286703Y-108443486D01*
X84286703Y-108443486D01*
G37*
G36*
X93617845Y-104929215D02*
X93708839Y-104966906D01*
X93789640Y-105020896D01*
X93790734Y-105021627D01*
X93860373Y-105091266D01*
X93915095Y-105173163D01*
X93952785Y-105264155D01*
X93972000Y-105360755D01*
X93972000Y-105459245D01*
X93952785Y-105555845D01*
X93915095Y-105646837D01*
X93860373Y-105728734D01*
X93790734Y-105798373D01*
X93790731Y-105798375D01*
X93708839Y-105853094D01*
X93617845Y-105890785D01*
X93521246Y-105910000D01*
X93422754Y-105910000D01*
X93326155Y-105890785D01*
X93235161Y-105853094D01*
X93153269Y-105798375D01*
X93153266Y-105798373D01*
X93083627Y-105728734D01*
X93028905Y-105646837D01*
X92991215Y-105555845D01*
X92972000Y-105459245D01*
X92972000Y-105360755D01*
X92991215Y-105264155D01*
X93028905Y-105173163D01*
X93083627Y-105091266D01*
X93153266Y-105021627D01*
X93154360Y-105020896D01*
X93235161Y-104966906D01*
X93326155Y-104929215D01*
X93422754Y-104910000D01*
X93521246Y-104910000D01*
X93617845Y-104929215D01*
X93617845Y-104929215D01*
G37*
G36*
X91585845Y-103151215D02*
X91676839Y-103188906D01*
X91757640Y-103242896D01*
X91758734Y-103243627D01*
X91828373Y-103313266D01*
X91883095Y-103395163D01*
X91920785Y-103486155D01*
X91940000Y-103582755D01*
X91940000Y-103681245D01*
X91920785Y-103777845D01*
X91883095Y-103868837D01*
X91828373Y-103950734D01*
X91758734Y-104020373D01*
X91758731Y-104020375D01*
X91676839Y-104075094D01*
X91585845Y-104112785D01*
X91489246Y-104132000D01*
X91390754Y-104132000D01*
X91294155Y-104112785D01*
X91203161Y-104075094D01*
X91121269Y-104020375D01*
X91121266Y-104020373D01*
X91051627Y-103950734D01*
X90996905Y-103868837D01*
X90959215Y-103777845D01*
X90940000Y-103681245D01*
X90940000Y-103582755D01*
X90959215Y-103486155D01*
X90996905Y-103395163D01*
X91051627Y-103313266D01*
X91121266Y-103243627D01*
X91122360Y-103242896D01*
X91203161Y-103188906D01*
X91294155Y-103151215D01*
X91390754Y-103132000D01*
X91489246Y-103132000D01*
X91585845Y-103151215D01*
X91585845Y-103151215D01*
G37*
G36*
X80399521Y-100734586D02*
X80563309Y-100802429D01*
X80710720Y-100900926D01*
X80836074Y-101026280D01*
X80934571Y-101173691D01*
X81002414Y-101337479D01*
X81037000Y-101511356D01*
X81037000Y-101688644D01*
X81002414Y-101862521D01*
X80934571Y-102026309D01*
X80836074Y-102173720D01*
X80710720Y-102299074D01*
X80563309Y-102397571D01*
X80399521Y-102465414D01*
X80225644Y-102500000D01*
X80048356Y-102500000D01*
X79874479Y-102465414D01*
X79710691Y-102397571D01*
X79563280Y-102299074D01*
X79437926Y-102173720D01*
X79339429Y-102026309D01*
X79271586Y-101862521D01*
X79237000Y-101688644D01*
X79237000Y-101511356D01*
X79271586Y-101337479D01*
X79339429Y-101173691D01*
X79437926Y-101026280D01*
X79563280Y-100900926D01*
X79710691Y-100802429D01*
X79874479Y-100734586D01*
X80048356Y-100700000D01*
X80225644Y-100700000D01*
X80399521Y-100734586D01*
X80399521Y-100734586D01*
G37*
G36*
X89789794Y-101355164D02*
X89880788Y-101392855D01*
X89961589Y-101446845D01*
X89962683Y-101447576D01*
X90032322Y-101517215D01*
X90087044Y-101599112D01*
X90124734Y-101690104D01*
X90143949Y-101786704D01*
X90143949Y-101885194D01*
X90124734Y-101981794D01*
X90087044Y-102072786D01*
X90032322Y-102154683D01*
X89962683Y-102224322D01*
X89962680Y-102224324D01*
X89880788Y-102279043D01*
X89789794Y-102316734D01*
X89693195Y-102335949D01*
X89594703Y-102335949D01*
X89498104Y-102316734D01*
X89407110Y-102279043D01*
X89325218Y-102224324D01*
X89325215Y-102224322D01*
X89255576Y-102154683D01*
X89200854Y-102072786D01*
X89163164Y-101981794D01*
X89143949Y-101885194D01*
X89143949Y-101786704D01*
X89163164Y-101690104D01*
X89200854Y-101599112D01*
X89255576Y-101517215D01*
X89325215Y-101447576D01*
X89326309Y-101446845D01*
X89407110Y-101392855D01*
X89498104Y-101355164D01*
X89594703Y-101335949D01*
X89693195Y-101335949D01*
X89789794Y-101355164D01*
X89789794Y-101355164D01*
G37*
G36*
X102681765Y-100289323D02*
X101131765Y-100289323D01*
X101131765Y-99689323D01*
X102681765Y-99689323D01*
X102681765Y-100289323D01*
X102681765Y-100289323D01*
G37*
G36*
X97281765Y-100289323D02*
X95731765Y-100289323D01*
X95731765Y-99689323D01*
X97281765Y-99689323D01*
X97281765Y-100289323D01*
X97281765Y-100289323D01*
G37*
G36*
X81037000Y-99960000D02*
X79237000Y-99960000D01*
X79237000Y-98160000D01*
X81037000Y-98160000D01*
X81037000Y-99960000D01*
X81037000Y-99960000D01*
G37*
G36*
X76993964Y-98188837D02*
X77025528Y-98198412D01*
X77054617Y-98213960D01*
X77080114Y-98234886D01*
X77101040Y-98260383D01*
X77116588Y-98289472D01*
X77126163Y-98321036D01*
X77130000Y-98359998D01*
X77130000Y-99760002D01*
X77126163Y-99798964D01*
X77116588Y-99830528D01*
X77101040Y-99859617D01*
X77080114Y-99885114D01*
X77054617Y-99906040D01*
X77025528Y-99921588D01*
X76993964Y-99931163D01*
X76955002Y-99935000D01*
X75879998Y-99935000D01*
X75841036Y-99931163D01*
X75809472Y-99921588D01*
X75780383Y-99906040D01*
X75754886Y-99885114D01*
X75733960Y-99859617D01*
X75718412Y-99830528D01*
X75708837Y-99798964D01*
X75705000Y-99760002D01*
X75705000Y-98359998D01*
X75708837Y-98321036D01*
X75718412Y-98289472D01*
X75733960Y-98260383D01*
X75754886Y-98234886D01*
X75780383Y-98213960D01*
X75809472Y-98198412D01*
X75841036Y-98188837D01*
X75879998Y-98185000D01*
X76955002Y-98185000D01*
X76993964Y-98188837D01*
X76993964Y-98188837D01*
G37*
G36*
X74018964Y-98188837D02*
X74050528Y-98198412D01*
X74079617Y-98213960D01*
X74105114Y-98234886D01*
X74126040Y-98260383D01*
X74141588Y-98289472D01*
X74151163Y-98321036D01*
X74155000Y-98359998D01*
X74155000Y-99760002D01*
X74151163Y-99798964D01*
X74141588Y-99830528D01*
X74126040Y-99859617D01*
X74105114Y-99885114D01*
X74079617Y-99906040D01*
X74050528Y-99921588D01*
X74018964Y-99931163D01*
X73980002Y-99935000D01*
X72904998Y-99935000D01*
X72866036Y-99931163D01*
X72834472Y-99921588D01*
X72805383Y-99906040D01*
X72779886Y-99885114D01*
X72758960Y-99859617D01*
X72743412Y-99830528D01*
X72733837Y-99798964D01*
X72730000Y-99760002D01*
X72730000Y-98359998D01*
X72733837Y-98321036D01*
X72743412Y-98289472D01*
X72758960Y-98260383D01*
X72779886Y-98234886D01*
X72805383Y-98213960D01*
X72834472Y-98198412D01*
X72866036Y-98188837D01*
X72904998Y-98185000D01*
X73980002Y-98185000D01*
X74018964Y-98188837D01*
X74018964Y-98188837D01*
G37*
G36*
X102681765Y-99019323D02*
X101131765Y-99019323D01*
X101131765Y-98419323D01*
X102681765Y-98419323D01*
X102681765Y-99019323D01*
X102681765Y-99019323D01*
G37*
G36*
X97281765Y-99019323D02*
X95731765Y-99019323D01*
X95731765Y-98419323D01*
X97281765Y-98419323D01*
X97281765Y-99019323D01*
X97281765Y-99019323D01*
G37*
G36*
X84219845Y-97817215D02*
X84310839Y-97854906D01*
X84391640Y-97908896D01*
X84392734Y-97909627D01*
X84462373Y-97979266D01*
X84517095Y-98061163D01*
X84554785Y-98152155D01*
X84574000Y-98248755D01*
X84574000Y-98347245D01*
X84554785Y-98443845D01*
X84517095Y-98534837D01*
X84462373Y-98616734D01*
X84392734Y-98686373D01*
X84392731Y-98686375D01*
X84310839Y-98741094D01*
X84219845Y-98778785D01*
X84123246Y-98798000D01*
X84024754Y-98798000D01*
X83928155Y-98778785D01*
X83837161Y-98741094D01*
X83755269Y-98686375D01*
X83755266Y-98686373D01*
X83685627Y-98616734D01*
X83630905Y-98534837D01*
X83593215Y-98443845D01*
X83574000Y-98347245D01*
X83574000Y-98248755D01*
X83593215Y-98152155D01*
X83630905Y-98061163D01*
X83685627Y-97979266D01*
X83755266Y-97909627D01*
X83756360Y-97908896D01*
X83837161Y-97854906D01*
X83928155Y-97817215D01*
X84024754Y-97798000D01*
X84123246Y-97798000D01*
X84219845Y-97817215D01*
X84219845Y-97817215D01*
G37*
G36*
X97281765Y-97749323D02*
X95731765Y-97749323D01*
X95731765Y-97149323D01*
X97281765Y-97149323D01*
X97281765Y-97749323D01*
X97281765Y-97749323D01*
G37*
G36*
X102681765Y-97749323D02*
X101131765Y-97749323D01*
X101131765Y-97149323D01*
X102681765Y-97149323D01*
X102681765Y-97749323D01*
X102681765Y-97749323D01*
G37*
G36*
X80399521Y-95273586D02*
X80563309Y-95341429D01*
X80710720Y-95439926D01*
X80836074Y-95565280D01*
X80934571Y-95712691D01*
X81002414Y-95876479D01*
X81037000Y-96050356D01*
X81037000Y-96227644D01*
X81002414Y-96401521D01*
X80934571Y-96565309D01*
X80836074Y-96712720D01*
X80710720Y-96838074D01*
X80563309Y-96936571D01*
X80399521Y-97004414D01*
X80225644Y-97039000D01*
X80048356Y-97039000D01*
X79874479Y-97004414D01*
X79710691Y-96936571D01*
X79563280Y-96838074D01*
X79437926Y-96712720D01*
X79339429Y-96565309D01*
X79271586Y-96401521D01*
X79237000Y-96227644D01*
X79237000Y-96050356D01*
X79271586Y-95876479D01*
X79339429Y-95712691D01*
X79437926Y-95565280D01*
X79563280Y-95439926D01*
X79710691Y-95341429D01*
X79874479Y-95273586D01*
X80048356Y-95239000D01*
X80225644Y-95239000D01*
X80399521Y-95273586D01*
X80399521Y-95273586D01*
G37*
G36*
X77030464Y-95267837D02*
X77062028Y-95277412D01*
X77091117Y-95292960D01*
X77116614Y-95313886D01*
X77137540Y-95339383D01*
X77153088Y-95368472D01*
X77162663Y-95400036D01*
X77166500Y-95438998D01*
X77166500Y-96839002D01*
X77162663Y-96877964D01*
X77153088Y-96909528D01*
X77137540Y-96938617D01*
X77116614Y-96964114D01*
X77091117Y-96985040D01*
X77062028Y-97000588D01*
X77030464Y-97010163D01*
X76991502Y-97014000D01*
X75916498Y-97014000D01*
X75877536Y-97010163D01*
X75845972Y-97000588D01*
X75816883Y-96985040D01*
X75791386Y-96964114D01*
X75770460Y-96938617D01*
X75754912Y-96909528D01*
X75745337Y-96877964D01*
X75741500Y-96839002D01*
X75741500Y-95438998D01*
X75745337Y-95400036D01*
X75754912Y-95368472D01*
X75770460Y-95339383D01*
X75791386Y-95313886D01*
X75816883Y-95292960D01*
X75845972Y-95277412D01*
X75877536Y-95267837D01*
X75916498Y-95264000D01*
X76991502Y-95264000D01*
X77030464Y-95267837D01*
X77030464Y-95267837D01*
G37*
G36*
X74055464Y-95267837D02*
X74087028Y-95277412D01*
X74116117Y-95292960D01*
X74141614Y-95313886D01*
X74162540Y-95339383D01*
X74178088Y-95368472D01*
X74187663Y-95400036D01*
X74191500Y-95438998D01*
X74191500Y-96839002D01*
X74187663Y-96877964D01*
X74178088Y-96909528D01*
X74162540Y-96938617D01*
X74141614Y-96964114D01*
X74116117Y-96985040D01*
X74087028Y-97000588D01*
X74055464Y-97010163D01*
X74016502Y-97014000D01*
X72941498Y-97014000D01*
X72902536Y-97010163D01*
X72870972Y-97000588D01*
X72841883Y-96985040D01*
X72816386Y-96964114D01*
X72795460Y-96938617D01*
X72779912Y-96909528D01*
X72770337Y-96877964D01*
X72766500Y-96839002D01*
X72766500Y-95438998D01*
X72770337Y-95400036D01*
X72779912Y-95368472D01*
X72795460Y-95339383D01*
X72816386Y-95313886D01*
X72841883Y-95292960D01*
X72870972Y-95277412D01*
X72902536Y-95267837D01*
X72941498Y-95264000D01*
X74016502Y-95264000D01*
X74055464Y-95267837D01*
X74055464Y-95267837D01*
G37*
G36*
X97281765Y-96479323D02*
X95731765Y-96479323D01*
X95731765Y-95879323D01*
X97281765Y-95879323D01*
X97281765Y-96479323D01*
X97281765Y-96479323D01*
G37*
G36*
X102681765Y-96479323D02*
X101131765Y-96479323D01*
X101131765Y-95879323D01*
X102681765Y-95879323D01*
X102681765Y-96479323D01*
X102681765Y-96479323D01*
G37*
G36*
X93496500Y-96163500D02*
X91796500Y-96163500D01*
X91796500Y-94463500D01*
X93496500Y-94463500D01*
X93496500Y-96163500D01*
X93496500Y-96163500D01*
G37*
G36*
X90273130Y-94475799D02*
X90433355Y-94524403D01*
X90581020Y-94603331D01*
X90710449Y-94709551D01*
X90816669Y-94838980D01*
X90895597Y-94986645D01*
X90944201Y-95146870D01*
X90960612Y-95313500D01*
X90944201Y-95480130D01*
X90895597Y-95640355D01*
X90816669Y-95788020D01*
X90710449Y-95917449D01*
X90581020Y-96023669D01*
X90433355Y-96102597D01*
X90273130Y-96151201D01*
X90148252Y-96163500D01*
X90064748Y-96163500D01*
X89939870Y-96151201D01*
X89779645Y-96102597D01*
X89631980Y-96023669D01*
X89502551Y-95917449D01*
X89396331Y-95788020D01*
X89317403Y-95640355D01*
X89268799Y-95480130D01*
X89252388Y-95313500D01*
X89268799Y-95146870D01*
X89317403Y-94986645D01*
X89396331Y-94838980D01*
X89502551Y-94709551D01*
X89631980Y-94603331D01*
X89779645Y-94524403D01*
X89939870Y-94475799D01*
X90064748Y-94463500D01*
X90148252Y-94463500D01*
X90273130Y-94475799D01*
X90273130Y-94475799D01*
G37*
G36*
X87733130Y-94475799D02*
X87893355Y-94524403D01*
X88041020Y-94603331D01*
X88170449Y-94709551D01*
X88276669Y-94838980D01*
X88355597Y-94986645D01*
X88404201Y-95146870D01*
X88420612Y-95313500D01*
X88404201Y-95480130D01*
X88355597Y-95640355D01*
X88276669Y-95788020D01*
X88170449Y-95917449D01*
X88041020Y-96023669D01*
X87893355Y-96102597D01*
X87733130Y-96151201D01*
X87608252Y-96163500D01*
X87524748Y-96163500D01*
X87399870Y-96151201D01*
X87239645Y-96102597D01*
X87091980Y-96023669D01*
X86962551Y-95917449D01*
X86856331Y-95788020D01*
X86777403Y-95640355D01*
X86728799Y-95480130D01*
X86712388Y-95313500D01*
X86728799Y-95146870D01*
X86777403Y-94986645D01*
X86856331Y-94838980D01*
X86962551Y-94709551D01*
X87091980Y-94603331D01*
X87239645Y-94524403D01*
X87399870Y-94475799D01*
X87524748Y-94463500D01*
X87608252Y-94463500D01*
X87733130Y-94475799D01*
X87733130Y-94475799D01*
G37*
G36*
X81037000Y-94499000D02*
X79237000Y-94499000D01*
X79237000Y-92699000D01*
X81037000Y-92699000D01*
X81037000Y-94499000D01*
X81037000Y-94499000D01*
G37*
G36*
X102450229Y-92641160D02*
X102481793Y-92650735D01*
X102510882Y-92666283D01*
X102536379Y-92687209D01*
X102557305Y-92712706D01*
X102572853Y-92741795D01*
X102582428Y-92773359D01*
X102586265Y-92812321D01*
X102586265Y-94212325D01*
X102582428Y-94251287D01*
X102572853Y-94282851D01*
X102557305Y-94311940D01*
X102536379Y-94337437D01*
X102510882Y-94358363D01*
X102481793Y-94373911D01*
X102450229Y-94383486D01*
X102411267Y-94387323D01*
X101336263Y-94387323D01*
X101297301Y-94383486D01*
X101265737Y-94373911D01*
X101236648Y-94358363D01*
X101211151Y-94337437D01*
X101190225Y-94311940D01*
X101174677Y-94282851D01*
X101165102Y-94251287D01*
X101161265Y-94212325D01*
X101161265Y-92812321D01*
X101165102Y-92773359D01*
X101174677Y-92741795D01*
X101190225Y-92712706D01*
X101211151Y-92687209D01*
X101236648Y-92666283D01*
X101265737Y-92650735D01*
X101297301Y-92641160D01*
X101336263Y-92637323D01*
X102411267Y-92637323D01*
X102450229Y-92641160D01*
X102450229Y-92641160D01*
G37*
G36*
X105425229Y-92641160D02*
X105456793Y-92650735D01*
X105485882Y-92666283D01*
X105511379Y-92687209D01*
X105532305Y-92712706D01*
X105547853Y-92741795D01*
X105557428Y-92773359D01*
X105561265Y-92812321D01*
X105561265Y-94212325D01*
X105557428Y-94251287D01*
X105547853Y-94282851D01*
X105532305Y-94311940D01*
X105511379Y-94337437D01*
X105485882Y-94358363D01*
X105456793Y-94373911D01*
X105425229Y-94383486D01*
X105386267Y-94387323D01*
X104311263Y-94387323D01*
X104272301Y-94383486D01*
X104240737Y-94373911D01*
X104211648Y-94358363D01*
X104186151Y-94337437D01*
X104165225Y-94311940D01*
X104149677Y-94282851D01*
X104140102Y-94251287D01*
X104136265Y-94212325D01*
X104136265Y-92812321D01*
X104140102Y-92773359D01*
X104149677Y-92741795D01*
X104165225Y-92712706D01*
X104186151Y-92687209D01*
X104211648Y-92666283D01*
X104240737Y-92650735D01*
X104272301Y-92641160D01*
X104311263Y-92637323D01*
X105386267Y-92637323D01*
X105425229Y-92641160D01*
X105425229Y-92641160D01*
G37*
G36*
X92813130Y-91935799D02*
X92973355Y-91984403D01*
X93121020Y-92063331D01*
X93250449Y-92169551D01*
X93356669Y-92298980D01*
X93435597Y-92446645D01*
X93484201Y-92606870D01*
X93500612Y-92773500D01*
X93484201Y-92940130D01*
X93435597Y-93100355D01*
X93356669Y-93248020D01*
X93250449Y-93377449D01*
X93121020Y-93483669D01*
X92973355Y-93562597D01*
X92813130Y-93611201D01*
X92688252Y-93623500D01*
X92604748Y-93623500D01*
X92479870Y-93611201D01*
X92319645Y-93562597D01*
X92171980Y-93483669D01*
X92042551Y-93377449D01*
X91936331Y-93248020D01*
X91857403Y-93100355D01*
X91808799Y-92940130D01*
X91792388Y-92773500D01*
X91808799Y-92606870D01*
X91857403Y-92446645D01*
X91936331Y-92298980D01*
X92042551Y-92169551D01*
X92171980Y-92063331D01*
X92319645Y-91984403D01*
X92479870Y-91935799D01*
X92604748Y-91923500D01*
X92688252Y-91923500D01*
X92813130Y-91935799D01*
X92813130Y-91935799D01*
G37*
G36*
X90273130Y-91935799D02*
X90433355Y-91984403D01*
X90581020Y-92063331D01*
X90710449Y-92169551D01*
X90816669Y-92298980D01*
X90895597Y-92446645D01*
X90944201Y-92606870D01*
X90960612Y-92773500D01*
X90944201Y-92940130D01*
X90895597Y-93100355D01*
X90816669Y-93248020D01*
X90710449Y-93377449D01*
X90581020Y-93483669D01*
X90433355Y-93562597D01*
X90273130Y-93611201D01*
X90148252Y-93623500D01*
X90064748Y-93623500D01*
X89939870Y-93611201D01*
X89779645Y-93562597D01*
X89631980Y-93483669D01*
X89502551Y-93377449D01*
X89396331Y-93248020D01*
X89317403Y-93100355D01*
X89268799Y-92940130D01*
X89252388Y-92773500D01*
X89268799Y-92606870D01*
X89317403Y-92446645D01*
X89396331Y-92298980D01*
X89502551Y-92169551D01*
X89631980Y-92063331D01*
X89779645Y-91984403D01*
X89939870Y-91935799D01*
X90064748Y-91923500D01*
X90148252Y-91923500D01*
X90273130Y-91935799D01*
X90273130Y-91935799D01*
G37*
G36*
X87733130Y-91935799D02*
X87893355Y-91984403D01*
X88041020Y-92063331D01*
X88170449Y-92169551D01*
X88276669Y-92298980D01*
X88355597Y-92446645D01*
X88404201Y-92606870D01*
X88420612Y-92773500D01*
X88404201Y-92940130D01*
X88355597Y-93100355D01*
X88276669Y-93248020D01*
X88170449Y-93377449D01*
X88041020Y-93483669D01*
X87893355Y-93562597D01*
X87733130Y-93611201D01*
X87608252Y-93623500D01*
X87524748Y-93623500D01*
X87399870Y-93611201D01*
X87239645Y-93562597D01*
X87091980Y-93483669D01*
X86962551Y-93377449D01*
X86856331Y-93248020D01*
X86777403Y-93100355D01*
X86728799Y-92940130D01*
X86712388Y-92773500D01*
X86728799Y-92606870D01*
X86777403Y-92446645D01*
X86856331Y-92298980D01*
X86962551Y-92169551D01*
X87091980Y-92063331D01*
X87239645Y-91984403D01*
X87399870Y-91935799D01*
X87524748Y-91923500D01*
X87608252Y-91923500D01*
X87733130Y-91935799D01*
X87733130Y-91935799D01*
G37*
G36*
X97766964Y-89461337D02*
X97798528Y-89470912D01*
X97827617Y-89486460D01*
X97853114Y-89507386D01*
X97874040Y-89532883D01*
X97889588Y-89561972D01*
X97899163Y-89593536D01*
X97903000Y-89632498D01*
X97903000Y-90707502D01*
X97899163Y-90746464D01*
X97889588Y-90778028D01*
X97874040Y-90807117D01*
X97853114Y-90832614D01*
X97827617Y-90853540D01*
X97798528Y-90869088D01*
X97766964Y-90878663D01*
X97728002Y-90882500D01*
X96327998Y-90882500D01*
X96289036Y-90878663D01*
X96257472Y-90869088D01*
X96228383Y-90853540D01*
X96202886Y-90832614D01*
X96181960Y-90807117D01*
X96166412Y-90778028D01*
X96156837Y-90746464D01*
X96153000Y-90707502D01*
X96153000Y-89632498D01*
X96156837Y-89593536D01*
X96166412Y-89561972D01*
X96181960Y-89532883D01*
X96202886Y-89507386D01*
X96228383Y-89486460D01*
X96257472Y-89470912D01*
X96289036Y-89461337D01*
X96327998Y-89457500D01*
X97728002Y-89457500D01*
X97766964Y-89461337D01*
X97766964Y-89461337D01*
G37*
G36*
X101026968Y-88953524D02*
X101039218Y-88954126D01*
X101057637Y-88954126D01*
X101069915Y-88955335D01*
X101153997Y-88972060D01*
X101165813Y-88975645D01*
X101245020Y-89008453D01*
X101255905Y-89014270D01*
X101327190Y-89061902D01*
X101336738Y-89069738D01*
X101397350Y-89130350D01*
X101405186Y-89139898D01*
X101452818Y-89211183D01*
X101458635Y-89222068D01*
X101491443Y-89301275D01*
X101495028Y-89313091D01*
X101511753Y-89397173D01*
X101512962Y-89409451D01*
X101512962Y-89427870D01*
X101513564Y-89440120D01*
X101515370Y-89458460D01*
X101515370Y-89946186D01*
X101513564Y-89964526D01*
X101512962Y-89976776D01*
X101512962Y-89995195D01*
X101511753Y-90007473D01*
X101495028Y-90091555D01*
X101491443Y-90103371D01*
X101458635Y-90182578D01*
X101452818Y-90193463D01*
X101405186Y-90264748D01*
X101397350Y-90274296D01*
X101336738Y-90334908D01*
X101327190Y-90342744D01*
X101255905Y-90390376D01*
X101245020Y-90396193D01*
X101165813Y-90429001D01*
X101153997Y-90432586D01*
X101069915Y-90449311D01*
X101057637Y-90450520D01*
X101039218Y-90450520D01*
X101026968Y-90451122D01*
X101008628Y-90452928D01*
X100520902Y-90452928D01*
X100514766Y-90452324D01*
X100514764Y-90452322D01*
X100514160Y-90446186D01*
X100514160Y-88958460D01*
X100514764Y-88952324D01*
X100514765Y-88952323D01*
X100514767Y-88952322D01*
X100514766Y-88952322D01*
X100520902Y-88951718D01*
X101008628Y-88951718D01*
X101026968Y-88953524D01*
X101026968Y-88953524D01*
G37*
G36*
X100214764Y-88952322D02*
X100214763Y-88952322D01*
X100214765Y-88952323D01*
X100214766Y-88952324D01*
X100215370Y-88958460D01*
X100215370Y-90446186D01*
X100214766Y-90452322D01*
X100214764Y-90452324D01*
X100208628Y-90452928D01*
X99720902Y-90452928D01*
X99702562Y-90451122D01*
X99690312Y-90450520D01*
X99671893Y-90450520D01*
X99659615Y-90449311D01*
X99575533Y-90432586D01*
X99563717Y-90429001D01*
X99484510Y-90396193D01*
X99473625Y-90390376D01*
X99402340Y-90342744D01*
X99392792Y-90334908D01*
X99332180Y-90274296D01*
X99324344Y-90264748D01*
X99276712Y-90193463D01*
X99270895Y-90182578D01*
X99238087Y-90103371D01*
X99234502Y-90091555D01*
X99217777Y-90007473D01*
X99216568Y-89995195D01*
X99216568Y-89976776D01*
X99215966Y-89964526D01*
X99214160Y-89946186D01*
X99214160Y-89458460D01*
X99215966Y-89440120D01*
X99216568Y-89427870D01*
X99216568Y-89409451D01*
X99217777Y-89397173D01*
X99234502Y-89313091D01*
X99238087Y-89301275D01*
X99270895Y-89222068D01*
X99276712Y-89211183D01*
X99324344Y-89139898D01*
X99332180Y-89130350D01*
X99392792Y-89069738D01*
X99402340Y-89061902D01*
X99473625Y-89014270D01*
X99484510Y-89008453D01*
X99563717Y-88975645D01*
X99575533Y-88972060D01*
X99659615Y-88955335D01*
X99671893Y-88954126D01*
X99690312Y-88954126D01*
X99702562Y-88953524D01*
X99720902Y-88951718D01*
X100208628Y-88951718D01*
X100214764Y-88952322D01*
X100214764Y-88952322D01*
G37*
G36*
X71158000Y-89720000D02*
X69558000Y-89720000D01*
X69558000Y-86720000D01*
X71158000Y-86720000D01*
X71158000Y-89720000D01*
X71158000Y-89720000D01*
G37*
G36*
X88863500Y-89187500D02*
X82713500Y-89187500D01*
X82713500Y-87587500D01*
X88863500Y-87587500D01*
X88863500Y-89187500D01*
X88863500Y-89187500D01*
G37*
G36*
X78752500Y-89023500D02*
X75552500Y-89023500D01*
X75552500Y-88623500D01*
X78752500Y-88623500D01*
X78752500Y-89023500D01*
X78752500Y-89023500D01*
G37*
G36*
X65508964Y-86884837D02*
X65540528Y-86894412D01*
X65569617Y-86909960D01*
X65595114Y-86930886D01*
X65616040Y-86956383D01*
X65631588Y-86985472D01*
X65641163Y-87017036D01*
X65645000Y-87055998D01*
X65645000Y-88131002D01*
X65641163Y-88169964D01*
X65631588Y-88201528D01*
X65616040Y-88230617D01*
X65595114Y-88256114D01*
X65569617Y-88277040D01*
X65540528Y-88292588D01*
X65508964Y-88302163D01*
X65470002Y-88306000D01*
X64069998Y-88306000D01*
X64031036Y-88302163D01*
X63999472Y-88292588D01*
X63970383Y-88277040D01*
X63944886Y-88256114D01*
X63923960Y-88230617D01*
X63908412Y-88201528D01*
X63898837Y-88169964D01*
X63895000Y-88131002D01*
X63895000Y-87055998D01*
X63898837Y-87017036D01*
X63908412Y-86985472D01*
X63923960Y-86956383D01*
X63944886Y-86930886D01*
X63970383Y-86909960D01*
X63999472Y-86894412D01*
X64031036Y-86884837D01*
X64069998Y-86881000D01*
X65470002Y-86881000D01*
X65508964Y-86884837D01*
X65508964Y-86884837D01*
G37*
G36*
X61444964Y-86884837D02*
X61476528Y-86894412D01*
X61505617Y-86909960D01*
X61531114Y-86930886D01*
X61552040Y-86956383D01*
X61567588Y-86985472D01*
X61577163Y-87017036D01*
X61581000Y-87055998D01*
X61581000Y-88131002D01*
X61577163Y-88169964D01*
X61567588Y-88201528D01*
X61552040Y-88230617D01*
X61531114Y-88256114D01*
X61505617Y-88277040D01*
X61476528Y-88292588D01*
X61444964Y-88302163D01*
X61406002Y-88306000D01*
X60005998Y-88306000D01*
X59967036Y-88302163D01*
X59935472Y-88292588D01*
X59906383Y-88277040D01*
X59880886Y-88256114D01*
X59859960Y-88230617D01*
X59844412Y-88201528D01*
X59834837Y-88169964D01*
X59831000Y-88131002D01*
X59831000Y-87055998D01*
X59834837Y-87017036D01*
X59844412Y-86985472D01*
X59859960Y-86956383D01*
X59880886Y-86930886D01*
X59906383Y-86909960D01*
X59935472Y-86894412D01*
X59967036Y-86884837D01*
X60005998Y-86881000D01*
X61406002Y-86881000D01*
X61444964Y-86884837D01*
X61444964Y-86884837D01*
G37*
G36*
X97766964Y-86486337D02*
X97798528Y-86495912D01*
X97827617Y-86511460D01*
X97853114Y-86532386D01*
X97874040Y-86557883D01*
X97889588Y-86586972D01*
X97899163Y-86618536D01*
X97903000Y-86657498D01*
X97903000Y-87732502D01*
X97899163Y-87771464D01*
X97889588Y-87803028D01*
X97874040Y-87832117D01*
X97853114Y-87857614D01*
X97827617Y-87878540D01*
X97798528Y-87894088D01*
X97766964Y-87903663D01*
X97728002Y-87907500D01*
X96327998Y-87907500D01*
X96289036Y-87903663D01*
X96257472Y-87894088D01*
X96228383Y-87878540D01*
X96202886Y-87857614D01*
X96181960Y-87832117D01*
X96166412Y-87803028D01*
X96156837Y-87771464D01*
X96153000Y-87732502D01*
X96153000Y-86657498D01*
X96156837Y-86618536D01*
X96166412Y-86586972D01*
X96181960Y-86557883D01*
X96202886Y-86532386D01*
X96228383Y-86511460D01*
X96257472Y-86495912D01*
X96289036Y-86486337D01*
X96327998Y-86482500D01*
X97728002Y-86482500D01*
X97766964Y-86486337D01*
X97766964Y-86486337D01*
G37*
G36*
X78752500Y-87823500D02*
X75552500Y-87823500D01*
X75552500Y-87423500D01*
X78752500Y-87423500D01*
X78752500Y-87823500D01*
X78752500Y-87823500D01*
G37*
G36*
X90838500Y-87212500D02*
X89238500Y-87212500D01*
X89238500Y-81062500D01*
X90838500Y-81062500D01*
X90838500Y-87212500D01*
X90838500Y-87212500D01*
G37*
G36*
X82338500Y-87212500D02*
X80738500Y-87212500D01*
X80738500Y-81062500D01*
X82338500Y-81062500D01*
X82338500Y-87212500D01*
X82338500Y-87212500D01*
G37*
G36*
X93448964Y-85451337D02*
X93480528Y-85460912D01*
X93509617Y-85476460D01*
X93535114Y-85497386D01*
X93556040Y-85522883D01*
X93571588Y-85551972D01*
X93581163Y-85583536D01*
X93585000Y-85622498D01*
X93585000Y-86697502D01*
X93581163Y-86736464D01*
X93571588Y-86768028D01*
X93556040Y-86797117D01*
X93535114Y-86822614D01*
X93509617Y-86843540D01*
X93480528Y-86859088D01*
X93448964Y-86868663D01*
X93410002Y-86872500D01*
X92009998Y-86872500D01*
X91971036Y-86868663D01*
X91939472Y-86859088D01*
X91910383Y-86843540D01*
X91884886Y-86822614D01*
X91863960Y-86797117D01*
X91848412Y-86768028D01*
X91838837Y-86736464D01*
X91835000Y-86697502D01*
X91835000Y-85622498D01*
X91838837Y-85583536D01*
X91848412Y-85551972D01*
X91863960Y-85522883D01*
X91884886Y-85497386D01*
X91910383Y-85476460D01*
X91939472Y-85460912D01*
X91971036Y-85451337D01*
X92009998Y-85447500D01*
X93410002Y-85447500D01*
X93448964Y-85451337D01*
X93448964Y-85451337D01*
G37*
G36*
X57568113Y-85299497D02*
X57639125Y-85306491D01*
X57719921Y-85331000D01*
X57775789Y-85347947D01*
X57901738Y-85415269D01*
X58012132Y-85505868D01*
X58102731Y-85616262D01*
X58170053Y-85742211D01*
X58170053Y-85742212D01*
X58211509Y-85878875D01*
X58225507Y-86021000D01*
X58211509Y-86163125D01*
X58187726Y-86241528D01*
X58170053Y-86299789D01*
X58102731Y-86425738D01*
X58012132Y-86536132D01*
X57901738Y-86626731D01*
X57775789Y-86694053D01*
X57730234Y-86707872D01*
X57639125Y-86735509D01*
X57568113Y-86742503D01*
X57532608Y-86746000D01*
X56911392Y-86746000D01*
X56875887Y-86742503D01*
X56804875Y-86735509D01*
X56713766Y-86707872D01*
X56668211Y-86694053D01*
X56542262Y-86626731D01*
X56431868Y-86536132D01*
X56341269Y-86425738D01*
X56273947Y-86299789D01*
X56256274Y-86241528D01*
X56232491Y-86163125D01*
X56218493Y-86021000D01*
X56232491Y-85878875D01*
X56273947Y-85742212D01*
X56273947Y-85742211D01*
X56341269Y-85616262D01*
X56431868Y-85505868D01*
X56542262Y-85415269D01*
X56668211Y-85347947D01*
X56724079Y-85331000D01*
X56804875Y-85306491D01*
X56875887Y-85299497D01*
X56911392Y-85296000D01*
X57532608Y-85296000D01*
X57568113Y-85299497D01*
X57568113Y-85299497D01*
G37*
G36*
X53859716Y-85604319D02*
X53859719Y-85604320D01*
X53859720Y-85604320D01*
X53968108Y-85637199D01*
X53968110Y-85637200D01*
X54068000Y-85690593D01*
X54155554Y-85762446D01*
X54227407Y-85850000D01*
X54280800Y-85949890D01*
X54313681Y-86058284D01*
X54324782Y-86171000D01*
X54313681Y-86283716D01*
X54313680Y-86283719D01*
X54313680Y-86283720D01*
X54294788Y-86346000D01*
X54280800Y-86392110D01*
X54227407Y-86492000D01*
X54155554Y-86579554D01*
X54068000Y-86651407D01*
X54067998Y-86651408D01*
X53968108Y-86704801D01*
X53859720Y-86737680D01*
X53859719Y-86737680D01*
X53859716Y-86737681D01*
X53775250Y-86746000D01*
X53068750Y-86746000D01*
X52984284Y-86737681D01*
X52984281Y-86737680D01*
X52984280Y-86737680D01*
X52875892Y-86704801D01*
X52776002Y-86651408D01*
X52776000Y-86651407D01*
X52688446Y-86579554D01*
X52616593Y-86492000D01*
X52563200Y-86392110D01*
X52549213Y-86346000D01*
X52530320Y-86283720D01*
X52530320Y-86283719D01*
X52530319Y-86283716D01*
X52519218Y-86171000D01*
X52530319Y-86058284D01*
X52563200Y-85949890D01*
X52616593Y-85850000D01*
X52688446Y-85762446D01*
X52776000Y-85690593D01*
X52875890Y-85637200D01*
X52875892Y-85637199D01*
X52984280Y-85604320D01*
X52984281Y-85604320D01*
X52984284Y-85604319D01*
X53068750Y-85596000D01*
X53775250Y-85596000D01*
X53859716Y-85604319D01*
X53859716Y-85604319D01*
G37*
G36*
X78752500Y-86623500D02*
X75552500Y-86623500D01*
X75552500Y-86223500D01*
X78752500Y-86223500D01*
X78752500Y-86623500D01*
X78752500Y-86623500D01*
G37*
G36*
X112263464Y-84599837D02*
X112295028Y-84609412D01*
X112324117Y-84624960D01*
X112349614Y-84645886D01*
X112370540Y-84671383D01*
X112386088Y-84700472D01*
X112395663Y-84732036D01*
X112399500Y-84770998D01*
X112399500Y-86171000D01*
X112395663Y-86209964D01*
X112386088Y-86241528D01*
X112370540Y-86270617D01*
X112349614Y-86296114D01*
X112324117Y-86317040D01*
X112295028Y-86332588D01*
X112263464Y-86342163D01*
X112224502Y-86346000D01*
X111149498Y-86346000D01*
X111110536Y-86342163D01*
X111078972Y-86332588D01*
X111049883Y-86317040D01*
X111024386Y-86296114D01*
X111003460Y-86270617D01*
X110987912Y-86241528D01*
X110978337Y-86209964D01*
X110974500Y-86171000D01*
X110974500Y-84770998D01*
X110978337Y-84732036D01*
X110987912Y-84700472D01*
X111003460Y-84671383D01*
X111024386Y-84645886D01*
X111049883Y-84624960D01*
X111078972Y-84609412D01*
X111110536Y-84599837D01*
X111149498Y-84596000D01*
X112224502Y-84596000D01*
X112263464Y-84599837D01*
X112263464Y-84599837D01*
G37*
G36*
X109288464Y-84599837D02*
X109320028Y-84609412D01*
X109349117Y-84624960D01*
X109374614Y-84645886D01*
X109395540Y-84671383D01*
X109411088Y-84700472D01*
X109420663Y-84732036D01*
X109424500Y-84770998D01*
X109424500Y-86171000D01*
X109420663Y-86209964D01*
X109411088Y-86241528D01*
X109395540Y-86270617D01*
X109374614Y-86296114D01*
X109349117Y-86317040D01*
X109320028Y-86332588D01*
X109288464Y-86342163D01*
X109249502Y-86346000D01*
X108174498Y-86346000D01*
X108135536Y-86342163D01*
X108103972Y-86332588D01*
X108074883Y-86317040D01*
X108049386Y-86296114D01*
X108028460Y-86270617D01*
X108012912Y-86241528D01*
X108003337Y-86209964D01*
X107999500Y-86171000D01*
X107999500Y-84770998D01*
X108003337Y-84732036D01*
X108012912Y-84700472D01*
X108028460Y-84671383D01*
X108049386Y-84645886D01*
X108074883Y-84624960D01*
X108103972Y-84609412D01*
X108135536Y-84599837D01*
X108174498Y-84596000D01*
X109249502Y-84596000D01*
X109288464Y-84599837D01*
X109288464Y-84599837D01*
G37*
G36*
X103663964Y-84472837D02*
X103695528Y-84482412D01*
X103724617Y-84497960D01*
X103750114Y-84518886D01*
X103771040Y-84544383D01*
X103786588Y-84573472D01*
X103796163Y-84605036D01*
X103800000Y-84643998D01*
X103800000Y-86044002D01*
X103796163Y-86082964D01*
X103786588Y-86114528D01*
X103771040Y-86143617D01*
X103750114Y-86169114D01*
X103724617Y-86190040D01*
X103695528Y-86205588D01*
X103663964Y-86215163D01*
X103625002Y-86219000D01*
X102549998Y-86219000D01*
X102511036Y-86215163D01*
X102479472Y-86205588D01*
X102450383Y-86190040D01*
X102424886Y-86169114D01*
X102403960Y-86143617D01*
X102388412Y-86114528D01*
X102378837Y-86082964D01*
X102375000Y-86044002D01*
X102375000Y-84643998D01*
X102378837Y-84605036D01*
X102388412Y-84573472D01*
X102403960Y-84544383D01*
X102424886Y-84518886D01*
X102450383Y-84497960D01*
X102479472Y-84482412D01*
X102511036Y-84472837D01*
X102549998Y-84469000D01*
X103625002Y-84469000D01*
X103663964Y-84472837D01*
X103663964Y-84472837D01*
G37*
G36*
X100688964Y-84472837D02*
X100720528Y-84482412D01*
X100749617Y-84497960D01*
X100775114Y-84518886D01*
X100796040Y-84544383D01*
X100811588Y-84573472D01*
X100821163Y-84605036D01*
X100825000Y-84643998D01*
X100825000Y-86044002D01*
X100821163Y-86082964D01*
X100811588Y-86114528D01*
X100796040Y-86143617D01*
X100775114Y-86169114D01*
X100749617Y-86190040D01*
X100720528Y-86205588D01*
X100688964Y-86215163D01*
X100650002Y-86219000D01*
X99574998Y-86219000D01*
X99536036Y-86215163D01*
X99504472Y-86205588D01*
X99475383Y-86190040D01*
X99449886Y-86169114D01*
X99428960Y-86143617D01*
X99413412Y-86114528D01*
X99403837Y-86082964D01*
X99400000Y-86044002D01*
X99400000Y-84643998D01*
X99403837Y-84605036D01*
X99413412Y-84573472D01*
X99428960Y-84544383D01*
X99449886Y-84518886D01*
X99475383Y-84497960D01*
X99504472Y-84482412D01*
X99536036Y-84472837D01*
X99574998Y-84469000D01*
X100650002Y-84469000D01*
X100688964Y-84472837D01*
X100688964Y-84472837D01*
G37*
G36*
X61444964Y-83909837D02*
X61476528Y-83919412D01*
X61505617Y-83934960D01*
X61531114Y-83955886D01*
X61552040Y-83981383D01*
X61567588Y-84010472D01*
X61577163Y-84042036D01*
X61581000Y-84080998D01*
X61581000Y-85156002D01*
X61577163Y-85194964D01*
X61567588Y-85226528D01*
X61552040Y-85255617D01*
X61531114Y-85281114D01*
X61505617Y-85302040D01*
X61476528Y-85317588D01*
X61444964Y-85327163D01*
X61406002Y-85331000D01*
X60005998Y-85331000D01*
X59967036Y-85327163D01*
X59935472Y-85317588D01*
X59906383Y-85302040D01*
X59880886Y-85281114D01*
X59859960Y-85255617D01*
X59844412Y-85226528D01*
X59834837Y-85194964D01*
X59831000Y-85156002D01*
X59831000Y-84080998D01*
X59834837Y-84042036D01*
X59844412Y-84010472D01*
X59859960Y-83981383D01*
X59880886Y-83955886D01*
X59906383Y-83934960D01*
X59935472Y-83919412D01*
X59967036Y-83909837D01*
X60005998Y-83906000D01*
X61406002Y-83906000D01*
X61444964Y-83909837D01*
X61444964Y-83909837D01*
G37*
G36*
X65508964Y-83909837D02*
X65540528Y-83919412D01*
X65569617Y-83934960D01*
X65595114Y-83955886D01*
X65616040Y-83981383D01*
X65631588Y-84010472D01*
X65641163Y-84042036D01*
X65645000Y-84080998D01*
X65645000Y-85156002D01*
X65641163Y-85194964D01*
X65631588Y-85226528D01*
X65616040Y-85255617D01*
X65595114Y-85281114D01*
X65569617Y-85302040D01*
X65540528Y-85317588D01*
X65508964Y-85327163D01*
X65470002Y-85331000D01*
X64069998Y-85331000D01*
X64031036Y-85327163D01*
X63999472Y-85317588D01*
X63970383Y-85302040D01*
X63944886Y-85281114D01*
X63923960Y-85255617D01*
X63908412Y-85226528D01*
X63898837Y-85194964D01*
X63895000Y-85156002D01*
X63895000Y-84080998D01*
X63898837Y-84042036D01*
X63908412Y-84010472D01*
X63923960Y-83981383D01*
X63944886Y-83955886D01*
X63970383Y-83934960D01*
X63999472Y-83919412D01*
X64031036Y-83909837D01*
X64069998Y-83906000D01*
X65470002Y-83906000D01*
X65508964Y-83909837D01*
X65508964Y-83909837D01*
G37*
G36*
X71158000Y-85320000D02*
X69558000Y-85320000D01*
X69558000Y-82320000D01*
X71158000Y-82320000D01*
X71158000Y-85320000D01*
X71158000Y-85320000D01*
G37*
G36*
X56250414Y-84401788D02*
X56325814Y-84424660D01*
X56395303Y-84461803D01*
X56456211Y-84511789D01*
X56506197Y-84572697D01*
X56543340Y-84642186D01*
X56566212Y-84717586D01*
X56573935Y-84796000D01*
X56566212Y-84874414D01*
X56543340Y-84949814D01*
X56506197Y-85019303D01*
X56456211Y-85080211D01*
X56395303Y-85130197D01*
X56325814Y-85167340D01*
X56250414Y-85190212D01*
X56191647Y-85196000D01*
X56152353Y-85196000D01*
X56093586Y-85190212D01*
X56018186Y-85167340D01*
X55948697Y-85130197D01*
X55887789Y-85080211D01*
X55837803Y-85019303D01*
X55800660Y-84949814D01*
X55777788Y-84874414D01*
X55770065Y-84796000D01*
X55777788Y-84717586D01*
X55800660Y-84642186D01*
X55837803Y-84572697D01*
X55887789Y-84511789D01*
X55948697Y-84461803D01*
X56018186Y-84424660D01*
X56093586Y-84401788D01*
X56152353Y-84396000D01*
X56191647Y-84396000D01*
X56250414Y-84401788D01*
X56250414Y-84401788D01*
G37*
G36*
X93448964Y-82476337D02*
X93480528Y-82485912D01*
X93509617Y-82501460D01*
X93535114Y-82522386D01*
X93556040Y-82547883D01*
X93571588Y-82576972D01*
X93581163Y-82608536D01*
X93585000Y-82647498D01*
X93585000Y-83722502D01*
X93581163Y-83761464D01*
X93571588Y-83793028D01*
X93556040Y-83822117D01*
X93535114Y-83847614D01*
X93509617Y-83868540D01*
X93480528Y-83884088D01*
X93448964Y-83893663D01*
X93410002Y-83897500D01*
X92009998Y-83897500D01*
X91971036Y-83893663D01*
X91939472Y-83884088D01*
X91910383Y-83868540D01*
X91884886Y-83847614D01*
X91863960Y-83822117D01*
X91848412Y-83793028D01*
X91838837Y-83761464D01*
X91835000Y-83722502D01*
X91835000Y-82647498D01*
X91838837Y-82608536D01*
X91848412Y-82576972D01*
X91863960Y-82547883D01*
X91884886Y-82522386D01*
X91910383Y-82501460D01*
X91939472Y-82485912D01*
X91971036Y-82476337D01*
X92009998Y-82472500D01*
X93410002Y-82472500D01*
X93448964Y-82476337D01*
X93448964Y-82476337D01*
G37*
G36*
X57922000Y-83821000D02*
X56622000Y-83821000D01*
X56622000Y-80771000D01*
X57922000Y-80771000D01*
X57922000Y-83821000D01*
X57922000Y-83821000D01*
G37*
G36*
X108603845Y-82450215D02*
X108694839Y-82487906D01*
X108718925Y-82504000D01*
X108776734Y-82542627D01*
X108846373Y-82612266D01*
X108846375Y-82612269D01*
X108879939Y-82662500D01*
X108901095Y-82694163D01*
X108938785Y-82785155D01*
X108958000Y-82881755D01*
X108958000Y-82980245D01*
X108938785Y-83076845D01*
X108901095Y-83167837D01*
X108846373Y-83249734D01*
X108776734Y-83319373D01*
X108776731Y-83319375D01*
X108694839Y-83374094D01*
X108603845Y-83411785D01*
X108507246Y-83431000D01*
X108408754Y-83431000D01*
X108312155Y-83411785D01*
X108221161Y-83374094D01*
X108139269Y-83319375D01*
X108139266Y-83319373D01*
X108069627Y-83249734D01*
X108014905Y-83167837D01*
X107977215Y-83076845D01*
X107958000Y-82980245D01*
X107958000Y-82881755D01*
X107977215Y-82785155D01*
X108014905Y-82694163D01*
X108036062Y-82662500D01*
X108069625Y-82612269D01*
X108069627Y-82612266D01*
X108139266Y-82542627D01*
X108197075Y-82504000D01*
X108221161Y-82487906D01*
X108312155Y-82450215D01*
X108408754Y-82431000D01*
X108507246Y-82431000D01*
X108603845Y-82450215D01*
X108603845Y-82450215D01*
G37*
G36*
X106345000Y-83104000D02*
X104795000Y-83104000D01*
X104795000Y-82504000D01*
X106345000Y-82504000D01*
X106345000Y-83104000D01*
X106345000Y-83104000D01*
G37*
G36*
X100945000Y-83104000D02*
X99395000Y-83104000D01*
X99395000Y-82504000D01*
X100945000Y-82504000D01*
X100945000Y-83104000D01*
X100945000Y-83104000D01*
G37*
G36*
X106345000Y-81834000D02*
X104795000Y-81834000D01*
X104795000Y-81234000D01*
X106345000Y-81234000D01*
X106345000Y-81834000D01*
X106345000Y-81834000D01*
G37*
G36*
X100945000Y-81834000D02*
X99395000Y-81834000D01*
X99395000Y-81234000D01*
X100945000Y-81234000D01*
X100945000Y-81834000D01*
X100945000Y-81834000D01*
G37*
G36*
X108603845Y-80750215D02*
X108654025Y-80771000D01*
X108694839Y-80787906D01*
X108711587Y-80799097D01*
X108776734Y-80842627D01*
X108846373Y-80912266D01*
X108901095Y-80994163D01*
X108938785Y-81085155D01*
X108958000Y-81181755D01*
X108958000Y-81280245D01*
X108938785Y-81376845D01*
X108901095Y-81467837D01*
X108846373Y-81549734D01*
X108776734Y-81619373D01*
X108776731Y-81619375D01*
X108694839Y-81674094D01*
X108603845Y-81711785D01*
X108507246Y-81731000D01*
X108408754Y-81731000D01*
X108312155Y-81711785D01*
X108221161Y-81674094D01*
X108139269Y-81619375D01*
X108139266Y-81619373D01*
X108069627Y-81549734D01*
X108014905Y-81467837D01*
X107977215Y-81376845D01*
X107958000Y-81280245D01*
X107958000Y-81181755D01*
X107977215Y-81085155D01*
X108014905Y-80994163D01*
X108069627Y-80912266D01*
X108139266Y-80842627D01*
X108204413Y-80799097D01*
X108221161Y-80787906D01*
X108261976Y-80771000D01*
X108312155Y-80750215D01*
X108408754Y-80731000D01*
X108507246Y-80731000D01*
X108603845Y-80750215D01*
X108603845Y-80750215D01*
G37*
G36*
X60723024Y-80554955D02*
X60755736Y-80564879D01*
X60785890Y-80580997D01*
X60812316Y-80602684D01*
X60834003Y-80629110D01*
X60850121Y-80659264D01*
X60860045Y-80691976D01*
X60864000Y-80732138D01*
X60864000Y-81319862D01*
X60860045Y-81360024D01*
X60850121Y-81392736D01*
X60834003Y-81422890D01*
X60812316Y-81449316D01*
X60785890Y-81471003D01*
X60755736Y-81487121D01*
X60723024Y-81497045D01*
X60682862Y-81501000D01*
X59995138Y-81501000D01*
X59954976Y-81497045D01*
X59922264Y-81487121D01*
X59892110Y-81471003D01*
X59865684Y-81449316D01*
X59843997Y-81422890D01*
X59827879Y-81392736D01*
X59817955Y-81360024D01*
X59814000Y-81319862D01*
X59814000Y-80732138D01*
X59817955Y-80691976D01*
X59827879Y-80659264D01*
X59843997Y-80629110D01*
X59865684Y-80602684D01*
X59892110Y-80580997D01*
X59922264Y-80564879D01*
X59954976Y-80554955D01*
X59995138Y-80551000D01*
X60682862Y-80551000D01*
X60723024Y-80554955D01*
X60723024Y-80554955D01*
G37*
G36*
X62473024Y-80554955D02*
X62505736Y-80564879D01*
X62535890Y-80580997D01*
X62562316Y-80602684D01*
X62584003Y-80629110D01*
X62600121Y-80659264D01*
X62610045Y-80691976D01*
X62614000Y-80732138D01*
X62614000Y-81319862D01*
X62610045Y-81360024D01*
X62600121Y-81392736D01*
X62584003Y-81422890D01*
X62562316Y-81449316D01*
X62535890Y-81471003D01*
X62505736Y-81487121D01*
X62473024Y-81497045D01*
X62432862Y-81501000D01*
X61745138Y-81501000D01*
X61704976Y-81497045D01*
X61672264Y-81487121D01*
X61642110Y-81471003D01*
X61615684Y-81449316D01*
X61593997Y-81422890D01*
X61577879Y-81392736D01*
X61567955Y-81360024D01*
X61564000Y-81319862D01*
X61564000Y-80732138D01*
X61567955Y-80691976D01*
X61577879Y-80659264D01*
X61593997Y-80629110D01*
X61615684Y-80602684D01*
X61642110Y-80580997D01*
X61672264Y-80564879D01*
X61704976Y-80554955D01*
X61745138Y-80551000D01*
X62432862Y-80551000D01*
X62473024Y-80554955D01*
X62473024Y-80554955D01*
G37*
G36*
X96665845Y-80291215D02*
X96756839Y-80328906D01*
X96768735Y-80336855D01*
X96838734Y-80383627D01*
X96908373Y-80453266D01*
X96908375Y-80453269D01*
X96963094Y-80535161D01*
X97000785Y-80626155D01*
X97020000Y-80722754D01*
X97020000Y-80821246D01*
X97000785Y-80917845D01*
X96963094Y-81008839D01*
X96912101Y-81085155D01*
X96908373Y-81090734D01*
X96838734Y-81160373D01*
X96838731Y-81160375D01*
X96756839Y-81215094D01*
X96665845Y-81252785D01*
X96569246Y-81272000D01*
X96470754Y-81272000D01*
X96374155Y-81252785D01*
X96283161Y-81215094D01*
X96201269Y-81160375D01*
X96201266Y-81160373D01*
X96131627Y-81090734D01*
X96127899Y-81085155D01*
X96076906Y-81008839D01*
X96039215Y-80917845D01*
X96020000Y-80821246D01*
X96020000Y-80722754D01*
X96039215Y-80626155D01*
X96076906Y-80535161D01*
X96131625Y-80453269D01*
X96131627Y-80453266D01*
X96201266Y-80383627D01*
X96271265Y-80336855D01*
X96283161Y-80328906D01*
X96374155Y-80291215D01*
X96470754Y-80272000D01*
X96569246Y-80272000D01*
X96665845Y-80291215D01*
X96665845Y-80291215D01*
G37*
G36*
X75858630Y-79172299D02*
X76018855Y-79220903D01*
X76166520Y-79299831D01*
X76295949Y-79406051D01*
X76402169Y-79535480D01*
X76481097Y-79683145D01*
X76529701Y-79843370D01*
X76546112Y-80010000D01*
X76529701Y-80176630D01*
X76481097Y-80336855D01*
X76402169Y-80484520D01*
X76295949Y-80613949D01*
X76166520Y-80720169D01*
X76018855Y-80799097D01*
X75858630Y-80847701D01*
X75733752Y-80860000D01*
X75650248Y-80860000D01*
X75525370Y-80847701D01*
X75365145Y-80799097D01*
X75217480Y-80720169D01*
X75088051Y-80613949D01*
X74981831Y-80484520D01*
X74902903Y-80336855D01*
X74854299Y-80176630D01*
X74837888Y-80010000D01*
X74854299Y-79843370D01*
X74902903Y-79683145D01*
X74981831Y-79535480D01*
X75088051Y-79406051D01*
X75217480Y-79299831D01*
X75365145Y-79220903D01*
X75525370Y-79172299D01*
X75650248Y-79160000D01*
X75733752Y-79160000D01*
X75858630Y-79172299D01*
X75858630Y-79172299D01*
G37*
G36*
X88863500Y-80687500D02*
X82713500Y-80687500D01*
X82713500Y-79087500D01*
X88863500Y-79087500D01*
X88863500Y-80687500D01*
X88863500Y-80687500D01*
G37*
G36*
X73030000Y-80652000D02*
X69530000Y-80652000D01*
X69530000Y-78352000D01*
X73030000Y-78352000D01*
X73030000Y-80652000D01*
X73030000Y-80652000D01*
G37*
G36*
X67630000Y-80652000D02*
X64130000Y-80652000D01*
X64130000Y-78352000D01*
X67630000Y-78352000D01*
X67630000Y-80652000D01*
X67630000Y-80652000D01*
G37*
G36*
X106345000Y-80564000D02*
X104795000Y-80564000D01*
X104795000Y-79964000D01*
X106345000Y-79964000D01*
X106345000Y-80564000D01*
X106345000Y-80564000D01*
G37*
G36*
X100945000Y-80564000D02*
X99395000Y-80564000D01*
X99395000Y-79964000D01*
X100945000Y-79964000D01*
X100945000Y-80564000D01*
X100945000Y-80564000D01*
G37*
G36*
X56250414Y-79401788D02*
X56325814Y-79424660D01*
X56395303Y-79461803D01*
X56456211Y-79511789D01*
X56506197Y-79572697D01*
X56543340Y-79642186D01*
X56566212Y-79717586D01*
X56573935Y-79796000D01*
X56566212Y-79874414D01*
X56543340Y-79949814D01*
X56506197Y-80019303D01*
X56456211Y-80080211D01*
X56395303Y-80130197D01*
X56325814Y-80167340D01*
X56250414Y-80190212D01*
X56191647Y-80196000D01*
X56152353Y-80196000D01*
X56093586Y-80190212D01*
X56018186Y-80167340D01*
X55948697Y-80130197D01*
X55887789Y-80080211D01*
X55837803Y-80019303D01*
X55800660Y-79949814D01*
X55777788Y-79874414D01*
X55770065Y-79796000D01*
X55777788Y-79717586D01*
X55800660Y-79642186D01*
X55837803Y-79572697D01*
X55887789Y-79511789D01*
X55948697Y-79461803D01*
X56018186Y-79424660D01*
X56093586Y-79401788D01*
X56152353Y-79396000D01*
X56191647Y-79396000D01*
X56250414Y-79401788D01*
X56250414Y-79401788D01*
G37*
G36*
X109161464Y-77868837D02*
X109193028Y-77878412D01*
X109222117Y-77893960D01*
X109247614Y-77914886D01*
X109268540Y-77940383D01*
X109284088Y-77969472D01*
X109293663Y-78001036D01*
X109297500Y-78039998D01*
X109297500Y-79440002D01*
X109293663Y-79478964D01*
X109284088Y-79510528D01*
X109268540Y-79539617D01*
X109247614Y-79565114D01*
X109222117Y-79586040D01*
X109193028Y-79601588D01*
X109161464Y-79611163D01*
X109122502Y-79615000D01*
X108047498Y-79615000D01*
X108008536Y-79611163D01*
X107976972Y-79601588D01*
X107947883Y-79586040D01*
X107922386Y-79565114D01*
X107901460Y-79539617D01*
X107885912Y-79510528D01*
X107876337Y-79478964D01*
X107872500Y-79440002D01*
X107872500Y-78039998D01*
X107876337Y-78001036D01*
X107885912Y-77969472D01*
X107901460Y-77940383D01*
X107922386Y-77914886D01*
X107947883Y-77893960D01*
X107976972Y-77878412D01*
X108008536Y-77868837D01*
X108047498Y-77865000D01*
X109122502Y-77865000D01*
X109161464Y-77868837D01*
X109161464Y-77868837D01*
G37*
G36*
X112136464Y-77868837D02*
X112168028Y-77878412D01*
X112197117Y-77893960D01*
X112222614Y-77914886D01*
X112243540Y-77940383D01*
X112259088Y-77969472D01*
X112268663Y-78001036D01*
X112272500Y-78039998D01*
X112272500Y-79440002D01*
X112268663Y-79478964D01*
X112259088Y-79510528D01*
X112243540Y-79539617D01*
X112222614Y-79565114D01*
X112197117Y-79586040D01*
X112168028Y-79601588D01*
X112136464Y-79611163D01*
X112097502Y-79615000D01*
X111022498Y-79615000D01*
X110983536Y-79611163D01*
X110951972Y-79601588D01*
X110922883Y-79586040D01*
X110897386Y-79565114D01*
X110876460Y-79539617D01*
X110860912Y-79510528D01*
X110851337Y-79478964D01*
X110847500Y-79440002D01*
X110847500Y-78039998D01*
X110851337Y-78001036D01*
X110860912Y-77969472D01*
X110876460Y-77940383D01*
X110897386Y-77914886D01*
X110922883Y-77893960D01*
X110951972Y-77878412D01*
X110983536Y-77868837D01*
X111022498Y-77865000D01*
X112097502Y-77865000D01*
X112136464Y-77868837D01*
X112136464Y-77868837D01*
G37*
G36*
X57568113Y-77849497D02*
X57639125Y-77856491D01*
X57730234Y-77884128D01*
X57775789Y-77897947D01*
X57901738Y-77965269D01*
X58012132Y-78055868D01*
X58102731Y-78166262D01*
X58170053Y-78292211D01*
X58178482Y-78320000D01*
X58211509Y-78428875D01*
X58225507Y-78571000D01*
X58211509Y-78713125D01*
X58202750Y-78742000D01*
X58170053Y-78849789D01*
X58102731Y-78975738D01*
X58012132Y-79086132D01*
X57901738Y-79176731D01*
X57775789Y-79244053D01*
X57730234Y-79257872D01*
X57639125Y-79285509D01*
X57568113Y-79292503D01*
X57532608Y-79296000D01*
X56911392Y-79296000D01*
X56875887Y-79292503D01*
X56804875Y-79285509D01*
X56713766Y-79257872D01*
X56668211Y-79244053D01*
X56542262Y-79176731D01*
X56431868Y-79086132D01*
X56341269Y-78975738D01*
X56273947Y-78849789D01*
X56241250Y-78742000D01*
X56232491Y-78713125D01*
X56218493Y-78571000D01*
X56232491Y-78428875D01*
X56265518Y-78320000D01*
X56273947Y-78292211D01*
X56341269Y-78166262D01*
X56431868Y-78055868D01*
X56542262Y-77965269D01*
X56668211Y-77897947D01*
X56713766Y-77884128D01*
X56804875Y-77856491D01*
X56875887Y-77849497D01*
X56911392Y-77846000D01*
X57532608Y-77846000D01*
X57568113Y-77849497D01*
X57568113Y-77849497D01*
G37*
G36*
X106345000Y-79294000D02*
X104795000Y-79294000D01*
X104795000Y-78694000D01*
X106345000Y-78694000D01*
X106345000Y-79294000D01*
X106345000Y-79294000D01*
G37*
G36*
X100945000Y-79294000D02*
X99395000Y-79294000D01*
X99395000Y-78694000D01*
X100945000Y-78694000D01*
X100945000Y-79294000D01*
X100945000Y-79294000D01*
G37*
G36*
X53859716Y-77854319D02*
X53859719Y-77854320D01*
X53859720Y-77854320D01*
X53968108Y-77887199D01*
X53968110Y-77887200D01*
X54068000Y-77940593D01*
X54155554Y-78012446D01*
X54227407Y-78100000D01*
X54227408Y-78100002D01*
X54280801Y-78199892D01*
X54308806Y-78292212D01*
X54313681Y-78308284D01*
X54324782Y-78421000D01*
X54313681Y-78533716D01*
X54280800Y-78642110D01*
X54227407Y-78742000D01*
X54155554Y-78829554D01*
X54068000Y-78901407D01*
X54067998Y-78901408D01*
X53968108Y-78954801D01*
X53859720Y-78987680D01*
X53859719Y-78987680D01*
X53859716Y-78987681D01*
X53775250Y-78996000D01*
X53068750Y-78996000D01*
X52984284Y-78987681D01*
X52984281Y-78987680D01*
X52984280Y-78987680D01*
X52875892Y-78954801D01*
X52776002Y-78901408D01*
X52776000Y-78901407D01*
X52688446Y-78829554D01*
X52616593Y-78742000D01*
X52563200Y-78642110D01*
X52530319Y-78533716D01*
X52519218Y-78421000D01*
X52530319Y-78308284D01*
X52535194Y-78292212D01*
X52563199Y-78199892D01*
X52616592Y-78100002D01*
X52616593Y-78100000D01*
X52688446Y-78012446D01*
X52776000Y-77940593D01*
X52875890Y-77887200D01*
X52875892Y-77887199D01*
X52984280Y-77854320D01*
X52984281Y-77854320D01*
X52984284Y-77854319D01*
X53068750Y-77846000D01*
X53775250Y-77846000D01*
X53859716Y-77854319D01*
X53859716Y-77854319D01*
G37*
G36*
X96644836Y-78001036D02*
X96665845Y-78005215D01*
X96749819Y-78039998D01*
X96756839Y-78042906D01*
X96791741Y-78066227D01*
X96838734Y-78097627D01*
X96908373Y-78167266D01*
X96963095Y-78249163D01*
X97000785Y-78340155D01*
X97020000Y-78436755D01*
X97020000Y-78535245D01*
X97000785Y-78631845D01*
X96963095Y-78722837D01*
X96908373Y-78804734D01*
X96838734Y-78874373D01*
X96838731Y-78874375D01*
X96756839Y-78929094D01*
X96665845Y-78966785D01*
X96569246Y-78986000D01*
X96470754Y-78986000D01*
X96374155Y-78966785D01*
X96283161Y-78929094D01*
X96201269Y-78874375D01*
X96201266Y-78874373D01*
X96131627Y-78804734D01*
X96076905Y-78722837D01*
X96039215Y-78631845D01*
X96020000Y-78535245D01*
X96020000Y-78436755D01*
X96039215Y-78340155D01*
X96076905Y-78249163D01*
X96131627Y-78167266D01*
X96201266Y-78097627D01*
X96248259Y-78066227D01*
X96283161Y-78042906D01*
X96290182Y-78039998D01*
X96374155Y-78005215D01*
X96395164Y-78001036D01*
X96470754Y-77986000D01*
X96569246Y-77986000D01*
X96644836Y-78001036D01*
X96644836Y-78001036D01*
G37*
G36*
X76542000Y-78320000D02*
X74842000Y-78320000D01*
X74842000Y-76620000D01*
X76542000Y-76620000D01*
X76542000Y-78320000D01*
X76542000Y-78320000D01*
G37*
G36*
X70680464Y-74820837D02*
X70712028Y-74830412D01*
X70741117Y-74845960D01*
X70766614Y-74866886D01*
X70787540Y-74892383D01*
X70803088Y-74921472D01*
X70812663Y-74953036D01*
X70816500Y-74991998D01*
X70816500Y-76392002D01*
X70812663Y-76430964D01*
X70803088Y-76462528D01*
X70787540Y-76491617D01*
X70766614Y-76517114D01*
X70741117Y-76538040D01*
X70712028Y-76553588D01*
X70680464Y-76563163D01*
X70641502Y-76567000D01*
X69566498Y-76567000D01*
X69527536Y-76563163D01*
X69495972Y-76553588D01*
X69466883Y-76538040D01*
X69441386Y-76517114D01*
X69420460Y-76491617D01*
X69404912Y-76462528D01*
X69395337Y-76430964D01*
X69391500Y-76392002D01*
X69391500Y-74991998D01*
X69395337Y-74953036D01*
X69404912Y-74921472D01*
X69420460Y-74892383D01*
X69441386Y-74866886D01*
X69466883Y-74845960D01*
X69495972Y-74830412D01*
X69527536Y-74820837D01*
X69566498Y-74817000D01*
X70641502Y-74817000D01*
X70680464Y-74820837D01*
X70680464Y-74820837D01*
G37*
G36*
X67705464Y-74820837D02*
X67737028Y-74830412D01*
X67766117Y-74845960D01*
X67791614Y-74866886D01*
X67812540Y-74892383D01*
X67828088Y-74921472D01*
X67837663Y-74953036D01*
X67841500Y-74991998D01*
X67841500Y-76392002D01*
X67837663Y-76430964D01*
X67828088Y-76462528D01*
X67812540Y-76491617D01*
X67791614Y-76517114D01*
X67766117Y-76538040D01*
X67737028Y-76553588D01*
X67705464Y-76563163D01*
X67666502Y-76567000D01*
X66591498Y-76567000D01*
X66552536Y-76563163D01*
X66520972Y-76553588D01*
X66491883Y-76538040D01*
X66466386Y-76517114D01*
X66445460Y-76491617D01*
X66429912Y-76462528D01*
X66420337Y-76430964D01*
X66416500Y-76392002D01*
X66416500Y-74991998D01*
X66420337Y-74953036D01*
X66429912Y-74921472D01*
X66445460Y-74892383D01*
X66466386Y-74866886D01*
X66491883Y-74845960D01*
X66520972Y-74830412D01*
X66552536Y-74820837D01*
X66591498Y-74817000D01*
X67666502Y-74817000D01*
X67705464Y-74820837D01*
X67705464Y-74820837D01*
G37*
G36*
X84495464Y-75046837D02*
X84527028Y-75056412D01*
X84556117Y-75071960D01*
X84581614Y-75092886D01*
X84602540Y-75118383D01*
X84618088Y-75147472D01*
X84627663Y-75179036D01*
X84631500Y-75217998D01*
X84631500Y-76293002D01*
X84627663Y-76331964D01*
X84618088Y-76363528D01*
X84602540Y-76392617D01*
X84581614Y-76418114D01*
X84556117Y-76439040D01*
X84527028Y-76454588D01*
X84495464Y-76464163D01*
X84456502Y-76468000D01*
X83056498Y-76468000D01*
X83017536Y-76464163D01*
X82985972Y-76454588D01*
X82956883Y-76439040D01*
X82931386Y-76418114D01*
X82910460Y-76392617D01*
X82894912Y-76363528D01*
X82885337Y-76331964D01*
X82881500Y-76293002D01*
X82881500Y-75217998D01*
X82885337Y-75179036D01*
X82894912Y-75147472D01*
X82910460Y-75118383D01*
X82931386Y-75092886D01*
X82956883Y-75071960D01*
X82985972Y-75056412D01*
X83017536Y-75046837D01*
X83056498Y-75043000D01*
X84456502Y-75043000D01*
X84495464Y-75046837D01*
X84495464Y-75046837D01*
G37*
G36*
X87035464Y-75046837D02*
X87067028Y-75056412D01*
X87096117Y-75071960D01*
X87121614Y-75092886D01*
X87142540Y-75118383D01*
X87158088Y-75147472D01*
X87167663Y-75179036D01*
X87171500Y-75217998D01*
X87171500Y-76293002D01*
X87167663Y-76331964D01*
X87158088Y-76363528D01*
X87142540Y-76392617D01*
X87121614Y-76418114D01*
X87096117Y-76439040D01*
X87067028Y-76454588D01*
X87035464Y-76464163D01*
X86996502Y-76468000D01*
X85596498Y-76468000D01*
X85557536Y-76464163D01*
X85525972Y-76454588D01*
X85496883Y-76439040D01*
X85471386Y-76418114D01*
X85450460Y-76392617D01*
X85434912Y-76363528D01*
X85425337Y-76331964D01*
X85421500Y-76293002D01*
X85421500Y-75217998D01*
X85425337Y-75179036D01*
X85434912Y-75147472D01*
X85450460Y-75118383D01*
X85471386Y-75092886D01*
X85496883Y-75071960D01*
X85525972Y-75056412D01*
X85557536Y-75046837D01*
X85596498Y-75043000D01*
X86996502Y-75043000D01*
X87035464Y-75046837D01*
X87035464Y-75046837D01*
G37*
G36*
X89575464Y-75046837D02*
X89607028Y-75056412D01*
X89636117Y-75071960D01*
X89661614Y-75092886D01*
X89682540Y-75118383D01*
X89698088Y-75147472D01*
X89707663Y-75179036D01*
X89711500Y-75217998D01*
X89711500Y-76293002D01*
X89707663Y-76331964D01*
X89698088Y-76363528D01*
X89682540Y-76392617D01*
X89661614Y-76418114D01*
X89636117Y-76439040D01*
X89607028Y-76454588D01*
X89575464Y-76464163D01*
X89536502Y-76468000D01*
X88136498Y-76468000D01*
X88097536Y-76464163D01*
X88065972Y-76454588D01*
X88036883Y-76439040D01*
X88011386Y-76418114D01*
X87990460Y-76392617D01*
X87974912Y-76363528D01*
X87965337Y-76331964D01*
X87961500Y-76293002D01*
X87961500Y-75217998D01*
X87965337Y-75179036D01*
X87974912Y-75147472D01*
X87990460Y-75118383D01*
X88011386Y-75092886D01*
X88036883Y-75071960D01*
X88065972Y-75056412D01*
X88097536Y-75046837D01*
X88136498Y-75043000D01*
X89536502Y-75043000D01*
X89575464Y-75046837D01*
X89575464Y-75046837D01*
G37*
G36*
X81839499Y-75285499D02*
X81839498Y-75285499D01*
X81839500Y-75285500D01*
X81839501Y-75285501D01*
X81840105Y-75291637D01*
X81840105Y-75779363D01*
X81838299Y-75797703D01*
X81837697Y-75809953D01*
X81837697Y-75828372D01*
X81836488Y-75840650D01*
X81819763Y-75924732D01*
X81816178Y-75936548D01*
X81783370Y-76015755D01*
X81777553Y-76026640D01*
X81729921Y-76097925D01*
X81722085Y-76107473D01*
X81661473Y-76168085D01*
X81651925Y-76175921D01*
X81580640Y-76223553D01*
X81569755Y-76229370D01*
X81490548Y-76262178D01*
X81478732Y-76265763D01*
X81394650Y-76282488D01*
X81382372Y-76283697D01*
X81363953Y-76283697D01*
X81351703Y-76284299D01*
X81333363Y-76286105D01*
X80845637Y-76286105D01*
X80827297Y-76284299D01*
X80815047Y-76283697D01*
X80796628Y-76283697D01*
X80784350Y-76282488D01*
X80700268Y-76265763D01*
X80688452Y-76262178D01*
X80609245Y-76229370D01*
X80598360Y-76223553D01*
X80527075Y-76175921D01*
X80517527Y-76168085D01*
X80456915Y-76107473D01*
X80449079Y-76097925D01*
X80401447Y-76026640D01*
X80395630Y-76015755D01*
X80362822Y-75936548D01*
X80359237Y-75924732D01*
X80342512Y-75840650D01*
X80341303Y-75828372D01*
X80341303Y-75809953D01*
X80340701Y-75797703D01*
X80338895Y-75779363D01*
X80338895Y-75291637D01*
X80339499Y-75285501D01*
X80339500Y-75285500D01*
X80339502Y-75285499D01*
X80339501Y-75285499D01*
X80345637Y-75284895D01*
X81833363Y-75284895D01*
X81839499Y-75285499D01*
X81839499Y-75285499D01*
G37*
G36*
X81351703Y-73986701D02*
X81363953Y-73987303D01*
X81382372Y-73987303D01*
X81394650Y-73988512D01*
X81478732Y-74005237D01*
X81490548Y-74008822D01*
X81569755Y-74041630D01*
X81580640Y-74047447D01*
X81651925Y-74095079D01*
X81661473Y-74102915D01*
X81722085Y-74163527D01*
X81729921Y-74173075D01*
X81777553Y-74244360D01*
X81783370Y-74255245D01*
X81816178Y-74334452D01*
X81819763Y-74346268D01*
X81836488Y-74430350D01*
X81837697Y-74442628D01*
X81837697Y-74461047D01*
X81838299Y-74473297D01*
X81840105Y-74491637D01*
X81840105Y-74979363D01*
X81839501Y-74985499D01*
X81839499Y-74985501D01*
X81833363Y-74986105D01*
X80345637Y-74986105D01*
X80339501Y-74985501D01*
X80339499Y-74985499D01*
X80338895Y-74979363D01*
X80338895Y-74491637D01*
X80340701Y-74473297D01*
X80341303Y-74461047D01*
X80341303Y-74442628D01*
X80342512Y-74430350D01*
X80359237Y-74346268D01*
X80362822Y-74334452D01*
X80395630Y-74255245D01*
X80401447Y-74244360D01*
X80449079Y-74173075D01*
X80456915Y-74163527D01*
X80517527Y-74102915D01*
X80527075Y-74095079D01*
X80598360Y-74047447D01*
X80609245Y-74041630D01*
X80688452Y-74008822D01*
X80700268Y-74005237D01*
X80784350Y-73988512D01*
X80796628Y-73987303D01*
X80815047Y-73987303D01*
X80827297Y-73986701D01*
X80845637Y-73984895D01*
X81333363Y-73984895D01*
X81351703Y-73986701D01*
X81351703Y-73986701D01*
G37*
G36*
X100871000Y-73769000D02*
X99771000Y-73769000D01*
X99771000Y-71519000D01*
X100871000Y-71519000D01*
X100871000Y-73769000D01*
X100871000Y-73769000D01*
G37*
G36*
X96571000Y-73769000D02*
X95471000Y-73769000D01*
X95471000Y-71519000D01*
X96571000Y-71519000D01*
X96571000Y-73769000D01*
X96571000Y-73769000D01*
G37*
G36*
X104482000Y-73621000D02*
X102782000Y-73621000D01*
X102782000Y-71921000D01*
X104482000Y-71921000D01*
X104482000Y-73621000D01*
X104482000Y-73621000D01*
G37*
G36*
X76874630Y-71806299D02*
X77034855Y-71854903D01*
X77182520Y-71933831D01*
X77311949Y-72040051D01*
X77418169Y-72169480D01*
X77497097Y-72317145D01*
X77545701Y-72477370D01*
X77562112Y-72644000D01*
X77545701Y-72810630D01*
X77497097Y-72970855D01*
X77418169Y-73118520D01*
X77311949Y-73247949D01*
X77182520Y-73354169D01*
X77034855Y-73433097D01*
X76874630Y-73481701D01*
X76749752Y-73494000D01*
X76666248Y-73494000D01*
X76541370Y-73481701D01*
X76381145Y-73433097D01*
X76233480Y-73354169D01*
X76104051Y-73247949D01*
X75997831Y-73118520D01*
X75918903Y-72970855D01*
X75870299Y-72810630D01*
X75853888Y-72644000D01*
X75870299Y-72477370D01*
X75918903Y-72317145D01*
X75997831Y-72169480D01*
X76104051Y-72040051D01*
X76233480Y-71933831D01*
X76381145Y-71854903D01*
X76541370Y-71806299D01*
X76666248Y-71794000D01*
X76749752Y-71794000D01*
X76874630Y-71806299D01*
X76874630Y-71806299D01*
G37*
G36*
X75018000Y-73494000D02*
X73318000Y-73494000D01*
X73318000Y-71794000D01*
X75018000Y-71794000D01*
X75018000Y-73494000D01*
X75018000Y-73494000D01*
G37*
G36*
X84495464Y-72071837D02*
X84527028Y-72081412D01*
X84556117Y-72096960D01*
X84581614Y-72117886D01*
X84602540Y-72143383D01*
X84618088Y-72172472D01*
X84627663Y-72204036D01*
X84631500Y-72242998D01*
X84631500Y-73318002D01*
X84627663Y-73356964D01*
X84618088Y-73388528D01*
X84602540Y-73417617D01*
X84581614Y-73443114D01*
X84556117Y-73464040D01*
X84527028Y-73479588D01*
X84495464Y-73489163D01*
X84456502Y-73493000D01*
X83056498Y-73493000D01*
X83017536Y-73489163D01*
X82985972Y-73479588D01*
X82956883Y-73464040D01*
X82931386Y-73443114D01*
X82910460Y-73417617D01*
X82894912Y-73388528D01*
X82885337Y-73356964D01*
X82881500Y-73318002D01*
X82881500Y-72242998D01*
X82885337Y-72204036D01*
X82894912Y-72172472D01*
X82910460Y-72143383D01*
X82931386Y-72117886D01*
X82956883Y-72096960D01*
X82985972Y-72081412D01*
X83017536Y-72071837D01*
X83056498Y-72068000D01*
X84456502Y-72068000D01*
X84495464Y-72071837D01*
X84495464Y-72071837D01*
G37*
G36*
X87035464Y-72071837D02*
X87067028Y-72081412D01*
X87096117Y-72096960D01*
X87121614Y-72117886D01*
X87142540Y-72143383D01*
X87158088Y-72172472D01*
X87167663Y-72204036D01*
X87171500Y-72242998D01*
X87171500Y-73318002D01*
X87167663Y-73356964D01*
X87158088Y-73388528D01*
X87142540Y-73417617D01*
X87121614Y-73443114D01*
X87096117Y-73464040D01*
X87067028Y-73479588D01*
X87035464Y-73489163D01*
X86996502Y-73493000D01*
X85596498Y-73493000D01*
X85557536Y-73489163D01*
X85525972Y-73479588D01*
X85496883Y-73464040D01*
X85471386Y-73443114D01*
X85450460Y-73417617D01*
X85434912Y-73388528D01*
X85425337Y-73356964D01*
X85421500Y-73318002D01*
X85421500Y-72242998D01*
X85425337Y-72204036D01*
X85434912Y-72172472D01*
X85450460Y-72143383D01*
X85471386Y-72117886D01*
X85496883Y-72096960D01*
X85525972Y-72081412D01*
X85557536Y-72071837D01*
X85596498Y-72068000D01*
X86996502Y-72068000D01*
X87035464Y-72071837D01*
X87035464Y-72071837D01*
G37*
G36*
X89575464Y-72071837D02*
X89607028Y-72081412D01*
X89636117Y-72096960D01*
X89661614Y-72117886D01*
X89682540Y-72143383D01*
X89698088Y-72172472D01*
X89707663Y-72204036D01*
X89711500Y-72242998D01*
X89711500Y-73318002D01*
X89707663Y-73356964D01*
X89698088Y-73388528D01*
X89682540Y-73417617D01*
X89661614Y-73443114D01*
X89636117Y-73464040D01*
X89607028Y-73479588D01*
X89575464Y-73489163D01*
X89536502Y-73493000D01*
X88136498Y-73493000D01*
X88097536Y-73489163D01*
X88065972Y-73479588D01*
X88036883Y-73464040D01*
X88011386Y-73443114D01*
X87990460Y-73417617D01*
X87974912Y-73388528D01*
X87965337Y-73356964D01*
X87961500Y-73318002D01*
X87961500Y-72242998D01*
X87965337Y-72204036D01*
X87974912Y-72172472D01*
X87990460Y-72143383D01*
X88011386Y-72117886D01*
X88036883Y-72096960D01*
X88065972Y-72081412D01*
X88097536Y-72071837D01*
X88136498Y-72068000D01*
X89536502Y-72068000D01*
X89575464Y-72071837D01*
X89575464Y-72071837D01*
G37*
G36*
X107079845Y-72417215D02*
X107170839Y-72454906D01*
X107204458Y-72477370D01*
X107252734Y-72509627D01*
X107322373Y-72579266D01*
X107322375Y-72579269D01*
X107377094Y-72661161D01*
X107414785Y-72752155D01*
X107426417Y-72810630D01*
X107434000Y-72848755D01*
X107434000Y-72947245D01*
X107414785Y-73043845D01*
X107377095Y-73134837D01*
X107322373Y-73216734D01*
X107252734Y-73286373D01*
X107252731Y-73286375D01*
X107170839Y-73341094D01*
X107170838Y-73341095D01*
X107170837Y-73341095D01*
X107079845Y-73378785D01*
X106983246Y-73398000D01*
X106884754Y-73398000D01*
X106788155Y-73378785D01*
X106697163Y-73341095D01*
X106697162Y-73341095D01*
X106697161Y-73341094D01*
X106615269Y-73286375D01*
X106615266Y-73286373D01*
X106545627Y-73216734D01*
X106490905Y-73134837D01*
X106453215Y-73043845D01*
X106434000Y-72947245D01*
X106434000Y-72848755D01*
X106441584Y-72810630D01*
X106453215Y-72752155D01*
X106490906Y-72661161D01*
X106545625Y-72579269D01*
X106545627Y-72579266D01*
X106615266Y-72509627D01*
X106663542Y-72477370D01*
X106697161Y-72454906D01*
X106788155Y-72417215D01*
X106884754Y-72398000D01*
X106983246Y-72398000D01*
X107079845Y-72417215D01*
X107079845Y-72417215D01*
G37*
G36*
X67705464Y-71264837D02*
X67737028Y-71274412D01*
X67766117Y-71289960D01*
X67791614Y-71310886D01*
X67812540Y-71336383D01*
X67828088Y-71365472D01*
X67837663Y-71397036D01*
X67841500Y-71435998D01*
X67841500Y-72836002D01*
X67837663Y-72874964D01*
X67828088Y-72906528D01*
X67812540Y-72935617D01*
X67791614Y-72961114D01*
X67766117Y-72982040D01*
X67737028Y-72997588D01*
X67705464Y-73007163D01*
X67666502Y-73011000D01*
X66591498Y-73011000D01*
X66552536Y-73007163D01*
X66520972Y-72997588D01*
X66491883Y-72982040D01*
X66466386Y-72961114D01*
X66445460Y-72935617D01*
X66429912Y-72906528D01*
X66420337Y-72874964D01*
X66416500Y-72836002D01*
X66416500Y-71435998D01*
X66420337Y-71397036D01*
X66429912Y-71365472D01*
X66445460Y-71336383D01*
X66466386Y-71310886D01*
X66491883Y-71289960D01*
X66520972Y-71274412D01*
X66552536Y-71264837D01*
X66591498Y-71261000D01*
X67666502Y-71261000D01*
X67705464Y-71264837D01*
X67705464Y-71264837D01*
G37*
G36*
X70680464Y-71264837D02*
X70712028Y-71274412D01*
X70741117Y-71289960D01*
X70766614Y-71310886D01*
X70787540Y-71336383D01*
X70803088Y-71365472D01*
X70812663Y-71397036D01*
X70816500Y-71435998D01*
X70816500Y-72836002D01*
X70812663Y-72874964D01*
X70803088Y-72906528D01*
X70787540Y-72935617D01*
X70766614Y-72961114D01*
X70741117Y-72982040D01*
X70712028Y-72997588D01*
X70680464Y-73007163D01*
X70641502Y-73011000D01*
X69566498Y-73011000D01*
X69527536Y-73007163D01*
X69495972Y-72997588D01*
X69466883Y-72982040D01*
X69441386Y-72961114D01*
X69420460Y-72935617D01*
X69404912Y-72906528D01*
X69395337Y-72874964D01*
X69391500Y-72836002D01*
X69391500Y-71435998D01*
X69395337Y-71397036D01*
X69404912Y-71365472D01*
X69420460Y-71336383D01*
X69441386Y-71310886D01*
X69466883Y-71289960D01*
X69495972Y-71274412D01*
X69527536Y-71264837D01*
X69566498Y-71261000D01*
X70641502Y-71261000D01*
X70680464Y-71264837D01*
X70680464Y-71264837D01*
G37*
G36*
X103798630Y-69393299D02*
X103958855Y-69441903D01*
X104106520Y-69520831D01*
X104235949Y-69627051D01*
X104342169Y-69756480D01*
X104421097Y-69904145D01*
X104469701Y-70064370D01*
X104486112Y-70231000D01*
X104469701Y-70397630D01*
X104421097Y-70557855D01*
X104342169Y-70705520D01*
X104235949Y-70834949D01*
X104106520Y-70941169D01*
X103958855Y-71020097D01*
X103798630Y-71068701D01*
X103673752Y-71081000D01*
X103590248Y-71081000D01*
X103465370Y-71068701D01*
X103305145Y-71020097D01*
X103157480Y-70941169D01*
X103028051Y-70834949D01*
X102921831Y-70705520D01*
X102842903Y-70557855D01*
X102794299Y-70397630D01*
X102777888Y-70231000D01*
X102794299Y-70064370D01*
X102842903Y-69904145D01*
X102921831Y-69756480D01*
X103028051Y-69627051D01*
X103157480Y-69520831D01*
X103305145Y-69441903D01*
X103465370Y-69393299D01*
X103590248Y-69381000D01*
X103673752Y-69381000D01*
X103798630Y-69393299D01*
X103798630Y-69393299D01*
G37*
G36*
X107079845Y-69877215D02*
X107170839Y-69914906D01*
X107251640Y-69968896D01*
X107252734Y-69969627D01*
X107322373Y-70039266D01*
X107377095Y-70121163D01*
X107414785Y-70212155D01*
X107434000Y-70308755D01*
X107434000Y-70407245D01*
X107414785Y-70503845D01*
X107377095Y-70594837D01*
X107322373Y-70676734D01*
X107252734Y-70746373D01*
X107252731Y-70746375D01*
X107170839Y-70801094D01*
X107079845Y-70838785D01*
X106983246Y-70858000D01*
X106884754Y-70858000D01*
X106788155Y-70838785D01*
X106697161Y-70801094D01*
X106615269Y-70746375D01*
X106615266Y-70746373D01*
X106545627Y-70676734D01*
X106490905Y-70594837D01*
X106453215Y-70503845D01*
X106434000Y-70407245D01*
X106434000Y-70308755D01*
X106453215Y-70212155D01*
X106490905Y-70121163D01*
X106545627Y-70039266D01*
X106615266Y-69969627D01*
X106616360Y-69968896D01*
X106697161Y-69914906D01*
X106788155Y-69877215D01*
X106884754Y-69858000D01*
X106983246Y-69858000D01*
X107079845Y-69877215D01*
X107079845Y-69877215D01*
G37*
G36*
X97804464Y-67200837D02*
X97836028Y-67210412D01*
X97865117Y-67225960D01*
X97890614Y-67246886D01*
X97911540Y-67272383D01*
X97927088Y-67301472D01*
X97936663Y-67333036D01*
X97940500Y-67371998D01*
X97940500Y-68772002D01*
X97936663Y-68810964D01*
X97927088Y-68842528D01*
X97911540Y-68871617D01*
X97890614Y-68897114D01*
X97865117Y-68918040D01*
X97836028Y-68933588D01*
X97804464Y-68943163D01*
X97765502Y-68947000D01*
X96690498Y-68947000D01*
X96651536Y-68943163D01*
X96619972Y-68933588D01*
X96590883Y-68918040D01*
X96565386Y-68897114D01*
X96544460Y-68871617D01*
X96528912Y-68842528D01*
X96519337Y-68810964D01*
X96515500Y-68772002D01*
X96515500Y-67371998D01*
X96519337Y-67333036D01*
X96528912Y-67301472D01*
X96544460Y-67272383D01*
X96565386Y-67246886D01*
X96590883Y-67225960D01*
X96619972Y-67210412D01*
X96651536Y-67200837D01*
X96690498Y-67197000D01*
X97765502Y-67197000D01*
X97804464Y-67200837D01*
X97804464Y-67200837D01*
G37*
G36*
X100779464Y-67200837D02*
X100811028Y-67210412D01*
X100840117Y-67225960D01*
X100865614Y-67246886D01*
X100886540Y-67272383D01*
X100902088Y-67301472D01*
X100911663Y-67333036D01*
X100915500Y-67371998D01*
X100915500Y-68772002D01*
X100911663Y-68810964D01*
X100902088Y-68842528D01*
X100886540Y-68871617D01*
X100865614Y-68897114D01*
X100840117Y-68918040D01*
X100811028Y-68933588D01*
X100779464Y-68943163D01*
X100740502Y-68947000D01*
X99665498Y-68947000D01*
X99626536Y-68943163D01*
X99594972Y-68933588D01*
X99565883Y-68918040D01*
X99540386Y-68897114D01*
X99519460Y-68871617D01*
X99503912Y-68842528D01*
X99494337Y-68810964D01*
X99490500Y-68772002D01*
X99490500Y-67371998D01*
X99494337Y-67333036D01*
X99503912Y-67301472D01*
X99519460Y-67272383D01*
X99540386Y-67246886D01*
X99565883Y-67225960D01*
X99594972Y-67210412D01*
X99626536Y-67200837D01*
X99665498Y-67197000D01*
X100740502Y-67197000D01*
X100779464Y-67200837D01*
X100779464Y-67200837D01*
G37*
G36*
X95607964Y-67453837D02*
X95639528Y-67463412D01*
X95668617Y-67478960D01*
X95694114Y-67499886D01*
X95715040Y-67525383D01*
X95730588Y-67554472D01*
X95740163Y-67586036D01*
X95744000Y-67624998D01*
X95744000Y-68700002D01*
X95740163Y-68738964D01*
X95730588Y-68770528D01*
X95715040Y-68799617D01*
X95694114Y-68825114D01*
X95668617Y-68846040D01*
X95639528Y-68861588D01*
X95607964Y-68871163D01*
X95569002Y-68875000D01*
X94168998Y-68875000D01*
X94130036Y-68871163D01*
X94098472Y-68861588D01*
X94069383Y-68846040D01*
X94043886Y-68825114D01*
X94022960Y-68799617D01*
X94007412Y-68770528D01*
X93997837Y-68738964D01*
X93994000Y-68700002D01*
X93994000Y-67624998D01*
X93997837Y-67586036D01*
X94007412Y-67554472D01*
X94022960Y-67525383D01*
X94043886Y-67499886D01*
X94069383Y-67478960D01*
X94098472Y-67463412D01*
X94130036Y-67453837D01*
X94168998Y-67450000D01*
X95569002Y-67450000D01*
X95607964Y-67453837D01*
X95607964Y-67453837D01*
G37*
G36*
X78626000Y-68753000D02*
X77076000Y-68753000D01*
X77076000Y-68153000D01*
X78626000Y-68153000D01*
X78626000Y-68753000D01*
X78626000Y-68753000D01*
G37*
G36*
X73226000Y-68753000D02*
X71676000Y-68753000D01*
X71676000Y-68153000D01*
X73226000Y-68153000D01*
X73226000Y-68753000D01*
X73226000Y-68753000D01*
G37*
G36*
X68937964Y-66982337D02*
X68969528Y-66991912D01*
X68998617Y-67007460D01*
X69024114Y-67028386D01*
X69045040Y-67053883D01*
X69060588Y-67082972D01*
X69070163Y-67114536D01*
X69074000Y-67153498D01*
X69074000Y-68228502D01*
X69070163Y-68267464D01*
X69060588Y-68299028D01*
X69045040Y-68328117D01*
X69024114Y-68353614D01*
X68998617Y-68374540D01*
X68969528Y-68390088D01*
X68937964Y-68399663D01*
X68899002Y-68403500D01*
X67498998Y-68403500D01*
X67460036Y-68399663D01*
X67428472Y-68390088D01*
X67399383Y-68374540D01*
X67373886Y-68353614D01*
X67352960Y-68328117D01*
X67337412Y-68299028D01*
X67327837Y-68267464D01*
X67324000Y-68228502D01*
X67324000Y-67153498D01*
X67327837Y-67114536D01*
X67337412Y-67082972D01*
X67352960Y-67053883D01*
X67373886Y-67028386D01*
X67399383Y-67007460D01*
X67428472Y-66991912D01*
X67460036Y-66982337D01*
X67498998Y-66978500D01*
X68899002Y-66978500D01*
X68937964Y-66982337D01*
X68937964Y-66982337D01*
G37*
G36*
X73226000Y-67483000D02*
X71676000Y-67483000D01*
X71676000Y-66883000D01*
X73226000Y-66883000D01*
X73226000Y-67483000D01*
X73226000Y-67483000D01*
G37*
G36*
X78626000Y-67483000D02*
X77076000Y-67483000D01*
X77076000Y-66883000D01*
X78626000Y-66883000D01*
X78626000Y-67483000D01*
X78626000Y-67483000D01*
G37*
G36*
X88414000Y-67000000D02*
X87354000Y-67000000D01*
X87354000Y-66350000D01*
X88414000Y-66350000D01*
X88414000Y-67000000D01*
X88414000Y-67000000D01*
G37*
G36*
X86214000Y-67000000D02*
X85154000Y-67000000D01*
X85154000Y-66350000D01*
X86214000Y-66350000D01*
X86214000Y-67000000D01*
X86214000Y-67000000D01*
G37*
G36*
X73226000Y-66213000D02*
X71676000Y-66213000D01*
X71676000Y-65613000D01*
X73226000Y-65613000D01*
X73226000Y-66213000D01*
X73226000Y-66213000D01*
G37*
G36*
X78626000Y-66213000D02*
X77076000Y-66213000D01*
X77076000Y-65613000D01*
X78626000Y-65613000D01*
X78626000Y-66213000D01*
X78626000Y-66213000D01*
G37*
G36*
X86214000Y-66050000D02*
X85154000Y-66050000D01*
X85154000Y-65400000D01*
X86214000Y-65400000D01*
X86214000Y-66050000D01*
X86214000Y-66050000D01*
G37*
G36*
X88414000Y-66050000D02*
X87354000Y-66050000D01*
X87354000Y-65400000D01*
X88414000Y-65400000D01*
X88414000Y-66050000D01*
X88414000Y-66050000D01*
G37*
G36*
X95607964Y-64478837D02*
X95639528Y-64488412D01*
X95668617Y-64503960D01*
X95694114Y-64524886D01*
X95715040Y-64550383D01*
X95730588Y-64579472D01*
X95740163Y-64611036D01*
X95744000Y-64649998D01*
X95744000Y-65725002D01*
X95740163Y-65763964D01*
X95730588Y-65795528D01*
X95715040Y-65824617D01*
X95694114Y-65850114D01*
X95668617Y-65871040D01*
X95639528Y-65886588D01*
X95607964Y-65896163D01*
X95569002Y-65900000D01*
X94168998Y-65900000D01*
X94130036Y-65896163D01*
X94098472Y-65886588D01*
X94069383Y-65871040D01*
X94043886Y-65850114D01*
X94022960Y-65824617D01*
X94007412Y-65795528D01*
X93997837Y-65763964D01*
X93994000Y-65725002D01*
X93994000Y-64649998D01*
X93997837Y-64611036D01*
X94007412Y-64579472D01*
X94022960Y-64550383D01*
X94043886Y-64524886D01*
X94069383Y-64503960D01*
X94098472Y-64488412D01*
X94130036Y-64478837D01*
X94168998Y-64475000D01*
X95569002Y-64475000D01*
X95607964Y-64478837D01*
X95607964Y-64478837D01*
G37*
G36*
X83978964Y-64152837D02*
X84010528Y-64162412D01*
X84039617Y-64177960D01*
X84065114Y-64198886D01*
X84086040Y-64224383D01*
X84101588Y-64253472D01*
X84111163Y-64285036D01*
X84115000Y-64323998D01*
X84115000Y-65724002D01*
X84111163Y-65762964D01*
X84101588Y-65794528D01*
X84086040Y-65823617D01*
X84065114Y-65849114D01*
X84039617Y-65870040D01*
X84010528Y-65885588D01*
X83978964Y-65895163D01*
X83940002Y-65899000D01*
X82864998Y-65899000D01*
X82826036Y-65895163D01*
X82794472Y-65885588D01*
X82765383Y-65870040D01*
X82739886Y-65849114D01*
X82718960Y-65823617D01*
X82703412Y-65794528D01*
X82693837Y-65762964D01*
X82690000Y-65724002D01*
X82690000Y-64323998D01*
X82693837Y-64285036D01*
X82703412Y-64253472D01*
X82718960Y-64224383D01*
X82739886Y-64198886D01*
X82765383Y-64177960D01*
X82794472Y-64162412D01*
X82826036Y-64152837D01*
X82864998Y-64149000D01*
X83940002Y-64149000D01*
X83978964Y-64152837D01*
X83978964Y-64152837D01*
G37*
G36*
X81003964Y-64152837D02*
X81035528Y-64162412D01*
X81064617Y-64177960D01*
X81090114Y-64198886D01*
X81111040Y-64224383D01*
X81126588Y-64253472D01*
X81136163Y-64285036D01*
X81140000Y-64323998D01*
X81140000Y-65724002D01*
X81136163Y-65762964D01*
X81126588Y-65794528D01*
X81111040Y-65823617D01*
X81090114Y-65849114D01*
X81064617Y-65870040D01*
X81035528Y-65885588D01*
X81003964Y-65895163D01*
X80965002Y-65899000D01*
X79889998Y-65899000D01*
X79851036Y-65895163D01*
X79819472Y-65885588D01*
X79790383Y-65870040D01*
X79764886Y-65849114D01*
X79743960Y-65823617D01*
X79728412Y-65794528D01*
X79718837Y-65762964D01*
X79715000Y-65724002D01*
X79715000Y-64323998D01*
X79718837Y-64285036D01*
X79728412Y-64253472D01*
X79743960Y-64224383D01*
X79764886Y-64198886D01*
X79790383Y-64177960D01*
X79819472Y-64162412D01*
X79851036Y-64152837D01*
X79889998Y-64149000D01*
X80965002Y-64149000D01*
X81003964Y-64152837D01*
X81003964Y-64152837D01*
G37*
G36*
X91352630Y-63932299D02*
X91512855Y-63980903D01*
X91660520Y-64059831D01*
X91789949Y-64166051D01*
X91896169Y-64295480D01*
X91975097Y-64443145D01*
X92023701Y-64603370D01*
X92040112Y-64770000D01*
X92023701Y-64936630D01*
X91975097Y-65096855D01*
X91896169Y-65244520D01*
X91789949Y-65373949D01*
X91660520Y-65480169D01*
X91512855Y-65559097D01*
X91352630Y-65607701D01*
X91227752Y-65620000D01*
X91144248Y-65620000D01*
X91019370Y-65607701D01*
X90859145Y-65559097D01*
X90711480Y-65480169D01*
X90582051Y-65373949D01*
X90475831Y-65244520D01*
X90396903Y-65096855D01*
X90348299Y-64936630D01*
X90331888Y-64770000D01*
X90348299Y-64603370D01*
X90396903Y-64443145D01*
X90475831Y-64295480D01*
X90582051Y-64166051D01*
X90711480Y-64059831D01*
X90859145Y-63980903D01*
X91019370Y-63932299D01*
X91144248Y-63920000D01*
X91227752Y-63920000D01*
X91352630Y-63932299D01*
X91352630Y-63932299D01*
G37*
G36*
X68937964Y-64007337D02*
X68969528Y-64016912D01*
X68998617Y-64032460D01*
X69024114Y-64053386D01*
X69045040Y-64078883D01*
X69060588Y-64107972D01*
X69070163Y-64139536D01*
X69074000Y-64178498D01*
X69074000Y-65253502D01*
X69070163Y-65292464D01*
X69060588Y-65324028D01*
X69045040Y-65353117D01*
X69024114Y-65378614D01*
X68998617Y-65399540D01*
X68969528Y-65415088D01*
X68937964Y-65424663D01*
X68899002Y-65428500D01*
X67498998Y-65428500D01*
X67460036Y-65424663D01*
X67428472Y-65415088D01*
X67399383Y-65399540D01*
X67373886Y-65378614D01*
X67352960Y-65353117D01*
X67337412Y-65324028D01*
X67327837Y-65292464D01*
X67324000Y-65253502D01*
X67324000Y-64178498D01*
X67327837Y-64139536D01*
X67337412Y-64107972D01*
X67352960Y-64078883D01*
X67373886Y-64053386D01*
X67399383Y-64032460D01*
X67428472Y-64016912D01*
X67460036Y-64007337D01*
X67498998Y-64003500D01*
X68899002Y-64003500D01*
X68937964Y-64007337D01*
X68937964Y-64007337D01*
G37*
G36*
X88414000Y-65100000D02*
X87354000Y-65100000D01*
X87354000Y-64450000D01*
X88414000Y-64450000D01*
X88414000Y-65100000D01*
X88414000Y-65100000D01*
G37*
G36*
X86214000Y-65100000D02*
X85154000Y-65100000D01*
X85154000Y-64450000D01*
X86214000Y-64450000D01*
X86214000Y-65100000D01*
X86214000Y-65100000D01*
G37*
G36*
X73226000Y-64943000D02*
X71676000Y-64943000D01*
X71676000Y-64343000D01*
X73226000Y-64343000D01*
X73226000Y-64943000D01*
X73226000Y-64943000D01*
G37*
G36*
X78626000Y-64943000D02*
X77076000Y-64943000D01*
X77076000Y-64343000D01*
X78626000Y-64343000D01*
X78626000Y-64943000D01*
X78626000Y-64943000D01*
G37*
G36*
X92036000Y-63080000D02*
X90336000Y-63080000D01*
X90336000Y-61380000D01*
X92036000Y-61380000D01*
X92036000Y-63080000D01*
X92036000Y-63080000D01*
G37*
G36*
X81679845Y-62003215D02*
X81770839Y-62040906D01*
X81835565Y-62084155D01*
X81852734Y-62095627D01*
X81922373Y-62165266D01*
X81922375Y-62165269D01*
X81932723Y-62180755D01*
X81977095Y-62247163D01*
X82014785Y-62338155D01*
X82034000Y-62434755D01*
X82034000Y-62533245D01*
X82014785Y-62629845D01*
X81988833Y-62692500D01*
X81977094Y-62720839D01*
X81963440Y-62741273D01*
X81922373Y-62802734D01*
X81852734Y-62872373D01*
X81852731Y-62872375D01*
X81770839Y-62927094D01*
X81679845Y-62964785D01*
X81583246Y-62984000D01*
X81484754Y-62984000D01*
X81388155Y-62964785D01*
X81297161Y-62927094D01*
X81215269Y-62872375D01*
X81215266Y-62872373D01*
X81145627Y-62802734D01*
X81104560Y-62741273D01*
X81090906Y-62720839D01*
X81079168Y-62692500D01*
X81053215Y-62629845D01*
X81034000Y-62533245D01*
X81034000Y-62434755D01*
X81053215Y-62338155D01*
X81090905Y-62247163D01*
X81135278Y-62180755D01*
X81145625Y-62165269D01*
X81145627Y-62165266D01*
X81215266Y-62095627D01*
X81232435Y-62084155D01*
X81297161Y-62040906D01*
X81388155Y-62003215D01*
X81484754Y-61984000D01*
X81583246Y-61984000D01*
X81679845Y-62003215D01*
X81679845Y-62003215D01*
G37*
G36*
X68937964Y-61521337D02*
X68969528Y-61530912D01*
X68998617Y-61546460D01*
X69024114Y-61567386D01*
X69045040Y-61592883D01*
X69060588Y-61621972D01*
X69070163Y-61653536D01*
X69074000Y-61692498D01*
X69074000Y-62767502D01*
X69070163Y-62806464D01*
X69060588Y-62838028D01*
X69045040Y-62867117D01*
X69024114Y-62892614D01*
X68998617Y-62913540D01*
X68969528Y-62929088D01*
X68937964Y-62938663D01*
X68899002Y-62942500D01*
X67498998Y-62942500D01*
X67460036Y-62938663D01*
X67428472Y-62929088D01*
X67399383Y-62913540D01*
X67373886Y-62892614D01*
X67352960Y-62867117D01*
X67337412Y-62838028D01*
X67327837Y-62806464D01*
X67324000Y-62767502D01*
X67324000Y-61692498D01*
X67327837Y-61653536D01*
X67337412Y-61621972D01*
X67352960Y-61592883D01*
X67373886Y-61567386D01*
X67399383Y-61546460D01*
X67428472Y-61530912D01*
X67460036Y-61521337D01*
X67498998Y-61517500D01*
X68899002Y-61517500D01*
X68937964Y-61521337D01*
X68937964Y-61521337D01*
G37*
G36*
X88791845Y-61749215D02*
X88882839Y-61786906D01*
X88963640Y-61840896D01*
X88964734Y-61841627D01*
X89034373Y-61911266D01*
X89034375Y-61911269D01*
X89089094Y-61993161D01*
X89126785Y-62084155D01*
X89146000Y-62180754D01*
X89146000Y-62279246D01*
X89126785Y-62375845D01*
X89089094Y-62466839D01*
X89044722Y-62533246D01*
X89034373Y-62548734D01*
X88964734Y-62618373D01*
X88964731Y-62618375D01*
X88882839Y-62673094D01*
X88791845Y-62710785D01*
X88695246Y-62730000D01*
X88596754Y-62730000D01*
X88500155Y-62710785D01*
X88409161Y-62673094D01*
X88327269Y-62618375D01*
X88327266Y-62618373D01*
X88257627Y-62548734D01*
X88247278Y-62533246D01*
X88202906Y-62466839D01*
X88165215Y-62375845D01*
X88146000Y-62279246D01*
X88146000Y-62180754D01*
X88165215Y-62084155D01*
X88202906Y-61993161D01*
X88257625Y-61911269D01*
X88257627Y-61911266D01*
X88327266Y-61841627D01*
X88328360Y-61840896D01*
X88409161Y-61786906D01*
X88500155Y-61749215D01*
X88596754Y-61730000D01*
X88695246Y-61730000D01*
X88791845Y-61749215D01*
X88791845Y-61749215D01*
G37*
G36*
X89403464Y-58564837D02*
X89435028Y-58574412D01*
X89464117Y-58589960D01*
X89489614Y-58610886D01*
X89510540Y-58636383D01*
X89526088Y-58665472D01*
X89535663Y-58697036D01*
X89539500Y-58735998D01*
X89539500Y-60136002D01*
X89535663Y-60174964D01*
X89526088Y-60206528D01*
X89510540Y-60235617D01*
X89489614Y-60261114D01*
X89464117Y-60282040D01*
X89435028Y-60297588D01*
X89403464Y-60307163D01*
X89364502Y-60311000D01*
X88289498Y-60311000D01*
X88250536Y-60307163D01*
X88218972Y-60297588D01*
X88189883Y-60282040D01*
X88164386Y-60261114D01*
X88143460Y-60235617D01*
X88127912Y-60206528D01*
X88118337Y-60174964D01*
X88114500Y-60136002D01*
X88114500Y-58735998D01*
X88118337Y-58697036D01*
X88127912Y-58665472D01*
X88143460Y-58636383D01*
X88164386Y-58610886D01*
X88189883Y-58589960D01*
X88218972Y-58574412D01*
X88250536Y-58564837D01*
X88289498Y-58561000D01*
X89364502Y-58561000D01*
X89403464Y-58564837D01*
X89403464Y-58564837D01*
G37*
G36*
X84069464Y-58564837D02*
X84101028Y-58574412D01*
X84130117Y-58589960D01*
X84155614Y-58610886D01*
X84176540Y-58636383D01*
X84192088Y-58665472D01*
X84201663Y-58697036D01*
X84205500Y-58735998D01*
X84205500Y-60136002D01*
X84201663Y-60174964D01*
X84192088Y-60206528D01*
X84176540Y-60235617D01*
X84155614Y-60261114D01*
X84130117Y-60282040D01*
X84101028Y-60297588D01*
X84069464Y-60307163D01*
X84030502Y-60311000D01*
X82955498Y-60311000D01*
X82916536Y-60307163D01*
X82884972Y-60297588D01*
X82855883Y-60282040D01*
X82830386Y-60261114D01*
X82809460Y-60235617D01*
X82793912Y-60206528D01*
X82784337Y-60174964D01*
X82780500Y-60136002D01*
X82780500Y-58735998D01*
X82784337Y-58697036D01*
X82793912Y-58665472D01*
X82809460Y-58636383D01*
X82830386Y-58610886D01*
X82855883Y-58589960D01*
X82884972Y-58574412D01*
X82916536Y-58564837D01*
X82955498Y-58561000D01*
X84030502Y-58561000D01*
X84069464Y-58564837D01*
X84069464Y-58564837D01*
G37*
G36*
X81094464Y-58564837D02*
X81126028Y-58574412D01*
X81155117Y-58589960D01*
X81180614Y-58610886D01*
X81201540Y-58636383D01*
X81217088Y-58665472D01*
X81226663Y-58697036D01*
X81230500Y-58735998D01*
X81230500Y-60136002D01*
X81226663Y-60174964D01*
X81217088Y-60206528D01*
X81201540Y-60235617D01*
X81180614Y-60261114D01*
X81155117Y-60282040D01*
X81126028Y-60297588D01*
X81094464Y-60307163D01*
X81055502Y-60311000D01*
X79980498Y-60311000D01*
X79941536Y-60307163D01*
X79909972Y-60297588D01*
X79880883Y-60282040D01*
X79855386Y-60261114D01*
X79834460Y-60235617D01*
X79818912Y-60206528D01*
X79809337Y-60174964D01*
X79805500Y-60136002D01*
X79805500Y-58735998D01*
X79809337Y-58697036D01*
X79818912Y-58665472D01*
X79834460Y-58636383D01*
X79855386Y-58610886D01*
X79880883Y-58589960D01*
X79909972Y-58574412D01*
X79941536Y-58564837D01*
X79980498Y-58561000D01*
X81055502Y-58561000D01*
X81094464Y-58564837D01*
X81094464Y-58564837D01*
G37*
G36*
X86428464Y-58564837D02*
X86460028Y-58574412D01*
X86489117Y-58589960D01*
X86514614Y-58610886D01*
X86535540Y-58636383D01*
X86551088Y-58665472D01*
X86560663Y-58697036D01*
X86564500Y-58735998D01*
X86564500Y-60136002D01*
X86560663Y-60174964D01*
X86551088Y-60206528D01*
X86535540Y-60235617D01*
X86514614Y-60261114D01*
X86489117Y-60282040D01*
X86460028Y-60297588D01*
X86428464Y-60307163D01*
X86389502Y-60311000D01*
X85314498Y-60311000D01*
X85275536Y-60307163D01*
X85243972Y-60297588D01*
X85214883Y-60282040D01*
X85189386Y-60261114D01*
X85168460Y-60235617D01*
X85152912Y-60206528D01*
X85143337Y-60174964D01*
X85139500Y-60136002D01*
X85139500Y-58735998D01*
X85143337Y-58697036D01*
X85152912Y-58665472D01*
X85168460Y-58636383D01*
X85189386Y-58610886D01*
X85214883Y-58589960D01*
X85243972Y-58574412D01*
X85275536Y-58564837D01*
X85314498Y-58561000D01*
X86389502Y-58561000D01*
X86428464Y-58564837D01*
X86428464Y-58564837D01*
G37*
G36*
X74271000Y-60109000D02*
X71271000Y-60109000D01*
X71271000Y-58509000D01*
X74271000Y-58509000D01*
X74271000Y-60109000D01*
X74271000Y-60109000D01*
G37*
G36*
X78671000Y-60109000D02*
X75671000Y-60109000D01*
X75671000Y-58509000D01*
X78671000Y-58509000D01*
X78671000Y-60109000D01*
X78671000Y-60109000D01*
G37*
G36*
X68937964Y-58546337D02*
X68969528Y-58555912D01*
X68998617Y-58571460D01*
X69024114Y-58592386D01*
X69045040Y-58617883D01*
X69060588Y-58646972D01*
X69070163Y-58678536D01*
X69074000Y-58717498D01*
X69074000Y-59792502D01*
X69070163Y-59831464D01*
X69060588Y-59863028D01*
X69045040Y-59892117D01*
X69024114Y-59917614D01*
X68998617Y-59938540D01*
X68969528Y-59954088D01*
X68937964Y-59963663D01*
X68899002Y-59967500D01*
X67498998Y-59967500D01*
X67460036Y-59963663D01*
X67428472Y-59954088D01*
X67399383Y-59938540D01*
X67373886Y-59917614D01*
X67352960Y-59892117D01*
X67337412Y-59863028D01*
X67327837Y-59831464D01*
X67324000Y-59792502D01*
X67324000Y-58717498D01*
X67327837Y-58678536D01*
X67337412Y-58646972D01*
X67352960Y-58617883D01*
X67373886Y-58592386D01*
X67399383Y-58571460D01*
X67428472Y-58555912D01*
X67460036Y-58546337D01*
X67498998Y-58542500D01*
X68899002Y-58542500D01*
X68937964Y-58546337D01*
X68937964Y-58546337D01*
G37*
G36*
X70757845Y-55907215D02*
X70848839Y-55944906D01*
X70929640Y-55998896D01*
X70930734Y-55999627D01*
X71000373Y-56069266D01*
X71055095Y-56151163D01*
X71092785Y-56242155D01*
X71112000Y-56338755D01*
X71112000Y-56437245D01*
X71092785Y-56533845D01*
X71055095Y-56624837D01*
X71000373Y-56706734D01*
X70930734Y-56776373D01*
X70930731Y-56776375D01*
X70848839Y-56831094D01*
X70757845Y-56868785D01*
X70661246Y-56888000D01*
X70562754Y-56888000D01*
X70466155Y-56868785D01*
X70375161Y-56831094D01*
X70293269Y-56776375D01*
X70293266Y-56776373D01*
X70223627Y-56706734D01*
X70168905Y-56624837D01*
X70131215Y-56533845D01*
X70112000Y-56437245D01*
X70112000Y-56338755D01*
X70131215Y-56242155D01*
X70168905Y-56151163D01*
X70223627Y-56069266D01*
X70293266Y-55999627D01*
X70294360Y-55998896D01*
X70375161Y-55944906D01*
X70466155Y-55907215D01*
X70562754Y-55888000D01*
X70661246Y-55888000D01*
X70757845Y-55907215D01*
X70757845Y-55907215D01*
G37*
G36*
X84286703Y-51801486D02*
X84577883Y-51922097D01*
X84839944Y-52097201D01*
X85062799Y-52320056D01*
X85237903Y-52582117D01*
X85358514Y-52873297D01*
X85420000Y-53182412D01*
X85420000Y-53497588D01*
X85358514Y-53806703D01*
X85237903Y-54097883D01*
X85062799Y-54359944D01*
X84839944Y-54582799D01*
X84577883Y-54757903D01*
X84286703Y-54878514D01*
X83977588Y-54940000D01*
X83662412Y-54940000D01*
X83353297Y-54878514D01*
X83062117Y-54757903D01*
X82800056Y-54582799D01*
X82577201Y-54359944D01*
X82402097Y-54097883D01*
X82281486Y-53806703D01*
X82220000Y-53497588D01*
X82220000Y-53182412D01*
X82281486Y-52873297D01*
X82402097Y-52582117D01*
X82577201Y-52320056D01*
X82800056Y-52097201D01*
X83062117Y-51922097D01*
X83353297Y-51801486D01*
X83662412Y-51740000D01*
X83977588Y-51740000D01*
X84286703Y-51801486D01*
X84286703Y-51801486D01*
G37*
M02*
