G04 #@! TF.GenerationSoftware,KiCad,Pcbnew,(5.1.4-0-10_14)*
G04 #@! TF.CreationDate,2019-09-02T22:38:08-04:00*
G04 #@! TF.ProjectId,EFCv2,45464376-322e-46b6-9963-61645f706362,rev?*
G04 #@! TF.SameCoordinates,Original*
G04 #@! TF.FileFunction,Copper,L2,Bot*
G04 #@! TF.FilePolarity,Positive*
%FSLAX46Y46*%
G04 Gerber Fmt 4.6, Leading zero omitted, Abs format (unit mm)*
G04 Created by KiCad (PCBNEW (5.1.4-0-10_14)) date 2019-09-02 22:38:08*
%MOMM*%
%LPD*%
G04 APERTURE LIST*
%ADD10C,0.100000*%
%ADD11C,0.200000*%
%ADD12C,1.800000*%
%ADD13R,1.800000X1.800000*%
%ADD14C,1.000000*%
%ADD15O,1.700000X1.700000*%
%ADD16R,1.700000X1.700000*%
%ADD17O,1.800000X1.150000*%
%ADD18O,2.000000X1.450000*%
%ADD19C,2.600000*%
%ADD20C,5.560000*%
%ADD21C,0.800000*%
%ADD22C,0.600000*%
%ADD23C,0.150000*%
%ADD24C,0.088900*%
%ADD25C,0.250000*%
%ADD26C,0.400000*%
%ADD27C,0.254000*%
G04 APERTURE END LIST*
D10*
G36*
X138007401Y-76338241D02*
G01*
X138012255Y-76338961D01*
X138017014Y-76340153D01*
X138021634Y-76341806D01*
X138026070Y-76343904D01*
X138030279Y-76346427D01*
X138034220Y-76349349D01*
X138037855Y-76352645D01*
X138041151Y-76356280D01*
X138044073Y-76360221D01*
X138046596Y-76364430D01*
X138048694Y-76368866D01*
X138050347Y-76373486D01*
X138051539Y-76378245D01*
X138052259Y-76383099D01*
X138052500Y-76388000D01*
X138052500Y-76613000D01*
X138052259Y-76617901D01*
X138051539Y-76622755D01*
X138050347Y-76627514D01*
X138048694Y-76632134D01*
X138046596Y-76636570D01*
X138044073Y-76640779D01*
X138041151Y-76644720D01*
X138037855Y-76648355D01*
X138034220Y-76651651D01*
X138030279Y-76654573D01*
X138026070Y-76657096D01*
X138021634Y-76659194D01*
X138017014Y-76660847D01*
X138012255Y-76662039D01*
X138007401Y-76662759D01*
X138002500Y-76663000D01*
X137902500Y-76663000D01*
X137897599Y-76662759D01*
X137892745Y-76662039D01*
X137887986Y-76660847D01*
X137883366Y-76659194D01*
X137878930Y-76657096D01*
X137874721Y-76654573D01*
X137870780Y-76651651D01*
X137867145Y-76648355D01*
X137863849Y-76644720D01*
X137860927Y-76640779D01*
X137858404Y-76636570D01*
X137856306Y-76632134D01*
X137854653Y-76627514D01*
X137853461Y-76622755D01*
X137852741Y-76617901D01*
X137852500Y-76613000D01*
X137852500Y-76388000D01*
X137852741Y-76383099D01*
X137853461Y-76378245D01*
X137854653Y-76373486D01*
X137856306Y-76368866D01*
X137858404Y-76364430D01*
X137860927Y-76360221D01*
X137863849Y-76356280D01*
X137867145Y-76352645D01*
X137870780Y-76349349D01*
X137874721Y-76346427D01*
X137878930Y-76343904D01*
X137883366Y-76341806D01*
X137887986Y-76340153D01*
X137892745Y-76338961D01*
X137897599Y-76338241D01*
X137902500Y-76338000D01*
X138002500Y-76338000D01*
X138007401Y-76338241D01*
X138007401Y-76338241D01*
G37*
D11*
X137952500Y-76500500D03*
D10*
G36*
X138357401Y-76338241D02*
G01*
X138362255Y-76338961D01*
X138367014Y-76340153D01*
X138371634Y-76341806D01*
X138376070Y-76343904D01*
X138380279Y-76346427D01*
X138384220Y-76349349D01*
X138387855Y-76352645D01*
X138391151Y-76356280D01*
X138394073Y-76360221D01*
X138396596Y-76364430D01*
X138398694Y-76368866D01*
X138400347Y-76373486D01*
X138401539Y-76378245D01*
X138402259Y-76383099D01*
X138402500Y-76388000D01*
X138402500Y-76613000D01*
X138402259Y-76617901D01*
X138401539Y-76622755D01*
X138400347Y-76627514D01*
X138398694Y-76632134D01*
X138396596Y-76636570D01*
X138394073Y-76640779D01*
X138391151Y-76644720D01*
X138387855Y-76648355D01*
X138384220Y-76651651D01*
X138380279Y-76654573D01*
X138376070Y-76657096D01*
X138371634Y-76659194D01*
X138367014Y-76660847D01*
X138362255Y-76662039D01*
X138357401Y-76662759D01*
X138352500Y-76663000D01*
X138252500Y-76663000D01*
X138247599Y-76662759D01*
X138242745Y-76662039D01*
X138237986Y-76660847D01*
X138233366Y-76659194D01*
X138228930Y-76657096D01*
X138224721Y-76654573D01*
X138220780Y-76651651D01*
X138217145Y-76648355D01*
X138213849Y-76644720D01*
X138210927Y-76640779D01*
X138208404Y-76636570D01*
X138206306Y-76632134D01*
X138204653Y-76627514D01*
X138203461Y-76622755D01*
X138202741Y-76617901D01*
X138202500Y-76613000D01*
X138202500Y-76388000D01*
X138202741Y-76383099D01*
X138203461Y-76378245D01*
X138204653Y-76373486D01*
X138206306Y-76368866D01*
X138208404Y-76364430D01*
X138210927Y-76360221D01*
X138213849Y-76356280D01*
X138217145Y-76352645D01*
X138220780Y-76349349D01*
X138224721Y-76346427D01*
X138228930Y-76343904D01*
X138233366Y-76341806D01*
X138237986Y-76340153D01*
X138242745Y-76338961D01*
X138247599Y-76338241D01*
X138252500Y-76338000D01*
X138352500Y-76338000D01*
X138357401Y-76338241D01*
X138357401Y-76338241D01*
G37*
D11*
X138302500Y-76500500D03*
D10*
G36*
X138707401Y-76338241D02*
G01*
X138712255Y-76338961D01*
X138717014Y-76340153D01*
X138721634Y-76341806D01*
X138726070Y-76343904D01*
X138730279Y-76346427D01*
X138734220Y-76349349D01*
X138737855Y-76352645D01*
X138741151Y-76356280D01*
X138744073Y-76360221D01*
X138746596Y-76364430D01*
X138748694Y-76368866D01*
X138750347Y-76373486D01*
X138751539Y-76378245D01*
X138752259Y-76383099D01*
X138752500Y-76388000D01*
X138752500Y-76613000D01*
X138752259Y-76617901D01*
X138751539Y-76622755D01*
X138750347Y-76627514D01*
X138748694Y-76632134D01*
X138746596Y-76636570D01*
X138744073Y-76640779D01*
X138741151Y-76644720D01*
X138737855Y-76648355D01*
X138734220Y-76651651D01*
X138730279Y-76654573D01*
X138726070Y-76657096D01*
X138721634Y-76659194D01*
X138717014Y-76660847D01*
X138712255Y-76662039D01*
X138707401Y-76662759D01*
X138702500Y-76663000D01*
X138602500Y-76663000D01*
X138597599Y-76662759D01*
X138592745Y-76662039D01*
X138587986Y-76660847D01*
X138583366Y-76659194D01*
X138578930Y-76657096D01*
X138574721Y-76654573D01*
X138570780Y-76651651D01*
X138567145Y-76648355D01*
X138563849Y-76644720D01*
X138560927Y-76640779D01*
X138558404Y-76636570D01*
X138556306Y-76632134D01*
X138554653Y-76627514D01*
X138553461Y-76622755D01*
X138552741Y-76617901D01*
X138552500Y-76613000D01*
X138552500Y-76388000D01*
X138552741Y-76383099D01*
X138553461Y-76378245D01*
X138554653Y-76373486D01*
X138556306Y-76368866D01*
X138558404Y-76364430D01*
X138560927Y-76360221D01*
X138563849Y-76356280D01*
X138567145Y-76352645D01*
X138570780Y-76349349D01*
X138574721Y-76346427D01*
X138578930Y-76343904D01*
X138583366Y-76341806D01*
X138587986Y-76340153D01*
X138592745Y-76338961D01*
X138597599Y-76338241D01*
X138602500Y-76338000D01*
X138702500Y-76338000D01*
X138707401Y-76338241D01*
X138707401Y-76338241D01*
G37*
D11*
X138652500Y-76500500D03*
D10*
G36*
X139182401Y-76163241D02*
G01*
X139187255Y-76163961D01*
X139192014Y-76165153D01*
X139196634Y-76166806D01*
X139201070Y-76168904D01*
X139205279Y-76171427D01*
X139209220Y-76174349D01*
X139212855Y-76177645D01*
X139216151Y-76181280D01*
X139219073Y-76185221D01*
X139221596Y-76189430D01*
X139223694Y-76193866D01*
X139225347Y-76198486D01*
X139226539Y-76203245D01*
X139227259Y-76208099D01*
X139227500Y-76213000D01*
X139227500Y-76313000D01*
X139227259Y-76317901D01*
X139226539Y-76322755D01*
X139225347Y-76327514D01*
X139223694Y-76332134D01*
X139221596Y-76336570D01*
X139219073Y-76340779D01*
X139216151Y-76344720D01*
X139212855Y-76348355D01*
X139209220Y-76351651D01*
X139205279Y-76354573D01*
X139201070Y-76357096D01*
X139196634Y-76359194D01*
X139192014Y-76360847D01*
X139187255Y-76362039D01*
X139182401Y-76362759D01*
X139177500Y-76363000D01*
X138952500Y-76363000D01*
X138947599Y-76362759D01*
X138942745Y-76362039D01*
X138937986Y-76360847D01*
X138933366Y-76359194D01*
X138928930Y-76357096D01*
X138924721Y-76354573D01*
X138920780Y-76351651D01*
X138917145Y-76348355D01*
X138913849Y-76344720D01*
X138910927Y-76340779D01*
X138908404Y-76336570D01*
X138906306Y-76332134D01*
X138904653Y-76327514D01*
X138903461Y-76322755D01*
X138902741Y-76317901D01*
X138902500Y-76313000D01*
X138902500Y-76213000D01*
X138902741Y-76208099D01*
X138903461Y-76203245D01*
X138904653Y-76198486D01*
X138906306Y-76193866D01*
X138908404Y-76189430D01*
X138910927Y-76185221D01*
X138913849Y-76181280D01*
X138917145Y-76177645D01*
X138920780Y-76174349D01*
X138924721Y-76171427D01*
X138928930Y-76168904D01*
X138933366Y-76166806D01*
X138937986Y-76165153D01*
X138942745Y-76163961D01*
X138947599Y-76163241D01*
X138952500Y-76163000D01*
X139177500Y-76163000D01*
X139182401Y-76163241D01*
X139182401Y-76163241D01*
G37*
D11*
X139065000Y-76263000D03*
D10*
G36*
X139182401Y-75813241D02*
G01*
X139187255Y-75813961D01*
X139192014Y-75815153D01*
X139196634Y-75816806D01*
X139201070Y-75818904D01*
X139205279Y-75821427D01*
X139209220Y-75824349D01*
X139212855Y-75827645D01*
X139216151Y-75831280D01*
X139219073Y-75835221D01*
X139221596Y-75839430D01*
X139223694Y-75843866D01*
X139225347Y-75848486D01*
X139226539Y-75853245D01*
X139227259Y-75858099D01*
X139227500Y-75863000D01*
X139227500Y-75963000D01*
X139227259Y-75967901D01*
X139226539Y-75972755D01*
X139225347Y-75977514D01*
X139223694Y-75982134D01*
X139221596Y-75986570D01*
X139219073Y-75990779D01*
X139216151Y-75994720D01*
X139212855Y-75998355D01*
X139209220Y-76001651D01*
X139205279Y-76004573D01*
X139201070Y-76007096D01*
X139196634Y-76009194D01*
X139192014Y-76010847D01*
X139187255Y-76012039D01*
X139182401Y-76012759D01*
X139177500Y-76013000D01*
X138952500Y-76013000D01*
X138947599Y-76012759D01*
X138942745Y-76012039D01*
X138937986Y-76010847D01*
X138933366Y-76009194D01*
X138928930Y-76007096D01*
X138924721Y-76004573D01*
X138920780Y-76001651D01*
X138917145Y-75998355D01*
X138913849Y-75994720D01*
X138910927Y-75990779D01*
X138908404Y-75986570D01*
X138906306Y-75982134D01*
X138904653Y-75977514D01*
X138903461Y-75972755D01*
X138902741Y-75967901D01*
X138902500Y-75963000D01*
X138902500Y-75863000D01*
X138902741Y-75858099D01*
X138903461Y-75853245D01*
X138904653Y-75848486D01*
X138906306Y-75843866D01*
X138908404Y-75839430D01*
X138910927Y-75835221D01*
X138913849Y-75831280D01*
X138917145Y-75827645D01*
X138920780Y-75824349D01*
X138924721Y-75821427D01*
X138928930Y-75818904D01*
X138933366Y-75816806D01*
X138937986Y-75815153D01*
X138942745Y-75813961D01*
X138947599Y-75813241D01*
X138952500Y-75813000D01*
X139177500Y-75813000D01*
X139182401Y-75813241D01*
X139182401Y-75813241D01*
G37*
D11*
X139065000Y-75913000D03*
D10*
G36*
X139182401Y-75463241D02*
G01*
X139187255Y-75463961D01*
X139192014Y-75465153D01*
X139196634Y-75466806D01*
X139201070Y-75468904D01*
X139205279Y-75471427D01*
X139209220Y-75474349D01*
X139212855Y-75477645D01*
X139216151Y-75481280D01*
X139219073Y-75485221D01*
X139221596Y-75489430D01*
X139223694Y-75493866D01*
X139225347Y-75498486D01*
X139226539Y-75503245D01*
X139227259Y-75508099D01*
X139227500Y-75513000D01*
X139227500Y-75613000D01*
X139227259Y-75617901D01*
X139226539Y-75622755D01*
X139225347Y-75627514D01*
X139223694Y-75632134D01*
X139221596Y-75636570D01*
X139219073Y-75640779D01*
X139216151Y-75644720D01*
X139212855Y-75648355D01*
X139209220Y-75651651D01*
X139205279Y-75654573D01*
X139201070Y-75657096D01*
X139196634Y-75659194D01*
X139192014Y-75660847D01*
X139187255Y-75662039D01*
X139182401Y-75662759D01*
X139177500Y-75663000D01*
X138952500Y-75663000D01*
X138947599Y-75662759D01*
X138942745Y-75662039D01*
X138937986Y-75660847D01*
X138933366Y-75659194D01*
X138928930Y-75657096D01*
X138924721Y-75654573D01*
X138920780Y-75651651D01*
X138917145Y-75648355D01*
X138913849Y-75644720D01*
X138910927Y-75640779D01*
X138908404Y-75636570D01*
X138906306Y-75632134D01*
X138904653Y-75627514D01*
X138903461Y-75622755D01*
X138902741Y-75617901D01*
X138902500Y-75613000D01*
X138902500Y-75513000D01*
X138902741Y-75508099D01*
X138903461Y-75503245D01*
X138904653Y-75498486D01*
X138906306Y-75493866D01*
X138908404Y-75489430D01*
X138910927Y-75485221D01*
X138913849Y-75481280D01*
X138917145Y-75477645D01*
X138920780Y-75474349D01*
X138924721Y-75471427D01*
X138928930Y-75468904D01*
X138933366Y-75466806D01*
X138937986Y-75465153D01*
X138942745Y-75463961D01*
X138947599Y-75463241D01*
X138952500Y-75463000D01*
X139177500Y-75463000D01*
X139182401Y-75463241D01*
X139182401Y-75463241D01*
G37*
D11*
X139065000Y-75563000D03*
D10*
G36*
X139182401Y-75113241D02*
G01*
X139187255Y-75113961D01*
X139192014Y-75115153D01*
X139196634Y-75116806D01*
X139201070Y-75118904D01*
X139205279Y-75121427D01*
X139209220Y-75124349D01*
X139212855Y-75127645D01*
X139216151Y-75131280D01*
X139219073Y-75135221D01*
X139221596Y-75139430D01*
X139223694Y-75143866D01*
X139225347Y-75148486D01*
X139226539Y-75153245D01*
X139227259Y-75158099D01*
X139227500Y-75163000D01*
X139227500Y-75263000D01*
X139227259Y-75267901D01*
X139226539Y-75272755D01*
X139225347Y-75277514D01*
X139223694Y-75282134D01*
X139221596Y-75286570D01*
X139219073Y-75290779D01*
X139216151Y-75294720D01*
X139212855Y-75298355D01*
X139209220Y-75301651D01*
X139205279Y-75304573D01*
X139201070Y-75307096D01*
X139196634Y-75309194D01*
X139192014Y-75310847D01*
X139187255Y-75312039D01*
X139182401Y-75312759D01*
X139177500Y-75313000D01*
X138952500Y-75313000D01*
X138947599Y-75312759D01*
X138942745Y-75312039D01*
X138937986Y-75310847D01*
X138933366Y-75309194D01*
X138928930Y-75307096D01*
X138924721Y-75304573D01*
X138920780Y-75301651D01*
X138917145Y-75298355D01*
X138913849Y-75294720D01*
X138910927Y-75290779D01*
X138908404Y-75286570D01*
X138906306Y-75282134D01*
X138904653Y-75277514D01*
X138903461Y-75272755D01*
X138902741Y-75267901D01*
X138902500Y-75263000D01*
X138902500Y-75163000D01*
X138902741Y-75158099D01*
X138903461Y-75153245D01*
X138904653Y-75148486D01*
X138906306Y-75143866D01*
X138908404Y-75139430D01*
X138910927Y-75135221D01*
X138913849Y-75131280D01*
X138917145Y-75127645D01*
X138920780Y-75124349D01*
X138924721Y-75121427D01*
X138928930Y-75118904D01*
X138933366Y-75116806D01*
X138937986Y-75115153D01*
X138942745Y-75113961D01*
X138947599Y-75113241D01*
X138952500Y-75113000D01*
X139177500Y-75113000D01*
X139182401Y-75113241D01*
X139182401Y-75113241D01*
G37*
D11*
X139065000Y-75213000D03*
D10*
G36*
X138707401Y-74813241D02*
G01*
X138712255Y-74813961D01*
X138717014Y-74815153D01*
X138721634Y-74816806D01*
X138726070Y-74818904D01*
X138730279Y-74821427D01*
X138734220Y-74824349D01*
X138737855Y-74827645D01*
X138741151Y-74831280D01*
X138744073Y-74835221D01*
X138746596Y-74839430D01*
X138748694Y-74843866D01*
X138750347Y-74848486D01*
X138751539Y-74853245D01*
X138752259Y-74858099D01*
X138752500Y-74863000D01*
X138752500Y-75088000D01*
X138752259Y-75092901D01*
X138751539Y-75097755D01*
X138750347Y-75102514D01*
X138748694Y-75107134D01*
X138746596Y-75111570D01*
X138744073Y-75115779D01*
X138741151Y-75119720D01*
X138737855Y-75123355D01*
X138734220Y-75126651D01*
X138730279Y-75129573D01*
X138726070Y-75132096D01*
X138721634Y-75134194D01*
X138717014Y-75135847D01*
X138712255Y-75137039D01*
X138707401Y-75137759D01*
X138702500Y-75138000D01*
X138602500Y-75138000D01*
X138597599Y-75137759D01*
X138592745Y-75137039D01*
X138587986Y-75135847D01*
X138583366Y-75134194D01*
X138578930Y-75132096D01*
X138574721Y-75129573D01*
X138570780Y-75126651D01*
X138567145Y-75123355D01*
X138563849Y-75119720D01*
X138560927Y-75115779D01*
X138558404Y-75111570D01*
X138556306Y-75107134D01*
X138554653Y-75102514D01*
X138553461Y-75097755D01*
X138552741Y-75092901D01*
X138552500Y-75088000D01*
X138552500Y-74863000D01*
X138552741Y-74858099D01*
X138553461Y-74853245D01*
X138554653Y-74848486D01*
X138556306Y-74843866D01*
X138558404Y-74839430D01*
X138560927Y-74835221D01*
X138563849Y-74831280D01*
X138567145Y-74827645D01*
X138570780Y-74824349D01*
X138574721Y-74821427D01*
X138578930Y-74818904D01*
X138583366Y-74816806D01*
X138587986Y-74815153D01*
X138592745Y-74813961D01*
X138597599Y-74813241D01*
X138602500Y-74813000D01*
X138702500Y-74813000D01*
X138707401Y-74813241D01*
X138707401Y-74813241D01*
G37*
D11*
X138652500Y-74975500D03*
D10*
G36*
X138357401Y-74813241D02*
G01*
X138362255Y-74813961D01*
X138367014Y-74815153D01*
X138371634Y-74816806D01*
X138376070Y-74818904D01*
X138380279Y-74821427D01*
X138384220Y-74824349D01*
X138387855Y-74827645D01*
X138391151Y-74831280D01*
X138394073Y-74835221D01*
X138396596Y-74839430D01*
X138398694Y-74843866D01*
X138400347Y-74848486D01*
X138401539Y-74853245D01*
X138402259Y-74858099D01*
X138402500Y-74863000D01*
X138402500Y-75088000D01*
X138402259Y-75092901D01*
X138401539Y-75097755D01*
X138400347Y-75102514D01*
X138398694Y-75107134D01*
X138396596Y-75111570D01*
X138394073Y-75115779D01*
X138391151Y-75119720D01*
X138387855Y-75123355D01*
X138384220Y-75126651D01*
X138380279Y-75129573D01*
X138376070Y-75132096D01*
X138371634Y-75134194D01*
X138367014Y-75135847D01*
X138362255Y-75137039D01*
X138357401Y-75137759D01*
X138352500Y-75138000D01*
X138252500Y-75138000D01*
X138247599Y-75137759D01*
X138242745Y-75137039D01*
X138237986Y-75135847D01*
X138233366Y-75134194D01*
X138228930Y-75132096D01*
X138224721Y-75129573D01*
X138220780Y-75126651D01*
X138217145Y-75123355D01*
X138213849Y-75119720D01*
X138210927Y-75115779D01*
X138208404Y-75111570D01*
X138206306Y-75107134D01*
X138204653Y-75102514D01*
X138203461Y-75097755D01*
X138202741Y-75092901D01*
X138202500Y-75088000D01*
X138202500Y-74863000D01*
X138202741Y-74858099D01*
X138203461Y-74853245D01*
X138204653Y-74848486D01*
X138206306Y-74843866D01*
X138208404Y-74839430D01*
X138210927Y-74835221D01*
X138213849Y-74831280D01*
X138217145Y-74827645D01*
X138220780Y-74824349D01*
X138224721Y-74821427D01*
X138228930Y-74818904D01*
X138233366Y-74816806D01*
X138237986Y-74815153D01*
X138242745Y-74813961D01*
X138247599Y-74813241D01*
X138252500Y-74813000D01*
X138352500Y-74813000D01*
X138357401Y-74813241D01*
X138357401Y-74813241D01*
G37*
D11*
X138302500Y-74975500D03*
D10*
G36*
X138007401Y-74813241D02*
G01*
X138012255Y-74813961D01*
X138017014Y-74815153D01*
X138021634Y-74816806D01*
X138026070Y-74818904D01*
X138030279Y-74821427D01*
X138034220Y-74824349D01*
X138037855Y-74827645D01*
X138041151Y-74831280D01*
X138044073Y-74835221D01*
X138046596Y-74839430D01*
X138048694Y-74843866D01*
X138050347Y-74848486D01*
X138051539Y-74853245D01*
X138052259Y-74858099D01*
X138052500Y-74863000D01*
X138052500Y-75088000D01*
X138052259Y-75092901D01*
X138051539Y-75097755D01*
X138050347Y-75102514D01*
X138048694Y-75107134D01*
X138046596Y-75111570D01*
X138044073Y-75115779D01*
X138041151Y-75119720D01*
X138037855Y-75123355D01*
X138034220Y-75126651D01*
X138030279Y-75129573D01*
X138026070Y-75132096D01*
X138021634Y-75134194D01*
X138017014Y-75135847D01*
X138012255Y-75137039D01*
X138007401Y-75137759D01*
X138002500Y-75138000D01*
X137902500Y-75138000D01*
X137897599Y-75137759D01*
X137892745Y-75137039D01*
X137887986Y-75135847D01*
X137883366Y-75134194D01*
X137878930Y-75132096D01*
X137874721Y-75129573D01*
X137870780Y-75126651D01*
X137867145Y-75123355D01*
X137863849Y-75119720D01*
X137860927Y-75115779D01*
X137858404Y-75111570D01*
X137856306Y-75107134D01*
X137854653Y-75102514D01*
X137853461Y-75097755D01*
X137852741Y-75092901D01*
X137852500Y-75088000D01*
X137852500Y-74863000D01*
X137852741Y-74858099D01*
X137853461Y-74853245D01*
X137854653Y-74848486D01*
X137856306Y-74843866D01*
X137858404Y-74839430D01*
X137860927Y-74835221D01*
X137863849Y-74831280D01*
X137867145Y-74827645D01*
X137870780Y-74824349D01*
X137874721Y-74821427D01*
X137878930Y-74818904D01*
X137883366Y-74816806D01*
X137887986Y-74815153D01*
X137892745Y-74813961D01*
X137897599Y-74813241D01*
X137902500Y-74813000D01*
X138002500Y-74813000D01*
X138007401Y-74813241D01*
X138007401Y-74813241D01*
G37*
D11*
X137952500Y-74975500D03*
D10*
G36*
X137657401Y-75113241D02*
G01*
X137662255Y-75113961D01*
X137667014Y-75115153D01*
X137671634Y-75116806D01*
X137676070Y-75118904D01*
X137680279Y-75121427D01*
X137684220Y-75124349D01*
X137687855Y-75127645D01*
X137691151Y-75131280D01*
X137694073Y-75135221D01*
X137696596Y-75139430D01*
X137698694Y-75143866D01*
X137700347Y-75148486D01*
X137701539Y-75153245D01*
X137702259Y-75158099D01*
X137702500Y-75163000D01*
X137702500Y-75263000D01*
X137702259Y-75267901D01*
X137701539Y-75272755D01*
X137700347Y-75277514D01*
X137698694Y-75282134D01*
X137696596Y-75286570D01*
X137694073Y-75290779D01*
X137691151Y-75294720D01*
X137687855Y-75298355D01*
X137684220Y-75301651D01*
X137680279Y-75304573D01*
X137676070Y-75307096D01*
X137671634Y-75309194D01*
X137667014Y-75310847D01*
X137662255Y-75312039D01*
X137657401Y-75312759D01*
X137652500Y-75313000D01*
X137427500Y-75313000D01*
X137422599Y-75312759D01*
X137417745Y-75312039D01*
X137412986Y-75310847D01*
X137408366Y-75309194D01*
X137403930Y-75307096D01*
X137399721Y-75304573D01*
X137395780Y-75301651D01*
X137392145Y-75298355D01*
X137388849Y-75294720D01*
X137385927Y-75290779D01*
X137383404Y-75286570D01*
X137381306Y-75282134D01*
X137379653Y-75277514D01*
X137378461Y-75272755D01*
X137377741Y-75267901D01*
X137377500Y-75263000D01*
X137377500Y-75163000D01*
X137377741Y-75158099D01*
X137378461Y-75153245D01*
X137379653Y-75148486D01*
X137381306Y-75143866D01*
X137383404Y-75139430D01*
X137385927Y-75135221D01*
X137388849Y-75131280D01*
X137392145Y-75127645D01*
X137395780Y-75124349D01*
X137399721Y-75121427D01*
X137403930Y-75118904D01*
X137408366Y-75116806D01*
X137412986Y-75115153D01*
X137417745Y-75113961D01*
X137422599Y-75113241D01*
X137427500Y-75113000D01*
X137652500Y-75113000D01*
X137657401Y-75113241D01*
X137657401Y-75113241D01*
G37*
D11*
X137540000Y-75213000D03*
D10*
G36*
X137657401Y-75463241D02*
G01*
X137662255Y-75463961D01*
X137667014Y-75465153D01*
X137671634Y-75466806D01*
X137676070Y-75468904D01*
X137680279Y-75471427D01*
X137684220Y-75474349D01*
X137687855Y-75477645D01*
X137691151Y-75481280D01*
X137694073Y-75485221D01*
X137696596Y-75489430D01*
X137698694Y-75493866D01*
X137700347Y-75498486D01*
X137701539Y-75503245D01*
X137702259Y-75508099D01*
X137702500Y-75513000D01*
X137702500Y-75613000D01*
X137702259Y-75617901D01*
X137701539Y-75622755D01*
X137700347Y-75627514D01*
X137698694Y-75632134D01*
X137696596Y-75636570D01*
X137694073Y-75640779D01*
X137691151Y-75644720D01*
X137687855Y-75648355D01*
X137684220Y-75651651D01*
X137680279Y-75654573D01*
X137676070Y-75657096D01*
X137671634Y-75659194D01*
X137667014Y-75660847D01*
X137662255Y-75662039D01*
X137657401Y-75662759D01*
X137652500Y-75663000D01*
X137427500Y-75663000D01*
X137422599Y-75662759D01*
X137417745Y-75662039D01*
X137412986Y-75660847D01*
X137408366Y-75659194D01*
X137403930Y-75657096D01*
X137399721Y-75654573D01*
X137395780Y-75651651D01*
X137392145Y-75648355D01*
X137388849Y-75644720D01*
X137385927Y-75640779D01*
X137383404Y-75636570D01*
X137381306Y-75632134D01*
X137379653Y-75627514D01*
X137378461Y-75622755D01*
X137377741Y-75617901D01*
X137377500Y-75613000D01*
X137377500Y-75513000D01*
X137377741Y-75508099D01*
X137378461Y-75503245D01*
X137379653Y-75498486D01*
X137381306Y-75493866D01*
X137383404Y-75489430D01*
X137385927Y-75485221D01*
X137388849Y-75481280D01*
X137392145Y-75477645D01*
X137395780Y-75474349D01*
X137399721Y-75471427D01*
X137403930Y-75468904D01*
X137408366Y-75466806D01*
X137412986Y-75465153D01*
X137417745Y-75463961D01*
X137422599Y-75463241D01*
X137427500Y-75463000D01*
X137652500Y-75463000D01*
X137657401Y-75463241D01*
X137657401Y-75463241D01*
G37*
D11*
X137540000Y-75563000D03*
D10*
G36*
X137657401Y-75813241D02*
G01*
X137662255Y-75813961D01*
X137667014Y-75815153D01*
X137671634Y-75816806D01*
X137676070Y-75818904D01*
X137680279Y-75821427D01*
X137684220Y-75824349D01*
X137687855Y-75827645D01*
X137691151Y-75831280D01*
X137694073Y-75835221D01*
X137696596Y-75839430D01*
X137698694Y-75843866D01*
X137700347Y-75848486D01*
X137701539Y-75853245D01*
X137702259Y-75858099D01*
X137702500Y-75863000D01*
X137702500Y-75963000D01*
X137702259Y-75967901D01*
X137701539Y-75972755D01*
X137700347Y-75977514D01*
X137698694Y-75982134D01*
X137696596Y-75986570D01*
X137694073Y-75990779D01*
X137691151Y-75994720D01*
X137687855Y-75998355D01*
X137684220Y-76001651D01*
X137680279Y-76004573D01*
X137676070Y-76007096D01*
X137671634Y-76009194D01*
X137667014Y-76010847D01*
X137662255Y-76012039D01*
X137657401Y-76012759D01*
X137652500Y-76013000D01*
X137427500Y-76013000D01*
X137422599Y-76012759D01*
X137417745Y-76012039D01*
X137412986Y-76010847D01*
X137408366Y-76009194D01*
X137403930Y-76007096D01*
X137399721Y-76004573D01*
X137395780Y-76001651D01*
X137392145Y-75998355D01*
X137388849Y-75994720D01*
X137385927Y-75990779D01*
X137383404Y-75986570D01*
X137381306Y-75982134D01*
X137379653Y-75977514D01*
X137378461Y-75972755D01*
X137377741Y-75967901D01*
X137377500Y-75963000D01*
X137377500Y-75863000D01*
X137377741Y-75858099D01*
X137378461Y-75853245D01*
X137379653Y-75848486D01*
X137381306Y-75843866D01*
X137383404Y-75839430D01*
X137385927Y-75835221D01*
X137388849Y-75831280D01*
X137392145Y-75827645D01*
X137395780Y-75824349D01*
X137399721Y-75821427D01*
X137403930Y-75818904D01*
X137408366Y-75816806D01*
X137412986Y-75815153D01*
X137417745Y-75813961D01*
X137422599Y-75813241D01*
X137427500Y-75813000D01*
X137652500Y-75813000D01*
X137657401Y-75813241D01*
X137657401Y-75813241D01*
G37*
D11*
X137540000Y-75913000D03*
D10*
G36*
X137657401Y-76163241D02*
G01*
X137662255Y-76163961D01*
X137667014Y-76165153D01*
X137671634Y-76166806D01*
X137676070Y-76168904D01*
X137680279Y-76171427D01*
X137684220Y-76174349D01*
X137687855Y-76177645D01*
X137691151Y-76181280D01*
X137694073Y-76185221D01*
X137696596Y-76189430D01*
X137698694Y-76193866D01*
X137700347Y-76198486D01*
X137701539Y-76203245D01*
X137702259Y-76208099D01*
X137702500Y-76213000D01*
X137702500Y-76313000D01*
X137702259Y-76317901D01*
X137701539Y-76322755D01*
X137700347Y-76327514D01*
X137698694Y-76332134D01*
X137696596Y-76336570D01*
X137694073Y-76340779D01*
X137691151Y-76344720D01*
X137687855Y-76348355D01*
X137684220Y-76351651D01*
X137680279Y-76354573D01*
X137676070Y-76357096D01*
X137671634Y-76359194D01*
X137667014Y-76360847D01*
X137662255Y-76362039D01*
X137657401Y-76362759D01*
X137652500Y-76363000D01*
X137427500Y-76363000D01*
X137422599Y-76362759D01*
X137417745Y-76362039D01*
X137412986Y-76360847D01*
X137408366Y-76359194D01*
X137403930Y-76357096D01*
X137399721Y-76354573D01*
X137395780Y-76351651D01*
X137392145Y-76348355D01*
X137388849Y-76344720D01*
X137385927Y-76340779D01*
X137383404Y-76336570D01*
X137381306Y-76332134D01*
X137379653Y-76327514D01*
X137378461Y-76322755D01*
X137377741Y-76317901D01*
X137377500Y-76313000D01*
X137377500Y-76213000D01*
X137377741Y-76208099D01*
X137378461Y-76203245D01*
X137379653Y-76198486D01*
X137381306Y-76193866D01*
X137383404Y-76189430D01*
X137385927Y-76185221D01*
X137388849Y-76181280D01*
X137392145Y-76177645D01*
X137395780Y-76174349D01*
X137399721Y-76171427D01*
X137403930Y-76168904D01*
X137408366Y-76166806D01*
X137412986Y-76165153D01*
X137417745Y-76163961D01*
X137422599Y-76163241D01*
X137427500Y-76163000D01*
X137652500Y-76163000D01*
X137657401Y-76163241D01*
X137657401Y-76163241D01*
G37*
D11*
X137540000Y-76263000D03*
D12*
X151210000Y-79750000D03*
D13*
X153750000Y-79750000D03*
D14*
X140750000Y-81950000D03*
X140750000Y-80250000D03*
D15*
X173040000Y-86250000D03*
D16*
X170500000Y-86250000D03*
D15*
X173040000Y-90250000D03*
D16*
X170500000Y-90250000D03*
D15*
X168500000Y-76250000D03*
D16*
X171040000Y-76250000D03*
D15*
X153250000Y-107250000D03*
D16*
X150710000Y-107250000D03*
D15*
X165420000Y-102500000D03*
X165420000Y-105040000D03*
X167960000Y-102500000D03*
X167960000Y-105040000D03*
X170500000Y-102500000D03*
D16*
X170500000Y-105040000D03*
D17*
X132300000Y-92625000D03*
X132300000Y-84875000D03*
D18*
X136100000Y-92475000D03*
X136100000Y-85025000D03*
D12*
X153750000Y-84500000D03*
D13*
X151210000Y-84500000D03*
D19*
X155619759Y-88847614D03*
D10*
G36*
X154828667Y-85882387D02*
G01*
X158402566Y-90141594D01*
X156410851Y-91812841D01*
X152836952Y-87553634D01*
X154828667Y-85882387D01*
X154828667Y-85882387D01*
G37*
D19*
X137380241Y-104152386D03*
D10*
G36*
X136589149Y-101187159D02*
G01*
X140163048Y-105446366D01*
X138171333Y-107117613D01*
X134597434Y-102858406D01*
X136589149Y-101187159D01*
X136589149Y-101187159D01*
G37*
D20*
X146500000Y-96500000D03*
D10*
G36*
X147777228Y-91799246D02*
G01*
X151351127Y-96058453D01*
X145222772Y-101200754D01*
X141648873Y-96941547D01*
X147777228Y-91799246D01*
X147777228Y-91799246D01*
G37*
D21*
X163750000Y-89500000D03*
X132842000Y-79502000D03*
D22*
X132842000Y-80391000D03*
X132842000Y-81153000D03*
D21*
X144575010Y-82750000D03*
X159492511Y-98732298D03*
X165500000Y-84000000D03*
X174000000Y-80250000D03*
X163750000Y-78750000D03*
X159356000Y-89394000D03*
X149000000Y-78500000D03*
X153750000Y-77500000D03*
X171000000Y-100000000D03*
X163100000Y-99400000D03*
X166500000Y-92750000D03*
X165750000Y-96500000D03*
X173500000Y-95000000D03*
X163825000Y-98548340D03*
X160500000Y-86750000D03*
X172549154Y-82725000D03*
X171500000Y-81500000D03*
X148750000Y-76750000D03*
X156250000Y-76750000D03*
X155750000Y-81500000D03*
X149500000Y-84000000D03*
X162055999Y-84453524D03*
X149500000Y-82500000D03*
X162500000Y-82000000D03*
X165500000Y-85500000D03*
X168489066Y-83009112D03*
D10*
X134750000Y-75000000D02*
X134750000Y-77750000D01*
D23*
X134250000Y-75000000D02*
X134250000Y-77750000D01*
D10*
X134750000Y-75000000D02*
X135000000Y-75000000D01*
X135000000Y-75000000D02*
X135000000Y-75250000D01*
X135000000Y-75250000D02*
X135250000Y-75250000D01*
X135250000Y-75250000D02*
X135250000Y-75000000D01*
X135250000Y-75000000D02*
X135500000Y-75000000D01*
X135500000Y-75000000D02*
X135500000Y-75500000D01*
X135500000Y-75500000D02*
X135000000Y-75500000D01*
X135000000Y-75500000D02*
X135000000Y-75750000D01*
X135000000Y-75750000D02*
X135250000Y-75750000D01*
X135250000Y-75750000D02*
X135250000Y-76000000D01*
X135250000Y-76000000D02*
X135000000Y-76000000D01*
X135000000Y-76000000D02*
X135000000Y-76250000D01*
X135000000Y-76250000D02*
X135250000Y-76250000D01*
X135250000Y-76250000D02*
X135500000Y-76250000D01*
X135500000Y-76250000D02*
X135500000Y-77750000D01*
X135500000Y-77750000D02*
X135250000Y-77750000D01*
X135250000Y-77750000D02*
X135250000Y-76500000D01*
X135250000Y-76500000D02*
X135000000Y-76500000D01*
X135000000Y-76500000D02*
X135000000Y-77750000D01*
D23*
X134250000Y-75000000D02*
X134250000Y-74500000D01*
X134250000Y-74500000D02*
X134750000Y-74500000D01*
X134750000Y-74500000D02*
X135000000Y-74500000D01*
X135000000Y-74500000D02*
X135750000Y-74500000D01*
X135750000Y-74500000D02*
X136000000Y-74750000D01*
X136000000Y-74750000D02*
X136000000Y-75750000D01*
X136000000Y-75750000D02*
X135750000Y-75750000D01*
X135750000Y-75750000D02*
X135750000Y-76000000D01*
X135750000Y-76000000D02*
X136000000Y-76000000D01*
X136000000Y-76000000D02*
X136000000Y-77750000D01*
X136000000Y-77750000D02*
X135750000Y-78000000D01*
X135750000Y-78000000D02*
X135000000Y-78000000D01*
D24*
X133596965Y-78119460D02*
X133380540Y-77903035D01*
X133903035Y-78119460D02*
X133596965Y-78119460D01*
X134022495Y-78000000D02*
X133903035Y-78119460D01*
X134750000Y-78000000D02*
X134022495Y-78000000D01*
X133380540Y-77903035D02*
X133380540Y-77880540D01*
X133380540Y-77880540D02*
X133250000Y-77750000D01*
X133250000Y-77750000D02*
X133000000Y-77750000D01*
X133000000Y-77750000D02*
X133250000Y-78000000D01*
X133250000Y-78000000D02*
X133500000Y-78250000D01*
X133500000Y-78250000D02*
X133250000Y-78250000D01*
X133250000Y-78250000D02*
X133000000Y-78250000D01*
X133000000Y-78250000D02*
X132250000Y-77500000D01*
X132250000Y-77500000D02*
X133380540Y-77500000D01*
X133380540Y-75630540D02*
X133369460Y-75619460D01*
X133380540Y-77500000D02*
X133380540Y-75630540D01*
X133369460Y-75619460D02*
X133096965Y-75619460D01*
X133096965Y-75619460D02*
X133250000Y-75772495D01*
X133250000Y-75772495D02*
X133250000Y-77250000D01*
X133250000Y-77250000D02*
X132250000Y-77250000D01*
X132250000Y-77250000D02*
X132250000Y-77000000D01*
X132250000Y-77000000D02*
X132500000Y-76750000D01*
X132500000Y-76750000D02*
X132500000Y-77000000D01*
X132500000Y-77000000D02*
X133000000Y-77000000D01*
X133000000Y-77000000D02*
X133000000Y-76750000D01*
X133000000Y-76750000D02*
X132750000Y-76500000D01*
X132750000Y-76500000D02*
X132750000Y-74500000D01*
X132750000Y-74500000D02*
X132500000Y-74500000D01*
X132500000Y-74500000D02*
X132500000Y-74750000D01*
X132500000Y-74750000D02*
X132250000Y-75000000D01*
X132250000Y-75000000D02*
X132250000Y-76750000D01*
X132250000Y-76750000D02*
X132500000Y-76500000D01*
X132500000Y-76500000D02*
X132500000Y-75000000D01*
X136525000Y-77216000D02*
X140208000Y-77216000D01*
X140208000Y-77216000D02*
X140208000Y-77343000D01*
X140208000Y-77343000D02*
X136525000Y-77343000D01*
X136525000Y-77343000D02*
X136525000Y-77470000D01*
X136525000Y-77470000D02*
X140208000Y-77470000D01*
X140208000Y-77470000D02*
X140208000Y-77597000D01*
X140208000Y-77597000D02*
X136525000Y-77597000D01*
X136525000Y-77597000D02*
X136525000Y-77724000D01*
X136525000Y-77724000D02*
X140208000Y-77724000D01*
X140208000Y-77724000D02*
X140208000Y-77851000D01*
X140208000Y-77851000D02*
X136525000Y-77851000D01*
D25*
X133750000Y-75000000D02*
X133750000Y-77750000D01*
X133750000Y-75000000D02*
X133750000Y-74500000D01*
X133750000Y-74500000D02*
X133250000Y-74500000D01*
X133250000Y-74500000D02*
X133250000Y-74750000D01*
X133250000Y-74750000D02*
X133250000Y-75250000D01*
X144575010Y-82750000D02*
X148075010Y-86250000D01*
X153022145Y-86250000D02*
X155619759Y-88847614D01*
X148075010Y-86250000D02*
X153022145Y-86250000D01*
D26*
X169249999Y-103750001D02*
X169650001Y-103349999D01*
X169249999Y-105600003D02*
X169249999Y-103750001D01*
X169650001Y-103349999D02*
X170500000Y-102500000D01*
X164819999Y-106290001D02*
X168560001Y-106290001D01*
X168560001Y-106290001D02*
X169249999Y-105600003D01*
X159492511Y-100962513D02*
X164819999Y-106290001D01*
X159492511Y-98732298D02*
X159492511Y-100962513D01*
X163550001Y-85949999D02*
X165500000Y-84000000D01*
X175000000Y-83500000D02*
X175000000Y-81250000D01*
X174500000Y-84000000D02*
X175000000Y-83500000D01*
X166909305Y-82025010D02*
X170250000Y-82025010D01*
X172500000Y-84000000D02*
X174500000Y-84000000D01*
X170250000Y-82025010D02*
X172500000Y-84000000D01*
X175000000Y-81250000D02*
X174000000Y-80250000D01*
X165500000Y-83434315D02*
X166909305Y-82025010D01*
X165500000Y-84000000D02*
X165500000Y-83434315D01*
X163750000Y-81684315D02*
X163750000Y-78750000D01*
X165500000Y-83434315D02*
X163750000Y-81684315D01*
X159492511Y-89507489D02*
X159492511Y-98732298D01*
X159356000Y-89394000D02*
X159492511Y-89507489D01*
X160115999Y-85949999D02*
X163550001Y-85949999D01*
X159356000Y-86709998D02*
X160115999Y-85949999D01*
X159356000Y-89394000D02*
X159356000Y-86709998D01*
X150000000Y-77500000D02*
X153750000Y-77500000D01*
X149000000Y-78500000D02*
X150000000Y-77500000D01*
D25*
X171600000Y-105040000D02*
X170500000Y-105040000D01*
X171675001Y-104964999D02*
X171600000Y-105040000D01*
X171675001Y-100675001D02*
X171675001Y-104964999D01*
X171000000Y-100000000D02*
X171675001Y-100675001D01*
X163100000Y-96150000D02*
X163100000Y-99400000D01*
X166500000Y-92750000D02*
X163100000Y-96150000D01*
X164059002Y-99400000D02*
X163665685Y-99400000D01*
X166595001Y-101935999D02*
X164059002Y-99400000D01*
X166595001Y-103675001D02*
X166595001Y-101935999D01*
X163665685Y-99400000D02*
X163100000Y-99400000D01*
X167960000Y-105040000D02*
X166595001Y-103675001D01*
X172000000Y-96500000D02*
X173500000Y-95000000D01*
X165750000Y-96500000D02*
X172000000Y-96500000D01*
X165750000Y-96623340D02*
X165750000Y-96500000D01*
X163825000Y-98548340D02*
X165750000Y-96623340D01*
X164008340Y-98548340D02*
X163825000Y-98548340D01*
X167960000Y-102500000D02*
X164008340Y-98548340D01*
X160500000Y-100120000D02*
X160500000Y-86750000D01*
X165420000Y-105040000D02*
X160500000Y-100120000D01*
X171040000Y-79966998D02*
X171040000Y-76250000D01*
X172250000Y-81176998D02*
X171040000Y-79966998D01*
X172250000Y-82250000D02*
X172250000Y-81176998D01*
X172250000Y-82425846D02*
X172549154Y-82725000D01*
X172250000Y-82250000D02*
X172250000Y-82425846D01*
X171500000Y-81500000D02*
X170250000Y-81500000D01*
X168500000Y-79750000D02*
X168500000Y-76250000D01*
X170250000Y-81500000D02*
X168500000Y-79750000D01*
X148750000Y-76750000D02*
X156250000Y-76750000D01*
X156250000Y-81000000D02*
X155750000Y-81500000D01*
X156250000Y-76750000D02*
X156250000Y-81000000D01*
X160877474Y-83274999D02*
X162055999Y-84453524D01*
X149659316Y-83274999D02*
X160877474Y-83274999D01*
X149500000Y-83434315D02*
X149659316Y-83274999D01*
X149500000Y-84000000D02*
X149500000Y-83434315D01*
X162000000Y-82500000D02*
X162500000Y-82000000D01*
X149500000Y-82500000D02*
X162000000Y-82500000D01*
X167990888Y-83009112D02*
X168489066Y-83009112D01*
X165500000Y-85500000D02*
X167990888Y-83009112D01*
D27*
G36*
X175815000Y-81060209D02*
G01*
X175775172Y-80928913D01*
X175697636Y-80783854D01*
X175641951Y-80716001D01*
X175619439Y-80688570D01*
X175619437Y-80688568D01*
X175593291Y-80656709D01*
X175561432Y-80630563D01*
X175024092Y-80093225D01*
X174995226Y-79948102D01*
X174917205Y-79759744D01*
X174803937Y-79590226D01*
X174659774Y-79446063D01*
X174490256Y-79332795D01*
X174301898Y-79254774D01*
X174101939Y-79215000D01*
X173898061Y-79215000D01*
X173698102Y-79254774D01*
X173509744Y-79332795D01*
X173340226Y-79446063D01*
X173196063Y-79590226D01*
X173082795Y-79759744D01*
X173004774Y-79948102D01*
X172965000Y-80148061D01*
X172965000Y-80351939D01*
X173004774Y-80551898D01*
X173082795Y-80740256D01*
X173196063Y-80909774D01*
X173340226Y-81053937D01*
X173509744Y-81167205D01*
X173698102Y-81245226D01*
X173843225Y-81274092D01*
X174165001Y-81595869D01*
X174165000Y-83154132D01*
X174154133Y-83165000D01*
X173487176Y-83165000D01*
X173544380Y-83026898D01*
X173584154Y-82826939D01*
X173584154Y-82623061D01*
X173544380Y-82423102D01*
X173466359Y-82234744D01*
X173353091Y-82065226D01*
X173208928Y-81921063D01*
X173039410Y-81807795D01*
X173010000Y-81795613D01*
X173010000Y-81214320D01*
X173013676Y-81176997D01*
X173010000Y-81139674D01*
X173010000Y-81139665D01*
X172999003Y-81028012D01*
X172955546Y-80884751D01*
X172884974Y-80752722D01*
X172848070Y-80707754D01*
X172813799Y-80665994D01*
X172813795Y-80665990D01*
X172790001Y-80636997D01*
X172761008Y-80613203D01*
X171800000Y-79652197D01*
X171800000Y-77738072D01*
X171890000Y-77738072D01*
X172014482Y-77725812D01*
X172134180Y-77689502D01*
X172244494Y-77630537D01*
X172341185Y-77551185D01*
X172420537Y-77454494D01*
X172479502Y-77344180D01*
X172515812Y-77224482D01*
X172528072Y-77100000D01*
X172528072Y-75400000D01*
X172515812Y-75275518D01*
X172479502Y-75155820D01*
X172420537Y-75045506D01*
X172341185Y-74948815D01*
X172244494Y-74869463D01*
X172134180Y-74810498D01*
X172014482Y-74774188D01*
X171890000Y-74761928D01*
X170190000Y-74761928D01*
X170065518Y-74774188D01*
X169945820Y-74810498D01*
X169835506Y-74869463D01*
X169738815Y-74948815D01*
X169659463Y-75045506D01*
X169600498Y-75155820D01*
X169579607Y-75224687D01*
X169555134Y-75194866D01*
X169329014Y-75009294D01*
X169071034Y-74871401D01*
X168791111Y-74786487D01*
X168572950Y-74765000D01*
X168427050Y-74765000D01*
X168208889Y-74786487D01*
X167928966Y-74871401D01*
X167670986Y-75009294D01*
X167444866Y-75194866D01*
X167259294Y-75420986D01*
X167121401Y-75678966D01*
X167036487Y-75958889D01*
X167007815Y-76250000D01*
X167036487Y-76541111D01*
X167121401Y-76821034D01*
X167259294Y-77079014D01*
X167444866Y-77305134D01*
X167670986Y-77490706D01*
X167740001Y-77527595D01*
X167740000Y-79712677D01*
X167736324Y-79750000D01*
X167740000Y-79787322D01*
X167740000Y-79787332D01*
X167750997Y-79898985D01*
X167782953Y-80004330D01*
X167794454Y-80042246D01*
X167865026Y-80174276D01*
X167904871Y-80222826D01*
X167959999Y-80290001D01*
X167989003Y-80313804D01*
X168865208Y-81190010D01*
X166950320Y-81190010D01*
X166909304Y-81185970D01*
X166868288Y-81190010D01*
X166868286Y-81190010D01*
X166745616Y-81202092D01*
X166588218Y-81249838D01*
X166443159Y-81327374D01*
X166316014Y-81431719D01*
X166289863Y-81463584D01*
X165500000Y-82253447D01*
X164585000Y-81338448D01*
X164585000Y-79363285D01*
X164667205Y-79240256D01*
X164745226Y-79051898D01*
X164785000Y-78851939D01*
X164785000Y-78648061D01*
X164745226Y-78448102D01*
X164667205Y-78259744D01*
X164553937Y-78090226D01*
X164409774Y-77946063D01*
X164240256Y-77832795D01*
X164051898Y-77754774D01*
X163851939Y-77715000D01*
X163648061Y-77715000D01*
X163448102Y-77754774D01*
X163259744Y-77832795D01*
X163090226Y-77946063D01*
X162946063Y-78090226D01*
X162832795Y-78259744D01*
X162754774Y-78448102D01*
X162715000Y-78648061D01*
X162715000Y-78851939D01*
X162754774Y-79051898D01*
X162832795Y-79240256D01*
X162915001Y-79363286D01*
X162915000Y-81051623D01*
X162801898Y-81004774D01*
X162601939Y-80965000D01*
X162398061Y-80965000D01*
X162198102Y-81004774D01*
X162009744Y-81082795D01*
X161840226Y-81196063D01*
X161696063Y-81340226D01*
X161582795Y-81509744D01*
X161504774Y-81698102D01*
X161496440Y-81740000D01*
X156757538Y-81740000D01*
X156785000Y-81601939D01*
X156785000Y-81544105D01*
X156790001Y-81540001D01*
X156884974Y-81424276D01*
X156955546Y-81292247D01*
X156999003Y-81148986D01*
X157010000Y-81037333D01*
X157010000Y-81037325D01*
X157013676Y-81000000D01*
X157010000Y-80962675D01*
X157010000Y-77453711D01*
X157053937Y-77409774D01*
X157167205Y-77240256D01*
X157245226Y-77051898D01*
X157285000Y-76851939D01*
X157285000Y-76648061D01*
X157245226Y-76448102D01*
X157167205Y-76259744D01*
X157053937Y-76090226D01*
X156909774Y-75946063D01*
X156740256Y-75832795D01*
X156551898Y-75754774D01*
X156351939Y-75715000D01*
X156148061Y-75715000D01*
X155948102Y-75754774D01*
X155759744Y-75832795D01*
X155590226Y-75946063D01*
X155546289Y-75990000D01*
X149453711Y-75990000D01*
X149409774Y-75946063D01*
X149240256Y-75832795D01*
X149051898Y-75754774D01*
X148851939Y-75715000D01*
X148648061Y-75715000D01*
X148448102Y-75754774D01*
X148259744Y-75832795D01*
X148090226Y-75946063D01*
X147946063Y-76090226D01*
X147832795Y-76259744D01*
X147754774Y-76448102D01*
X147715000Y-76648061D01*
X147715000Y-76851939D01*
X147754774Y-77051898D01*
X147832795Y-77240256D01*
X147946063Y-77409774D01*
X148090226Y-77553937D01*
X148259744Y-77667205D01*
X148337059Y-77699230D01*
X148196063Y-77840226D01*
X148082795Y-78009744D01*
X148004774Y-78198102D01*
X147965000Y-78398061D01*
X147965000Y-78601939D01*
X148004774Y-78801898D01*
X148082795Y-78990256D01*
X148196063Y-79159774D01*
X148340226Y-79303937D01*
X148509744Y-79417205D01*
X148698102Y-79495226D01*
X148898061Y-79535000D01*
X149101939Y-79535000D01*
X149301898Y-79495226D01*
X149490256Y-79417205D01*
X149659774Y-79303937D01*
X149785279Y-79178432D01*
X149733989Y-79302257D01*
X149675000Y-79598816D01*
X149675000Y-79901184D01*
X149733989Y-80197743D01*
X149849701Y-80477095D01*
X150017688Y-80728505D01*
X150231495Y-80942312D01*
X150482905Y-81110299D01*
X150762257Y-81226011D01*
X151058816Y-81285000D01*
X151361184Y-81285000D01*
X151657743Y-81226011D01*
X151937095Y-81110299D01*
X152188505Y-80942312D01*
X152254944Y-80875873D01*
X152260498Y-80894180D01*
X152319463Y-81004494D01*
X152398815Y-81101185D01*
X152495506Y-81180537D01*
X152605820Y-81239502D01*
X152725518Y-81275812D01*
X152850000Y-81288072D01*
X154650000Y-81288072D01*
X154738614Y-81279345D01*
X154715000Y-81398061D01*
X154715000Y-81601939D01*
X154742462Y-81740000D01*
X150203711Y-81740000D01*
X150159774Y-81696063D01*
X149990256Y-81582795D01*
X149801898Y-81504774D01*
X149601939Y-81465000D01*
X149398061Y-81465000D01*
X149198102Y-81504774D01*
X149009744Y-81582795D01*
X148840226Y-81696063D01*
X148696063Y-81840226D01*
X148582795Y-82009744D01*
X148504774Y-82198102D01*
X148465000Y-82398061D01*
X148465000Y-82601939D01*
X148504774Y-82801898D01*
X148582795Y-82990256D01*
X148696063Y-83159774D01*
X148767433Y-83231144D01*
X148751013Y-83285276D01*
X148696063Y-83340226D01*
X148582795Y-83509744D01*
X148504774Y-83698102D01*
X148465000Y-83898061D01*
X148465000Y-84101939D01*
X148504774Y-84301898D01*
X148582795Y-84490256D01*
X148696063Y-84659774D01*
X148840226Y-84803937D01*
X149009744Y-84917205D01*
X149198102Y-84995226D01*
X149398061Y-85035000D01*
X149601939Y-85035000D01*
X149673825Y-85020701D01*
X149671928Y-85400000D01*
X149680792Y-85490000D01*
X148389813Y-85490000D01*
X145610010Y-82710199D01*
X145610010Y-82648061D01*
X145570236Y-82448102D01*
X145492215Y-82259744D01*
X145378947Y-82090226D01*
X145234784Y-81946063D01*
X145065266Y-81832795D01*
X144876908Y-81754774D01*
X144676949Y-81715000D01*
X144473071Y-81715000D01*
X144273112Y-81754774D01*
X144084754Y-81832795D01*
X143915236Y-81946063D01*
X143771073Y-82090226D01*
X143657805Y-82259744D01*
X143579784Y-82448102D01*
X143540010Y-82648061D01*
X143540010Y-82851939D01*
X143579784Y-83051898D01*
X143657805Y-83240256D01*
X143771073Y-83409774D01*
X143915236Y-83553937D01*
X144084754Y-83667205D01*
X144273112Y-83745226D01*
X144473071Y-83785000D01*
X144535209Y-83785000D01*
X147511215Y-86761008D01*
X147535009Y-86790001D01*
X147564002Y-86813795D01*
X147564006Y-86813799D01*
X147634695Y-86871811D01*
X147650734Y-86884974D01*
X147782763Y-86955546D01*
X147926024Y-86999003D01*
X148037677Y-87010000D01*
X148037686Y-87010000D01*
X148075009Y-87013676D01*
X148112332Y-87010000D01*
X152492165Y-87010000D01*
X152426807Y-87064842D01*
X152339330Y-87154250D01*
X152270975Y-87259005D01*
X152224371Y-87375083D01*
X152201308Y-87498022D01*
X152202672Y-87623099D01*
X152228412Y-87745506D01*
X152277537Y-87860539D01*
X152348160Y-87963779D01*
X155922059Y-92222986D01*
X156011467Y-92310463D01*
X156116222Y-92378818D01*
X156232300Y-92425422D01*
X156355239Y-92448485D01*
X156480316Y-92447121D01*
X156602723Y-92421381D01*
X156717756Y-92372256D01*
X156820996Y-92301633D01*
X158657511Y-90760614D01*
X158657512Y-98119012D01*
X158575306Y-98242042D01*
X158497285Y-98430400D01*
X158457511Y-98630359D01*
X158457511Y-98834237D01*
X158497285Y-99034196D01*
X158575306Y-99222554D01*
X158657511Y-99345583D01*
X158657512Y-100921485D01*
X158653471Y-100962513D01*
X158669593Y-101126201D01*
X158717339Y-101283599D01*
X158792918Y-101424996D01*
X158794876Y-101428659D01*
X158899221Y-101555804D01*
X158931085Y-101581954D01*
X164200562Y-106851433D01*
X164226708Y-106883292D01*
X164353853Y-106987637D01*
X164498912Y-107065173D01*
X164656310Y-107112919D01*
X164778980Y-107125001D01*
X164778981Y-107125001D01*
X164819999Y-107129041D01*
X164861017Y-107125001D01*
X168518983Y-107125001D01*
X168560001Y-107129041D01*
X168601019Y-107125001D01*
X168601020Y-107125001D01*
X168723690Y-107112919D01*
X168881088Y-107065173D01*
X169026147Y-106987637D01*
X169153292Y-106883292D01*
X169179446Y-106851423D01*
X169517493Y-106513378D01*
X169525518Y-106515812D01*
X169650000Y-106528072D01*
X171350000Y-106528072D01*
X171474482Y-106515812D01*
X171594180Y-106479502D01*
X171704494Y-106420537D01*
X171801185Y-106341185D01*
X171880537Y-106244494D01*
X171939502Y-106134180D01*
X171975812Y-106014482D01*
X171988072Y-105890000D01*
X171988072Y-105694326D01*
X172024276Y-105674974D01*
X172140001Y-105580001D01*
X172163802Y-105551000D01*
X172186002Y-105528800D01*
X172215002Y-105505000D01*
X172309975Y-105389275D01*
X172380547Y-105257246D01*
X172424004Y-105113985D01*
X172435001Y-105002332D01*
X172435001Y-105002322D01*
X172438677Y-104965000D01*
X172435001Y-104927677D01*
X172435001Y-100712334D01*
X172438678Y-100675001D01*
X172424004Y-100526015D01*
X172380547Y-100382754D01*
X172309975Y-100250725D01*
X172238800Y-100163998D01*
X172215002Y-100135000D01*
X172186005Y-100111203D01*
X172035000Y-99960198D01*
X172035000Y-99898061D01*
X171995226Y-99698102D01*
X171917205Y-99509744D01*
X171803937Y-99340226D01*
X171659774Y-99196063D01*
X171490256Y-99082795D01*
X171301898Y-99004774D01*
X171101939Y-98965000D01*
X170898061Y-98965000D01*
X170698102Y-99004774D01*
X170509744Y-99082795D01*
X170340226Y-99196063D01*
X170196063Y-99340226D01*
X170082795Y-99509744D01*
X170004774Y-99698102D01*
X169965000Y-99898061D01*
X169965000Y-100101939D01*
X170004774Y-100301898D01*
X170082795Y-100490256D01*
X170196063Y-100659774D01*
X170340226Y-100803937D01*
X170509744Y-100917205D01*
X170698102Y-100995226D01*
X170898061Y-101035000D01*
X170915001Y-101035000D01*
X170915001Y-101074069D01*
X170791111Y-101036487D01*
X170572950Y-101015000D01*
X170427050Y-101015000D01*
X170208889Y-101036487D01*
X169928966Y-101121401D01*
X169670986Y-101259294D01*
X169444866Y-101444866D01*
X169259294Y-101670986D01*
X169230000Y-101725791D01*
X169200706Y-101670986D01*
X169015134Y-101444866D01*
X168789014Y-101259294D01*
X168531034Y-101121401D01*
X168251111Y-101036487D01*
X168032950Y-101015000D01*
X167887050Y-101015000D01*
X167668889Y-101036487D01*
X167594005Y-101059203D01*
X164991471Y-98456670D01*
X165928338Y-97519803D01*
X166051898Y-97495226D01*
X166240256Y-97417205D01*
X166409774Y-97303937D01*
X166453711Y-97260000D01*
X171962678Y-97260000D01*
X172000000Y-97263676D01*
X172037322Y-97260000D01*
X172037333Y-97260000D01*
X172148986Y-97249003D01*
X172292247Y-97205546D01*
X172424276Y-97134974D01*
X172540001Y-97040001D01*
X172563804Y-97010997D01*
X173539802Y-96035000D01*
X173601939Y-96035000D01*
X173801898Y-95995226D01*
X173990256Y-95917205D01*
X174159774Y-95803937D01*
X174303937Y-95659774D01*
X174417205Y-95490256D01*
X174495226Y-95301898D01*
X174535000Y-95101939D01*
X174535000Y-94898061D01*
X174495226Y-94698102D01*
X174417205Y-94509744D01*
X174303937Y-94340226D01*
X174159774Y-94196063D01*
X173990256Y-94082795D01*
X173801898Y-94004774D01*
X173601939Y-93965000D01*
X173398061Y-93965000D01*
X173198102Y-94004774D01*
X173009744Y-94082795D01*
X172840226Y-94196063D01*
X172696063Y-94340226D01*
X172582795Y-94509744D01*
X172504774Y-94698102D01*
X172465000Y-94898061D01*
X172465000Y-94960198D01*
X171685199Y-95740000D01*
X166453711Y-95740000D01*
X166409774Y-95696063D01*
X166240256Y-95582795D01*
X166051898Y-95504774D01*
X165851939Y-95465000D01*
X165648061Y-95465000D01*
X165448102Y-95504774D01*
X165259744Y-95582795D01*
X165090226Y-95696063D01*
X164946063Y-95840226D01*
X164832795Y-96009744D01*
X164754774Y-96198102D01*
X164715000Y-96398061D01*
X164715000Y-96583538D01*
X163860000Y-97438539D01*
X163860000Y-96464801D01*
X166539802Y-93785000D01*
X166601939Y-93785000D01*
X166801898Y-93745226D01*
X166990256Y-93667205D01*
X167159774Y-93553937D01*
X167303937Y-93409774D01*
X167417205Y-93240256D01*
X167495226Y-93051898D01*
X167535000Y-92851939D01*
X167535000Y-92648061D01*
X167495226Y-92448102D01*
X167417205Y-92259744D01*
X167303937Y-92090226D01*
X167159774Y-91946063D01*
X166990256Y-91832795D01*
X166801898Y-91754774D01*
X166601939Y-91715000D01*
X166398061Y-91715000D01*
X166198102Y-91754774D01*
X166009744Y-91832795D01*
X165840226Y-91946063D01*
X165696063Y-92090226D01*
X165582795Y-92259744D01*
X165504774Y-92448102D01*
X165465000Y-92648061D01*
X165465000Y-92710198D01*
X162589003Y-95586196D01*
X162559999Y-95609999D01*
X162528560Y-95648308D01*
X162465026Y-95725724D01*
X162451223Y-95751548D01*
X162394454Y-95857754D01*
X162350997Y-96001015D01*
X162340000Y-96112668D01*
X162340000Y-96112678D01*
X162336324Y-96150000D01*
X162340000Y-96187323D01*
X162340001Y-98696288D01*
X162296063Y-98740226D01*
X162182795Y-98909744D01*
X162104774Y-99098102D01*
X162065000Y-99298061D01*
X162065000Y-99501939D01*
X162104774Y-99701898D01*
X162182795Y-99890256D01*
X162296063Y-100059774D01*
X162440226Y-100203937D01*
X162609744Y-100317205D01*
X162798102Y-100395226D01*
X162998061Y-100435000D01*
X163201939Y-100435000D01*
X163401898Y-100395226D01*
X163590256Y-100317205D01*
X163759774Y-100203937D01*
X163773956Y-100189755D01*
X164761106Y-101176905D01*
X164653080Y-101228359D01*
X164419731Y-101402412D01*
X164224822Y-101618645D01*
X164075843Y-101868748D01*
X163978519Y-102143109D01*
X164099185Y-102372998D01*
X163935000Y-102372998D01*
X163935000Y-102480198D01*
X161260000Y-99805199D01*
X161260000Y-89400000D01*
X169011928Y-89400000D01*
X169011928Y-91100000D01*
X169024188Y-91224482D01*
X169060498Y-91344180D01*
X169119463Y-91454494D01*
X169198815Y-91551185D01*
X169295506Y-91630537D01*
X169405820Y-91689502D01*
X169525518Y-91725812D01*
X169650000Y-91738072D01*
X171350000Y-91738072D01*
X171474482Y-91725812D01*
X171594180Y-91689502D01*
X171704494Y-91630537D01*
X171801185Y-91551185D01*
X171880537Y-91454494D01*
X171939502Y-91344180D01*
X171963966Y-91263534D01*
X172039731Y-91347588D01*
X172273080Y-91521641D01*
X172535901Y-91646825D01*
X172683110Y-91691476D01*
X172913000Y-91570155D01*
X172913000Y-90377000D01*
X173167000Y-90377000D01*
X173167000Y-91570155D01*
X173396890Y-91691476D01*
X173544099Y-91646825D01*
X173806920Y-91521641D01*
X174040269Y-91347588D01*
X174235178Y-91131355D01*
X174384157Y-90881252D01*
X174481481Y-90606891D01*
X174360814Y-90377000D01*
X173167000Y-90377000D01*
X172913000Y-90377000D01*
X172893000Y-90377000D01*
X172893000Y-90123000D01*
X172913000Y-90123000D01*
X172913000Y-88929845D01*
X173167000Y-88929845D01*
X173167000Y-90123000D01*
X174360814Y-90123000D01*
X174481481Y-89893109D01*
X174384157Y-89618748D01*
X174235178Y-89368645D01*
X174040269Y-89152412D01*
X173806920Y-88978359D01*
X173544099Y-88853175D01*
X173396890Y-88808524D01*
X173167000Y-88929845D01*
X172913000Y-88929845D01*
X172683110Y-88808524D01*
X172535901Y-88853175D01*
X172273080Y-88978359D01*
X172039731Y-89152412D01*
X171963966Y-89236466D01*
X171939502Y-89155820D01*
X171880537Y-89045506D01*
X171801185Y-88948815D01*
X171704494Y-88869463D01*
X171594180Y-88810498D01*
X171474482Y-88774188D01*
X171350000Y-88761928D01*
X169650000Y-88761928D01*
X169525518Y-88774188D01*
X169405820Y-88810498D01*
X169295506Y-88869463D01*
X169198815Y-88948815D01*
X169119463Y-89045506D01*
X169060498Y-89155820D01*
X169024188Y-89275518D01*
X169011928Y-89400000D01*
X161260000Y-89400000D01*
X161260000Y-87453711D01*
X161303937Y-87409774D01*
X161417205Y-87240256D01*
X161495226Y-87051898D01*
X161535000Y-86851939D01*
X161535000Y-86784999D01*
X163508983Y-86784999D01*
X163550001Y-86789039D01*
X163591019Y-86784999D01*
X163591020Y-86784999D01*
X163713690Y-86772917D01*
X163871088Y-86725171D01*
X164016147Y-86647635D01*
X164143292Y-86543290D01*
X164169447Y-86511420D01*
X164625980Y-86054887D01*
X164696063Y-86159774D01*
X164840226Y-86303937D01*
X165009744Y-86417205D01*
X165198102Y-86495226D01*
X165398061Y-86535000D01*
X165601939Y-86535000D01*
X165801898Y-86495226D01*
X165990256Y-86417205D01*
X166159774Y-86303937D01*
X166303937Y-86159774D01*
X166417205Y-85990256D01*
X166495226Y-85801898D01*
X166535000Y-85601939D01*
X166535000Y-85539801D01*
X168104646Y-83970156D01*
X168187168Y-84004338D01*
X168387127Y-84044112D01*
X168591005Y-84044112D01*
X168790964Y-84004338D01*
X168979322Y-83926317D01*
X169148840Y-83813049D01*
X169293003Y-83668886D01*
X169406271Y-83499368D01*
X169484292Y-83311010D01*
X169524066Y-83111051D01*
X169524066Y-82907173D01*
X169514685Y-82860010D01*
X169935515Y-82860010D01*
X171897851Y-84582498D01*
X171906709Y-84593291D01*
X171959569Y-84636672D01*
X171979990Y-84654597D01*
X171991265Y-84662685D01*
X172033854Y-84697636D01*
X172057951Y-84710516D01*
X172080153Y-84726441D01*
X172130321Y-84749199D01*
X172178913Y-84775172D01*
X172205063Y-84783105D01*
X172229941Y-84794390D01*
X172283582Y-84806923D01*
X172336311Y-84822918D01*
X172363505Y-84825596D01*
X172390108Y-84831812D01*
X172445166Y-84833639D01*
X172458981Y-84835000D01*
X172486163Y-84835000D01*
X172554498Y-84837268D01*
X172568274Y-84835000D01*
X172595822Y-84835000D01*
X172535901Y-84853175D01*
X172273080Y-84978359D01*
X172039731Y-85152412D01*
X171963966Y-85236466D01*
X171939502Y-85155820D01*
X171880537Y-85045506D01*
X171801185Y-84948815D01*
X171704494Y-84869463D01*
X171594180Y-84810498D01*
X171474482Y-84774188D01*
X171350000Y-84761928D01*
X169650000Y-84761928D01*
X169525518Y-84774188D01*
X169405820Y-84810498D01*
X169295506Y-84869463D01*
X169198815Y-84948815D01*
X169119463Y-85045506D01*
X169060498Y-85155820D01*
X169024188Y-85275518D01*
X169011928Y-85400000D01*
X169011928Y-87100000D01*
X169024188Y-87224482D01*
X169060498Y-87344180D01*
X169119463Y-87454494D01*
X169198815Y-87551185D01*
X169295506Y-87630537D01*
X169405820Y-87689502D01*
X169525518Y-87725812D01*
X169650000Y-87738072D01*
X171350000Y-87738072D01*
X171474482Y-87725812D01*
X171594180Y-87689502D01*
X171704494Y-87630537D01*
X171801185Y-87551185D01*
X171880537Y-87454494D01*
X171939502Y-87344180D01*
X171963966Y-87263534D01*
X172039731Y-87347588D01*
X172273080Y-87521641D01*
X172535901Y-87646825D01*
X172683110Y-87691476D01*
X172913000Y-87570155D01*
X172913000Y-86377000D01*
X173167000Y-86377000D01*
X173167000Y-87570155D01*
X173396890Y-87691476D01*
X173544099Y-87646825D01*
X173806920Y-87521641D01*
X174040269Y-87347588D01*
X174235178Y-87131355D01*
X174384157Y-86881252D01*
X174481481Y-86606891D01*
X174360814Y-86377000D01*
X173167000Y-86377000D01*
X172913000Y-86377000D01*
X172893000Y-86377000D01*
X172893000Y-86123000D01*
X172913000Y-86123000D01*
X172913000Y-86103000D01*
X173167000Y-86103000D01*
X173167000Y-86123000D01*
X174360814Y-86123000D01*
X174481481Y-85893109D01*
X174384157Y-85618748D01*
X174235178Y-85368645D01*
X174040269Y-85152412D01*
X173806920Y-84978359D01*
X173544099Y-84853175D01*
X173484178Y-84835000D01*
X174458982Y-84835000D01*
X174500000Y-84839040D01*
X174541018Y-84835000D01*
X174541019Y-84835000D01*
X174663689Y-84822918D01*
X174821087Y-84775172D01*
X174966146Y-84697636D01*
X175093291Y-84593291D01*
X175119445Y-84561422D01*
X175561427Y-84119441D01*
X175593291Y-84093291D01*
X175697636Y-83966146D01*
X175775172Y-83821087D01*
X175815000Y-83689790D01*
X175815001Y-110315000D01*
X131185000Y-110315000D01*
X131185000Y-102802794D01*
X133961790Y-102802794D01*
X133963154Y-102927871D01*
X133988894Y-103050278D01*
X134038019Y-103165311D01*
X134108642Y-103268551D01*
X137682541Y-107527758D01*
X137771949Y-107615235D01*
X137876704Y-107683590D01*
X137992782Y-107730194D01*
X138115721Y-107753257D01*
X138240798Y-107751893D01*
X138363205Y-107726153D01*
X138478238Y-107677028D01*
X138581478Y-107606405D01*
X140019215Y-106400000D01*
X149221928Y-106400000D01*
X149221928Y-108100000D01*
X149234188Y-108224482D01*
X149270498Y-108344180D01*
X149329463Y-108454494D01*
X149408815Y-108551185D01*
X149505506Y-108630537D01*
X149615820Y-108689502D01*
X149735518Y-108725812D01*
X149860000Y-108738072D01*
X151560000Y-108738072D01*
X151684482Y-108725812D01*
X151804180Y-108689502D01*
X151914494Y-108630537D01*
X152011185Y-108551185D01*
X152090537Y-108454494D01*
X152149502Y-108344180D01*
X152172498Y-108268374D01*
X152368645Y-108445178D01*
X152618748Y-108594157D01*
X152893109Y-108691481D01*
X153123000Y-108570814D01*
X153123000Y-107377000D01*
X153377000Y-107377000D01*
X153377000Y-108570814D01*
X153606891Y-108691481D01*
X153881252Y-108594157D01*
X154131355Y-108445178D01*
X154347588Y-108250269D01*
X154521641Y-108016920D01*
X154646825Y-107754099D01*
X154691476Y-107606890D01*
X154570155Y-107377000D01*
X153377000Y-107377000D01*
X153123000Y-107377000D01*
X153103000Y-107377000D01*
X153103000Y-107123000D01*
X153123000Y-107123000D01*
X153123000Y-105929186D01*
X153377000Y-105929186D01*
X153377000Y-107123000D01*
X154570155Y-107123000D01*
X154691476Y-106893110D01*
X154646825Y-106745901D01*
X154521641Y-106483080D01*
X154347588Y-106249731D01*
X154131355Y-106054822D01*
X153881252Y-105905843D01*
X153606891Y-105808519D01*
X153377000Y-105929186D01*
X153123000Y-105929186D01*
X152893109Y-105808519D01*
X152618748Y-105905843D01*
X152368645Y-106054822D01*
X152172498Y-106231626D01*
X152149502Y-106155820D01*
X152090537Y-106045506D01*
X152011185Y-105948815D01*
X151914494Y-105869463D01*
X151804180Y-105810498D01*
X151684482Y-105774188D01*
X151560000Y-105761928D01*
X149860000Y-105761928D01*
X149735518Y-105774188D01*
X149615820Y-105810498D01*
X149505506Y-105869463D01*
X149408815Y-105948815D01*
X149329463Y-106045506D01*
X149270498Y-106155820D01*
X149234188Y-106275518D01*
X149221928Y-106400000D01*
X140019215Y-106400000D01*
X140573193Y-105935158D01*
X140660670Y-105845750D01*
X140729025Y-105740995D01*
X140775629Y-105624917D01*
X140798692Y-105501978D01*
X140797328Y-105376901D01*
X140771588Y-105254494D01*
X140722463Y-105139461D01*
X140651840Y-105036221D01*
X137077941Y-100777014D01*
X136988533Y-100689537D01*
X136883778Y-100621182D01*
X136767700Y-100574578D01*
X136644761Y-100551515D01*
X136519684Y-100552879D01*
X136397277Y-100578619D01*
X136282244Y-100627744D01*
X136179004Y-100698367D01*
X134187289Y-102369614D01*
X134099812Y-102459022D01*
X134031457Y-102563777D01*
X133984853Y-102679855D01*
X133961790Y-102802794D01*
X131185000Y-102802794D01*
X131185000Y-99698218D01*
X143133061Y-99698218D01*
X144733980Y-101610899D01*
X144823387Y-101698377D01*
X144928143Y-101766731D01*
X145044221Y-101813335D01*
X145167160Y-101836398D01*
X145292236Y-101835033D01*
X145414644Y-101809295D01*
X145529677Y-101760169D01*
X145632917Y-101689546D01*
X148476222Y-99299718D01*
X148495790Y-99076066D01*
X146484346Y-96678922D01*
X143152628Y-99474566D01*
X143133061Y-99698218D01*
X131185000Y-99698218D01*
X131185000Y-96885935D01*
X141013229Y-96885935D01*
X141014593Y-97011011D01*
X141040332Y-97133419D01*
X141089457Y-97248452D01*
X141160081Y-97351692D01*
X142765707Y-99260423D01*
X142989360Y-99279990D01*
X146283766Y-96515654D01*
X146678922Y-96515654D01*
X148690365Y-98912798D01*
X148914017Y-98932365D01*
X151761272Y-96547245D01*
X151848750Y-96457837D01*
X151917105Y-96353082D01*
X151963708Y-96237004D01*
X151986771Y-96114065D01*
X151985407Y-95988989D01*
X151959668Y-95866581D01*
X151910543Y-95751548D01*
X151839919Y-95648308D01*
X150234293Y-93739577D01*
X150010640Y-93720010D01*
X146678922Y-96515654D01*
X146283766Y-96515654D01*
X146321078Y-96484346D01*
X144309635Y-94087202D01*
X144085983Y-94067635D01*
X141238728Y-96452755D01*
X141151250Y-96542163D01*
X141082895Y-96646918D01*
X141036292Y-96762996D01*
X141013229Y-96885935D01*
X131185000Y-96885935D01*
X131185000Y-93923934D01*
X144504210Y-93923934D01*
X146515654Y-96321078D01*
X149847372Y-93525434D01*
X149866939Y-93301782D01*
X148266020Y-91389101D01*
X148176613Y-91301623D01*
X148071857Y-91233269D01*
X147955779Y-91186665D01*
X147832840Y-91163602D01*
X147707764Y-91164967D01*
X147585356Y-91190705D01*
X147470323Y-91239831D01*
X147367083Y-91310454D01*
X144523778Y-93700282D01*
X144504210Y-93923934D01*
X131185000Y-93923934D01*
X131185000Y-93548201D01*
X131197163Y-93560521D01*
X131394620Y-93694294D01*
X131614381Y-93786974D01*
X131848000Y-93835000D01*
X132173000Y-93835000D01*
X132173000Y-92752000D01*
X132427000Y-92752000D01*
X132427000Y-93835000D01*
X132752000Y-93835000D01*
X132985619Y-93786974D01*
X133205380Y-93694294D01*
X133402837Y-93560521D01*
X133570402Y-93390797D01*
X133701636Y-93191644D01*
X133791496Y-92970715D01*
X133793635Y-92938677D01*
X133708927Y-92812258D01*
X134507481Y-92812258D01*
X134519922Y-92878117D01*
X134623643Y-93124979D01*
X134773531Y-93346863D01*
X134963827Y-93535242D01*
X135187217Y-93682876D01*
X135435117Y-93784092D01*
X135698000Y-93835000D01*
X135973000Y-93835000D01*
X135973000Y-92602000D01*
X136227000Y-92602000D01*
X136227000Y-93835000D01*
X136502000Y-93835000D01*
X136764883Y-93784092D01*
X137012783Y-93682876D01*
X137236173Y-93535242D01*
X137426469Y-93346863D01*
X137576357Y-93124979D01*
X137680078Y-92878117D01*
X137692519Y-92812258D01*
X137569518Y-92602000D01*
X136227000Y-92602000D01*
X135973000Y-92602000D01*
X134630482Y-92602000D01*
X134507481Y-92812258D01*
X133708927Y-92812258D01*
X133668550Y-92752000D01*
X132427000Y-92752000D01*
X132173000Y-92752000D01*
X132153000Y-92752000D01*
X132153000Y-92498000D01*
X132173000Y-92498000D01*
X132173000Y-91415000D01*
X132427000Y-91415000D01*
X132427000Y-92498000D01*
X133668550Y-92498000D01*
X133793635Y-92311323D01*
X133791496Y-92279285D01*
X133701636Y-92058356D01*
X133570402Y-91859203D01*
X133402837Y-91689479D01*
X133205380Y-91555706D01*
X132985619Y-91463026D01*
X132752000Y-91415000D01*
X132427000Y-91415000D01*
X132173000Y-91415000D01*
X131848000Y-91415000D01*
X131614381Y-91463026D01*
X131394620Y-91555706D01*
X131197163Y-91689479D01*
X131185000Y-91701799D01*
X131185000Y-91250000D01*
X134009993Y-91250000D01*
X134029976Y-91452895D01*
X134089159Y-91647993D01*
X134185266Y-91827797D01*
X134314604Y-91985396D01*
X134472203Y-92114734D01*
X134508193Y-92133971D01*
X134507481Y-92137742D01*
X134630482Y-92348000D01*
X135973000Y-92348000D01*
X135973000Y-91718789D01*
X136010841Y-91647993D01*
X136070024Y-91452895D01*
X136090007Y-91250000D01*
X136076711Y-91115000D01*
X136227000Y-91115000D01*
X136227000Y-92348000D01*
X137569518Y-92348000D01*
X137692519Y-92137742D01*
X137680078Y-92071883D01*
X137576357Y-91825021D01*
X137426469Y-91603137D01*
X137236173Y-91414758D01*
X137012783Y-91267124D01*
X136764883Y-91165908D01*
X136502000Y-91115000D01*
X136227000Y-91115000D01*
X136076711Y-91115000D01*
X136070024Y-91047105D01*
X136010841Y-90852007D01*
X135914734Y-90672203D01*
X135785396Y-90514604D01*
X135627797Y-90385266D01*
X135447993Y-90289159D01*
X135252895Y-90229976D01*
X135100838Y-90215000D01*
X134999162Y-90215000D01*
X134847105Y-90229976D01*
X134652007Y-90289159D01*
X134472203Y-90385266D01*
X134314604Y-90514604D01*
X134185266Y-90672203D01*
X134089159Y-90852007D01*
X134029976Y-91047105D01*
X134009993Y-91250000D01*
X131185000Y-91250000D01*
X131185000Y-86250000D01*
X134009993Y-86250000D01*
X134029976Y-86452895D01*
X134089159Y-86647993D01*
X134185266Y-86827797D01*
X134314604Y-86985396D01*
X134472203Y-87114734D01*
X134652007Y-87210841D01*
X134847105Y-87270024D01*
X134999162Y-87285000D01*
X135100838Y-87285000D01*
X135252895Y-87270024D01*
X135447993Y-87210841D01*
X135627797Y-87114734D01*
X135785396Y-86985396D01*
X135914734Y-86827797D01*
X136010841Y-86647993D01*
X136070024Y-86452895D01*
X136090007Y-86250000D01*
X136070024Y-86047105D01*
X136010841Y-85852007D01*
X135973000Y-85781211D01*
X135973000Y-85152000D01*
X136227000Y-85152000D01*
X136227000Y-86385000D01*
X136502000Y-86385000D01*
X136764883Y-86334092D01*
X137012783Y-86232876D01*
X137236173Y-86085242D01*
X137426469Y-85896863D01*
X137576357Y-85674979D01*
X137680078Y-85428117D01*
X137692519Y-85362258D01*
X137569518Y-85152000D01*
X136227000Y-85152000D01*
X135973000Y-85152000D01*
X134630482Y-85152000D01*
X134507481Y-85362258D01*
X134508193Y-85366029D01*
X134472203Y-85385266D01*
X134314604Y-85514604D01*
X134185266Y-85672203D01*
X134089159Y-85852007D01*
X134029976Y-86047105D01*
X134009993Y-86250000D01*
X131185000Y-86250000D01*
X131185000Y-85798201D01*
X131197163Y-85810521D01*
X131394620Y-85944294D01*
X131614381Y-86036974D01*
X131848000Y-86085000D01*
X132173000Y-86085000D01*
X132173000Y-85002000D01*
X132427000Y-85002000D01*
X132427000Y-86085000D01*
X132752000Y-86085000D01*
X132985619Y-86036974D01*
X133205380Y-85944294D01*
X133402837Y-85810521D01*
X133570402Y-85640797D01*
X133701636Y-85441644D01*
X133791496Y-85220715D01*
X133793635Y-85188677D01*
X133668550Y-85002000D01*
X132427000Y-85002000D01*
X132173000Y-85002000D01*
X132153000Y-85002000D01*
X132153000Y-84748000D01*
X132173000Y-84748000D01*
X132173000Y-83665000D01*
X132427000Y-83665000D01*
X132427000Y-84748000D01*
X133668550Y-84748000D01*
X133708926Y-84687742D01*
X134507481Y-84687742D01*
X134630482Y-84898000D01*
X135973000Y-84898000D01*
X135973000Y-83665000D01*
X136227000Y-83665000D01*
X136227000Y-84898000D01*
X137569518Y-84898000D01*
X137692519Y-84687742D01*
X137680078Y-84621883D01*
X137576357Y-84375021D01*
X137426469Y-84153137D01*
X137236173Y-83964758D01*
X137012783Y-83817124D01*
X136764883Y-83715908D01*
X136502000Y-83665000D01*
X136227000Y-83665000D01*
X135973000Y-83665000D01*
X135698000Y-83665000D01*
X135435117Y-83715908D01*
X135187217Y-83817124D01*
X134963827Y-83964758D01*
X134773531Y-84153137D01*
X134623643Y-84375021D01*
X134519922Y-84621883D01*
X134507481Y-84687742D01*
X133708926Y-84687742D01*
X133793635Y-84561323D01*
X133791496Y-84529285D01*
X133701636Y-84308356D01*
X133570402Y-84109203D01*
X133402837Y-83939479D01*
X133205380Y-83805706D01*
X132985619Y-83713026D01*
X132752000Y-83665000D01*
X132427000Y-83665000D01*
X132173000Y-83665000D01*
X131848000Y-83665000D01*
X131614381Y-83713026D01*
X131394620Y-83805706D01*
X131197163Y-83939479D01*
X131185000Y-83951799D01*
X131185000Y-80138212D01*
X139615000Y-80138212D01*
X139615000Y-80361788D01*
X139658617Y-80581067D01*
X139744176Y-80787624D01*
X139868388Y-80973520D01*
X139994868Y-81100000D01*
X139868388Y-81226480D01*
X139744176Y-81412376D01*
X139658617Y-81618933D01*
X139615000Y-81838212D01*
X139615000Y-82061788D01*
X139658617Y-82281067D01*
X139744176Y-82487624D01*
X139868388Y-82673520D01*
X140026480Y-82831612D01*
X140212376Y-82955824D01*
X140418933Y-83041383D01*
X140638212Y-83085000D01*
X140861788Y-83085000D01*
X141081067Y-83041383D01*
X141287624Y-82955824D01*
X141473520Y-82831612D01*
X141631612Y-82673520D01*
X141755824Y-82487624D01*
X141841383Y-82281067D01*
X141885000Y-82061788D01*
X141885000Y-81838212D01*
X141841383Y-81618933D01*
X141755824Y-81412376D01*
X141631612Y-81226480D01*
X141505132Y-81100000D01*
X141631612Y-80973520D01*
X141755824Y-80787624D01*
X141841383Y-80581067D01*
X141885000Y-80361788D01*
X141885000Y-80138212D01*
X141841383Y-79918933D01*
X141755824Y-79712376D01*
X141631612Y-79526480D01*
X141473520Y-79368388D01*
X141287624Y-79244176D01*
X141081067Y-79158617D01*
X140861788Y-79115000D01*
X140638212Y-79115000D01*
X140418933Y-79158617D01*
X140212376Y-79244176D01*
X140026480Y-79368388D01*
X139868388Y-79526480D01*
X139744176Y-79712376D01*
X139658617Y-79918933D01*
X139615000Y-80138212D01*
X131185000Y-80138212D01*
X131185000Y-74041000D01*
X131699000Y-74041000D01*
X131699000Y-78740000D01*
X131701440Y-78764776D01*
X131708667Y-78788601D01*
X131720403Y-78810557D01*
X131736197Y-78829803D01*
X131755443Y-78845597D01*
X131777399Y-78857333D01*
X131801224Y-78864560D01*
X131826000Y-78867000D01*
X140843000Y-78867000D01*
X140867776Y-78864560D01*
X140891601Y-78857333D01*
X140913557Y-78845597D01*
X140932803Y-78829803D01*
X140948597Y-78810557D01*
X140960333Y-78788601D01*
X140967560Y-78764776D01*
X140970000Y-78740000D01*
X140970000Y-74041000D01*
X140967560Y-74016224D01*
X140960333Y-73992399D01*
X140948597Y-73970443D01*
X140932803Y-73951197D01*
X140913557Y-73935403D01*
X140891601Y-73923667D01*
X140867776Y-73916440D01*
X140843000Y-73914000D01*
X136155136Y-73914000D01*
X136146363Y-73906800D01*
X136023020Y-73840872D01*
X135889184Y-73800273D01*
X135784877Y-73790000D01*
X135784875Y-73790000D01*
X135750000Y-73786565D01*
X135715125Y-73790000D01*
X134284877Y-73790000D01*
X134250000Y-73786565D01*
X134215123Y-73790000D01*
X134110816Y-73800273D01*
X133976980Y-73840872D01*
X133853637Y-73906800D01*
X133844864Y-73914000D01*
X131826000Y-73914000D01*
X131801224Y-73916440D01*
X131777399Y-73923667D01*
X131755443Y-73935403D01*
X131736197Y-73951197D01*
X131720403Y-73970443D01*
X131708667Y-73992399D01*
X131701440Y-74016224D01*
X131699000Y-74041000D01*
X131185000Y-74041000D01*
X131185000Y-73685000D01*
X175815000Y-73685000D01*
X175815000Y-81060209D01*
X175815000Y-81060209D01*
G37*
X175815000Y-81060209D02*
X175775172Y-80928913D01*
X175697636Y-80783854D01*
X175641951Y-80716001D01*
X175619439Y-80688570D01*
X175619437Y-80688568D01*
X175593291Y-80656709D01*
X175561432Y-80630563D01*
X175024092Y-80093225D01*
X174995226Y-79948102D01*
X174917205Y-79759744D01*
X174803937Y-79590226D01*
X174659774Y-79446063D01*
X174490256Y-79332795D01*
X174301898Y-79254774D01*
X174101939Y-79215000D01*
X173898061Y-79215000D01*
X173698102Y-79254774D01*
X173509744Y-79332795D01*
X173340226Y-79446063D01*
X173196063Y-79590226D01*
X173082795Y-79759744D01*
X173004774Y-79948102D01*
X172965000Y-80148061D01*
X172965000Y-80351939D01*
X173004774Y-80551898D01*
X173082795Y-80740256D01*
X173196063Y-80909774D01*
X173340226Y-81053937D01*
X173509744Y-81167205D01*
X173698102Y-81245226D01*
X173843225Y-81274092D01*
X174165001Y-81595869D01*
X174165000Y-83154132D01*
X174154133Y-83165000D01*
X173487176Y-83165000D01*
X173544380Y-83026898D01*
X173584154Y-82826939D01*
X173584154Y-82623061D01*
X173544380Y-82423102D01*
X173466359Y-82234744D01*
X173353091Y-82065226D01*
X173208928Y-81921063D01*
X173039410Y-81807795D01*
X173010000Y-81795613D01*
X173010000Y-81214320D01*
X173013676Y-81176997D01*
X173010000Y-81139674D01*
X173010000Y-81139665D01*
X172999003Y-81028012D01*
X172955546Y-80884751D01*
X172884974Y-80752722D01*
X172848070Y-80707754D01*
X172813799Y-80665994D01*
X172813795Y-80665990D01*
X172790001Y-80636997D01*
X172761008Y-80613203D01*
X171800000Y-79652197D01*
X171800000Y-77738072D01*
X171890000Y-77738072D01*
X172014482Y-77725812D01*
X172134180Y-77689502D01*
X172244494Y-77630537D01*
X172341185Y-77551185D01*
X172420537Y-77454494D01*
X172479502Y-77344180D01*
X172515812Y-77224482D01*
X172528072Y-77100000D01*
X172528072Y-75400000D01*
X172515812Y-75275518D01*
X172479502Y-75155820D01*
X172420537Y-75045506D01*
X172341185Y-74948815D01*
X172244494Y-74869463D01*
X172134180Y-74810498D01*
X172014482Y-74774188D01*
X171890000Y-74761928D01*
X170190000Y-74761928D01*
X170065518Y-74774188D01*
X169945820Y-74810498D01*
X169835506Y-74869463D01*
X169738815Y-74948815D01*
X169659463Y-75045506D01*
X169600498Y-75155820D01*
X169579607Y-75224687D01*
X169555134Y-75194866D01*
X169329014Y-75009294D01*
X169071034Y-74871401D01*
X168791111Y-74786487D01*
X168572950Y-74765000D01*
X168427050Y-74765000D01*
X168208889Y-74786487D01*
X167928966Y-74871401D01*
X167670986Y-75009294D01*
X167444866Y-75194866D01*
X167259294Y-75420986D01*
X167121401Y-75678966D01*
X167036487Y-75958889D01*
X167007815Y-76250000D01*
X167036487Y-76541111D01*
X167121401Y-76821034D01*
X167259294Y-77079014D01*
X167444866Y-77305134D01*
X167670986Y-77490706D01*
X167740001Y-77527595D01*
X167740000Y-79712677D01*
X167736324Y-79750000D01*
X167740000Y-79787322D01*
X167740000Y-79787332D01*
X167750997Y-79898985D01*
X167782953Y-80004330D01*
X167794454Y-80042246D01*
X167865026Y-80174276D01*
X167904871Y-80222826D01*
X167959999Y-80290001D01*
X167989003Y-80313804D01*
X168865208Y-81190010D01*
X166950320Y-81190010D01*
X166909304Y-81185970D01*
X166868288Y-81190010D01*
X166868286Y-81190010D01*
X166745616Y-81202092D01*
X166588218Y-81249838D01*
X166443159Y-81327374D01*
X166316014Y-81431719D01*
X166289863Y-81463584D01*
X165500000Y-82253447D01*
X164585000Y-81338448D01*
X164585000Y-79363285D01*
X164667205Y-79240256D01*
X164745226Y-79051898D01*
X164785000Y-78851939D01*
X164785000Y-78648061D01*
X164745226Y-78448102D01*
X164667205Y-78259744D01*
X164553937Y-78090226D01*
X164409774Y-77946063D01*
X164240256Y-77832795D01*
X164051898Y-77754774D01*
X163851939Y-77715000D01*
X163648061Y-77715000D01*
X163448102Y-77754774D01*
X163259744Y-77832795D01*
X163090226Y-77946063D01*
X162946063Y-78090226D01*
X162832795Y-78259744D01*
X162754774Y-78448102D01*
X162715000Y-78648061D01*
X162715000Y-78851939D01*
X162754774Y-79051898D01*
X162832795Y-79240256D01*
X162915001Y-79363286D01*
X162915000Y-81051623D01*
X162801898Y-81004774D01*
X162601939Y-80965000D01*
X162398061Y-80965000D01*
X162198102Y-81004774D01*
X162009744Y-81082795D01*
X161840226Y-81196063D01*
X161696063Y-81340226D01*
X161582795Y-81509744D01*
X161504774Y-81698102D01*
X161496440Y-81740000D01*
X156757538Y-81740000D01*
X156785000Y-81601939D01*
X156785000Y-81544105D01*
X156790001Y-81540001D01*
X156884974Y-81424276D01*
X156955546Y-81292247D01*
X156999003Y-81148986D01*
X157010000Y-81037333D01*
X157010000Y-81037325D01*
X157013676Y-81000000D01*
X157010000Y-80962675D01*
X157010000Y-77453711D01*
X157053937Y-77409774D01*
X157167205Y-77240256D01*
X157245226Y-77051898D01*
X157285000Y-76851939D01*
X157285000Y-76648061D01*
X157245226Y-76448102D01*
X157167205Y-76259744D01*
X157053937Y-76090226D01*
X156909774Y-75946063D01*
X156740256Y-75832795D01*
X156551898Y-75754774D01*
X156351939Y-75715000D01*
X156148061Y-75715000D01*
X155948102Y-75754774D01*
X155759744Y-75832795D01*
X155590226Y-75946063D01*
X155546289Y-75990000D01*
X149453711Y-75990000D01*
X149409774Y-75946063D01*
X149240256Y-75832795D01*
X149051898Y-75754774D01*
X148851939Y-75715000D01*
X148648061Y-75715000D01*
X148448102Y-75754774D01*
X148259744Y-75832795D01*
X148090226Y-75946063D01*
X147946063Y-76090226D01*
X147832795Y-76259744D01*
X147754774Y-76448102D01*
X147715000Y-76648061D01*
X147715000Y-76851939D01*
X147754774Y-77051898D01*
X147832795Y-77240256D01*
X147946063Y-77409774D01*
X148090226Y-77553937D01*
X148259744Y-77667205D01*
X148337059Y-77699230D01*
X148196063Y-77840226D01*
X148082795Y-78009744D01*
X148004774Y-78198102D01*
X147965000Y-78398061D01*
X147965000Y-78601939D01*
X148004774Y-78801898D01*
X148082795Y-78990256D01*
X148196063Y-79159774D01*
X148340226Y-79303937D01*
X148509744Y-79417205D01*
X148698102Y-79495226D01*
X148898061Y-79535000D01*
X149101939Y-79535000D01*
X149301898Y-79495226D01*
X149490256Y-79417205D01*
X149659774Y-79303937D01*
X149785279Y-79178432D01*
X149733989Y-79302257D01*
X149675000Y-79598816D01*
X149675000Y-79901184D01*
X149733989Y-80197743D01*
X149849701Y-80477095D01*
X150017688Y-80728505D01*
X150231495Y-80942312D01*
X150482905Y-81110299D01*
X150762257Y-81226011D01*
X151058816Y-81285000D01*
X151361184Y-81285000D01*
X151657743Y-81226011D01*
X151937095Y-81110299D01*
X152188505Y-80942312D01*
X152254944Y-80875873D01*
X152260498Y-80894180D01*
X152319463Y-81004494D01*
X152398815Y-81101185D01*
X152495506Y-81180537D01*
X152605820Y-81239502D01*
X152725518Y-81275812D01*
X152850000Y-81288072D01*
X154650000Y-81288072D01*
X154738614Y-81279345D01*
X154715000Y-81398061D01*
X154715000Y-81601939D01*
X154742462Y-81740000D01*
X150203711Y-81740000D01*
X150159774Y-81696063D01*
X149990256Y-81582795D01*
X149801898Y-81504774D01*
X149601939Y-81465000D01*
X149398061Y-81465000D01*
X149198102Y-81504774D01*
X149009744Y-81582795D01*
X148840226Y-81696063D01*
X148696063Y-81840226D01*
X148582795Y-82009744D01*
X148504774Y-82198102D01*
X148465000Y-82398061D01*
X148465000Y-82601939D01*
X148504774Y-82801898D01*
X148582795Y-82990256D01*
X148696063Y-83159774D01*
X148767433Y-83231144D01*
X148751013Y-83285276D01*
X148696063Y-83340226D01*
X148582795Y-83509744D01*
X148504774Y-83698102D01*
X148465000Y-83898061D01*
X148465000Y-84101939D01*
X148504774Y-84301898D01*
X148582795Y-84490256D01*
X148696063Y-84659774D01*
X148840226Y-84803937D01*
X149009744Y-84917205D01*
X149198102Y-84995226D01*
X149398061Y-85035000D01*
X149601939Y-85035000D01*
X149673825Y-85020701D01*
X149671928Y-85400000D01*
X149680792Y-85490000D01*
X148389813Y-85490000D01*
X145610010Y-82710199D01*
X145610010Y-82648061D01*
X145570236Y-82448102D01*
X145492215Y-82259744D01*
X145378947Y-82090226D01*
X145234784Y-81946063D01*
X145065266Y-81832795D01*
X144876908Y-81754774D01*
X144676949Y-81715000D01*
X144473071Y-81715000D01*
X144273112Y-81754774D01*
X144084754Y-81832795D01*
X143915236Y-81946063D01*
X143771073Y-82090226D01*
X143657805Y-82259744D01*
X143579784Y-82448102D01*
X143540010Y-82648061D01*
X143540010Y-82851939D01*
X143579784Y-83051898D01*
X143657805Y-83240256D01*
X143771073Y-83409774D01*
X143915236Y-83553937D01*
X144084754Y-83667205D01*
X144273112Y-83745226D01*
X144473071Y-83785000D01*
X144535209Y-83785000D01*
X147511215Y-86761008D01*
X147535009Y-86790001D01*
X147564002Y-86813795D01*
X147564006Y-86813799D01*
X147634695Y-86871811D01*
X147650734Y-86884974D01*
X147782763Y-86955546D01*
X147926024Y-86999003D01*
X148037677Y-87010000D01*
X148037686Y-87010000D01*
X148075009Y-87013676D01*
X148112332Y-87010000D01*
X152492165Y-87010000D01*
X152426807Y-87064842D01*
X152339330Y-87154250D01*
X152270975Y-87259005D01*
X152224371Y-87375083D01*
X152201308Y-87498022D01*
X152202672Y-87623099D01*
X152228412Y-87745506D01*
X152277537Y-87860539D01*
X152348160Y-87963779D01*
X155922059Y-92222986D01*
X156011467Y-92310463D01*
X156116222Y-92378818D01*
X156232300Y-92425422D01*
X156355239Y-92448485D01*
X156480316Y-92447121D01*
X156602723Y-92421381D01*
X156717756Y-92372256D01*
X156820996Y-92301633D01*
X158657511Y-90760614D01*
X158657512Y-98119012D01*
X158575306Y-98242042D01*
X158497285Y-98430400D01*
X158457511Y-98630359D01*
X158457511Y-98834237D01*
X158497285Y-99034196D01*
X158575306Y-99222554D01*
X158657511Y-99345583D01*
X158657512Y-100921485D01*
X158653471Y-100962513D01*
X158669593Y-101126201D01*
X158717339Y-101283599D01*
X158792918Y-101424996D01*
X158794876Y-101428659D01*
X158899221Y-101555804D01*
X158931085Y-101581954D01*
X164200562Y-106851433D01*
X164226708Y-106883292D01*
X164353853Y-106987637D01*
X164498912Y-107065173D01*
X164656310Y-107112919D01*
X164778980Y-107125001D01*
X164778981Y-107125001D01*
X164819999Y-107129041D01*
X164861017Y-107125001D01*
X168518983Y-107125001D01*
X168560001Y-107129041D01*
X168601019Y-107125001D01*
X168601020Y-107125001D01*
X168723690Y-107112919D01*
X168881088Y-107065173D01*
X169026147Y-106987637D01*
X169153292Y-106883292D01*
X169179446Y-106851423D01*
X169517493Y-106513378D01*
X169525518Y-106515812D01*
X169650000Y-106528072D01*
X171350000Y-106528072D01*
X171474482Y-106515812D01*
X171594180Y-106479502D01*
X171704494Y-106420537D01*
X171801185Y-106341185D01*
X171880537Y-106244494D01*
X171939502Y-106134180D01*
X171975812Y-106014482D01*
X171988072Y-105890000D01*
X171988072Y-105694326D01*
X172024276Y-105674974D01*
X172140001Y-105580001D01*
X172163802Y-105551000D01*
X172186002Y-105528800D01*
X172215002Y-105505000D01*
X172309975Y-105389275D01*
X172380547Y-105257246D01*
X172424004Y-105113985D01*
X172435001Y-105002332D01*
X172435001Y-105002322D01*
X172438677Y-104965000D01*
X172435001Y-104927677D01*
X172435001Y-100712334D01*
X172438678Y-100675001D01*
X172424004Y-100526015D01*
X172380547Y-100382754D01*
X172309975Y-100250725D01*
X172238800Y-100163998D01*
X172215002Y-100135000D01*
X172186005Y-100111203D01*
X172035000Y-99960198D01*
X172035000Y-99898061D01*
X171995226Y-99698102D01*
X171917205Y-99509744D01*
X171803937Y-99340226D01*
X171659774Y-99196063D01*
X171490256Y-99082795D01*
X171301898Y-99004774D01*
X171101939Y-98965000D01*
X170898061Y-98965000D01*
X170698102Y-99004774D01*
X170509744Y-99082795D01*
X170340226Y-99196063D01*
X170196063Y-99340226D01*
X170082795Y-99509744D01*
X170004774Y-99698102D01*
X169965000Y-99898061D01*
X169965000Y-100101939D01*
X170004774Y-100301898D01*
X170082795Y-100490256D01*
X170196063Y-100659774D01*
X170340226Y-100803937D01*
X170509744Y-100917205D01*
X170698102Y-100995226D01*
X170898061Y-101035000D01*
X170915001Y-101035000D01*
X170915001Y-101074069D01*
X170791111Y-101036487D01*
X170572950Y-101015000D01*
X170427050Y-101015000D01*
X170208889Y-101036487D01*
X169928966Y-101121401D01*
X169670986Y-101259294D01*
X169444866Y-101444866D01*
X169259294Y-101670986D01*
X169230000Y-101725791D01*
X169200706Y-101670986D01*
X169015134Y-101444866D01*
X168789014Y-101259294D01*
X168531034Y-101121401D01*
X168251111Y-101036487D01*
X168032950Y-101015000D01*
X167887050Y-101015000D01*
X167668889Y-101036487D01*
X167594005Y-101059203D01*
X164991471Y-98456670D01*
X165928338Y-97519803D01*
X166051898Y-97495226D01*
X166240256Y-97417205D01*
X166409774Y-97303937D01*
X166453711Y-97260000D01*
X171962678Y-97260000D01*
X172000000Y-97263676D01*
X172037322Y-97260000D01*
X172037333Y-97260000D01*
X172148986Y-97249003D01*
X172292247Y-97205546D01*
X172424276Y-97134974D01*
X172540001Y-97040001D01*
X172563804Y-97010997D01*
X173539802Y-96035000D01*
X173601939Y-96035000D01*
X173801898Y-95995226D01*
X173990256Y-95917205D01*
X174159774Y-95803937D01*
X174303937Y-95659774D01*
X174417205Y-95490256D01*
X174495226Y-95301898D01*
X174535000Y-95101939D01*
X174535000Y-94898061D01*
X174495226Y-94698102D01*
X174417205Y-94509744D01*
X174303937Y-94340226D01*
X174159774Y-94196063D01*
X173990256Y-94082795D01*
X173801898Y-94004774D01*
X173601939Y-93965000D01*
X173398061Y-93965000D01*
X173198102Y-94004774D01*
X173009744Y-94082795D01*
X172840226Y-94196063D01*
X172696063Y-94340226D01*
X172582795Y-94509744D01*
X172504774Y-94698102D01*
X172465000Y-94898061D01*
X172465000Y-94960198D01*
X171685199Y-95740000D01*
X166453711Y-95740000D01*
X166409774Y-95696063D01*
X166240256Y-95582795D01*
X166051898Y-95504774D01*
X165851939Y-95465000D01*
X165648061Y-95465000D01*
X165448102Y-95504774D01*
X165259744Y-95582795D01*
X165090226Y-95696063D01*
X164946063Y-95840226D01*
X164832795Y-96009744D01*
X164754774Y-96198102D01*
X164715000Y-96398061D01*
X164715000Y-96583538D01*
X163860000Y-97438539D01*
X163860000Y-96464801D01*
X166539802Y-93785000D01*
X166601939Y-93785000D01*
X166801898Y-93745226D01*
X166990256Y-93667205D01*
X167159774Y-93553937D01*
X167303937Y-93409774D01*
X167417205Y-93240256D01*
X167495226Y-93051898D01*
X167535000Y-92851939D01*
X167535000Y-92648061D01*
X167495226Y-92448102D01*
X167417205Y-92259744D01*
X167303937Y-92090226D01*
X167159774Y-91946063D01*
X166990256Y-91832795D01*
X166801898Y-91754774D01*
X166601939Y-91715000D01*
X166398061Y-91715000D01*
X166198102Y-91754774D01*
X166009744Y-91832795D01*
X165840226Y-91946063D01*
X165696063Y-92090226D01*
X165582795Y-92259744D01*
X165504774Y-92448102D01*
X165465000Y-92648061D01*
X165465000Y-92710198D01*
X162589003Y-95586196D01*
X162559999Y-95609999D01*
X162528560Y-95648308D01*
X162465026Y-95725724D01*
X162451223Y-95751548D01*
X162394454Y-95857754D01*
X162350997Y-96001015D01*
X162340000Y-96112668D01*
X162340000Y-96112678D01*
X162336324Y-96150000D01*
X162340000Y-96187323D01*
X162340001Y-98696288D01*
X162296063Y-98740226D01*
X162182795Y-98909744D01*
X162104774Y-99098102D01*
X162065000Y-99298061D01*
X162065000Y-99501939D01*
X162104774Y-99701898D01*
X162182795Y-99890256D01*
X162296063Y-100059774D01*
X162440226Y-100203937D01*
X162609744Y-100317205D01*
X162798102Y-100395226D01*
X162998061Y-100435000D01*
X163201939Y-100435000D01*
X163401898Y-100395226D01*
X163590256Y-100317205D01*
X163759774Y-100203937D01*
X163773956Y-100189755D01*
X164761106Y-101176905D01*
X164653080Y-101228359D01*
X164419731Y-101402412D01*
X164224822Y-101618645D01*
X164075843Y-101868748D01*
X163978519Y-102143109D01*
X164099185Y-102372998D01*
X163935000Y-102372998D01*
X163935000Y-102480198D01*
X161260000Y-99805199D01*
X161260000Y-89400000D01*
X169011928Y-89400000D01*
X169011928Y-91100000D01*
X169024188Y-91224482D01*
X169060498Y-91344180D01*
X169119463Y-91454494D01*
X169198815Y-91551185D01*
X169295506Y-91630537D01*
X169405820Y-91689502D01*
X169525518Y-91725812D01*
X169650000Y-91738072D01*
X171350000Y-91738072D01*
X171474482Y-91725812D01*
X171594180Y-91689502D01*
X171704494Y-91630537D01*
X171801185Y-91551185D01*
X171880537Y-91454494D01*
X171939502Y-91344180D01*
X171963966Y-91263534D01*
X172039731Y-91347588D01*
X172273080Y-91521641D01*
X172535901Y-91646825D01*
X172683110Y-91691476D01*
X172913000Y-91570155D01*
X172913000Y-90377000D01*
X173167000Y-90377000D01*
X173167000Y-91570155D01*
X173396890Y-91691476D01*
X173544099Y-91646825D01*
X173806920Y-91521641D01*
X174040269Y-91347588D01*
X174235178Y-91131355D01*
X174384157Y-90881252D01*
X174481481Y-90606891D01*
X174360814Y-90377000D01*
X173167000Y-90377000D01*
X172913000Y-90377000D01*
X172893000Y-90377000D01*
X172893000Y-90123000D01*
X172913000Y-90123000D01*
X172913000Y-88929845D01*
X173167000Y-88929845D01*
X173167000Y-90123000D01*
X174360814Y-90123000D01*
X174481481Y-89893109D01*
X174384157Y-89618748D01*
X174235178Y-89368645D01*
X174040269Y-89152412D01*
X173806920Y-88978359D01*
X173544099Y-88853175D01*
X173396890Y-88808524D01*
X173167000Y-88929845D01*
X172913000Y-88929845D01*
X172683110Y-88808524D01*
X172535901Y-88853175D01*
X172273080Y-88978359D01*
X172039731Y-89152412D01*
X171963966Y-89236466D01*
X171939502Y-89155820D01*
X171880537Y-89045506D01*
X171801185Y-88948815D01*
X171704494Y-88869463D01*
X171594180Y-88810498D01*
X171474482Y-88774188D01*
X171350000Y-88761928D01*
X169650000Y-88761928D01*
X169525518Y-88774188D01*
X169405820Y-88810498D01*
X169295506Y-88869463D01*
X169198815Y-88948815D01*
X169119463Y-89045506D01*
X169060498Y-89155820D01*
X169024188Y-89275518D01*
X169011928Y-89400000D01*
X161260000Y-89400000D01*
X161260000Y-87453711D01*
X161303937Y-87409774D01*
X161417205Y-87240256D01*
X161495226Y-87051898D01*
X161535000Y-86851939D01*
X161535000Y-86784999D01*
X163508983Y-86784999D01*
X163550001Y-86789039D01*
X163591019Y-86784999D01*
X163591020Y-86784999D01*
X163713690Y-86772917D01*
X163871088Y-86725171D01*
X164016147Y-86647635D01*
X164143292Y-86543290D01*
X164169447Y-86511420D01*
X164625980Y-86054887D01*
X164696063Y-86159774D01*
X164840226Y-86303937D01*
X165009744Y-86417205D01*
X165198102Y-86495226D01*
X165398061Y-86535000D01*
X165601939Y-86535000D01*
X165801898Y-86495226D01*
X165990256Y-86417205D01*
X166159774Y-86303937D01*
X166303937Y-86159774D01*
X166417205Y-85990256D01*
X166495226Y-85801898D01*
X166535000Y-85601939D01*
X166535000Y-85539801D01*
X168104646Y-83970156D01*
X168187168Y-84004338D01*
X168387127Y-84044112D01*
X168591005Y-84044112D01*
X168790964Y-84004338D01*
X168979322Y-83926317D01*
X169148840Y-83813049D01*
X169293003Y-83668886D01*
X169406271Y-83499368D01*
X169484292Y-83311010D01*
X169524066Y-83111051D01*
X169524066Y-82907173D01*
X169514685Y-82860010D01*
X169935515Y-82860010D01*
X171897851Y-84582498D01*
X171906709Y-84593291D01*
X171959569Y-84636672D01*
X171979990Y-84654597D01*
X171991265Y-84662685D01*
X172033854Y-84697636D01*
X172057951Y-84710516D01*
X172080153Y-84726441D01*
X172130321Y-84749199D01*
X172178913Y-84775172D01*
X172205063Y-84783105D01*
X172229941Y-84794390D01*
X172283582Y-84806923D01*
X172336311Y-84822918D01*
X172363505Y-84825596D01*
X172390108Y-84831812D01*
X172445166Y-84833639D01*
X172458981Y-84835000D01*
X172486163Y-84835000D01*
X172554498Y-84837268D01*
X172568274Y-84835000D01*
X172595822Y-84835000D01*
X172535901Y-84853175D01*
X172273080Y-84978359D01*
X172039731Y-85152412D01*
X171963966Y-85236466D01*
X171939502Y-85155820D01*
X171880537Y-85045506D01*
X171801185Y-84948815D01*
X171704494Y-84869463D01*
X171594180Y-84810498D01*
X171474482Y-84774188D01*
X171350000Y-84761928D01*
X169650000Y-84761928D01*
X169525518Y-84774188D01*
X169405820Y-84810498D01*
X169295506Y-84869463D01*
X169198815Y-84948815D01*
X169119463Y-85045506D01*
X169060498Y-85155820D01*
X169024188Y-85275518D01*
X169011928Y-85400000D01*
X169011928Y-87100000D01*
X169024188Y-87224482D01*
X169060498Y-87344180D01*
X169119463Y-87454494D01*
X169198815Y-87551185D01*
X169295506Y-87630537D01*
X169405820Y-87689502D01*
X169525518Y-87725812D01*
X169650000Y-87738072D01*
X171350000Y-87738072D01*
X171474482Y-87725812D01*
X171594180Y-87689502D01*
X171704494Y-87630537D01*
X171801185Y-87551185D01*
X171880537Y-87454494D01*
X171939502Y-87344180D01*
X171963966Y-87263534D01*
X172039731Y-87347588D01*
X172273080Y-87521641D01*
X172535901Y-87646825D01*
X172683110Y-87691476D01*
X172913000Y-87570155D01*
X172913000Y-86377000D01*
X173167000Y-86377000D01*
X173167000Y-87570155D01*
X173396890Y-87691476D01*
X173544099Y-87646825D01*
X173806920Y-87521641D01*
X174040269Y-87347588D01*
X174235178Y-87131355D01*
X174384157Y-86881252D01*
X174481481Y-86606891D01*
X174360814Y-86377000D01*
X173167000Y-86377000D01*
X172913000Y-86377000D01*
X172893000Y-86377000D01*
X172893000Y-86123000D01*
X172913000Y-86123000D01*
X172913000Y-86103000D01*
X173167000Y-86103000D01*
X173167000Y-86123000D01*
X174360814Y-86123000D01*
X174481481Y-85893109D01*
X174384157Y-85618748D01*
X174235178Y-85368645D01*
X174040269Y-85152412D01*
X173806920Y-84978359D01*
X173544099Y-84853175D01*
X173484178Y-84835000D01*
X174458982Y-84835000D01*
X174500000Y-84839040D01*
X174541018Y-84835000D01*
X174541019Y-84835000D01*
X174663689Y-84822918D01*
X174821087Y-84775172D01*
X174966146Y-84697636D01*
X175093291Y-84593291D01*
X175119445Y-84561422D01*
X175561427Y-84119441D01*
X175593291Y-84093291D01*
X175697636Y-83966146D01*
X175775172Y-83821087D01*
X175815000Y-83689790D01*
X175815001Y-110315000D01*
X131185000Y-110315000D01*
X131185000Y-102802794D01*
X133961790Y-102802794D01*
X133963154Y-102927871D01*
X133988894Y-103050278D01*
X134038019Y-103165311D01*
X134108642Y-103268551D01*
X137682541Y-107527758D01*
X137771949Y-107615235D01*
X137876704Y-107683590D01*
X137992782Y-107730194D01*
X138115721Y-107753257D01*
X138240798Y-107751893D01*
X138363205Y-107726153D01*
X138478238Y-107677028D01*
X138581478Y-107606405D01*
X140019215Y-106400000D01*
X149221928Y-106400000D01*
X149221928Y-108100000D01*
X149234188Y-108224482D01*
X149270498Y-108344180D01*
X149329463Y-108454494D01*
X149408815Y-108551185D01*
X149505506Y-108630537D01*
X149615820Y-108689502D01*
X149735518Y-108725812D01*
X149860000Y-108738072D01*
X151560000Y-108738072D01*
X151684482Y-108725812D01*
X151804180Y-108689502D01*
X151914494Y-108630537D01*
X152011185Y-108551185D01*
X152090537Y-108454494D01*
X152149502Y-108344180D01*
X152172498Y-108268374D01*
X152368645Y-108445178D01*
X152618748Y-108594157D01*
X152893109Y-108691481D01*
X153123000Y-108570814D01*
X153123000Y-107377000D01*
X153377000Y-107377000D01*
X153377000Y-108570814D01*
X153606891Y-108691481D01*
X153881252Y-108594157D01*
X154131355Y-108445178D01*
X154347588Y-108250269D01*
X154521641Y-108016920D01*
X154646825Y-107754099D01*
X154691476Y-107606890D01*
X154570155Y-107377000D01*
X153377000Y-107377000D01*
X153123000Y-107377000D01*
X153103000Y-107377000D01*
X153103000Y-107123000D01*
X153123000Y-107123000D01*
X153123000Y-105929186D01*
X153377000Y-105929186D01*
X153377000Y-107123000D01*
X154570155Y-107123000D01*
X154691476Y-106893110D01*
X154646825Y-106745901D01*
X154521641Y-106483080D01*
X154347588Y-106249731D01*
X154131355Y-106054822D01*
X153881252Y-105905843D01*
X153606891Y-105808519D01*
X153377000Y-105929186D01*
X153123000Y-105929186D01*
X152893109Y-105808519D01*
X152618748Y-105905843D01*
X152368645Y-106054822D01*
X152172498Y-106231626D01*
X152149502Y-106155820D01*
X152090537Y-106045506D01*
X152011185Y-105948815D01*
X151914494Y-105869463D01*
X151804180Y-105810498D01*
X151684482Y-105774188D01*
X151560000Y-105761928D01*
X149860000Y-105761928D01*
X149735518Y-105774188D01*
X149615820Y-105810498D01*
X149505506Y-105869463D01*
X149408815Y-105948815D01*
X149329463Y-106045506D01*
X149270498Y-106155820D01*
X149234188Y-106275518D01*
X149221928Y-106400000D01*
X140019215Y-106400000D01*
X140573193Y-105935158D01*
X140660670Y-105845750D01*
X140729025Y-105740995D01*
X140775629Y-105624917D01*
X140798692Y-105501978D01*
X140797328Y-105376901D01*
X140771588Y-105254494D01*
X140722463Y-105139461D01*
X140651840Y-105036221D01*
X137077941Y-100777014D01*
X136988533Y-100689537D01*
X136883778Y-100621182D01*
X136767700Y-100574578D01*
X136644761Y-100551515D01*
X136519684Y-100552879D01*
X136397277Y-100578619D01*
X136282244Y-100627744D01*
X136179004Y-100698367D01*
X134187289Y-102369614D01*
X134099812Y-102459022D01*
X134031457Y-102563777D01*
X133984853Y-102679855D01*
X133961790Y-102802794D01*
X131185000Y-102802794D01*
X131185000Y-99698218D01*
X143133061Y-99698218D01*
X144733980Y-101610899D01*
X144823387Y-101698377D01*
X144928143Y-101766731D01*
X145044221Y-101813335D01*
X145167160Y-101836398D01*
X145292236Y-101835033D01*
X145414644Y-101809295D01*
X145529677Y-101760169D01*
X145632917Y-101689546D01*
X148476222Y-99299718D01*
X148495790Y-99076066D01*
X146484346Y-96678922D01*
X143152628Y-99474566D01*
X143133061Y-99698218D01*
X131185000Y-99698218D01*
X131185000Y-96885935D01*
X141013229Y-96885935D01*
X141014593Y-97011011D01*
X141040332Y-97133419D01*
X141089457Y-97248452D01*
X141160081Y-97351692D01*
X142765707Y-99260423D01*
X142989360Y-99279990D01*
X146283766Y-96515654D01*
X146678922Y-96515654D01*
X148690365Y-98912798D01*
X148914017Y-98932365D01*
X151761272Y-96547245D01*
X151848750Y-96457837D01*
X151917105Y-96353082D01*
X151963708Y-96237004D01*
X151986771Y-96114065D01*
X151985407Y-95988989D01*
X151959668Y-95866581D01*
X151910543Y-95751548D01*
X151839919Y-95648308D01*
X150234293Y-93739577D01*
X150010640Y-93720010D01*
X146678922Y-96515654D01*
X146283766Y-96515654D01*
X146321078Y-96484346D01*
X144309635Y-94087202D01*
X144085983Y-94067635D01*
X141238728Y-96452755D01*
X141151250Y-96542163D01*
X141082895Y-96646918D01*
X141036292Y-96762996D01*
X141013229Y-96885935D01*
X131185000Y-96885935D01*
X131185000Y-93923934D01*
X144504210Y-93923934D01*
X146515654Y-96321078D01*
X149847372Y-93525434D01*
X149866939Y-93301782D01*
X148266020Y-91389101D01*
X148176613Y-91301623D01*
X148071857Y-91233269D01*
X147955779Y-91186665D01*
X147832840Y-91163602D01*
X147707764Y-91164967D01*
X147585356Y-91190705D01*
X147470323Y-91239831D01*
X147367083Y-91310454D01*
X144523778Y-93700282D01*
X144504210Y-93923934D01*
X131185000Y-93923934D01*
X131185000Y-93548201D01*
X131197163Y-93560521D01*
X131394620Y-93694294D01*
X131614381Y-93786974D01*
X131848000Y-93835000D01*
X132173000Y-93835000D01*
X132173000Y-92752000D01*
X132427000Y-92752000D01*
X132427000Y-93835000D01*
X132752000Y-93835000D01*
X132985619Y-93786974D01*
X133205380Y-93694294D01*
X133402837Y-93560521D01*
X133570402Y-93390797D01*
X133701636Y-93191644D01*
X133791496Y-92970715D01*
X133793635Y-92938677D01*
X133708927Y-92812258D01*
X134507481Y-92812258D01*
X134519922Y-92878117D01*
X134623643Y-93124979D01*
X134773531Y-93346863D01*
X134963827Y-93535242D01*
X135187217Y-93682876D01*
X135435117Y-93784092D01*
X135698000Y-93835000D01*
X135973000Y-93835000D01*
X135973000Y-92602000D01*
X136227000Y-92602000D01*
X136227000Y-93835000D01*
X136502000Y-93835000D01*
X136764883Y-93784092D01*
X137012783Y-93682876D01*
X137236173Y-93535242D01*
X137426469Y-93346863D01*
X137576357Y-93124979D01*
X137680078Y-92878117D01*
X137692519Y-92812258D01*
X137569518Y-92602000D01*
X136227000Y-92602000D01*
X135973000Y-92602000D01*
X134630482Y-92602000D01*
X134507481Y-92812258D01*
X133708927Y-92812258D01*
X133668550Y-92752000D01*
X132427000Y-92752000D01*
X132173000Y-92752000D01*
X132153000Y-92752000D01*
X132153000Y-92498000D01*
X132173000Y-92498000D01*
X132173000Y-91415000D01*
X132427000Y-91415000D01*
X132427000Y-92498000D01*
X133668550Y-92498000D01*
X133793635Y-92311323D01*
X133791496Y-92279285D01*
X133701636Y-92058356D01*
X133570402Y-91859203D01*
X133402837Y-91689479D01*
X133205380Y-91555706D01*
X132985619Y-91463026D01*
X132752000Y-91415000D01*
X132427000Y-91415000D01*
X132173000Y-91415000D01*
X131848000Y-91415000D01*
X131614381Y-91463026D01*
X131394620Y-91555706D01*
X131197163Y-91689479D01*
X131185000Y-91701799D01*
X131185000Y-91250000D01*
X134009993Y-91250000D01*
X134029976Y-91452895D01*
X134089159Y-91647993D01*
X134185266Y-91827797D01*
X134314604Y-91985396D01*
X134472203Y-92114734D01*
X134508193Y-92133971D01*
X134507481Y-92137742D01*
X134630482Y-92348000D01*
X135973000Y-92348000D01*
X135973000Y-91718789D01*
X136010841Y-91647993D01*
X136070024Y-91452895D01*
X136090007Y-91250000D01*
X136076711Y-91115000D01*
X136227000Y-91115000D01*
X136227000Y-92348000D01*
X137569518Y-92348000D01*
X137692519Y-92137742D01*
X137680078Y-92071883D01*
X137576357Y-91825021D01*
X137426469Y-91603137D01*
X137236173Y-91414758D01*
X137012783Y-91267124D01*
X136764883Y-91165908D01*
X136502000Y-91115000D01*
X136227000Y-91115000D01*
X136076711Y-91115000D01*
X136070024Y-91047105D01*
X136010841Y-90852007D01*
X135914734Y-90672203D01*
X135785396Y-90514604D01*
X135627797Y-90385266D01*
X135447993Y-90289159D01*
X135252895Y-90229976D01*
X135100838Y-90215000D01*
X134999162Y-90215000D01*
X134847105Y-90229976D01*
X134652007Y-90289159D01*
X134472203Y-90385266D01*
X134314604Y-90514604D01*
X134185266Y-90672203D01*
X134089159Y-90852007D01*
X134029976Y-91047105D01*
X134009993Y-91250000D01*
X131185000Y-91250000D01*
X131185000Y-86250000D01*
X134009993Y-86250000D01*
X134029976Y-86452895D01*
X134089159Y-86647993D01*
X134185266Y-86827797D01*
X134314604Y-86985396D01*
X134472203Y-87114734D01*
X134652007Y-87210841D01*
X134847105Y-87270024D01*
X134999162Y-87285000D01*
X135100838Y-87285000D01*
X135252895Y-87270024D01*
X135447993Y-87210841D01*
X135627797Y-87114734D01*
X135785396Y-86985396D01*
X135914734Y-86827797D01*
X136010841Y-86647993D01*
X136070024Y-86452895D01*
X136090007Y-86250000D01*
X136070024Y-86047105D01*
X136010841Y-85852007D01*
X135973000Y-85781211D01*
X135973000Y-85152000D01*
X136227000Y-85152000D01*
X136227000Y-86385000D01*
X136502000Y-86385000D01*
X136764883Y-86334092D01*
X137012783Y-86232876D01*
X137236173Y-86085242D01*
X137426469Y-85896863D01*
X137576357Y-85674979D01*
X137680078Y-85428117D01*
X137692519Y-85362258D01*
X137569518Y-85152000D01*
X136227000Y-85152000D01*
X135973000Y-85152000D01*
X134630482Y-85152000D01*
X134507481Y-85362258D01*
X134508193Y-85366029D01*
X134472203Y-85385266D01*
X134314604Y-85514604D01*
X134185266Y-85672203D01*
X134089159Y-85852007D01*
X134029976Y-86047105D01*
X134009993Y-86250000D01*
X131185000Y-86250000D01*
X131185000Y-85798201D01*
X131197163Y-85810521D01*
X131394620Y-85944294D01*
X131614381Y-86036974D01*
X131848000Y-86085000D01*
X132173000Y-86085000D01*
X132173000Y-85002000D01*
X132427000Y-85002000D01*
X132427000Y-86085000D01*
X132752000Y-86085000D01*
X132985619Y-86036974D01*
X133205380Y-85944294D01*
X133402837Y-85810521D01*
X133570402Y-85640797D01*
X133701636Y-85441644D01*
X133791496Y-85220715D01*
X133793635Y-85188677D01*
X133668550Y-85002000D01*
X132427000Y-85002000D01*
X132173000Y-85002000D01*
X132153000Y-85002000D01*
X132153000Y-84748000D01*
X132173000Y-84748000D01*
X132173000Y-83665000D01*
X132427000Y-83665000D01*
X132427000Y-84748000D01*
X133668550Y-84748000D01*
X133708926Y-84687742D01*
X134507481Y-84687742D01*
X134630482Y-84898000D01*
X135973000Y-84898000D01*
X135973000Y-83665000D01*
X136227000Y-83665000D01*
X136227000Y-84898000D01*
X137569518Y-84898000D01*
X137692519Y-84687742D01*
X137680078Y-84621883D01*
X137576357Y-84375021D01*
X137426469Y-84153137D01*
X137236173Y-83964758D01*
X137012783Y-83817124D01*
X136764883Y-83715908D01*
X136502000Y-83665000D01*
X136227000Y-83665000D01*
X135973000Y-83665000D01*
X135698000Y-83665000D01*
X135435117Y-83715908D01*
X135187217Y-83817124D01*
X134963827Y-83964758D01*
X134773531Y-84153137D01*
X134623643Y-84375021D01*
X134519922Y-84621883D01*
X134507481Y-84687742D01*
X133708926Y-84687742D01*
X133793635Y-84561323D01*
X133791496Y-84529285D01*
X133701636Y-84308356D01*
X133570402Y-84109203D01*
X133402837Y-83939479D01*
X133205380Y-83805706D01*
X132985619Y-83713026D01*
X132752000Y-83665000D01*
X132427000Y-83665000D01*
X132173000Y-83665000D01*
X131848000Y-83665000D01*
X131614381Y-83713026D01*
X131394620Y-83805706D01*
X131197163Y-83939479D01*
X131185000Y-83951799D01*
X131185000Y-80138212D01*
X139615000Y-80138212D01*
X139615000Y-80361788D01*
X139658617Y-80581067D01*
X139744176Y-80787624D01*
X139868388Y-80973520D01*
X139994868Y-81100000D01*
X139868388Y-81226480D01*
X139744176Y-81412376D01*
X139658617Y-81618933D01*
X139615000Y-81838212D01*
X139615000Y-82061788D01*
X139658617Y-82281067D01*
X139744176Y-82487624D01*
X139868388Y-82673520D01*
X140026480Y-82831612D01*
X140212376Y-82955824D01*
X140418933Y-83041383D01*
X140638212Y-83085000D01*
X140861788Y-83085000D01*
X141081067Y-83041383D01*
X141287624Y-82955824D01*
X141473520Y-82831612D01*
X141631612Y-82673520D01*
X141755824Y-82487624D01*
X141841383Y-82281067D01*
X141885000Y-82061788D01*
X141885000Y-81838212D01*
X141841383Y-81618933D01*
X141755824Y-81412376D01*
X141631612Y-81226480D01*
X141505132Y-81100000D01*
X141631612Y-80973520D01*
X141755824Y-80787624D01*
X141841383Y-80581067D01*
X141885000Y-80361788D01*
X141885000Y-80138212D01*
X141841383Y-79918933D01*
X141755824Y-79712376D01*
X141631612Y-79526480D01*
X141473520Y-79368388D01*
X141287624Y-79244176D01*
X141081067Y-79158617D01*
X140861788Y-79115000D01*
X140638212Y-79115000D01*
X140418933Y-79158617D01*
X140212376Y-79244176D01*
X140026480Y-79368388D01*
X139868388Y-79526480D01*
X139744176Y-79712376D01*
X139658617Y-79918933D01*
X139615000Y-80138212D01*
X131185000Y-80138212D01*
X131185000Y-74041000D01*
X131699000Y-74041000D01*
X131699000Y-78740000D01*
X131701440Y-78764776D01*
X131708667Y-78788601D01*
X131720403Y-78810557D01*
X131736197Y-78829803D01*
X131755443Y-78845597D01*
X131777399Y-78857333D01*
X131801224Y-78864560D01*
X131826000Y-78867000D01*
X140843000Y-78867000D01*
X140867776Y-78864560D01*
X140891601Y-78857333D01*
X140913557Y-78845597D01*
X140932803Y-78829803D01*
X140948597Y-78810557D01*
X140960333Y-78788601D01*
X140967560Y-78764776D01*
X140970000Y-78740000D01*
X140970000Y-74041000D01*
X140967560Y-74016224D01*
X140960333Y-73992399D01*
X140948597Y-73970443D01*
X140932803Y-73951197D01*
X140913557Y-73935403D01*
X140891601Y-73923667D01*
X140867776Y-73916440D01*
X140843000Y-73914000D01*
X136155136Y-73914000D01*
X136146363Y-73906800D01*
X136023020Y-73840872D01*
X135889184Y-73800273D01*
X135784877Y-73790000D01*
X135784875Y-73790000D01*
X135750000Y-73786565D01*
X135715125Y-73790000D01*
X134284877Y-73790000D01*
X134250000Y-73786565D01*
X134215123Y-73790000D01*
X134110816Y-73800273D01*
X133976980Y-73840872D01*
X133853637Y-73906800D01*
X133844864Y-73914000D01*
X131826000Y-73914000D01*
X131801224Y-73916440D01*
X131777399Y-73923667D01*
X131755443Y-73935403D01*
X131736197Y-73951197D01*
X131720403Y-73970443D01*
X131708667Y-73992399D01*
X131701440Y-74016224D01*
X131699000Y-74041000D01*
X131185000Y-74041000D01*
X131185000Y-73685000D01*
X175815000Y-73685000D01*
X175815000Y-81060209D01*
G36*
X165547000Y-102373000D02*
G01*
X165567000Y-102373000D01*
X165567000Y-102627000D01*
X165547000Y-102627000D01*
X165547000Y-102647000D01*
X165293000Y-102647000D01*
X165293000Y-102627000D01*
X165273000Y-102627000D01*
X165273000Y-102373000D01*
X165293000Y-102373000D01*
X165293000Y-102353000D01*
X165547000Y-102353000D01*
X165547000Y-102373000D01*
X165547000Y-102373000D01*
G37*
X165547000Y-102373000D02*
X165567000Y-102373000D01*
X165567000Y-102627000D01*
X165547000Y-102627000D01*
X165547000Y-102647000D01*
X165293000Y-102647000D01*
X165293000Y-102627000D01*
X165273000Y-102627000D01*
X165273000Y-102373000D01*
X165293000Y-102373000D01*
X165293000Y-102353000D01*
X165547000Y-102353000D01*
X165547000Y-102373000D01*
G36*
X151337000Y-84373000D02*
G01*
X151357000Y-84373000D01*
X151357000Y-84627000D01*
X151337000Y-84627000D01*
X151337000Y-84647000D01*
X151083000Y-84647000D01*
X151083000Y-84627000D01*
X151063000Y-84627000D01*
X151063000Y-84373000D01*
X151083000Y-84373000D01*
X151083000Y-84353000D01*
X151337000Y-84353000D01*
X151337000Y-84373000D01*
X151337000Y-84373000D01*
G37*
X151337000Y-84373000D02*
X151357000Y-84373000D01*
X151357000Y-84627000D01*
X151337000Y-84627000D01*
X151337000Y-84647000D01*
X151083000Y-84647000D01*
X151083000Y-84627000D01*
X151063000Y-84627000D01*
X151063000Y-84373000D01*
X151083000Y-84373000D01*
X151083000Y-84353000D01*
X151337000Y-84353000D01*
X151337000Y-84373000D01*
M02*
