M48
; DRILL file {KiCad (5.1.4-0-10_14)} date Monday, September 02, 2019 at 10:38:11 pm
; FORMAT={-:-/ absolute / inch / decimal}
; #@! TF.CreationDate,2019-09-02T22:38:11-04:00
; #@! TF.GenerationSoftware,Kicad,Pcbnew,(5.1.4-0-10_14)
; #@! TF.FileFunction,Plated,1,2,PTH
FMAT,2
INCH
T1C0.0118
T2C0.0157
T3C0.0197
T4C0.0217
T5C0.0335
T6C0.0354
T7C0.0394
%
G90
G05
T1
X5.23Y-3.165
X5.23Y-3.195
T2
X5.23Y-3.13
X5.6919Y-3.2579
X5.8563Y-3.0217
X5.8661Y-3.0906
X5.8858Y-3.248
X5.8858Y-3.3071
X6.0531Y-3.0512
X6.1319Y-3.2087
X6.1516Y-3.0217
X6.2739Y-3.5194
X6.2792Y-3.8871
X6.3189Y-3.4154
X6.3802Y-3.3249
X6.3976Y-3.2283
X6.4213Y-3.9134
X6.4469Y-3.1004
X6.4469Y-3.5236
X6.4498Y-3.8799
X6.5157Y-3.3071
X6.5157Y-3.3661
X6.5256Y-3.7992
X6.5551Y-3.6516
X6.6334Y-3.2681
X6.7323Y-3.937
X6.752Y-3.2087
X6.7933Y-3.2569
X6.8307Y-3.7402
X6.8504Y-3.1594
T3
X5.5413Y-3.1594
X5.5413Y-3.2264
T6
X5.9531Y-3.1398
X6.0531Y-3.1398
X5.9531Y-3.3268
X6.0531Y-3.3268
T7
X6.6339Y-3.002
X6.7339Y-3.002
X5.9335Y-4.2224
X6.0335Y-4.2224
X6.5126Y-4.0354
X6.5126Y-4.1354
X6.6126Y-4.0354
X6.6126Y-4.1354
X6.7126Y-4.0354
X6.7126Y-4.1354
X6.7126Y-3.3957
X6.8126Y-3.3957
X6.7126Y-3.5531
X6.8126Y-3.5531
T4
G00X5.2215Y-3.3415
M15
G01X5.1959Y-3.3415
M16
G05
G00X5.2215Y-3.6467
M15
G01X5.1959Y-3.6467
M16
G05
T5
G00X5.3691Y-3.3474
M15
G01X5.3474Y-3.3474
M16
G05
G00X5.3691Y-3.6407
M15
G01X5.3474Y-3.6407
M16
G05
T0
M30
